<?xml version="1.0" encoding="utf-8"?>
<!-- Generator: Adobe Illustrator 16.0.0, SVG Export Plug-In . SVG Version: 6.00 Build 0)  -->
<!DOCTYPE svg PUBLIC "-//W3C//DTD SVG 1.1//EN" "http://www.w3.org/Graphics/SVG/1.1/DTD/svg11.dtd">
<svg version="1.1" id="Capa_1" xmlns="http://www.w3.org/2000/svg" xmlns:xlink="http://www.w3.org/1999/xlink" x="0px" y="0px"
	 width="383px" height="383px" viewBox="306.83 -32.409 383 383" enable-background="new 306.83 -32.409 383 383"
	 xml:space="preserve">
<circle fill="#241E60" cx="498.33" cy="159.091" r="191.5"/>
<g>
	<path fill="#FFFFFF" d="M422.836,252.49c0,0-0.197,4.963,4.651,4.963c6.032,0,55.97-0.065,55.97-0.065l0.082-45.861
		c0,0-0.789-7.561,6.55-7.561h23.222c8.679,0,8.144,7.561,8.144,7.561l-0.099,45.714c0,0,47.349,0,54.786,0
		c6.154,0,5.876-6.18,5.876-6.18v-84.55l-77.213-68.682l-81.968,68.682V252.49z"/>
	<path fill="#FFFFFF" d="M392.646,160.117c0,0,6.96,12.828,22.138,0l90.705-76.734l85.041,76.258c17.569,12.672,24.152,0,24.152,0
		L505.488,60.728L392.646,160.117z"/>
	<polygon fill="#FFFFFF" points="588.468,83.202 566.593,83.202 566.684,109.729 588.468,128.209 	"/>
</g>
</svg>
