<svg id="Capa_1" enable-background="new 0 0 511.598 511.598" height="512" viewBox="0 0 511.598 511.598" width="512" xmlns="http://www.w3.org/2000/svg"><g><g fill="#fedf30"><path d="m343.916 119.228 10.611-14.412c12.42-16.869 18.784-37.435 18.063-58.37l-.02-.594c-21.053 5.234-39.615 17.66-52.478 35.13l-4.042 5.49-47.125 47.973 42.077 22.13z"/><path d="m312.932 95.965 5.577-16.981c6.536-19.902 6.166-41.427-1.052-61.092l-.205-.558c-18.369 11.542-32.127 29.14-38.896 49.75l-2.127 6.477-20.93 45.666 35.473 17.47z"/><path d="m276.23 83.56v-17.88c0-20.948-7.069-41.283-20.062-57.714l-.369-.466c-13.85 16.697-21.43 37.709-21.43 59.403l-4.744 54.018 45.203 4.255z"/><path d="m239.414 82.949-5.31-17.076c-6.22-20.003-19.008-37.322-36.294-49.154l-.49-.336c-8.268 20.057-9.267 42.372-2.825 63.088l2.024 6.51 16.48 46.071 37.231-13.784z"/><path d="m202.31 94.114-10.363-14.553c-12.151-17.063-29.704-29.527-49.819-35.375l-.571-.166c-1.596 21.635 4.417 43.148 17.001 60.819l3.954 5.553 25.617 44.253 41.494-25.516z"/><path d="m170.578 116.332-14.412-10.611c-16.869-12.42-37.435-18.784-58.37-18.063l-.594.02c5.234 21.053 17.66 39.615 35.13 52.478l4.961 3.653 45.44 25.94 16.188-37.105z"/><path d="m193.8 158.55-6.763 41.97-69.689-18.994c-20.142-6.891-37.325-20.487-48.663-38.532l.558-.205c19.665-7.218 41.19-7.588 61.092-1.052l16.981 5.577z"/><path d="m125.214 223.659h-6.96c-21.694 0-42.706-7.58-59.403-21.43l.466-.369c16.431-12.993 36.766-20.062 57.714-20.062h18.272l45.146-3.016v44.449z"/><path d="m137.331 263.729-6.51 2.024c-20.716 6.442-43.031 5.442-63.088-2.825l.336-.49c11.832-17.286 29.151-30.074 49.154-36.294l17.076-5.31 50.609-14.218 16.392 46.402z"/><path d="m161.743 297.735-5.553 3.954c-17.671 12.584-39.184 18.597-60.819 17.001l.166-.571c5.847-20.115 18.311-37.668 35.375-49.819l14.553-10.363 45.472-25.565 26.72 43.285z"/><path d="m195.548 322.426-4.042 5.49c-12.862 17.47-31.425 29.896-52.478 35.13l-.02-.594c-.721-20.935 5.643-41.501 18.063-58.37l10.611-14.412 28.452-31.498 31.899 20.766z"/><path d="m235.369 335.336-2.127 6.477c-6.769 20.611-20.528 38.208-38.896 49.75l-.205-.558c-7.218-19.665-7.588-41.19-1.052-61.092l5.577-16.981 13.801-37.853 41.303 15.558z"/><path d="m277.23 341.993c0 21.694-7.58 42.706-21.43 59.403l-.369-.466c-12.993-16.431-20.062-36.766-20.062-57.714v-17.88-34.701h41.861z"/><path d="m315.08 322.917 2.024 6.51c6.442 20.716 5.442 43.031-2.825 63.088l-.49-.336c-17.286-11.832-30.074-29.151-36.294-49.154l-5.31-17.076-8.665-30.734 41.838-16.276z"/><path d="m349.086 298.505 3.954 5.553c12.584 17.671 18.597 39.184 17.001 60.819l-.571-.166c-20.115-5.847-37.668-18.311-49.819-35.375l-10.363-14.553-17.777-30.866 32.056-18.301z"/><path d="m373.777 264.7 5.49 4.042c17.47 12.862 29.896 31.425 35.13 52.478l-.594.021c-20.935.721-41.501-5.643-58.37-18.063l-14.412-10.611-36.447-35.861 27.95-24.035z"/><path d="m364.283 261.582 16.981 5.577c19.902 6.536 41.427 6.166 61.092-1.052l.558-.205c-11.542-18.369-29.14-32.127-49.75-38.896l-6.477-2.127-38.297-13.396-21.179 44.181z"/><path d="m376.688 224.879h17.88c20.948 0 41.283-7.069 57.714-20.062l.466-.369c-16.697-13.85-37.709-21.431-59.403-21.431 0 0-54.499-1.719-54.499-2.189s0 44.955 0 44.955z"/><path d="m377.299 188.063 17.076-5.31c20.003-6.22 37.322-19.008 49.154-36.294l.336-.49c-20.057-8.268-42.372-9.267-63.088-2.825l-6.51 2.024s-57.777 12.281-56.469 12.281 10.762 42.499 10.762 42.499z"/><path d="m366.134 150.96 14.558-10.367c17.062-12.15 29.524-29.702 35.369-49.816.085-.292-.123-.592-.427-.612-21.435-1.444-42.716 4.574-60.226 17.043l-5.553 3.954-39.556 29.845 19.877 27.298z"/></g><path d="m288.747 482.847h-32.948v-20.973c0-19.738 16.001-35.739 35.739-35.739h29.873c1.698 0 3.075 1.377 3.075 3.075v17.898c0 19.738-16.001 35.739-35.739 35.739z" fill="#97da7b"/><path d="m222.851 482.847h32.948v-20.973c0-19.738-16.001-35.739-35.739-35.739h-29.873c-1.698 0-3.075 1.377-3.075 3.075v17.898c.001 19.738 16.001 35.739 35.739 35.739z" fill="#97da7b"/><path d="m255.799 81.854c67.71 0 122.59 54.89 122.59 122.59 0 67.71-54.88 122.6-122.59 122.6s-122.59-54.89-122.59-122.6c0-67.7 54.88-122.59 122.59-122.59z" fill="#fed402"/><path d="m176.922 204.444c0-60.241 43.454-110.337 100.734-120.646-7.092-1.276-14.396-1.944-21.856-1.944-67.71 0-122.59 54.89-122.59 122.59 0 67.71 54.88 122.6 122.59 122.6 7.46 0 14.764-.668 21.856-1.944-57.281-10.309-100.734-60.406-100.734-120.656z" fill="#fac600"/><circle cx="255.799" cy="204.449" fill="#d77f4a" r="92.593"/><path d="m181.223 259.256c.136.185.268.374.406.558l.019-.007c4.994 6.434 13.484 14.609 19.652 19.461.902.71 1.8 1.379 2.697 2.032-16.936-21.024-27.075-47.755-27.075-76.856 0-29.083 10.13-55.799 27.051-76.818-.891.646-1.782 1.309-2.674 2.012l-2.63 1.996c-6.42 5.04-12.786 11.77-17.676 18.31-8.03 10.73-13.154 22.38-15.924 35.97-1.22 5.99-1.86 12.19-1.86 18.53 0 6.35.64 12.55 1.86 18.54 2.703 13.259 8.258 25.486 15.984 36.039h-.01c.058.076.122.156.18.233z" fill="#c86d36"/><g><path d="m255.799 104.356c-55.191 0-100.093 44.902-100.093 100.093s44.901 100.093 100.093 100.093 100.093-44.901 100.093-100.093-44.901-100.093-100.093-100.093zm70.889 147.092h-8.89v-21.333h19.129c-2.419 7.632-5.891 14.797-10.239 21.333zm-141.778-93.999h8.89v21.333h-19.129c2.42-7.632 5.891-14.797 10.239-21.333zm141.778 0c4.348 6.536 7.819 13.702 10.239 21.333h-19.129v-21.333zm-23.889-15h-21.333v-19.129c7.631 2.42 14.797 5.891 21.333 10.239zm0 15v21.333h-21.333v-21.333zm-57.666 36.333h21.333v21.333h-21.333zm-15 21.333h-21.333v-21.333h21.333zm51.333-21.333h21.333v21.333h-21.333zm-15-15h-21.333v-21.333h21.333zm-36.333 0h-21.333v-21.333h21.333zm-21.333-36.333v-8.89c6.536-4.348 13.702-7.819 21.333-10.239v19.129zm-15 51.333v21.333h-22.401c-.44-3.497-.692-7.052-.692-10.667s.253-7.17.692-10.667h22.401zm0 36.333v21.333h-8.89c-4.348-6.536-7.819-13.702-10.239-21.333zm15 36.333h21.333v19.129c-7.631-2.42-14.797-5.891-21.333-10.239zm0-15v-21.333h21.333v21.333zm36.333-21.333h21.333v21.333h-21.333zm36.333 0h21.333v21.333h-21.333zm21.333 36.333v8.89c-6.536 4.348-13.702 7.819-21.333 10.239v-19.129zm15-51.333v-21.333h22.401c.44 3.497.692 7.052.692 10.667s-.253 7.169-.692 10.667h-22.401zm-51.333-95.067v22.401h-21.333v-22.401c3.497-.44 7.052-.692 10.667-.692s7.168.252 10.666.692zm-21.333 168.801v-22.401h21.333v22.401c-3.497.44-7.052.692-10.667.692s-7.169-.252-10.666-.692z"/><path d="m457.535 198.676c-11.03-9.149-23.864-15.766-37.527-19.53 11.688-7.313 21.866-16.991 29.71-28.451l.335-.49c1.278-1.867 1.644-4.211.998-6.379s-2.237-3.928-4.329-4.791c-14.3-5.894-29.729-8.343-45-7.332 9.914-11.136 17.351-24.419 21.542-38.836l.166-.57c.631-2.172.247-4.513-1.044-6.371-1.291-1.857-3.351-3.033-5.606-3.199-15.427-1.137-30.849 1.351-45.042 7.076 5.945-13.673 8.865-28.613 8.349-43.616l-.021-.594c-.078-2.261-1.173-4.366-2.979-5.729-1.807-1.363-4.13-1.838-6.326-1.291-15.01 3.732-28.887 10.908-40.585 20.776 1.381-14.845-.505-29.95-5.678-44.041l-.205-.558c-.779-2.124-2.476-3.783-4.617-4.514-2.142-.731-4.499-.457-6.414.747-13.096 8.229-24.04 19.377-32.076 32.403-3.32-14.535-9.826-28.297-19.136-40.071l-.369-.466c-1.403-1.775-3.533-2.822-5.795-2.848-2.271-.039-4.416.97-5.86 2.711-9.149 11.03-15.766 23.863-19.53 37.526-7.313-11.687-16.99-21.864-28.447-29.706l-.49-.336c-1.867-1.278-4.212-1.646-6.381-1.001-2.169.646-3.93 2.237-4.793 4.33-5.895 14.3-8.343 29.729-7.332 45-11.135-9.914-24.417-17.35-38.831-21.54l-.571-.166c-2.174-.632-4.515-.249-6.373 1.042-1.859 1.291-3.035 3.352-3.201 5.608-.478 6.471-.309 13.088.5 19.668.505 4.111 4.248 7.032 8.359 6.528 4.111-.505 7.034-4.248 6.528-8.359-.279-2.266-.468-4.536-.569-6.798 14.742 6.126 27.64 16.342 36.941 29.403l4.596 6.454c.009.013.018.026.027.039l.798 1.121c-7.564 4.34-14.649 9.421-21.163 15.138l-2.169-1.597-3.259-4.576c-2.423-3.402-4.652-7.104-6.625-11-1.87-3.696-6.385-5.175-10.079-3.304-1.665.843-2.875 2.224-3.536 3.822-14.545-6.95-30.685-10.404-46.89-9.845l-.594.021c-2.261.078-4.366 1.173-5.729 2.979-1.362 1.806-1.837 4.13-1.291 6.326 3.731 15.01 10.908 28.886 20.776 40.584-14.845-1.382-29.95.505-44.042 5.678l-.558.205c-2.124.779-3.783 2.476-4.514 4.617s-.457 4.498.747 6.414c7.674 12.213 17.908 22.588 29.842 30.458-13.59 3.478-26.429 9.771-37.51 18.534l-.466.369c-1.775 1.403-2.822 3.533-2.848 5.795s.97 4.416 2.711 5.861c11.723 9.724 25.485 16.581 40.113 20.197-12.773 7.472-23.881 17.709-32.298 30.007l-.335.491c-1.276 1.867-1.642 4.21-.995 6.378.647 2.167 2.237 3.927 4.328 4.789 12.223 5.038 25.269 7.575 38.338 7.575 2.219 0 4.437-.086 6.653-.232-9.909 11.133-17.343 24.413-21.532 38.825l-.166.57c-.631 2.172-.247 4.513 1.044 6.371 1.291 1.857 3.351 3.033 5.606 3.199 2.455.181 4.908.271 7.357.271 12.94 0 25.743-2.513 37.674-7.323-5.938 13.666-8.855 28.598-8.339 43.592l.021.594c.078 2.261 1.173 4.366 2.979 5.729 1.314.992 2.903 1.513 4.517 1.513.604 0 1.211-.073 1.809-.222 15.01-3.731 28.887-10.908 40.585-20.776-1.381 14.845.505 29.949 5.676 44.039l.205.558c.779 2.125 2.476 3.784 4.617 4.516.79.27 1.609.403 2.424.403 1.396 0 2.781-.39 3.991-1.149 13.096-8.229 24.041-19.377 32.076-32.403 3.167 13.866 9.25 27.016 17.888 38.422v25.239c-7.583-6.557-17.452-10.537-28.239-10.537h-29.873c-5.831 0-10.575 4.744-10.575 10.575v17.898c0 23.842 19.397 43.239 43.239 43.239h25.448v13.751c0 4.142 3.358 7.5 7.5 7.5s7.5-3.358 7.5-7.5v-13.751h25.448c23.842 0 43.239-19.397 43.239-43.239v-17.903c0-5.831-4.744-10.575-10.575-10.575h-8.448c-4.142 0-7.5 3.358-7.5 7.5s3.358 7.5 7.5 7.5h4.023v13.473c0 15.571-12.668 28.239-28.239 28.239h-25.448v-13.473c0-12.474 8.001-23.32 19.91-26.99 3.958-1.22 6.179-5.417 4.959-9.376s-5.418-6.178-9.376-4.959c-5.851 1.803-11.081 4.741-15.493 8.524v-25.067c8.25-10.53 14.282-22.57 17.803-35.348 7.313 11.687 16.991 21.865 28.451 29.709l.49.335c1.261.863 2.74 1.311 4.236 1.311.718 0 1.44-.103 2.143-.313 2.168-.646 3.928-2.237 4.791-4.329 5.895-14.3 8.343-29.729 7.332-45 11.135 9.914 24.417 17.35 38.831 21.54l.571.166c.688.2 1.393.298 2.094.298 1.513 0 3.009-.458 4.279-1.34 1.858-1.291 3.035-3.352 3.201-5.608 1.138-15.425-1.35-30.847-7.074-45.039 12.635 5.493 26.35 8.405 40.2 8.405 1.138 0 2.276-.02 3.415-.059l.594-.021c2.261-.078 4.366-1.173 5.729-2.979s1.837-4.13 1.291-6.326c-3.731-15.009-10.907-28.885-20.775-40.583 3.12.29 6.25.453 9.381.453 11.767 0 23.533-2.048 34.665-6.134l.558-.205c2.123-.781 3.78-2.478 4.51-4.618s.455-4.496-.748-6.411c-8.229-13.096-19.377-24.04-32.403-32.076 14.535-3.32 28.297-9.825 40.071-19.136l.466-.369c1.775-1.403 2.822-3.533 2.848-5.795.027-2.259-.969-4.413-2.711-5.858zm-25.917-49.015c-10.421 12.1-24.154 21.168-39.47 25.931l-.192.06c-.577.108-1.129.282-1.651.514l-7.043 2.19c-1.763-8.624-4.384-16.939-7.766-24.854l2.145-1.528 5.363-1.668c15.828-4.923 32.764-5.105 48.614-.645zm-175.819 169.881c-63.462 0-115.093-51.63-115.093-115.093s51.63-115.093 115.093-115.093 115.093 51.631 115.093 115.093-51.63 115.093-115.093 115.093zm120.537-185.055-6.315 4.496c-.011.007-.021.015-.031.022l-1.268.903c-4.34-7.564-9.421-14.649-15.138-21.163l1.598-2.171 4.575-3.257c13.503-9.616 29.536-15.074 45.986-15.782-6.124 14.747-16.341 27.649-29.407 36.952zm-11.438-78.402c-1.218 15.922-6.9 31.368-16.41 44.284l-4.591 6.236c-.012.016-.024.033-.036.049l-.936 1.271c-6.435-5.814-13.455-10.991-20.955-15.44l.832-2.533 3.331-4.523c9.827-13.349 23.357-23.537 38.765-29.344zm-51.741-26.634c3.811 15.507 3.232 31.955-1.772 47.193l-2.417 7.361c-.006.016-.01.032-.016.048l-.478 1.456c-7.87-3.499-16.148-6.236-24.743-8.124v-2.623l1.752-5.336c5.172-15.751 14.847-29.651 27.674-39.975zm-57.469-9.16c8.459 13.543 13.042 29.351 13.042 45.39v7.75.047 1.52c-4.254-.422-8.567-.642-12.931-.642-3.724 0-7.41.166-11.056.475l-2.852-9.172c.237-16.143 5.057-31.904 13.797-45.368zm-54.677 8.339c12.1 10.421 21.169 24.154 25.931 39.47l.06.193c.108.576.281 1.128.513 1.65l2.19 7.044c-8.624 1.763-16.939 4.384-24.854 7.766l-1.528-2.146-1.667-5.362c-4.922-15.83-5.104-32.765-.645-48.615zm-49.291 83.13 7.556 5.563c-5.814 6.435-10.991 13.455-15.44 20.955l-2.533-.832-4.524-3.331c-13.349-9.829-23.537-23.358-29.343-38.766 15.921 1.22 31.368 6.902 44.284 16.411zm-70.917 35.331c15.506-3.811 31.954-3.232 47.191 1.773l8.865 2.911c-3.197 7.19-5.76 14.721-7.618 22.523h-9.83c-15.173-5.269-28.588-14.764-38.608-27.207zm36.228 42.207h9.562c-.579 4.972-.887 10.026-.887 15.151 0 3.724.166 7.41.475 11.055l-2.105.655h-5.821c-16.577 0-32.802-4.854-46.613-13.819 13.543-8.46 29.35-13.042 45.389-13.042zm-37.051 69.939c10.421-12.1 24.154-21.169 39.47-25.932l7.957-2.474c.025-.008.05-.015.074-.023l.855-.266c1.763 8.624 4.384 16.939 7.766 24.854l-2.145 1.527-5.364 1.668c-15.828 4.923-32.765 5.104-48.613.646zm55.282 15.173 6.317-4.499c.008-.005.015-.011.023-.016l1.273-.906c4.34 7.564 9.421 14.649 15.138 21.163l-1.598 2.171-4.575 3.257c-13.503 9.616-29.536 15.074-45.986 15.782 6.125-14.747 16.343-27.648 29.408-36.952zm11.439 78.402c1.218-15.922 6.9-31.368 16.41-44.284l4.591-6.236c.012-.016.024-.033.036-.049l.936-1.271c6.435 5.814 13.455 10.991 20.955 15.44l-.832 2.532-3.331 4.524c-9.828 13.35-23.358 23.538-38.765 29.344zm51.741 26.635c-3.811-15.507-3.232-31.955 1.772-47.193l2.418-7.363c.005-.014.009-.028.014-.042l.479-1.46c7.87 3.499 16.148 6.236 24.743 8.124v2.624l-1.752 5.336c-5.173 15.749-14.848 29.65-27.674 39.974zm44.426-43.979c0-.016 0-.031 0-.047v-1.521c4.254.422 8.567.642 12.931.642 3.724 0 7.41-.166 11.056-.475l2.852 9.172c-.237 16.142-5.057 31.903-13.797 45.367-8.459-13.544-13.042-29.351-13.042-45.39zm-48.255 111.641v-13.473h25.448c15.571 0 28.239 12.668 28.239 28.239v13.473h-25.448c-15.571-.001-28.239-12.669-28.239-28.239zm115.974-66.841c-12.1-10.421-21.169-24.154-25.931-39.47l-.06-.192c-.108-.577-.282-1.129-.513-1.651l-2.19-7.043c8.624-1.763 16.939-4.384 24.854-7.766l1.528 2.145 1.668 5.363c4.922 15.829 5.104 32.765.644 48.614zm15.174-55.282-4.492-6.309c-.011-.016-.023-.032-.034-.048l-.895-1.257c7.564-4.34 14.649-9.421 21.164-15.138l2.169 1.597 3.259 4.576c9.616 13.502 15.073 29.536 15.782 45.986-14.748-6.124-27.65-16.342-36.953-29.407zm34.118-27.849-6.242-4.596c-.01-.008-.021-.016-.032-.023l-1.282-.944c5.814-6.435 10.991-13.455 15.44-20.955l2.533.832 4.523 3.331c13.349 9.829 23.537 23.358 29.343 38.765-15.92-1.219-31.368-6.9-44.283-16.41zm70.919-35.331c-15.508 3.811-31.955 3.231-47.193-1.772l-7.361-2.418c-.015-.005-.03-.01-.046-.015l-1.458-.479c3.499-7.87 6.236-16.149 8.124-24.743h2.623l5.337 1.753c15.749 5.172 29.649 14.848 39.974 27.674zm-36.231-44.427h-7.743c-.022 0-.044 0-.066 0h-1.507c.422-4.254.642-8.567.642-12.93 0-3.724-.166-7.41-.475-11.056l9.173-2.852c16.142.237 31.903 5.057 45.367 13.797-13.545 8.459-29.351 13.041-45.391 13.041z"/></g></g></svg>