<svg id="Capa_1" enable-background="new 0 0 511.027 511.027" height="512" viewBox="0 0 511.027 511.027" width="512" xmlns="http://www.w3.org/2000/svg"><g><g><g id="XMLID_148_"><g><path d="m435.003 256.464-15.374 8.608s-132.884 168.796-133.211 170.81-29.745 45.872-29.745 45.872l14.29-2.42 40.44-19.9c63.57-31.29 108.36-91.09 120.51-160.9l6.23-35.78c.48-2.74-.97-5.17-3.14-6.29z" fill="#ade194"/><path d="m435.003 256.464-2.96 4.84-95.74 135.82-79.63 84.63 14.29-36.49s63.6-151.41 159.19-189.05c1.7-.67 3.43-.49 4.85.25z" fill="#97da7b"/></g></g></g><g id="XMLID_8_"><g><path d="m118.952 293.457-43.409-36.723c-1.9 1.22-3.1 3.49-2.66 6.02l6.23 35.78c12.15 69.81 56.94 129.61 120.51 160.9l40.44 19.9 16.61 2.42v-10.247z" fill="#ade194"/><path d="m240.063 445.264 20.17 37.01-3.56-.52-81.95-84.63-95.74-135.82-3.44-4.57c1.5-.96 3.43-1.27 5.33-.52 95.59 37.64 159.19 189.05 159.19 189.05z" fill="#97da7b"/></g></g><g><path d="m270.461 506.764v-226.008h-30.895v226.007c0 1.526 1.237 2.763 2.763 2.763h25.369c1.526.001 2.763-1.236 2.763-2.762z" fill="#ade194"/></g><path d="m276.131 26.715-28.488-18.151-4.9 1.19c-29.8 7.21-53.13 30.35-60.45 59.97l-10.52 103.47 102.67 35.21 15.92-7.91 31.118-32.392z" fill="#f9b1b1"/><g id="XMLID_147_"><path d="m318.713 55.344 17.59 122.3-45.94 22.85c10.85-47.1-9.45-117.32-9.45-117.32-7.68-44.64-30.55-71.56-30.55-71.56l-2.72-3.05 3.45-.84c1.26-.3 2.58-.3 3.84 0l8.35 2.03c24.78 6 45.08 23 55.43 45.59z" fill="#f9c6c6"/></g><path d="m284.423 284.914v12.909c0 15.428-12.506 27.934-27.934 27.934h-6.951c-15.428 0-27.934-12.507-27.934-27.934v-13.196-32.665h62.819z" fill="#97da7b"/><g id="XMLID_140_"><g><path d="m266.2 127.398c-6.479-7.897-16.994-18.492-27.019-28.132-17.031-16.378-21.271-41.936-10.586-63.009 6.007-11.848 12.963-22.962 19.558-27.369l-.509-.324-4.9 1.19c-29.8 7.21-53.13 30.35-60.45 59.97l-1.804 17.744h25.391v97.423l68.563 23.513 15.92-7.91 14.585-15.182c-10.93-20.408-23.852-39.765-38.749-57.914z" fill="#f79595"/><path d="m377.234 23.362-35.48 17.89c-38.63 19.49-68.96 52.23-85.44 92.24 0 0-.66 1.32-1.71 3.42l-29.961 74.378 67.371 58.771 27.96-4.439c28.97-20.72 47.85-54.65 47.85-92.98v-79.28c0-6.85 1.11-13.65 3.29-20.14l14.35-42.72c1.68-4.99-3.53-9.51-8.23-7.14z" fill="#f47c7c"/><path d="m240.976 251.719v26.846h-19.332v5.818 13.196c0 15.428 12.507 27.934 27.934 27.934h6.951c2.212 0 4.361-.265 6.424-.751-6.781-1.597-12.609-10.046-16.482-17.326-2.557-4.807.933-10.569 6.377-10.537.235.001.47.002.705.002 10.548 0 20.906-1.329 30.909-3.886v-8.344-32.952z" fill="#80d261"/><path d="m319.254 260.652c-12.87-45.5-34.97-87.58-64.65-123.74-14.76-17.99-31.4-34.51-49.72-49.27l-69.444-55.942c6.703 13.099 14.301 28.638 14.301 28.638v51.07 72.876l26.825 60.053s59.213 34.056 65.637 36.419l2.262 3.011 22.373 2.369 13.388-2.369c14.523-3.473 27.969-9.714 39.749-18.146z" fill="#ee6161"/><path d="m207.857 253.432c-20.68-20.67-33.47-49.24-33.47-80.79v-79.28c0-6.85-1.11-13.65-3.29-20.14l-5.895-17.547-32.428-26.124c-4.58-3.69-11.15.88-9.28 6.46l12.5 37.21c2.18 6.49 3.29 13.29 3.29 20.14v79.28c0 31.55 12.79 60.12 33.47 80.79 20.68 20.68 49.24 33.47 80.8 33.47 5.96 0 11.833-.459 17.546-1.338-24.518-3.785-46.481-15.369-63.243-32.131z" fill="#e94444"/></g></g><path d="m440.782 251.325c-3.753-3.06-8.884-3.859-13.379-2.087-34.32 13.512-68.19 42.247-100.67 85.408-2.49 3.31-1.826 8.012 1.483 10.502 3.312 2.491 8.012 1.826 10.503-1.483 25.247-33.551 51.099-57.795 77.069-72.317l-85.61 121.454c-2.387 3.385-1.577 8.064 1.809 10.451 1.313.926 2.821 1.37 4.314 1.37 2.356 0 4.677-1.107 6.137-3.18l84.924-120.482-2.834 16.286c-11.698 67.215-55.227 125.331-116.44 155.458l-29.627 14.581v-20.473c3.057-6.993 18.136-40.471 42.148-77.276 2.264-3.469 1.286-8.116-2.183-10.379-3.472-2.263-8.116-1.287-10.38 2.183-12.337 18.909-22.285 36.747-29.586 50.857v-86.608c8.192-6.496 13.462-16.525 13.462-27.768v-9.387c48.379-16.122 83.358-61.828 83.358-115.556v-79.276c0-6.046.977-12.019 2.902-17.751l14.352-42.723c1.736-5.168.196-10.815-3.925-14.385s-9.93-4.29-14.798-1.835l-35.478 17.894c-5.802 2.927-11.419 6.15-16.845 9.633-12.221-21.047-32.37-36.146-56.435-41.975l-8.353-2.023c-2.412-.584-4.962-.584-7.372 0l-8.354 2.023c-28.899 6.999-52.003 27.446-62.501 54.55l-41.035-33.057c-4.675-3.768-11.127-3.993-16.053-.56-4.927 3.432-6.952 9.561-5.04 15.251l12.499 37.207c1.926 5.732 2.902 11.705 2.902 17.751v40.603c0 4.142 3.358 7.5 7.5 7.5s7.5-3.358 7.5-7.5v-40.603c0-7.674-1.239-15.253-3.683-22.528l-10.745-31.984 67.817 54.633c54.054 43.546 92.654 101.823 111.668 168.563-16.771 10.971-36.797 17.361-58.291 17.361-58.872 0-106.768-47.896-106.768-106.768v-6.711c0-4.142-3.358-7.5-7.5-7.5s-7.5 3.358-7.5 7.5v6.711c0 53.357 34.498 98.804 82.359 115.22v9.723c0 13.393 7.47 25.072 18.461 31.096v83.277c-7.377-14.259-17.455-32.32-29.972-51.449-37.825-57.803-77.852-95.32-118.969-111.508-4.501-1.771-9.627-.971-13.38 2.088-3.761 3.067-5.581 7.94-4.75 12.717l6.226 35.777c12.518 71.922 59.095 134.107 124.595 166.344l36.25 17.841v19.522c0 4.142 3.358 7.5 7.5 7.5s7.5-3.358 7.5-7.5v-58.214c0-.024 0-.048 0-.072v-112.043c.653.036 1.31.058 1.973.058h6.951c2.386 0 4.717-.241 6.972-.692v112.681.062 58.219c0 4.142 3.357 7.5 7.5 7.5s7.5-3.358 7.5-7.5v-19.522l36.25-17.841c65.501-32.237 112.078-94.422 124.595-166.344l6.227-35.777c.831-4.778-.988-9.651-4.75-12.718zm-237.842 201.381c-61.213-30.127-104.743-88.242-116.44-155.458l-2.834-16.284 84.923 120.48c1.461 2.073 3.78 3.18 6.137 3.18 1.493 0 3.001-.445 4.314-1.37 3.386-2.387 4.196-7.066 1.81-10.451l-85.559-121.382c39.82 22.388 72.878 64.148 94.61 97.323 24.317 37.12 39.586 71.027 42.665 78.07v20.473zm106.19-399.62c-8.057 6.139-15.587 12.912-22.528 20.241-5.665-25.479-15.715-44.583-22.741-55.651 19.414 5.356 35.553 18.021 45.269 35.41zm-99.584 28.957-18.688-15.055c7.807-24.802 27.982-43.733 53.646-49.949l.506-.123c2.944 3.708 22.933 30.16 29.067 71.067-8.366 10.881-15.561 22.702-21.407 35.283-13.077-14.827-27.478-28.618-43.124-41.223zm53.876 54.033c15.837-38.098 44.818-69.295 81.668-87.882l31.978-16.128-13.104 39.009c-2.444 7.275-3.684 14.855-3.684 22.528v79.276c0 31.611-13.814 60.053-35.716 79.619-12.955-42.764-33.682-82.08-61.142-116.422zm-13.884 182.181c-11.268 0-20.434-9.167-20.434-20.434v-5.634c7.888 1.612 16.052 2.459 24.409 2.459 8.006 0 15.831-.785 23.409-2.267v5.442c0 11.268-9.166 20.434-20.434 20.434z"/></g></svg>