<svg id="Capa_1" enable-background="new 0 0 511.292 511.292" height="512" viewBox="0 0 511.292 511.292" width="512" xmlns="http://www.w3.org/2000/svg"><g><path d="m94.717 420.356 48.628-3.876c10.579-.843 18.406-10.205 17.362-20.766l-4.799-48.546-2.797-36.328-101.245 111.325z" fill="#80d261"/><path d="m100.781 413.103c-19.532 17.018-48.126 21.62-72.692 11.642-18.392-7.47-25.847-29.625-15.589-46.62 2.397-3.971 5.018-7.775 7.826-11.438l22.673-38.03 81.164 47.392z" fill="#f47c7c"/><path d="m149.753 354.529c13.38-22.261 12.892-51.272-1.312-73.733-10.61-16.777-33.735-20.191-48.644-7.084-3.416 3.003-6.632 6.19-9.686 9.529l-24.744 48.19 63.488 54.047z" fill="#f47c7c"/><g id="XMLID_126_"><g><path d="m307.228 215.589-20.88-16.57 82.62-147.6c13.68-26.1 41.02-43.92 72.53-43.92h57.17c2.62 0 4.75 2.13 4.75 4.76v54.04c0 27.89-13.96 52.52-35.28 67.3l-135.85 101.88z" fill="#97da7b"/></g></g><g><path d="m455.838 192.929c.73 5.7 1.11 11.52 1.11 17.42 0 15.26-2.52 29.93-7.15 43.63-1.81 5.32-7.07 8.67-12.65 8.01l-17.33-2.07c-4.24-.5-6.59 4.75-3.4 7.58l10.84 9.59c4.65 4.11 5.37 11.13 1.59 16.05-12.49 16.24-28.56 29.59-47.03 38.85-5.31 2.65-11.76.98-15.11-3.92l-17.22-25.25c-.81-1.18-2.67-.54-2.57.89l1.95 28.95c.42 6.2-4.03 11.73-10.19 12.53-5.8.76-11.72 1.15-17.72 1.15-15.26 0-29.94-2.51-43.63-7.15-5.32-1.8-8.68-7.06-8.01-12.64l3.26-27.33c.14-1.17-1.32-1.83-2.1-.94l-16.26 18.38c-4.11 4.64-11.13 5.36-16.05 1.58-16.42-12.62-29.87-28.9-39.15-47.62-2.49-5.05-1.15-11.15 3.27-14.63l20.04-15.77c1.41-1.11.55-3.38-1.25-3.27l-22.5 1.38c-6.17.38-11.65-4.06-12.46-10.19-.76-5.82-1.16-11.76-1.16-17.79 0-15.16 2.49-29.74 7.06-43.36 1.84-5.45 7.31-8.81 13-7.96l39.27 5.85-28.38-21.37c-5.33-4.01-6.26-11.59-2.15-16.84 12.52-16.01 28.55-29.15 46.93-38.25 5.04-2.5 11.14-1.16 14.62 3.27l9.99 12.69c2.88 3.66 8.77 1.42 8.48-3.23l-.81-13.17c-.37-6.18 4.06-11.66 10.2-12.46 5.82-.77 11.76-1.16 17.79-1.16 15.26 0 29.93 2.51 43.62 7.15 5.32 1.8 8.68 7.06 8.01 12.65l-3.71 31.15 18.81-21.27c4.11-4.64 11.13-5.36 16.05-1.58 16.35 12.56 29.75 28.75 39.02 47.37 2.57 5.16 1.08 11.41-3.54 14.84l-23.23 17.2c-1.52 1.12-.6 3.53 1.28 3.35l25.7-2.45c6.32-.61 12.06 3.87 12.87 10.16z" fill="#ee6161"/></g><circle cx="320.954" cy="210.35" fill="#fee45a" r="57.786"/><path d="m287.874 211.634c0-28.706 20.936-52.512 48.369-57.01-4.872-1.334-9.994-2.06-15.289-2.06-31.914 0-57.786 25.872-57.786 57.786s25.872 57.786 57.786 57.786c3.208 0 6.351-.273 9.417-.776-24.492-6.705-42.497-29.107-42.497-55.726z" fill="#fed402"/><circle cx="320.954" cy="210.35" fill="#fac600" r="18.832"/><path d="m92.12 341.791 20.557-40.036c3.279-6.386 7.68-12.137 13.025-16.93.281-.252.564-.503.848-.753 5.38-4.729 11.839-7.297 18.384-7.872-11.611-12.691-31.709-14.293-45.137-2.489-3.416 3.003-6.632 6.19-9.686 9.529l-24.744 48.19 63.488 54.047 5.322-7.882z" fill="#ee6161"/><path d="m39.252 388.486c2.397-3.971 5.018-7.775 7.826-11.438l20.347-34.128-24.427-14.263-22.673 38.03c-2.808 3.663-5.428 7.466-7.826 11.438-10.258 16.995-2.802 39.149 15.589 46.62 5.653 2.296 11.52 3.81 17.44 4.589-11.28-9.999-14.569-27.108-6.276-40.848z" fill="#ee6161"/><g id="XMLID_127_"><g><path d="m116.028 301.199 33.73 53.33c-12.39 22.78-28.73 42.29-48.98 58.57l-58.04-23.57c-22.75-9.24-31.99-36.5-19.58-57.69 8.83-15.07 19.64-28.31 32.54-39.62 18.5-16.21 47.18-11.81 60.33 8.98z" fill="#ee6161"/></g></g><path d="m49.883 348.696c8.83-15.07 19.64-28.31 32.54-39.62 9.383-8.221 21.398-11.131 32.664-9.3-13.538-19.552-41.321-23.387-59.388-7.557-12.9 11.31-23.71 24.55-32.54 39.62-12.41 21.19-3.17 48.45 19.58 57.69l9.891 4.017c-9.535-12.502-11.364-30.136-2.747-44.85z" fill="#e94444"/><g><path d="m442.26 175.298-5.511.526 6.927-5.129c7.557-5.595 9.994-15.776 5.797-24.208-9.672-19.431-23.905-36.712-41.162-49.976-8.002-6.15-19.529-5.023-26.238 2.563l-2.908 3.287.872-7.319c1.076-9.034-4.413-17.714-13.052-20.638-14.791-5.008-30.278-7.547-46.031-7.547-6.26 0-12.572.412-18.761 1.223-9.986 1.31-17.325 10.251-16.707 20.358l.27 4.39-4.55-5.78c-5.632-7.155-15.661-9.404-23.848-5.351-6.551 3.243-12.955 7.063-19.037 11.354-3.384 2.388-4.192 7.068-1.804 10.452 2.387 3.384 7.066 4.192 10.452 1.805 5.45-3.846 11.186-7.268 17.045-10.168 1.867-.923 4.138-.425 5.404 1.185l9.987 12.689c3.333 4.234 8.954 5.793 13.99 3.874 5.036-1.918 8.198-6.821 7.869-12.2l-.807-13.167c-.14-2.272 1.479-4.279 3.684-4.568 5.545-.727 11.201-1.096 16.812-1.096 14.114 0 27.982 2.272 41.222 6.755 1.961.664 3.209 2.622 2.967 4.655l-3.713 31.156c-.389 3.258 1.386 6.39 4.379 7.731 2.992 1.34 6.511.584 8.686-1.875l18.813-21.267c1.511-1.708 4.088-1.974 5.864-.607 15.46 11.882 28.211 27.362 36.874 44.766.95 1.91.405 4.209-1.295 5.469l-23.229 17.2c-3.419 2.533-4.691 6.905-3.167 10.878 1.525 3.973 5.394 6.362 9.631 5.965l25.701-2.453c2.301-.225 4.423 1.417 4.71 3.653.697 5.432 1.051 10.972 1.051 16.466 0 14.111-2.272 27.979-6.756 41.222-.663 1.961-2.639 3.207-4.654 2.966l-17.332-2.065c-5.178-.617-10.083 2.164-12.215 6.919s-.941 10.27 2.961 13.723l10.84 9.589c1.707 1.51 1.975 4.085.608 5.863-11.805 15.36-27.174 28.056-44.443 36.713-1.939.971-4.325.353-5.549-1.441l-17.224-25.241c-2.26-3.312-6.482-4.71-10.272-3.4-3.79 1.311-6.248 5.02-5.979 9.02l1.95 28.942c.154 2.287-1.462 4.305-3.678 4.594-5.526.722-11.162 1.087-16.751 1.087-14.113 0-27.981-2.272-41.221-6.755-1.962-.664-3.21-2.622-2.968-4.655l3.257-27.327c.453-3.802-1.591-7.408-5.085-8.973-3.49-1.566-7.545-.691-10.078 2.176l-16.258 18.378c-1.512 1.708-4.088 1.973-5.864.608-15.532-11.937-28.324-27.499-36.993-45.005-.923-1.864-.425-4.137 1.186-5.404l20.035-15.769c3.225-2.538 4.41-6.821 2.949-10.656s-5.194-6.253-9.291-5.993l-22.497 1.377c-2.299.126-4.279-1.48-4.568-3.685-.728-5.541-1.096-11.196-1.096-16.81 0-14.022 2.244-27.807 6.671-40.971.676-2.011 2.681-3.244 4.777-2.934l39.272 5.854c3.381.506 6.697-1.355 8.023-4.521 1.325-3.165.334-6.826-2.407-8.889l-28.384-21.369c-.93-.7-1.525-1.722-1.678-2.876-.158-1.197.172-2.389.928-3.356 1.435-1.835 2.956-3.674 4.522-5.466 2.727-3.119 2.408-7.856-.71-10.583-3.12-2.727-7.858-2.408-10.583.71-1.746 1.998-3.445 4.051-5.047 6.101-3.256 4.164-4.67 9.332-3.982 14.553.683 5.178 3.355 9.76 7.528 12.901l4.787 3.604-10.06-1.5c-9.282-1.387-18.211 4.079-21.206 12.991-4.945 14.707-7.453 30.1-7.453 45.75 0 6.264.411 12.576 1.223 18.761 1.31 9.987 10.247 17.324 20.357 16.706l4.392-.269-5.781 4.55c-7.154 5.631-9.404 15.661-5.35 23.848 9.679 19.545 23.958 36.918 41.294 50.242 8.001 6.148 19.526 5.025 26.239-2.563l2.907-3.286-.872 7.319c-.963 8.09 3.349 15.883 10.463 19.526l-5.258 12.021c-12.572 28.75-18.947 59.236-18.947 90.614v2.232c-15.917-22.567-38.956-38.914-65.79-46.465l-14.117-3.972c.114-1.529.104-3.078-.05-4.637l-4.8-48.545c-.079-.798-.283-1.554-.586-2.252 7.544-21.991 4.834-47.089-8.005-67.391-6.251-9.884-16.478-16.508-28.057-18.174-11.53-1.659-23.147 1.792-31.878 9.466-2.519 2.214-5.018 4.606-7.464 7.129-12.839-1.472-26.203 2.241-36.624 11.373-13.339 11.688-24.804 25.641-34.075 41.472-6.622 11.306-8.293 24.774-4.708 37.302-2.122 2.94-4.1 5.919-5.896 8.895-6.007 9.952-7.344 21.998-3.669 33.051 3.69 11.101 12.021 19.992 22.857 24.393 9.548 3.878 19.634 5.767 29.648 5.767 13.317-.001 26.492-3.36 38.082-9.81.552.13 1.124.206 1.712.206.199 0 .401-.008.604-.024l48.628-3.876c7.141-.569 13.604-3.909 18.198-9.404.239-.286.468-.578.693-.872l15.443 4.346c26.241 7.384 48.344 24.369 62.235 47.827l7.617 12.864v25.076c0 4.142 3.357 7.5 7.5 7.5s7.5-3.358 7.5-7.5v-55.973c0-29.296 5.952-57.761 17.69-84.603l5.9-13.49c11.153 2.732 22.621 4.117 34.235 4.117 6.236 0 12.525-.408 18.693-1.213 10.051-1.313 17.387-10.308 16.702-20.477l-.446-6.62 4.613 6.761c5.437 7.968 16.038 10.718 24.661 6.396 19.282-9.667 36.438-23.838 49.614-40.982 6.15-8.002 5.024-19.528-2.563-26.239l-3.287-2.908 7.319.872c9.026 1.078 17.713-4.412 20.639-13.052 5.008-14.794 7.547-30.281 7.547-46.031 0-6.13-.395-12.313-1.173-18.375-1.322-10.35-10.566-17.67-21.008-16.677zm-412.634 160.336c8.456-14.439 18.892-27.147 31.018-37.771 7.826-6.858 18.086-9.231 27.637-7.349.222.056.446.099.671.134 6.583 1.44 12.792 4.914 17.583 10.358 2.736 3.109 7.477 3.411 10.585.674 3.109-2.737 3.411-7.476.675-10.585-4.061-4.613-8.827-8.244-13.988-10.898.315-.283.628-.577.943-.853 5.429-4.773 12.661-6.918 19.837-5.884 7.229 1.04 13.614 5.175 17.516 11.345 10.325 16.327 12.579 36.451 6.646 54.103l-12.702-20.086c-2.214-3.5-6.846-4.544-10.348-2.33-3.501 2.214-4.544 6.847-2.33 10.348l17.661 27.927c-1.651 2.875-3.383 5.693-5.177 8.465l-12.561-12.943c-2.885-2.973-7.634-3.044-10.605-.159s-3.043 7.633-.158 10.605l14.517 14.958c-2.972 3.856-6.096 7.592-9.366 11.205l-17.295-11.638c-3.437-2.313-8.098-1.402-10.41 2.035-2.313 3.437-1.401 8.097 2.035 10.409l14.972 10.075c-2.442 2.29-4.942 4.527-7.517 6.696l-53.905-21.896c-8.815-3.58-15.627-10.801-18.688-19.811-3.067-9.021-2.062-18.911 2.754-27.134zm1.285 82.162c-6.763-2.747-11.963-8.297-14.268-15.228-2.288-6.882-1.458-14.378 2.277-20.567.235-.389.487-.779.729-1.169 5.151 6.887 12.118 12.334 20.265 15.643l45.265 18.386c-16.292 8.873-36.432 10.18-54.268 2.935zm111.838-8.793-28.268 2.253c14.002-12.651 26.047-27.066 35.97-43.045l2.792 28.239c.306 3.087-.622 6.099-2.612 8.479-1.99 2.381-4.789 3.828-7.882 4.074z"/><path d="m251.654 202.85c-4.143 0-7.5 3.358-7.5 7.5s3.357 7.5 7.5 7.5h4.459c1.424 12.389 6.329 23.728 13.711 33.023l-3.176 3.176c-2.929 2.929-2.929 7.678 0 10.606 1.465 1.464 3.385 2.197 5.304 2.197s3.839-.732 5.304-2.197l3.175-3.175c9.295 7.382 20.634 12.287 33.023 13.712v4.458c0 4.142 3.357 7.5 7.5 7.5s7.5-3.358 7.5-7.5v-4.458c12.39-1.424 23.729-6.329 33.024-13.712l3.176 3.175c1.465 1.464 3.385 2.197 5.304 2.197s3.839-.732 5.304-2.197c2.929-2.929 2.929-7.678 0-10.606l-3.176-3.176c7.382-9.295 12.287-20.634 13.711-33.023h4.458c4.143 0 7.5-3.358 7.5-7.5s-3.357-7.5-7.5-7.5h-4.458c-1.424-12.389-6.329-23.728-13.711-33.023l3.176-3.176c2.929-2.929 2.929-7.677 0-10.606s-7.677-2.93-10.607 0l-3.176 3.175c-9.295-7.382-20.634-12.288-33.024-13.712v-4.458c0-4.142-3.357-7.5-7.5-7.5s-7.5 3.358-7.5 7.5v4.458c-12.389 1.424-23.728 6.329-33.023 13.712l-3.175-3.175c-2.93-2.929-7.678-2.929-10.607 0s-2.929 7.678 0 10.606l3.176 3.176c-7.382 9.295-12.287 20.634-13.711 33.023zm19.576 15h24.486c.525 1.764 1.225 3.453 2.089 5.042l-17.296 17.297c-4.769-6.446-8.036-14.065-9.279-22.339zm49.724-18.832c6.249 0 11.333 5.084 11.333 11.333s-5.084 11.332-11.333 11.332c-6.248 0-11.332-5.083-11.332-11.332s5.084-11.333 11.332-11.333zm-29.839 51.778 17.297-17.297c1.589.864 3.278 1.564 5.042 2.089v24.486c-8.275-1.243-15.893-4.51-22.339-9.278zm37.339 9.278v-24.486c1.764-.525 3.453-1.225 5.042-2.089l17.297 17.296c-6.446 4.769-14.065 8.036-22.339 9.279zm32.946-19.885-17.297-17.296c.864-1.589 1.564-3.278 2.089-5.042h24.486c-1.243 8.273-4.51 15.892-9.278 22.338zm9.278-37.339h-24.486c-.525-1.764-1.225-3.454-2.089-5.043l17.296-17.296c4.769 6.446 8.036 14.065 9.279 22.339zm-19.885-32.946-17.297 17.296c-1.589-.864-3.278-1.564-5.042-2.089v-24.486c8.274 1.243 15.893 4.511 22.339 9.279zm-37.339-9.278v24.486c-1.764.525-3.453 1.225-5.042 2.089l-17.297-17.297c6.446-4.768 14.064-8.036 22.339-9.278zm-32.946 19.885 17.297 17.297c-.864 1.589-1.564 3.278-2.089 5.042h-24.486c1.243-8.274 4.51-15.893 9.278-22.339z"/><path d="m502.796 78.918c-4.012-1-8.09 1.439-9.095 5.458-4.361 17.451-14.957 32.743-29.833 43.059-3.404 2.36-4.25 7.033-1.89 10.437 1.457 2.101 3.793 3.227 6.17 3.227 1.474 0 2.964-.434 4.267-1.337 17.867-12.39 30.595-30.767 35.839-51.748 1.004-4.019-1.439-8.092-5.458-9.096z"/><path d="m498.664 0h-57.16c-33.339 0-63.677 18.369-79.176 47.938-1.923 3.668-.508 8.202 3.161 10.125 3.666 1.923 8.202.509 10.124-3.161 12.901-24.613 38.148-39.902 65.89-39.902h43.705l-63.165 62.586c-2.942 2.916-2.964 7.664-.049 10.606 1.467 1.48 3.397 2.221 5.328 2.221 1.908 0 3.816-.724 5.279-2.172l63.318-62.738v28.728c0 4.142 3.357 7.5 7.5 7.5s7.5-3.358 7.5-7.5v-41.975c.001-6.758-5.497-12.256-12.255-12.256z"/></g></g></svg>