<svg id="Capa_1" enable-background="new 0 0 509.51 509.51" height="512" viewBox="0 0 509.51 509.51" width="512" xmlns="http://www.w3.org/2000/svg"><g><path d="m393.954 371.198s36.345 10.175 52.961 1.164c6.123-3.32 7.617-11.446 3.075-16.727l-10.297-11.974c-2.222-2.583-3.443-5.878-3.443-9.285v-85.499c0-33.093-12.495-64.966-34.985-89.243l-19.483-21.03h-24.137v207.901 24.573z" fill="#fef0ae"/><path d="m343.633 138.605-19.483 21.03c-22.49 24.276-34.985 56.149-34.985 89.243v85.499c0 3.407-1.222 6.702-3.443 9.285l-10.297 11.974c-4.542 5.281-3.048 13.406 3.075 16.727 16.616 9.011 36.757 8.568 52.961-1.164l31.423-18.344v-214.25z" fill="#fee97d"/><g id="XMLID_150_"><g><path d="m232.594 437.201c1.79 2.08 2.64 4.61 2.64 7.1 0 3.84-2.01 7.61-5.72 9.62-14.94 8.1-32.74 8.56-47.96 1.49l-48.07-35.36v-199.88h30.9l19.48 21.03c22.49 24.27 34.99 56.15 34.99 89.24v85.5c0 3.41 1.22 6.7 3.44 9.28z" fill="#fef0ae"/></g></g><g id="XMLID_149_"><g><path d="m109.204 455.351c-15.25 7.14-33.11 6.7-48.1-1.43-3.71-2.01-5.72-5.78-5.72-9.62 0-2.49.85-5.02 2.64-7.1l10.3-11.98c2.22-2.58 3.44-5.87 3.44-9.28v-85.5c0-33.09 12.5-64.97 34.99-89.24l19.48-21.03h19.25v203.11 14.53l-36.09 17.92z" fill="#fee97d"/></g></g><g><path d="m380.384 108.01v-53.59h112.899c4.82 0 8.727-3.907 8.727-8.727v-17.545c0-4.82-3.907-8.727-8.727-8.727h-480.795c-2.755 0-4.988 2.233-4.988 4.988v25.023c0 2.755 2.233 4.988 4.988 4.988h157.216c-47.638 20.508-92.375 47.158-133.707 79.72l-25.113 19.784c-2.254 1.776-2.642 5.042-.866 7.296l15.229 19.331c1.776 2.254 5.042 2.642 7.296.866l25.113-19.784c22.715-17.895 46.526-33.885 71.33-47.947v70.885 74.142h35.398l-.398-74.142v-89.132c33.625-16.037 68.881-28.723 105.565-37.947l12.216-3.071h63.618v53.589 85.271h36.398z" fill="#97da7b"/></g><path d="m145.486 220.167h-18.898c-15.242 35.929-23.097 74.557-23.097 113.586v68.506c0 31.38 12.071 61.557 33.712 84.28 4.508 4.733 12.059 4.733 16.566 0 21.641-22.723 33.712-52.901 33.712-84.28v-68.506c0-39.028-7.855-77.657-23.097-113.586z" fill="#fff5c6"/><path d="m132.877 402.259v-68.506c0-39.028 7.855-77.657 23.097-113.586h-10.489-18.898c-15.242 35.929-23.097 74.557-23.097 113.586v68.506c0 31.38 12.071 61.557 33.712 84.28 4.508 4.733 12.059 4.733 16.567 0 2.242-2.355 4.376-4.793 6.41-7.301-17.597-21.693-27.302-48.851-27.302-76.979z" fill="#fef0ae"/><path d="m362.884 138.605h-18.898c-15.242 35.929-23.097 74.558-23.097 113.586v68.506c0 31.38 12.071 61.557 33.712 84.28 4.508 4.733 12.059 4.733 16.566 0 21.641-22.723 33.712-52.901 33.712-84.28v-68.506c0-39.028-7.855-77.657-23.097-113.586z" fill="#fff5c6"/><path d="m351.617 320.697v-68.506c0-39.028 7.855-77.657 23.097-113.586h-11.83-18.898c-15.242 35.929-23.097 74.557-23.097 113.586v68.506c0 31.38 12.071 61.557 33.712 84.28 4.508 4.733 12.059 4.733 16.566 0 2.49-2.615 4.848-5.333 7.081-8.135-17.172-21.553-26.631-48.376-26.631-76.145z" fill="#fef0ae"/><path d="m390.684 147.605v-16.795c0-15.354-12.447-27.8-27.8-27.8-15.354 0-27.8 12.446-27.8 27.8v16.796h55.6z" fill="#97da7b"/><path d="m173.286 229.167v-21.796c0-15.354-12.446-27.8-27.8-27.8-15.354 0-27.8 12.446-27.8 27.8v21.796z" fill="#97da7b"/><path d="m361.247 139.067c-4.179 0-7.567-3.388-7.567-7.567v-.691c0-12.092 7.722-22.375 18.502-26.201-2.908-1.032-6.036-1.599-9.298-1.599-15.354 0-27.8 12.446-27.8 27.8v16.796h16.444 2.152 37.004v-8.538z" fill="#80d261"/><path d="m141.842 218.634c-3.071 0-5.56-2.489-5.56-5.56v-5.703c0-12.092 7.722-22.375 18.502-26.201-3.097-1.099-6.444-1.671-9.936-1.592-15.204.344-27.162 13.195-27.162 28.403v21.185h15.798 2.798 37.004v-10.533h-31.444z" fill="#80d261"/><path d="m493.283 11.92h-480.795c-6.886 0-12.488 5.602-12.488 12.489v25.023c0 6.886 5.602 12.488 12.488 12.488h123.296c-36.788 18.394-71.801 40.624-104.428 66.328l-25.113 19.785c-5.499 4.332-6.448 12.329-2.117 17.829l15.229 19.331c4.331 5.499 12.33 6.448 17.829 2.117l25.113-19.784c18.844-14.845 38.705-28.531 59.188-40.79v54.782c-6.944 6.451-11.3 15.651-11.3 25.854v19.083l-8.936 9.645c-23.849 25.743-36.983 59.247-36.983 94.34v32.401c0 4.142 3.358 7.5 7.5 7.5s7.5-3.358 7.5-7.5v-32.401c0-28.854 9.963-56.5 28.183-78.633-7.609 26.565-11.459 54.001-11.459 81.946v68.506c0 16.246 3.005 32.091 8.729 46.872-12.793 5.488-27.645 4.924-40.043-1.799-1.253-.68-1.625-1.79-1.736-2.392-.11-.602-.157-1.772.771-2.852l10.298-11.974c3.39-3.942 5.257-8.976 5.257-14.175v-21.136c0-4.142-3.358-7.5-7.5-7.5s-7.5 3.358-7.5 7.5v21.136c0 1.612-.579 3.173-1.629 4.395l-10.297 11.973c-3.651 4.245-5.164 9.838-4.151 15.345 1.012 5.507 4.416 10.196 9.338 12.865 9.024 4.894 19.027 7.33 29.022 7.33 8.329 0 16.65-1.698 24.395-5.069 5.519 10.443 12.493 20.183 20.828 28.934 3.557 3.735 8.556 5.878 13.714 5.878s10.157-2.143 13.714-5.878c8.301-8.716 15.252-18.411 20.76-28.806 7.663 3.289 15.883 4.941 24.11 4.941 9.994 0 20-2.436 29.022-7.33 4.922-2.669 8.326-7.358 9.338-12.865 1.013-5.507-.5-11.1-4.151-15.345l-10.297-11.974c-1.051-1.222-1.63-2.783-1.63-4.395v-85.5c0-35.093-13.134-68.597-36.983-94.34l-8.583-9.264v-19.464c0-9.186-3.529-17.561-9.3-23.848v-83.329c7.634-3.558 15.499-7.003 23.439-10.268 3.831-1.575 5.66-5.958 4.084-9.789s-5.958-5.66-9.789-4.084c-9.683 3.981-19.259 8.226-28.463 12.616-2.61 1.245-4.271 3.878-4.271 6.77v78.396c-3.464-1.139-7.159-1.764-11-1.764-3.11 0-6.125.408-9 1.167v-59.552c0-2.669-1.418-5.137-3.725-6.48-2.306-1.343-5.153-1.359-7.474-.044-25.104 14.232-49.419 30.577-72.272 48.58l-23.302 18.359-12.377-15.71 23.302-18.358c40.637-32.015 85.059-58.5 132.032-78.723 3.269-1.407 5.098-4.917 4.38-8.403s-3.787-5.986-7.346-5.986h-154.704v-20h478.283c.677 0 1.227.55 1.227 1.227v17.546c0 .677-.55 1.227-1.227 1.227h-112.899c-4.142 0-7.5 3.358-7.5 7.5v42.541c-3.173-.939-6.527-1.451-10-1.451s-6.827.512-10 1.451v-42.541c0-4.142-3.358-7.5-7.5-7.5h-63.618c-.617 0-1.231.076-1.829.227l-12.216 3.071c-16.241 4.083-32.448 8.913-48.17 14.354-3.915 1.354-5.99 5.626-4.635 9.54 1.354 3.915 5.627 5.992 9.54 4.635 15.314-5.299 31.102-10.004 46.923-13.982l11.315-2.845h55.19v43.993c-6.362 6.388-10.3 15.19-10.3 24.896v14.084l-8.935 9.645c-23.85 25.743-36.984 59.247-36.984 94.339v85.5c0 1.612-.579 3.173-1.63 4.395l-10.296 11.973c-3.651 4.245-5.165 9.838-4.152 15.345s4.416 10.196 9.338 12.865c9.024 4.894 19.027 7.33 29.023 7.33 8.329 0 16.65-1.698 24.395-5.068 5.519 10.443 12.493 20.182 20.828 28.934 3.557 3.735 8.556 5.877 13.714 5.877s10.157-2.142 13.714-5.877c8.301-8.716 15.251-18.411 20.76-28.806 7.663 3.289 15.882 4.941 24.11 4.941 9.995 0 20-2.436 29.023-7.33 4.922-2.669 8.325-7.358 9.337-12.865 1.013-5.507-.501-11.1-4.151-15.345l-10.297-11.974c-1.051-1.222-1.63-2.783-1.63-4.395v-85.5c0-35.092-13.134-68.596-36.983-94.339l-8.583-9.264v-14.464c0-9.706-3.939-18.508-10.3-24.896v-43.994h105.399c8.948 0 16.227-7.279 16.227-16.227v-17.546c-.001-8.947-7.28-16.227-16.228-16.227zm-344.945 469.447c-1.013 1.063-2.222 1.223-2.852 1.223s-1.839-.159-2.852-1.223c-20.405-21.426-31.643-49.52-31.643-79.108v-68.506c0-36.58 6.932-72.245 20.608-106.086h27.773c13.677 33.841 20.609 69.507 20.609 106.086v68.506c0 16.383-3.451 32.305-9.991 46.894-.206.374-.383.755-.52 1.146-5.225 11.321-12.322 21.817-21.132 31.068zm63.014-150.928v85.5c0 5.199 1.867 10.233 5.257 14.175l10.297 11.974c.929 1.081.882 2.251.771 2.852-.11.602-.483 1.712-1.735 2.392-12.302 6.67-27.014 7.27-39.737 1.92 5.755-14.814 8.776-30.702 8.776-46.992v-68.506c0-27.71-3.779-54.92-11.261-81.276 17.872 22.018 27.632 49.398 27.632 77.961zm-45.566-123.067v5.436c-.062-.012-.124-.024-.186-.034-.048-.008-.095-.019-.143-.026-.324-.047-.65-.068-.976-.073-.033 0-.064-.007-.096-.007h-37.796c-.047 0-.092.009-.139.01-.422-.012-.844.007-1.263.065v-5.371c0-11.194 9.106-20.3 20.3-20.3 11.193-.001 20.299 9.106 20.299 20.3zm217.398-76.562v.437c-.059-.011-.119-.023-.178-.033-.052-.009-.102-.021-.154-.028-.321-.046-.645-.068-.969-.072-.034 0-.067-.008-.101-.008h-37.795c-.047 0-.092.01-.139.01-.422-.012-.845.006-1.263.065v-.372c0-11.193 9.106-20.3 20.3-20.3 11.193.001 20.299 9.107 20.299 20.301zm-17.448 268.995c-1.013 1.063-2.222 1.222-2.852 1.222s-1.839-.159-2.853-1.222c-20.405-21.426-31.643-49.52-31.643-79.108v-25.585c0-4.142-3.358-7.5-7.5-7.5s-7.5 3.358-7.5 7.5v25.585c0 16.247 3.005 32.092 8.73 46.872-12.793 5.489-27.645 4.924-40.044-1.8-1.252-.679-1.625-1.79-1.735-2.392-.111-.602-.157-1.771.772-2.852l10.297-11.974c3.39-3.942 5.257-8.976 5.257-14.175v-85.5c0-28.854 9.963-56.499 28.183-78.632-7.609 26.565-11.46 54-11.46 81.946v10.958c0 4.142 3.358 7.5 7.5 7.5s7.5-3.358 7.5-7.5v-10.958c0-36.58 6.932-72.246 20.609-106.085h27.773c13.677 33.84 20.608 69.506 20.608 106.085v68.506c0 16.384-3.452 32.307-9.991 46.896-.205.373-.382.753-.518 1.143-5.225 11.322-12.322 21.819-21.133 31.07zm63.014-150.928v85.5c0 5.199 1.867 10.233 5.257 14.175l10.297 11.974c.929 1.081.882 2.251.772 2.853-.111.602-.483 1.712-1.735 2.391-12.301 6.67-27.015 7.27-39.738 1.92 5.755-14.814 8.776-30.702 8.776-46.993v-68.506c0-27.71-3.778-54.92-11.26-81.275 17.871 22.019 27.631 49.399 27.631 77.961z"/></g></svg>