<svg id="Capa_1" enable-background="new 0 0 508.391 508.391" height="512" viewBox="0 0 508.391 508.391" width="512" xmlns="http://www.w3.org/2000/svg"><g><g id="XMLID_151_"><g><path d="m498.985 230.422c7.32 26.33-7.21 54.25-32.97 63.38-5.8 2.05-11.7 3.02-17.5 3.02-1.46 0-2.91-.06-4.35-.18l-24.45-2.02c-19.69-1.64-27.89 24.59-10.77 34.46l20.66 11.91c6.24 3.6 11.84 8.53 16.35 14.78 15.98 22.18 12.02 53.4-8.99 70.88-13.68 11.38-31.29 14.58-47.11 10.35.16 16.39-7.32 32.65-21.74 43.07-22.15 16.01-53.38 12.09-70.89-8.9-2.47-2.96-4.55-6.1-6.25-9.38-1.7-3.26-3.04-6.66-4-10.12l-14.96-53.63c-5.03-18.04-30.61-18.04-35.64 0l-14.96 53.63c-1.93 6.92-5.32 13.58-10.25 19.5-17.51 20.99-48.74 24.91-70.89 8.9-14.42-10.42-21.9-26.68-21.74-43.07-15.82 4.23-33.43 1.03-47.11-10.35-21.01-17.48-24.97-48.7-8.99-70.88 4.51-6.25 10.11-11.18 16.35-14.78l20.66-11.91c17.12-9.87 8.92-36.1-10.77-34.46l-24.45 2.02c-7.17.6-14.59-.27-21.85-2.84-25.76-9.13-40.29-37.05-32.97-63.38 4.76-17.15 17.41-29.81 32.83-35.34-9.46-13.38-12.57-31-6.66-47.78 9.1-25.78 37-40.33 63.35-33.05 7.42 2.05 14 5.6 19.53 10.19l33.65 27.94c14.81 12.3 36.22-3.4 28.94-21.23l-16.54-40.48c-2.72-6.66-4.12-14-3.85-21.7.96-27.31 23.23-49.56 50.55-50.49 17.78-.6 33.66 7.66 43.57 20.71 9.91-13.05 25.79-21.31 43.57-20.71 27.32.93 49.58 23.18 50.55 50.49.02.63.03 1.25.03 1.88 0 7.01-1.38 13.7-3.88 19.82l-15.94 39.02c-7.29 17.83 14.12 33.53 28.94 21.23l31.89-26.48c5.53-4.59 12.11-8.14 19.53-10.19 26.35-7.28 54.25 7.27 63.35 33.05 5.91 16.78 2.8 34.4-6.66 47.78 15.42 5.53 28.07 18.19 32.83 35.34z" fill="#ffceed"/></g></g><g><path d="m172.054 109.147c-.129-1.836-.166-3.698-.1-5.582.96-27.31 23.23-49.56 50.55-50.49 12.043-.406 23.215 3.252 32.25 9.711 6.738 4.816 15.902 4.816 22.64 0 9.035-6.459 20.207-10.118 32.25-9.711 15.831.539 29.962 8.25 39.237 19.943.029-.718.044-1.441.044-2.166 0-.63-.01-1.25-.03-1.88-.97-27.31-23.23-49.56-50.55-50.49-17.78-.6-33.66 7.66-43.57 20.71-9.91-13.05-25.79-21.31-43.57-20.71-27.32.93-49.59 23.18-50.55 50.49-.27 7.7 1.13 15.04 3.85 21.7z" fill="#ffbee7"/></g><g><path d="m180.261 451.098c-11.196-8.09-18.208-19.701-20.709-32.16-1.118-5.569-6.182-9.497-11.855-9.195-12.68.673-25.667-3.231-36.286-12.065-20.875-17.367-24.909-48.294-9.287-70.446-.815.662-1.7 1.285-2.678 1.849l-20.66 11.91c-6.24 3.6-11.84 8.53-16.35 14.78-15.98 22.18-12.02 53.4 8.99 70.88 13.68 11.38 31.29 14.58 47.11 10.35-.16 16.39 7.32 32.65 21.74 43.07 22.15 16.01 53.38 12.09 70.89-8.9 2.806-3.369 5.095-6.983 6.918-10.743-12.958 1.787-26.563-1.191-37.823-9.33z" fill="#ffbee7"/></g><g><path d="m64.225 296.642 14.972-1.237c-16.331-12.725-24.244-34.561-18.448-55.41 3.837-13.826 12.803-24.734 24.213-31.34 4.252-2.462 5.924-7.765 3.852-12.22-5.561-11.958-6.659-26.032-1.895-39.56 5.442-15.416 17.608-26.81 32.143-31.928l-.608-.505c-5.53-4.59-12.11-8.14-19.53-10.19-26.35-7.28-54.25 7.27-63.35 33.05-5.91 16.78-2.8 34.4 6.66 47.78-15.42 5.53-28.07 18.19-32.83 35.34-7.32 26.33 7.21 54.25 32.97 63.38 7.261 2.57 14.681 3.44 21.851 2.84z" fill="#ffbee7"/></g><circle cx="254.195" cy="261.226" fill="#feaee1" r="60.125"/><path d="m221.929 261.226c0-28.409 19.739-52.211 46.226-58.496-4.473-1.061-9.162-1.629-13.959-1.629-33.206 0-60.125 26.919-60.125 60.125s26.919 60.125 60.125 60.125c4.797 0 9.498-.57 13.97-1.631-26.487-6.286-46.237-30.085-46.237-58.494z" fill="#fe93d3"/><path d="m254.195 288.774c-15.19 0-27.547-12.358-27.547-27.548s12.357-27.547 27.547-27.547 27.547 12.357 27.547 27.547-12.357 27.548-27.547 27.548z" fill="#fe93d3"/><g fill="#ffdff3"><circle cx="254.195" cy="114.456" r="19.972"/><circle cx="394.107" cy="216.885" r="19.972"/><circle cx="351.029" cy="371.52" r="19.972"/><circle cx="114.284" cy="216.885" r="19.972"/></g><g><path d="m192.075 234.526-50.423-15.31c1.067-12.51-6.609-24.571-19.068-28.52-14.438-4.576-29.912 3.448-34.488 17.889s3.448 29.912 17.889 34.488c2.752.872 5.539 1.287 8.283 1.287 8.672-.001 16.89-4.15 22.058-11.086l51.396 15.605c-.742 4.006-1.15 8.129-1.15 12.346 0 4.204.405 8.313 1.143 12.307l-27.02 8.187c-3.964 1.201-6.204 5.389-5.003 9.353.981 3.239 3.957 5.327 7.175 5.327.72 0 1.453-.104 2.178-.324l27.016-8.186c2.997 6.957 7.123 13.317 12.155 18.84l-35.119 39.955c-10.8-5.097-24.116-2.701-32.379 6.71-9.994 11.384-8.864 28.776 2.52 38.77 5.207 4.571 11.67 6.815 18.109 6.815 7.637 0 15.238-3.158 20.661-9.334 8.295-9.448 8.919-23.031 2.386-33.093l35.093-39.925c9.041 6.336 19.69 10.521 31.21 11.798v13.309c0 4.142 3.358 7.5 7.5 7.5s7.5-3.358 7.5-7.5v-13.309c11.519-1.277 22.168-5.462 31.21-11.798l35.093 39.926c-6.533 10.061-5.909 23.645 2.386 33.092 5.423 6.177 13.023 9.334 20.661 9.334 6.438 0 12.903-2.244 18.109-6.815 11.384-9.994 12.514-27.386 2.52-38.77-8.262-9.411-21.578-11.806-32.378-6.71l-35.119-39.955c5.033-5.523 9.159-11.883 12.155-18.84l27.016 8.186c.725.22 1.457.324 2.178.324 3.218 0 6.193-2.088 7.175-5.327 1.201-3.964-1.039-8.151-5.003-9.353l-27.02-8.187c.738-3.994 1.143-8.103 1.143-12.307 0-4.218-.407-8.34-1.15-12.346l51.395-15.605c5.167 6.936 13.385 11.085 22.058 11.085 2.743 0 5.532-.415 8.283-1.287 14.44-4.577 22.465-20.048 17.889-34.489-4.576-14.44-20.047-22.466-34.489-17.888-12.459 3.949-20.135 16.01-19.068 28.52l-50.423 15.31c-3.831-8.88-9.507-16.783-16.55-23.219l16.616-22.852c2.436-3.35 1.695-8.041-1.655-10.477s-8.04-1.694-10.477 1.655l-16.615 22.85c-7.812-4.465-16.588-7.421-25.94-8.458v-53.144c11.513-3.273 19.972-13.875 19.972-26.423 0-15.148-12.324-27.472-27.472-27.472s-27.472 12.324-27.472 27.472c0 12.548 8.459 23.151 19.972 26.423v53.147c-9.352 1.037-18.128 3.993-25.94 8.458l-16.615-22.85c-2.436-3.35-7.125-4.091-10.477-1.655-3.35 2.436-4.091 7.126-1.655 10.477l16.617 22.852c-7.045 6.434-12.72 14.337-16.552 23.217zm-72.049-6.569c-2.957 1.534-6.334 1.825-9.51.818-6.556-2.078-10.2-9.102-8.122-15.658 1.682-5.307 6.605-8.706 11.898-8.706 1.245 0 2.511.188 3.76.584 6.556 2.078 10.199 9.102 8.122 15.658-1.007 3.176-3.19 5.77-6.148 7.304zm270.313-22.962c1.249-.396 2.514-.584 3.76-.584 5.292 0 10.216 3.399 11.898 8.706 2.078 6.556-1.566 13.58-8.122 15.658-3.175 1.007-6.553.716-9.51-.818-2.958-1.534-5.14-4.128-6.147-7.304-2.078-6.555 1.565-13.579 8.121-15.658zm-223.605 174.754c-4.537 5.168-12.433 5.682-17.601 1.144-5.168-4.537-5.682-12.433-1.145-17.601 2.462-2.805 5.914-4.238 9.381-4.238 2.922 0 5.857 1.019 8.221 3.094 5.169 4.536 5.682 12.433 1.144 17.601zm193.667-16.458c4.538 5.168 4.024 13.064-1.144 17.601-5.168 4.538-13.064 4.024-17.601-1.144-4.538-5.168-4.024-13.064 1.144-17.602 2.364-2.076 5.298-3.094 8.221-3.094 3.467.001 6.919 1.435 9.38 4.239zm-53.581-102.065c0 29.018-23.607 52.625-52.625 52.625s-52.625-23.607-52.625-52.625 23.607-52.625 52.625-52.625 52.625 23.608 52.625 52.625zm-65.097-146.77c0-6.877 5.595-12.472 12.472-12.472s12.472 5.595 12.472 12.472-5.595 12.473-12.472 12.473-12.472-5.595-12.472-12.473z"/><path d="m254.195 226.179c-19.325 0-35.047 15.722-35.047 35.047 0 19.326 15.722 35.048 35.047 35.048s35.047-15.723 35.047-35.048c.001-19.325-15.721-35.047-35.047-35.047zm0 55.095c-11.054 0-20.047-8.994-20.047-20.048s8.993-20.047 20.047-20.047 20.047 8.993 20.047 20.047c.001 11.055-8.992 20.048-20.047 20.048z"/><path d="m506.214 228.41c-4.395-15.807-15.078-29.03-29.307-36.718 7.256-14.455 8.434-31.415 2.977-46.887-10.417-29.533-42.224-46.133-72.415-37.781-8.257 2.283-15.77 6.203-22.328 11.65l-31.89 26.479c-4.872 4.044-10.184 2.862-13.531.406-3.348-2.455-6.071-7.167-3.677-13.028l15.945-39.025c.03-.072.058-.145.085-.218 3.164-7.829 4.616-16.096 4.316-24.579-1.107-31.304-26.492-56.658-57.791-57.72-16.393-.56-32.218 5.661-43.825 16.924-11.606-11.264-27.441-17.479-43.825-16.924-31.299 1.063-56.684 26.416-57.791 57.72-.22 6.228.526 12.424 2.218 18.417 1.126 3.987 5.272 6.307 9.256 5.18 3.986-1.125 6.305-5.27 5.18-9.256-1.269-4.494-1.829-9.14-1.664-13.81.83-23.461 19.853-42.463 43.309-43.259 14.584-.487 28.526 6.14 37.345 17.747 1.418 1.866 3.627 2.962 5.972 2.962s4.554-1.096 5.972-2.962c8.819-11.607 22.762-18.238 37.345-17.747 23.456.796 42.479 19.798 43.31 43.259.227 6.424-.883 12.68-3.3 18.593-.028.067-.054.135-.08.203l-15.862 38.823c-4.592 11.239-1.1 23.616 8.69 30.796 9.791 7.181 22.644 6.795 31.985-.961l31.891-26.479c4.914-4.082 10.547-7.02 16.742-8.732 22.628-6.256 46.466 6.18 54.271 28.313 4.848 13.744 2.714 29.053-5.708 40.952-1.354 1.914-1.736 4.35-1.032 6.586.705 2.236 2.414 4.014 4.62 4.806 13.72 4.925 24.242 16.248 28.145 30.289 6.287 22.611-6.123 46.464-28.25 54.303-6.061 2.146-12.361 2.964-18.726 2.438-.075-.006-.15-.012-.225-.016l-24.229-2.01c-12.417-1.038-23.249 6.266-26.964 18.154s1.038 24.056 11.828 30.277l20.67 11.919c5.535 3.191 10.247 7.453 14.005 12.667 13.726 19.045 10.344 45.719-7.699 60.727-11.204 9.32-26.3 12.637-40.383 8.872-2.265-.606-4.682-.117-6.534 1.32s-2.926 3.657-2.902 6.001c.147 14.577-6.816 28.377-18.628 36.916-19.02 13.749-45.698 10.396-60.735-7.633-4.117-4.936-7.074-10.558-8.79-16.71-.02-.069-.04-.138-.061-.206l-.991-3.551c-1.113-3.99-5.25-6.322-9.239-5.209-3.99 1.113-6.322 5.25-5.209 9.239l1.048 3.758c.021.074.042.146.064.219 2.299 8.126 6.22 15.55 11.657 22.068 11.755 14.093 28.838 21.465 46.078 21.464 12.187-.001 24.453-3.685 34.963-11.282 13.298-9.612 21.988-24.224 24.253-40.239 16.074 1.782 32.388-3.004 45-13.495 24.077-20.025 28.59-55.618 10.276-81.029-5.009-6.95-11.294-12.633-18.682-16.892l-20.669-11.919c-5.626-3.245-6.274-8.744-5.003-12.809s4.936-8.206 11.407-7.68l24.455 2.029c.08.007.159.012.238.016 8.417.666 16.736-.432 24.736-3.267 29.524-10.459 46.082-42.287 37.693-72.459z"/><path d="m284.171 413.716-4.934-17.688c-3.172-11.372-13.236-19.013-25.042-19.013s-21.871 7.641-25.042 19.013l-14.9 53.423c-.021.067-.041.135-.06.204-1.715 6.153-4.672 11.775-8.79 16.711-15.036 18.028-41.714 21.381-60.735 7.632-11.812-8.538-18.776-22.338-18.628-36.915.024-2.344-1.05-4.564-2.902-6.002-1.852-1.437-4.269-1.925-6.534-1.32-14.083 3.763-29.179.448-40.384-8.872-18.043-15.007-21.425-41.682-7.699-60.727 3.758-5.214 8.47-9.477 14.006-12.668l20.669-11.919c10.79-6.222 15.543-18.389 11.828-30.277-3.716-11.888-14.552-19.193-26.964-18.154l-24.23 2.01c-.075.004-.149.009-.224.015-6.367.529-12.666-.291-18.726-2.438-22.128-7.839-34.538-31.692-28.251-54.304 3.903-14.041 14.425-25.364 28.145-30.289 2.206-.792 3.915-2.57 4.62-4.806.704-2.236.322-4.672-1.032-6.586-8.422-11.899-10.556-27.208-5.708-40.952 7.806-22.133 31.646-34.569 54.271-28.313 6.196 1.713 11.829 4.651 16.744 8.733l33.645 27.937c9.341 7.756 22.196 8.144 31.985.961 9.79-7.181 13.282-19.557 8.69-30.796l-6.606-16.171c-1.565-3.834-5.943-5.673-9.779-4.106-3.834 1.566-5.673 5.945-4.106 9.779l6.606 16.171c2.395 5.861-.329 10.573-3.676 13.028s-8.66 3.637-13.531-.407l-33.644-27.936c-6.559-5.448-14.072-9.368-22.329-11.651-30.189-8.347-61.999 8.249-72.414 37.781-5.458 15.473-4.28 32.432 2.976 46.887-14.232 7.689-24.915 20.912-29.31 36.719-8.389 30.172 8.169 62 37.695 72.46 8 2.833 16.321 3.933 24.738 3.266.079-.004.158-.009.236-.016l24.454-2.029c6.475-.525 10.137 3.616 11.407 7.68 1.271 4.065.623 9.564-5.003 12.809l-20.669 11.918c-7.388 4.259-13.673 9.942-18.682 16.892-18.314 25.412-13.801 61.004 10.276 81.029 12.613 10.492 28.922 15.277 45 13.495 2.266 16.015 10.956 30.627 24.253 40.239 10.512 7.598 22.775 11.282 34.963 11.282 17.238 0 34.325-7.372 46.078-21.463 5.438-6.519 9.359-13.943 11.657-22.069.023-.072.044-.145.064-.218l14.958-53.628c1.654-5.93 6.557-8.043 10.594-8.043s8.94 2.113 10.594 8.043l4.934 17.688c1.113 3.99 5.25 6.322 9.239 5.209 3.99-1.112 6.322-5.248 5.209-9.238z"/></g></g></svg>