<svg id="Capa_1" enable-background="new 0 0 510.613 510.613" height="512" viewBox="0 0 510.613 510.613" width="512" xmlns="http://www.w3.org/2000/svg"><g><g fill="#fedf30"><path d="m323.014 240.228 40.758 5.697c15.177 2.121 29.031-7.05 33.706-20.676h3.137c9.818 0 17.777-7.959 17.777-17.777v-20.437c0-9.818-7.959-17.777-17.777-17.777h-3.137c-4.675-13.627-18.529-22.798-33.706-20.676l-42.111 5.886-107.97 30.167v36.811z"/><path d="m271.613 102.878 5.697-40.758c2.121-15.177-7.05-29.031-20.676-33.706v-3.137c0-9.818-7.959-17.777-17.777-17.777h-20.437c-9.818 0-17.777 7.959-17.777 17.777v3.137c-13.627 4.675-22.798 18.529-20.676 33.706l5.886 42.111 15.866 95.86h49.208z"/><path d="m134.474 238.222-42.111 5.886c-15.177 2.121-29.031-7.05-33.706-20.676h-3.137c-9.818 0-17.777-7.959-17.777-17.777v-20.437c0-9.818 7.959-17.777 17.777-17.777h3.137c4.675-13.627 18.529-22.798 33.706-20.676l40.758 5.697 104.129 12.587v51.331z"/><path d="m271.424 290.275 5.886 42.111c2.121 15.177-7.05 29.031-20.676 33.706v3.137c0 9.818-7.959 17.777-17.777 17.777h-20.437c-9.818 0-17.777-7.959-17.777-17.777v-3.137c-13.627-4.675-22.798-18.529-20.676-33.706l5.697-40.758 7.45-104.349 65.912-5.974z"/></g><path d="m222.264 152.751-67.248-89.101c-8.045-10.659-22.232-13.544-33.509-8.029l-1.933-1.933c-6.05-6.05-15.858-6.05-21.907 0l-12.593 12.593c-6.05 6.05-6.05 15.858 0 21.907l1.933 1.933c-5.516 11.277-2.63 25.464 8.029 33.509l89.102 67.248 38.127 30.567 31.742-25.466z" fill="#fee97d"/><path d="m273.14 190.879 89.102-67.248c10.659-8.045 13.544-22.232 8.029-33.509l1.933-1.933c6.05-6.05 6.05-15.858 0-21.907l-12.593-12.593c-6.05-6.05-15.858-6.05-21.908 0l-1.933 1.933c-11.277-5.516-25.464-2.63-33.509 8.029l-67.248 89.102-31.995 34.833 32.589 30.612z" fill="#fee97d"/><path d="m273.14 203.627 89.102 67.248c10.659 8.045 13.544 22.232 8.029 33.509l1.933 1.933c6.05 6.05 6.05 15.858 0 21.908l-12.593 12.593c-6.05 6.05-15.858 6.05-21.908 0l-1.933-1.933c-11.277 5.516-25.464 2.63-33.509-8.029l-67.248-89.102-29.259-38.127 29.259-28.957z" fill="#fee97d"/><path d="m222.264 241.755-67.248 89.102c-8.045 10.659-22.232 13.544-33.509 8.029l-1.933 1.933c-6.05 6.05-15.858 6.05-21.907 0l-12.593-12.593c-6.05-6.05-6.05-15.858 0-21.908l1.933-1.933c-5.516-11.277-2.63-25.464 8.029-33.509l89.102-67.248 39.015-28.957 31.459 33.927z" fill="#fee97d"/><g><circle cx="228.639" cy="197.253" fill="#fed402" r="42.975"/></g><path d="m217.906 197.253c0-18.031 11.11-33.459 26.854-39.837-4.98-2.017-10.418-3.138-16.121-3.138-23.734 0-42.975 19.24-42.975 42.975 0 23.734 19.24 42.975 42.975 42.975 5.703 0 11.142-1.121 16.121-3.138-15.744-6.378-26.854-21.806-26.854-39.837z" fill="#fac600"/><g><path d="m479.124 106.432c-.682-4.085-4.537-6.843-8.632-6.165l-18.832 3.139c-5.438-2.882-12.194-6.472-16.931-9.005.169-.541.333-1.084.474-1.634l11.453-44.76 15.235-22.007c2.358-3.406 1.509-8.078-1.897-10.436-3.403-2.358-8.078-1.508-10.435 1.897l-10.25 14.807-12.086-15.204c-2.577-3.243-7.296-3.782-10.538-1.204-3.242 2.577-3.781 7.295-1.204 10.538l16.054 20.197-10.862 42.454c-.732 2.861-2.192 5.505-4.223 7.648l-42.245 44.584c-3.724-.603-7.582-.671-11.471-.127l-13.818 1.931 17.845-13.468c11.732-8.856 16.44-24.068 12.235-37.762 3.396-4.108 5.244-9.222 5.244-14.62 0-6.141-2.392-11.915-6.733-16.257l-12.593-12.593c-8.435-8.435-21.853-8.933-30.876-1.489-13.693-4.204-28.908.503-37.763 12.236l-13.469 17.846 1.932-13.819c2.299-16.446-6.227-32.35-20.671-39.719-.943-13.084-11.89-23.44-25.21-23.44h-20.437c-13.32 0-24.267 10.356-25.211 23.439-14.444 7.369-22.969 23.273-20.67 39.719l1.931 13.819-13.469-17.845c-8.856-11.734-24.07-16.441-37.763-12.236-9.022-7.443-22.439-6.947-30.876 1.489l-12.592 12.593c-8.436 8.437-8.933 21.853-1.489 30.876-4.206 13.695.502 28.907 12.236 37.763l17.846 13.469-13.819-1.932c-16.447-2.299-32.351 6.227-39.719 20.67-13.083.944-23.439 11.891-23.439 25.211v20.437c0 13.32 10.356 24.267 23.439 25.211 6.566 12.871 19.91 21.042 34.376 21.042 1.768 0 3.553-.122 5.343-.373l13.819-1.931-17.845 13.469c-11.734 8.856-16.441 24.068-12.236 37.762-3.396 4.108-5.245 9.222-5.245 14.62 0 6.141 2.392 11.915 6.734 16.257l12.592 12.593c4.482 4.481 10.37 6.722 16.257 6.722 5.195 0 10.39-1.745 14.619-5.233 13.692 4.204 28.908-.502 37.763-12.236l4.004-5.305c2.495-3.306 1.838-8.009-1.468-10.505-3.307-2.496-8.009-1.837-10.505 1.468l-4.004 5.305c-5.64 7.473-15.831 9.917-24.227 5.81-2.878-1.407-6.332-.832-8.599 1.434l-1.933 1.933c-3.116 3.115-8.186 3.117-11.301 0l-12.592-12.593c-3.116-3.116-3.116-8.185 0-11.301l1.933-1.933c2.266-2.266 2.842-5.72 1.434-8.599-4.107-8.397-1.664-18.587 5.81-24.228l81.869-61.789c1.656 4.372 3.897 8.457 6.635 12.155l-16.122 16.122c-2.929 2.929-2.929 7.678 0 10.606 1.464 1.464 3.384 2.197 5.303 2.197s3.839-.732 5.303-2.197l16.122-16.122c3.698 2.739 7.783 4.98 12.155 6.635l-38.343 50.804c-2.495 3.306-1.838 8.009 1.468 10.504.63.475 1.313.825 2.02 1.075l-3.424 24.495c-2.299 16.446 6.226 32.35 20.67 39.719.944 13.083 11.891 23.439 25.211 23.439h20.437c13.32 0 24.267-10.356 25.21-23.439 9.178-4.682 15.961-12.813 19.101-22.337l6.035 20.632c6.533 22.337.613 46.674-15.45 63.513-14.333 15.026-22.227 34.737-22.227 55.503v14.735c0 4.142 3.358 7.5 7.5 7.5 4.143 0 7.5-3.358 7.5-7.5v-14.735c0-16.892 6.421-32.926 18.08-45.149 19.747-20.701 27.024-50.619 18.993-78.078l-9.586-32.774 2.262 2.997c8.854 11.734 24.067 16.442 37.763 12.237 4.229 3.489 9.424 5.234 14.619 5.233 5.888 0 11.775-2.241 16.258-6.723l12.591-12.592c4.343-4.342 6.734-10.116 6.734-16.257 0-5.398-1.848-10.513-5.244-14.62 4.205-13.693-.502-28.906-12.235-37.762l-25.891-19.541c.409-.761.696-1.604.822-2.51.573-4.102-2.287-7.893-6.39-8.466l-11.016-1.54-16.074-12.132h23.704c4.143 0 7.5-3.358 7.5-7.5s-3.357-7.5-7.5-7.5h-43.578l-9.262-6.99c.014-.486.037-.969.037-1.458s-.023-.972-.037-1.458l7.937-5.99h44.903c4.143 0 7.5-3.358 7.5-7.5s-3.357-7.5-7.5-7.5h-25.029l17.4-13.132 40.522-5.664c11.162-1.56 21.921 5.034 25.574 15.682 1.039 3.031 3.89 5.066 7.094 5.066h3.138c5.666 0 10.276 4.61 10.276 10.277v2.718h-34.152c-4.143 0-7.5 3.358-7.5 7.5s3.357 7.5 7.5 7.5h34.151v2.718c0 5.667-4.61 10.277-10.276 10.277h-3.138c-3.204 0-6.055 2.036-7.094 5.066-3.425 9.983-13.168 16.5-23.7 15.864-4.135-.265-7.69 2.896-7.943 7.029-.252 4.134 2.895 7.691 7.029 7.943.783.048 1.563.072 2.339.072 14.515 0 27.809-8.249 34.342-21.04 13.084-.943 23.441-11.89 23.441-25.211v-20.437c0-13.32-10.356-24.267-23.439-25.211-3.084-6.045-7.668-11.049-13.157-14.661l37.764-39.854c2.126 1.138 4.641 2.479 7.164 3.821 3.871 2.059 7.732 4.108 10.155 5.392l7.295 19.281c1.135 3 3.987 4.848 7.016 4.848.882 0 1.779-.157 2.653-.487 3.874-1.466 5.826-5.795 4.36-9.669l-5.062-13.378 12.319-2.053c4.085-.679 6.846-4.542 6.165-8.628zm-170.876-38.265c5.642-7.474 15.83-9.916 24.228-5.809 2.879 1.407 6.333.832 8.599-1.435l1.932-1.932c3.116-3.115 8.186-3.117 11.302 0l12.592 12.593c1.51 1.509 2.341 3.516 2.341 5.651 0 2.134-.831 4.141-2.341 5.65l-1.933 1.933c-2.266 2.266-2.842 5.72-1.434 8.599 4.107 8.397 1.664 18.587-5.81 24.228l-81.869 61.789c-1.656-4.372-3.897-8.456-6.635-12.154l16.122-16.122c2.929-2.929 2.929-7.678 0-10.606-2.93-2.929-7.678-2.929-10.607 0l-16.121 16.122c-3.698-2.739-7.783-4.98-12.155-6.635zm-79.609 164.561c-19.561 0-35.475-15.914-35.475-35.475s15.914-35.475 35.475-35.475 35.475 15.914 35.475 35.475-15.915 35.475-35.475 35.475zm-41.244-171.646c-1.561-11.166 5.035-21.921 15.682-25.574 3.031-1.04 5.066-3.89 5.066-7.094v-3.137c0-5.667 4.61-10.277 10.277-10.277h2.718v34.151c0 4.142 3.358 7.5 7.5 7.5s7.5-3.358 7.5-7.5v-34.151h2.718c5.667 0 10.277 4.61 10.277 10.277v3.137c0 3.204 2.036 6.054 5.066 7.094 10.647 3.653 17.243 14.408 15.683 25.574l-5.665 40.524-12.132 16.074v-23.704c0-4.142-3.358-7.5-7.5-7.5s-7.5 3.358-7.5 7.5v43.579l-6.989 9.26c-.486-.014-.969-.037-1.458-.037s-.973.023-1.458.037l-5.989-7.936v-44.903c0-4.142-3.358-7.5-7.5-7.5s-7.5 3.358-7.5 7.5v25.029l-13.132-17.399zm-93.651 32.335c1.408-2.879.832-6.334-1.435-8.6l-1.932-1.932c-3.116-3.116-3.116-8.186 0-11.301l12.593-12.592c3.116-3.116 8.186-3.115 11.3-.001l1.933 1.933c2.267 2.266 5.721 2.842 8.599 1.435 8.398-4.107 18.587-1.665 24.228 5.81l61.789 81.869c-4.372 1.655-8.457 3.897-12.155 6.635l-16.122-16.122c-2.929-2.929-7.678-2.929-10.606 0-2.929 2.929-2.929 7.678 0 10.606l16.122 16.122c-2.739 3.698-4.98 7.783-6.635 12.155l-81.869-61.789c-7.474-5.642-9.917-15.831-5.81-24.228zm-1.276 145.08c-11.165 1.561-21.921-5.034-25.574-15.682-1.04-3.031-3.89-5.066-7.094-5.066h-3.137c-5.667 0-10.277-4.61-10.277-10.277v-2.718h34.151c4.142 0 7.5-3.358 7.5-7.5s-3.358-7.5-7.5-7.5h-34.151v-2.718c0-5.667 4.61-10.277 10.277-10.277h3.137c3.204 0 6.054-2.036 7.094-5.066 3.653-10.647 14.409-17.238 25.574-15.682l40.524 5.664 16.074 12.132h-23.704c-4.142 0-7.5 3.358-7.5 7.5s3.358 7.5 7.5 7.5h43.579l9.261 6.989c-.014.486-.037.969-.037 1.458s.023.973.037 1.458l-7.936 5.989h-44.904c-4.142 0-7.5 3.358-7.5 7.5s3.358 7.5 7.5 7.5h25.029l-17.399 13.132zm161.732 120.501c-3.031 1.04-5.066 3.89-5.066 7.094v3.137c0 5.667-4.61 10.277-10.277 10.277h-2.718v-34.151c0-4.142-3.358-7.5-7.5-7.5s-7.5 3.358-7.5 7.5v34.151h-2.718c-5.667 0-10.277-4.61-10.277-10.277v-3.137c0-3.204-2.036-6.054-5.066-7.094-10.647-3.653-17.243-14.408-15.682-25.573l5.664-40.524 12.132-16.074v23.704c0 4.142 3.358 7.5 7.5 7.5s7.5-3.358 7.5-7.5v-43.579l6.989-9.261c.486.014.969.037 1.458.037s.973-.023 1.458-.037l5.989 7.935v44.904c0 4.142 3.358 7.5 7.5 7.5s7.5-3.358 7.5-7.5v-25.03l13.131 17.398 5.665 40.526c1.561 11.166-5.034 21.921-15.682 25.574zm103.524-82.136c7.474 5.641 9.917 15.83 5.81 24.228-1.407 2.878-.832 6.333 1.434 8.598l1.934 1.934c1.509 1.509 2.34 3.516 2.34 5.65s-.831 4.141-2.341 5.65l-12.591 12.592c-3.118 3.117-8.188 3.115-11.302.001l-1.933-1.933c-2.266-2.266-5.722-2.842-8.599-1.435-8.4 4.108-18.586 1.664-24.228-5.81l-61.79-81.869c4.372-1.655 8.457-3.897 12.155-6.635l16.121 16.122c1.465 1.464 3.385 2.197 5.304 2.197s3.839-.732 5.304-2.197c2.929-2.929 2.929-7.678 0-10.606l-16.122-16.122c2.739-3.698 4.98-7.783 6.635-12.154z"/></g></g></svg>