<svg id="Capa_1" enable-background="new 0 0 512.454 512.454" height="512" viewBox="0 0 512.454 512.454" width="512" xmlns="http://www.w3.org/2000/svg"><g><path d="m333.225 471.945-40.592 12.577c-12.687 3.931-26.506 1.007-36.512-7.728 3.315-12.862 13.059-23.087 25.746-27.018l40.592-12.577c21.655-6.71 44.749-7.273 66.706-1.628-14.918 17.071-34.284 29.664-55.94 36.374z" fill="#97da7b"/><path d="m179.016 471.945 40.592 12.577c12.687 3.931 26.506 1.007 36.512-7.728-3.315-12.862-13.059-23.087-25.746-27.018l-40.592-12.577c-21.655-6.71-44.749-7.273-66.706-1.628 14.918 17.071 34.284 29.664 55.94 36.374z" fill="#97da7b"/><g fill="#d9b1ee"><path d="m237.593 123.619-26.663-61.557c-4.282-9.885-10.653-18.725-18.677-25.913l-12.11-10.848c-3.31-2.965-8.575-.685-8.676 3.758l-.371 16.254c-.246 10.769 1.844 21.464 6.126 31.349l23.971 55.34 36.667 80.75 36.734-20.988z"/><path d="m306.283 136.634 24.673-62.381c3.962-10.017 5.707-20.774 5.116-31.53l-.892-16.233c-.244-4.438-5.579-6.548-8.792-3.478l-11.755 11.231c-7.789 7.441-13.874 16.482-17.836 26.499l-22.181 56.081-46.896 98.527 46.874 16.221z"/><path d="m345.65 194.408 61.557-26.663c9.885-4.282 18.725-10.653 25.913-18.677l10.848-12.11c2.965-3.31.685-8.575-3.758-8.676l-16.254-.371c-10.77-.246-21.464 1.844-31.349 6.126l-55.34 23.971-93.233 37.99 12.194 31.309z"/><path d="m332.635 263.097 62.381 24.673c10.017 3.962 20.774 5.707 31.53 5.116l16.233-.892c4.438-.244 6.548-5.579 3.478-8.792l-11.231-11.755c-7.441-7.789-16.482-13.874-26.499-17.836l-56.081-22.181-85.332-38.642-19.498 30.484z"/><path d="m311.262 294.081 23.971 55.34c4.282 9.885 6.371 20.58 6.126 31.349l-.371 16.254c-.101 4.443-5.366 6.723-8.676 3.758l-12.11-10.848c-8.024-7.188-14.396-16.028-18.677-25.913l-26.663-61.557-37.268-83.494 39.543-20.821z"/><path d="m237.839 309.26-22.181 56.081c-3.962 10.017-10.047 19.057-17.836 26.499l-11.755 11.231c-3.213 3.07-8.548.96-8.792-3.478l-.892-16.233c-.591-10.756 1.154-21.513 5.116-31.53l24.673-62.381 24.161-74.1 29.689 8.245z"/><path d="m175.188 268.076-55.34 23.971c-9.885 4.282-20.58 6.372-31.349 6.126l-16.254-.371c-4.443-.101-6.723-5.366-3.758-8.676l10.848-12.11c7.188-8.024 16.028-14.396 25.913-18.677l61.557-26.663 60.558-29.662 21.912 32.353z"/><path d="m160.009 194.654-56.081-22.181c-10.017-3.962-19.057-10.047-26.499-17.836l-11.231-11.755c-3.07-3.213-.96-8.548 3.478-8.792l16.233-.892c10.756-.591 21.513 1.154 31.53 5.116l62.381 24.673 69.455 20.468-8.427 30.964z"/></g><path d="m256.227 227.306 73.362-26.989c-2.138-12.36-7.329-23.68-14.772-33.162l-70.784 28.842z" fill="#cb97e7"/><path d="m227.72 215.35 46.874 16.221 26.11-78.224c-10.446-7.803-22.999-12.928-36.637-14.362z" fill="#cb97e7"/><path d="m309.768 185.476 70.141-70.141c7.617-7.617 13.494-16.794 17.227-26.899l5.633-15.251c1.54-4.169-2.517-8.226-6.686-6.686l-15.251 5.633c-10.105 3.733-19.282 9.61-26.899 17.227l-70.141 70.141-37.809 38.648 23.08 20.821z" fill="#e5caf3"/><path d="m246.095 139.278c-13.03 1.781-24.996 6.937-34.984 14.568l26.749 58.907 36.734-20.988z" fill="#cb97e7"/><path d="m274.594 155.691v-99.195c0-10.772-2.333-21.417-6.839-31.201l-6.8-14.767c-1.859-4.037-7.596-4.037-9.455 0l-6.8 14.767c-4.506 9.785-6.839 20.429-6.839 31.201v99.195 57.062s35.525 5.844 35.525 0 1.208-57.062 1.208-57.062z" fill="#e5caf3"/><path d="m182.878 200.245 57.968 14.173 8.427-30.964-52.327-15.421c-7.063 9.281-11.988 20.262-14.068 32.212z" fill="#cb97e7"/><path d="m228.661 159.501-70.141-70.141c-7.617-7.617-16.794-13.494-26.899-17.227l-15.25-5.633c-4.169-1.54-8.226 2.517-6.686 6.686l5.633 15.251c3.733 10.105 9.61 19.282 17.227 26.899l70.141 70.141 34.907 33.495 22.428-18.787z" fill="#e5caf3"/><path d="m197.019 258.143 52.255-23.777-21.912-32.353-44.799 21.944c1.876 12.722 6.984 24.4 14.456 34.186z" fill="#cb97e7"/><path d="m198.876 231.409h-99.195c-10.772 0-21.417-2.333-31.201-6.839l-14.767-6.8c-4.037-1.859-4.037-7.596 0-9.455l14.767-6.8c9.785-4.506 20.429-6.839 31.201-6.839h99.195 45.157v37.001z" fill="#e5caf3"/><path d="m247.615 223.272 69.508 32.559c7.03-9.974 11.676-21.736 13.099-34.465l-63.108-28.578z" fill="#cb97e7"/><path d="m313.578 231.409h99.195c10.772 0 21.417-2.333 31.201-6.839l14.767-6.8c4.037-1.859 4.037-7.596 0-9.455l-14.767-6.8c-9.785-4.506-20.429-6.839-31.201-6.839h-99.195-64.304v37.001z" fill="#e5caf3"/><path d="m267.785 286.612c13.213-2.068 25.279-7.627 35.237-15.694l-25.886-72.769-39.543 20.821z" fill="#cb97e7"/><path d="m309.768 240.608 70.141 70.141c7.617 7.617 13.494 16.794 17.227 26.899l5.633 15.251c1.54 4.169-2.517 8.226-6.686 6.686l-15.251-5.633c-10.105-3.733-19.282-9.61-26.899-17.227l-70.141-70.141-37.809-39.277 31.812-22.692z" fill="#e5caf3"/><path d="m211.646 272.659c9.27 6.95 20.213 11.773 32.1 13.788l16.275-62.852-29.689-8.245z" fill="#cb97e7"/><path d="m228.661 266.583-70.141 70.141c-7.617 7.617-16.794 13.494-26.899 17.227l-15.251 5.633c-4.169 1.54-8.226-2.517-6.686-6.686l5.633-15.251c3.733-10.105 9.61-19.282 17.227-26.899l70.141-70.141 41.347-35.993 23.08 21.741z" fill="#e5caf3"/><path d="m274.594 270.393v99.195c0 10.772-2.333 21.417-6.839 31.201l-6.8 14.767c-1.859 4.037-7.596 4.037-9.455 0l-6.8-14.767c-4.506-9.785-6.839-20.429-6.839-31.201v-99.195-48.924h35.525z" fill="#e5caf3"/><path d="m249.274 194.675v37.001l64.304-.267h14.823c1.497-5.878 2.297-12.03 2.297-18.367s-.801-12.49-2.297-18.367h-14.823z" fill="#d9b1ee"/><path d="m256.227 138.57c-6.337 0-12.49.801-18.367 2.297v14.823 57.062s35.525 5.844 35.525 0 1.209-57.062 1.209-57.062v-14.823c-5.877-1.496-12.03-2.297-18.367-2.297z" fill="#d9b1ee"/><path d="m269.064 218.971 40.704-33.495 10.458-10.458c-6.361-10.666-15.309-19.614-25.975-25.975l-10.458 10.458-37.809 38.648z" fill="#d9b1ee"/><path d="m309.768 240.608-31.972-35.993-31.812 22.692 37.809 39.277 10.458 10.458c10.666-6.361 19.614-15.309 25.975-25.975z" fill="#d9b1ee"/><path d="m237.86 221.469v48.924 14.824c5.878 1.497 12.03 2.297 18.367 2.297s12.49-.801 18.367-2.297v-14.824l-1.209-48.924z" fill="#d9b1ee"/><path d="m244.033 204.615-41.347 35.993-10.458 10.458c6.361 10.666 15.309 19.614 25.975 25.975l10.458-10.458 38.452-40.227z" fill="#d9b1ee"/><path d="m184.052 194.675c-1.497 5.878-2.297 12.03-2.297 18.367s.801 12.489 2.297 18.367h14.823l45.157.267v-37.001h-45.157z" fill="#d9b1ee"/><path d="m202.686 185.476 34.907 33.495 22.428-18.787-31.36-40.682-10.458-10.458c-10.666 6.361-19.614 15.309-25.975 25.975z" fill="#d9b1ee"/><circle cx="256.23" cy="213.036" fill="#fee45a" r="57.472"/><path d="m222.185 213.042c0-27.726 19.642-50.871 45.765-56.282-3.783-.783-7.708-1.19-11.723-1.19-31.741 0-57.472 25.731-57.472 57.471 0 31.741 25.731 57.472 57.472 57.472 4.015 0 7.94-.413 11.723-1.196-26.123-5.41-45.765-28.549-45.765-56.275z" fill="#fed402"/><g><path d="m461.878 201.502-14.767-6.8c-10.693-4.924-22.567-7.527-34.339-7.527h-31.553l28.969-12.548c10.803-4.68 20.664-11.788 28.518-20.555l10.849-12.11c3.348-3.738 4.188-8.921 2.193-13.526s-6.351-7.537-11.368-7.651l-16.253-.371c-11.783-.269-23.7 2.063-34.502 6.742l-19.279 8.351 14.867-14.867c8.323-8.323 14.879-18.56 18.959-29.604l5.633-15.25c1.739-4.708.615-9.837-2.934-13.386-3.55-3.549-8.681-4.673-13.386-2.934l-15.251 5.633c-11.043 4.079-21.279 10.634-29.604 18.958l-22.311 22.311 11.611-29.356c4.33-10.948 6.277-22.947 5.63-34.699l-.893-16.232c-.274-5.011-3.344-9.271-8.01-11.118-4.667-1.845-9.82-.841-13.451 2.627l-11.754 11.23c-8.513 8.133-15.3 18.217-19.63 29.164l-7.728 19.537v-21.025c0-11.772-2.603-23.646-7.526-34.338l-6.801-14.768c-2.1-4.558-6.521-7.39-11.54-7.39s-9.44 2.832-11.54 7.391l-6.801 14.767c-4.924 10.692-7.526 22.566-7.526 34.338v31.554l-12.548-28.969c-4.679-10.801-11.787-20.662-20.556-28.518l-12.109-10.848c-3.737-3.348-8.921-4.19-13.526-2.195s-7.538 6.351-7.652 11.369l-.37 16.253c-.269 11.769 2.063 23.7 6.742 34.502l8.351 19.281-14.868-14.868c-8.324-8.324-18.561-14.88-29.604-18.958l-15.251-5.633c-4.707-1.741-9.837-.615-13.386 2.934s-4.673 8.678-2.934 13.386l5.633 15.251c4.08 11.043 10.636 21.28 18.959 29.603l22.312 22.312-29.357-11.611c-10.945-4.329-22.933-6.273-34.7-5.631l-16.233.893c-5.011.276-9.271 3.346-11.116 8.013-1.846 4.667-.839 9.82 2.628 13.449l11.23 11.754c8.131 8.511 18.215 15.299 29.163 19.629l19.539 7.728h-21.026c-11.772 0-23.646 2.603-34.339 7.526l-14.768 6.801c-4.558 2.099-7.389 6.521-7.39 11.539 0 5.019 2.831 9.44 7.391 11.541l14.767 6.8c7.186 3.309 14.86 5.559 22.811 6.688.357.05.712.075 1.063.075 3.675 0 6.885-2.704 7.416-6.447.582-4.101-2.271-7.897-6.372-8.48-6.508-.923-12.78-2.761-18.644-5.461l-10.24-4.715 10.241-4.716c8.737-4.024 18.442-6.151 28.063-6.151h92.501c-.598 3.536-.927 7.163-.927 10.867s.328 7.331.927 10.867h-71.013c-4.143 0-7.5 3.358-7.5 7.5s3.357 7.5 7.5 7.5h10.066l-28.969 12.548c-10.803 4.68-20.664 11.788-28.518 20.555l-10.847 12.11c-3.348 3.738-4.188 8.921-2.193 13.526 1.994 4.605 6.351 7.537 11.368 7.652l16.253.371c.609.014 1.219.021 1.828.021 11.173 0 22.431-2.326 32.674-6.763l19.279-8.351-14.867 14.867c-8.323 8.324-14.879 18.56-18.959 29.603l-5.633 15.25c-1.739 4.708-.615 9.837 2.934 13.386 2.445 2.445 5.64 3.739 8.93 3.739 1.486 0 2.992-.264 4.456-.805l15.251-5.633c11.043-4.08 21.279-10.635 29.604-18.959l22.311-22.311-11.611 29.357c-4.33 10.948-6.277 22.947-5.63 34.7l.893 16.232c.274 5.011 3.344 9.271 8.011 11.118 1.546.612 3.144.91 4.724.91 3.189 0 6.3-1.219 8.727-3.538l11.755-11.231c8.513-8.132 15.3-18.217 19.63-29.164l7.728-19.537v21.025c0 11.772 2.603 23.646 7.526 34.339l6.801 14.768c.936 2.031 2.335 3.717 4.04 4.965v27.802c-4.636-3.933-10.082-6.974-16.133-8.849l-8.223-2.547c-3.959-1.226-8.157.988-9.384 4.945-1.226 3.957.988 8.158 4.944 9.383l8.223 2.547c8.705 2.697 15.59 8.938 19.125 17.115-7.539 4.746-16.747 5.999-25.452 3.303l-40.592-12.577c-16.03-4.967-30.705-13.353-43.064-24.532 16.518-2.233 33.359-.854 49.391 4.114l1.063.33c3.957 1.225 8.157-.988 9.384-4.944 1.226-3.957-.987-8.158-4.943-9.384l-1.064-.33c-22.997-7.125-47.476-7.723-70.794-1.727-2.521.648-4.525 2.558-5.296 5.044-.771 2.487-.196 5.195 1.517 7.155 15.843 18.128 36.372 31.477 59.368 38.602l40.592 12.577c4.511 1.397 9.11 2.082 13.666 2.082 6.081 0 12.08-1.222 17.673-3.593v14.78c0 4.142 3.357 7.5 7.5 7.5s7.5-3.358 7.5-7.5v-14.696c5.532 2.313 11.455 3.508 17.46 3.508 4.554 0 9.155-.685 13.665-2.082l40.593-12.577c22.996-7.125 43.525-20.474 59.368-38.602 1.713-1.96 2.287-4.668 1.517-7.155-.771-2.486-2.775-4.396-5.296-5.044-23.318-5.996-47.799-5.398-70.794 1.727l-40.593 12.577c-5.958 1.846-11.331 4.82-15.92 8.664v-27.617c1.705-1.248 3.104-2.934 4.04-4.965l6.801-14.767c4.924-10.692 7.526-22.566 7.526-34.339v-31.554l12.548 28.969c4.68 10.802 11.787 20.663 20.556 28.518l12.108 10.847c2.396 2.146 5.385 3.263 8.436 3.263 1.709 0 3.438-.351 5.092-1.067 4.605-1.995 7.538-6.351 7.652-11.369l.37-16.253c.269-11.769-2.063-23.7-6.742-34.501l-9.624-22.218c.536.119 1.081.185 1.627.185 1.919 0 3.839-.732 5.304-2.197 2.929-2.929 2.929-7.678 0-10.606l-45.612-45.612c5.941-4.229 11.139-9.427 15.368-15.368l65.428 65.429c6.804 6.803 12.161 15.169 15.495 24.194l3.906 10.575-10.575-3.906c-7.992-2.953-15.261-7.34-21.603-13.04-3.084-2.771-7.825-2.515-10.592.564-2.769 3.081-2.516 7.823.564 10.592 7.76 6.974 16.652 12.341 26.433 15.954l15.251 5.633c1.465.542 2.97.805 4.456.805 3.29 0 6.485-1.294 8.93-3.739 3.549-3.549 4.673-8.678 2.934-13.386l-5.634-15.25c-4.078-11.042-10.634-21.279-18.958-29.603l-22.316-22.314 29.358 11.612c9.575 3.788 19.955 5.752 30.274 5.752 1.477 0 2.954-.04 4.425-.121l16.234-.892c5.011-.276 9.271-3.346 11.116-8.014 1.846-4.667.839-9.82-2.628-13.448l-11.23-11.756c-8.132-8.511-18.217-15.299-29.163-19.628l-19.539-7.728h21.026c11.771 0 23.645-2.603 34.338-7.527l14.769-6.801c4.558-2.099 7.39-6.521 7.39-11.54s-2.833-9.44-7.392-11.54zm-177.792 255.438 40.593-12.577c16.031-4.967 32.876-6.347 49.39-4.114-12.358 11.18-27.033 19.565-43.063 24.532l-40.593 12.577c-8.706 2.698-17.911 1.443-25.451-3.303 3.535-8.178 10.419-14.418 19.124-17.115zm111.501-316.021c8.826-3.824 18.537-5.728 28.197-5.51l11.271.257-7.522 8.397c-6.418 7.166-14.478 12.975-23.308 16.799l-60.746 26.313h-24.803l22.83-22.831zm-36.349-46.256c6.803-6.803 15.169-12.161 24.193-15.494l10.575-3.907-3.905 10.575c-3.335 9.025-8.693 17.392-15.496 24.195l-65.428 65.429c-4.229-5.941-9.428-11.139-15.369-15.368zm-55.467-31.163c3.538-8.946 9.085-17.188 16.042-23.834l8.151-7.788.619 11.257c.528 9.604-1.063 19.411-4.603 28.359l-24.347 61.558-17.539 17.539v-32.287zm-52.26-35.068 4.716-10.24 4.716 10.24c4.024 8.739 6.151 18.443 6.151 28.064v92.501c-3.536-.598-7.163-.927-10.867-.927s-7.331.328-10.867.927v-92.501c0-9.621 2.127-19.325 6.151-28.064zm-67.407 45.25c-3.824-8.828-5.729-18.579-5.51-28.197l.257-11.271 8.396 7.522c7.167 6.42 12.977 14.48 16.801 23.308l26.312 60.745v24.804l-22.831-22.831zm-61.751 12.155-3.905-10.575 10.575 3.906c9.024 3.334 17.391 8.692 24.193 15.495l65.43 65.429c-5.941 4.229-11.14 9.427-15.369 15.368l-65.428-65.429c-6.803-6.802-12.161-15.169-15.496-24.194zm-15.667 79.662c-8.947-3.54-17.189-9.087-23.835-16.043l-7.788-8.151 11.257-.619c9.612-.524 19.414 1.063 28.359 4.602l61.56 24.349 17.539 17.539h-32.287zm10.181 119.666c-8.828 3.824-18.586 5.731-28.197 5.51l-11.271-.257 7.522-8.397c6.418-7.166 14.478-12.975 23.308-16.799l60.746-26.313h24.803l-22.83 22.831zm36.349 46.255c-6.803 6.803-15.169 12.161-24.193 15.495l-10.575 3.907 3.905-10.575c3.335-9.025 8.692-17.392 15.496-24.194l65.428-65.429c4.229 5.941 9.427 11.139 15.368 15.368zm55.467 31.163c-3.538 8.946-9.085 17.188-16.042 23.834l-8.151 7.788-.619-11.257c-.528-9.605 1.063-19.411 4.603-28.359l24.348-61.559 17.539-17.539v32.287zm52.26 35.069-4.716 10.24-4.716-10.24c-4.024-8.739-6.151-18.443-6.151-28.064v-92.5c3.536.598 7.163.927 10.867.927s7.331-.328 10.867-.927v92.5c0 9.62-2.127 19.325-6.151 28.064zm72.66-5.782-8.397-7.522c-7.166-6.419-12.975-14.479-16.8-23.307l-26.312-60.745v-24.806l22.83 22.831 23.425 54.081c3.824 8.828 5.729 18.578 5.51 28.197zm-77.376-128.856c-27.555 0-49.972-22.417-49.972-49.972s22.417-49.972 49.972-49.972 49.972 22.417 49.972 49.972-22.417 49.972-49.972 49.972zm149.541-2.429c8.947 3.539 17.188 9.086 23.835 16.042l7.788 8.152-11.258.619c-9.607.531-19.413-1.063-28.358-4.602l-61.56-24.349-17.538-17.538h32.288zm35.069-42.828c-8.74 4.024-18.444 6.152-28.064 6.152h-92.501c.598-3.536.927-7.163.927-10.867s-.328-7.331-.927-10.867h92.501c9.621 0 19.325 2.127 28.064 6.152l10.239 4.715z"/></g></g></svg>