<svg id="Capa_1" enable-background="new 0 0 510.625 510.625" height="512" viewBox="0 0 510.625 510.625" width="512" xmlns="http://www.w3.org/2000/svg"><g><path d="m322.728 23.322-4.185-8.961c-2.718-5.819-9.578-8.411-15.464-5.843l-9.065 3.954c-7.916 3.452-14.808 8.708-20.188 15.252l-22.92 55.49 38.456 20.951 24.695 10.4 13.447-62.494c1.055-9.754-.551-19.704-4.776-28.749z" fill="#ffe2df"/><path d="m396.286 86.696-9.206-3.614c-7.615-2.99-15.726-4.186-23.727-3.604l-72.138 18.813 12.449 12.313 14.505 36.634 17.475 22.466 47.006-34.851c7.697-6.161 13.638-14.365 17.063-23.794l3.377-9.296c2.191-6.036-.826-12.72-6.804-15.067z" fill="#ffe2df"/><path d="m362.432 63.867c-.082-6.421-5.268-11.607-11.689-11.689l-7.975-.102c-10.334-.133-20.369 2.982-28.743 8.789l-41.927 40.201 35.568 37.067 4.248 3.881 41.495-40.948c6.024-8.469 9.261-18.691 9.126-29.223z" fill="#ffd9d7"/><path d="m236.972 110.783 37.697-15.681-45.041-62.838c-6.112-7.446-14.158-13.197-23.374-16.545l-9.295-3.377c-6.036-2.193-12.72.825-15.067 6.803l-3.615 9.206c-3.11 7.922-4.28 16.381-3.524 24.695l34.706 69.182 27.053-11.254.287-.074z" fill="#ffe2df"/><path d="m282.92 48.997c-1.729-10.248-6.668-19.765-14.211-27.117l-5.712-5.567c-4.599-4.482-11.932-4.482-16.531 0l-5.712 5.567c-7.401 7.213-12.295 16.511-14.11 26.539l6.624 65.227h47.297z" fill="#ffd9d7"/><path d="m148.433 88.067c-10.126-1.318-20.51.242-29.916 4.636l-8.961 4.185c-5.818 2.718-8.411 9.578-5.843 15.464l3.954 9.065c3.338 7.652 8.361 14.349 14.604 19.646l58.328 19.636 15.662-37.495 5.882-21.81z" fill="#ffe2df"/><path d="m196.26 62.023c-8.469-6.024-18.691-9.261-29.223-9.126l-7.975.102c-6.421.082-11.607 5.268-11.689 11.689l-.103 7.975c-.133 10.334 2.982 20.369 8.789 28.743l37.049 44.035 13.998-14.371 19.54-20.49 11.611-15.477z" fill="#ffd9d7"/><path d="m196.26 164.171s-2.046-5.832-2.534-5.832-65.544 26.882-65.544 26.882c-7.797 6.18-13.813 14.445-17.268 23.957l-3.377 9.296c-2.193 6.036.825 12.72 6.803 15.067l9.206 3.614c7.868 3.089 16.265 4.263 24.524 3.54l68.471-35.146z" fill="#ffe2df"/><path d="m363.387 232.311c9.746 1.049 19.685-.557 28.722-4.778l8.961-4.185c5.819-2.718 8.411-9.578 5.843-15.464l-3.954-9.065c-3.452-7.915-8.708-14.808-15.251-20.187l-61.137-22.196-22.907 50.639z" fill="#ffe2df"/><path d="m366.433 187.725c10.248-1.729 19.765-6.668 27.117-14.211l5.567-5.712c4.482-4.599 4.482-11.932 0-16.531l-5.567-5.712c-7.213-7.401-16.511-12.295-26.539-14.11l-45.929-3.862-6.324 51.044z" fill="#ffd9d7"/><path d="m335.953 268.175c.579 7.996-.617 16.1-3.605 23.71l-3.614 9.206c-2.347 5.978-9.031 8.996-15.067 6.803l-9.296-3.377c-9.429-3.425-17.633-9.366-23.794-17.064l-32.184-58.881 54.702-35.407z" fill="#ffe2df"/><path d="m236.799 292.513c-5.379 6.544-12.272 11.799-20.187 15.252l-9.065 3.954c-5.886 2.567-12.746-.025-15.464-5.843l-4.185-8.961c-4.283-9.169-5.874-19.268-4.73-29.151l4.521-54.703 45.774-11.919 32.696 27.431z" fill="#ffe2df"/><path d="m283.981 271.817c-1.815 10.027-6.709 19.325-14.11 26.539l-11.593 11.299c-1.326 1.293-3.442 1.293-4.768 0l-11.593-11.299c-7.543-7.352-12.482-16.869-14.211-27.117l-4.052-70.097h55.766z" fill="#ffd9d7"/><path d="m231.206 198.993-41.008-23.279-32.981 43.457c-6.024 8.469-9.261 18.691-9.126 29.223l.103 7.975c.082 6.421 5.268 11.607 11.689 11.689l7.975.102c10.334.133 20.369-2.982 28.743-8.789l45.23-51.21z" fill="#ffd9d7"/><g><path d="m143.614 188.786c-10.027-1.815-19.325-6.709-26.539-14.11l-5.567-5.712c-4.482-4.599-4.482-11.932 0-16.531l5.567-5.712c7.352-7.543 16.869-12.482 27.117-14.211l66.004-2.149 6.344 53.863z" fill="#ffd9d7"/><g fill="#fecec8"><path d="m177.286 102.602c-6.913.392-13.757 2.102-20.146 5.112l-10.682 5.033c-4.912 2.314-7.083 8.122-4.896 13.091l4.758 10.808c3.528 8.015 8.896 14.979 15.57 20.387l52.143 7.136 12.613-37.637z"/><path d="m252.229 253.541c-5.409 6.674-12.372 12.042-20.387 15.57l-10.808 4.758c-4.969 2.188-10.777.016-13.091-4.896l-5.034-10.682c-2.818-5.981-4.496-12.36-5.021-18.821l11.915-57.044 52.166 11.203z"/></g></g><path d="m312.627 79.567c-.626-6.051-2.267-12.011-4.91-17.622l-5.034-10.682c-2.314-4.911-8.122-7.083-13.091-4.896l-10.808 4.758c-8.015 3.528-14.979 8.896-20.388 15.57l-14.334 24.069-7.263 41.243 11.392 3.909.203 2.217 38.261 10.981 22.131-45.637z" fill="#fecec8"/><g><g fill="#fecec8"><path d="m252.229 66.695c-5.409-6.674-12.373-12.042-20.388-15.57l-10.808-4.758c-4.969-2.187-10.777-.016-13.091 4.896l-5.034 10.682c-2.644 5.611-4.284 11.571-4.91 17.622l24.733 56.444 39.237-11.169z"/><path d="m176.931 217.613c-6.792-.43-13.511-2.132-19.79-5.091l-10.682-5.034c-4.912-2.314-7.083-8.122-4.896-13.091l4.758-10.808c3.528-8.015 8.896-14.979 15.57-20.388l54.867-14.088 13.287 41.294z"/><path d="m348.736 157.034c6.674-5.409 12.042-12.373 15.57-20.387l4.758-10.808c2.188-4.969.016-10.777-4.896-13.091l-10.682-5.033c-6.389-3.011-13.233-4.72-20.146-5.112l-52.774 11.044 10.641 45.891z"/></g><path d="m354.567 218.83c5.807 8.374 8.921 18.409 8.789 28.743l-.102 7.975c-.082 6.421-5.268 11.607-11.689 11.689l-7.975.102c-10.532.135-20.754-3.102-29.223-9.126l-48.208-59.563 35.55-26.492z" fill="#ffd9d7"/><path d="m305.644 180.641-8.885 1.785-48.366 11.67 10.003 59.446c5.409 6.674 12.372 12.042 20.387 15.57l10.808 4.758c4.969 2.188 10.777.016 13.091-4.896l5.034-10.682c2.818-5.981 4.496-12.36 5.021-18.821z" fill="#fecec8"/></g><path d="m333.695 217.613c6.792-.43 13.511-2.132 19.79-5.091l10.682-5.034c4.912-2.314 7.083-8.122 4.896-13.091l-4.758-10.808c-3.528-8.015-8.896-14.979-15.571-20.388l-52.297-15.964-13.212 55.266z" fill="#fecec8"/><g fill="#fec0b7"><path d="m230.785 97.158-.215-.215c-9.072-9.066-21.419-14.085-34.243-13.921l-9.036.116c-5.429.07-9.813 4.454-9.883 9.883l-.116 9.061c-.164 12.817 4.856 25.157 13.921 34.218l.555.555 41.448 35.302 30.47-36.146z"/><path d="m318.273 135.59.215-.215c9.065-9.059 14.086-21.397 13.921-34.213l-.116-9.067c-.07-5.429-4.454-9.813-9.883-9.883l-9.043-.116c-12.822-.165-25.168 4.855-34.237 13.921l-.555.555-41.776 49.652 38.863 32.409z"/><path d="m318.859 183.38.555.555c9.065 9.063 14.085 21.404 13.921 34.221l-.116 9.058c-.07 5.429-4.454 9.813-9.883 9.883l-9.052.116c-12.814.165-25.152-4.851-34.217-13.91l-.226-.226-39.869-41.049 26.519-32.916z"/><path d="m232.051 223.664-.555.555c-9.069 9.066-21.415 14.085-34.237 13.921l-9.043-.116c-5.429-.07-9.813-4.454-9.883-9.883l-.116-9.06c-.165-12.817 14.136-34.436 14.136-34.436l32.706-35.533 36.911 20.42z"/></g><path d="m284.757 184.225h25.703c11.373 0 22.263-4.593 30.201-12.737l9.086-9.322c1.425-1.462 1.425-3.794 0-5.256l-9.086-9.322c-7.938-8.144-18.829-12.738-30.202-12.738h-25.703-35.021v49.375z" fill="#feb2a7"/><path d="m280.581 189.562v25.703c0 11.373-4.593 22.264-12.738 30.202l-8.968 8.741c-1.659 1.617-4.304 1.617-5.963 0l-8.969-8.741c-8.144-7.938-12.737-18.828-12.737-30.201v-25.704l.845-32.528h46.524z" fill="#feb2a7"/><path d="m255.894 185.387v-49.375h-30.025-25.703c-11.373 0-22.263 4.593-30.201 12.737l-8.43 8.649c-1.79 1.837-1.79 4.766 0 6.603l8.429 8.649c7.938 8.144 18.829 12.738 30.202 12.738h55.728z" fill="#feb2a7"/><path d="m279.419 130.674v-25.704c0-11.373-4.593-22.263-12.737-30.201l-8.712-8.491c-1.801-1.756-4.674-1.756-6.475 0l-8.712 8.491c-8.144 7.938-12.738 18.828-12.738 30.201v25.704 33.497h48.971z" fill="#feb2a7"/><circle cx="255.313" cy="160.118" fill="#ffa799" r="35.902"/><path d="m244.679 160.118c0-15.381 9.675-28.497 23.268-33.609-3.931-1.478-8.187-2.293-12.634-2.293-19.828 0-35.902 16.074-35.902 35.902s16.074 35.902 35.902 35.902c4.447 0 8.704-.814 12.634-2.293-13.593-5.112-23.268-18.228-23.268-33.609z" fill="#fe8f83"/><path d="m218.017 441.308h37.826v-26.792c0-19.446-15.764-35.209-35.209-35.209h-33.881c-2.178 0-3.944 1.766-3.944 3.944v22.848c-.001 19.445 15.763 35.209 35.208 35.209z" fill="#97da7b"/><path d="m293.669 441.308h-37.826v-26.792c0-19.446 15.764-35.209 35.209-35.209h33.881c2.178 0 3.944 1.766 3.944 3.944v22.848c.001 19.445-15.763 35.209-35.208 35.209z" fill="#97da7b"/><path d="m413.787 204.886-3.953-9.065c-2.708-6.208-6.475-11.942-11.043-16.944.042-.043.087-.084.13-.128l5.567-5.712c7.378-7.57 7.379-19.43-.001-27.001l-5.566-5.711c-1.777-1.824-3.665-3.506-5.639-5.058 5.932-6.178 10.535-13.541 13.479-21.648l3.378-9.296c3.608-9.936-1.272-20.746-11.111-24.608l-9.206-3.614c-6.292-2.47-13.022-3.881-19.789-4.19-.001-.055.002-.11.001-.165l-.103-7.976c-.137-10.57-8.522-18.956-19.092-19.092l-7.976-.103c-.249-.003-.498-.005-.746-.005-2.294 0-4.569.141-6.819.411-.175-8.561-2.126-17.022-5.774-24.833l-4.186-8.961c-4.475-9.578-15.57-13.771-25.257-9.543l-9.065 3.954c-6.208 2.708-11.942 6.475-16.944 11.042-.044-.043-.085-.088-.129-.13l-5.711-5.566c-7.571-7.379-19.432-7.379-27.001 0l-5.713 5.567c-1.842 1.796-3.54 3.703-5.105 5.7-2.943-2.194-7.125-1.955-9.79.725-2.92 2.938-2.905 7.687.032 10.606.681.677 1.333 1.371 1.959 2.072-.405.989-.791 1.987-1.14 3.001-8.076-2.171-16.633 1.632-20.317 9.452l-2.942 6.243c-5.034-3.215-10.476-5.59-16.166-7.075.113-5.514 1.194-11.013 3.208-16.143l3.614-9.205c.866-2.21 3.294-3.304 5.524-2.496l1.031.375c3.897 1.416 8.196-.596 9.61-4.489s-.597-8.196-4.489-9.609l-1.031-.375c-9.933-3.608-20.744 1.271-24.608 11.112l-3.614 9.206c-2.473 6.3-3.868 13.022-4.176 19.789-.06.001-.119-.002-.179-.001l-7.976.102c-10.57.136-18.957 8.522-19.092 19.093l-.103 7.975c-.033 2.546.112 5.069.411 7.562-8.558.171-17.007 2.119-24.838 5.777l-8.961 4.185c-9.577 4.474-13.77 15.568-9.544 25.258l3.954 9.065c2.703 6.199 6.469 11.946 11.036 16.949-.041.041-.083.08-.124.122l-5.567 5.712c-7.378 7.57-7.379 19.43.001 27.001l5.566 5.711c1.777 1.823 3.663 3.504 5.636 5.056-5.931 6.177-10.53 13.538-13.476 21.65l-3.378 9.296c-3.608 9.936 1.272 20.746 11.111 24.608l9.206 3.614c6.299 2.473 13.022 3.889 19.789 4.197 0 .053-.002.106-.001.159l.103 7.976c.137 10.57 8.522 18.956 19.092 19.092l7.977.103c.248.003.495.004.743.004 2.3 0 4.581-.142 6.837-.413.044 2.167.182 4.333.454 6.484.479 3.79 3.708 6.559 7.431 6.559.314 0 .632-.02.951-.061 4.109-.52 7.02-4.273 6.499-8.382-.36-2.844-.453-5.717-.287-8.574 2.868-1.201 5.647-2.64 8.313-4.317l2.454 5.208c2.996 6.358 9.214 10.075 15.775 10.075 1.86 0 3.746-.31 5.595-.932 1.232 3.645 2.831 7.136 4.768 10.439-3.978 3.818-8.63 6.934-13.683 9.138l-9.066 3.954c-1.441.629-3.118.424-4.374-.534-3.298-2.511-8.003-1.874-10.512 1.42-2.51 3.294-1.874 8 1.42 10.511 3.431 2.613 7.569 3.961 11.742 3.961 2.615 0 5.245-.53 7.721-1.61l9.065-3.954c6.208-2.708 11.942-6.475 16.944-11.043.044.043.085.088.129.13l11.712 11.415v66.957c-7.472-6.408-17.168-10.292-27.76-10.292h-33.882c-6.311 0-11.444 5.134-11.444 11.444v22.848c0 23.55 19.159 42.709 42.71 42.709h30.376v54.318c0 4.142 3.357 7.5 7.5 7.5s7.5-3.358 7.5-7.5v-54.318h11.84c4.143 0 7.5-3.358 7.5-7.5s-3.357-7.5-7.5-7.5h-11.84v-20.908c.84-14.529 12.923-26.093 27.659-26.093h30.325v19.292c0 11.227-6.699 21.271-17.066 25.589-3.823 1.592-5.632 5.983-4.04 9.807 1.593 3.824 5.985 5.631 9.808 4.04 15.976-6.654 26.299-22.134 26.299-39.436v-22.847c0-6.311-5.134-11.444-11.444-11.444h-33.881c-10.544 0-20.201 3.849-27.659 10.204v-66.869l11.712-11.415c1.823-1.777 3.506-3.665 5.058-5.639 6.178 5.932 13.541 10.534 21.647 13.479l9.296 3.377c2.215.805 4.472 1.187 6.687 1.187 7.722 0 14.92-4.652 17.923-12.299l3.614-9.206c2.469-6.289 3.88-13.02 4.189-19.786.055-.001.11 0 .166-.001l7.976-.102c10.57-.136 18.957-8.522 19.092-19.093l.103-7.975c.033-2.552-.113-5.081-.413-7.58 8.563-.175 17.027-2.111 24.841-5.76l8.961-4.185c9.575-4.473 13.768-15.567 9.542-25.257zm-20.041-42.318-5.567 5.712c-1.542 1.583-3.191 3.028-4.931 4.331-.075.056-.153.107-.227.166-3.799 2.805-8.03 4.928-12.559 6.306-2.86-6.05-6.693-11.633-11.323-16.464.761-1.688.868-3.596.315-5.345 4.743-5.023 8.651-10.829 11.49-17.129 6.514 2.07 12.4 5.69 17.236 10.652l5.566 5.711c1.657 1.698 1.658 4.36 0 6.06zm-32.776 38.136-10.681 5.034c-3.254 1.533-6.64 2.672-10.12 3.422-1.236-7.914-4.184-15.507-8.618-22.171 5.368-2.516 10.298-5.975 14.481-10.266l2.935-3.011c3.5 3.804 6.391 8.168 8.474 12.9l4.758 10.807c.553 1.256.014 2.699-1.229 3.285zm-35.134 17.356-.116 9.057c-.019 1.374-1.107 2.463-2.48 2.481l-9.053.116c-9.643.133-19.051-3.303-26.36-9.472.168-1.649.254-3.311.254-4.977v-23.541h22.379c1.887 0 3.765-.122 5.629-.338 6.341 7.36 9.871 16.92 9.747 26.674zm-44.031 44.187c-4.484-1.974-8.639-4.672-12.3-7.927l3.573-3.483c4.451-4.338 8.001-9.482 10.538-15.082 6.338 4.118 13.489 6.908 20.946 8.175-.739 3.849-1.946 7.589-3.63 11.164l-5.033 10.682c-.585 1.242-2.026 1.783-3.285 1.229zm-84.449-31.606-9.043-.116c-1.373-.018-2.463-1.106-2.48-2.479l-.116-9.06c-.123-9.61 3.302-19.033 9.474-26.352 1.648.168 3.309.254 4.975.254h23.541v22.379c0 1.887.122 3.764.337 5.627-7.363 6.345-16.925 9.893-26.688 9.747zm-25.855-21.273c-3.847-.738-7.586-1.945-11.164-3.63l-10.683-5.034c-1.242-.585-1.781-2.028-1.229-3.285l4.758-10.808c1.974-4.484 4.672-8.639 7.927-12.3l3.483 3.573c4.337 4.45 9.48 8.001 15.079 10.537-4.119 6.337-6.906 13.49-8.171 20.947zm-21.846-89.836 10.682-5.033c3.255-1.534 6.64-2.67 10.119-3.42 1.236 7.914 4.183 15.505 8.617 22.169-5.367 2.516-10.298 5.975-14.48 10.266l-2.935 3.011c-3.5-3.804-6.391-8.168-8.474-12.9l-4.758-10.808c-.553-1.257-.014-2.699 1.229-3.285zm35.134-17.353.116-9.06c.019-1.374 1.107-2.463 2.479-2.481l9.038-.116c9.647-.131 19.062 3.303 26.375 9.473-.169 1.649-.254 3.31-.254 4.976v23.541h-22.379c-1.887 0-3.766.122-5.629.338-6.341-7.359-9.87-16.918-9.746-26.671zm97.016-44.19 10.81-4.758c1.255-.554 2.698-.013 3.284 1.229l5.033 10.683c1.53 3.247 2.668 6.639 3.419 10.128-7.914 1.241-15.504 4.184-22.166 8.612-2.516-5.369-5.976-10.302-10.269-14.485l-3.011-2.934c3.804-3.501 8.168-6.392 12.9-8.475zm57.322 52.877c3.845.738 7.583 1.946 11.162 3.633l10.683 5.034c1.242.585 1.781 2.028 1.229 3.284l-4.758 10.808c-1.974 4.485-4.672 8.64-7.926 12.301l-3.483-3.573c-4.336-4.45-9.479-8-15.078-10.536 4.118-6.339 6.905-13.492 8.171-20.951zm-28.667 65.859h-15.054c2.128-5.119 3.309-10.727 3.309-16.607 0-6.33-1.373-12.341-3.819-17.769h15.564c9.294 0 18.344 3.817 24.83 10.473l6.294 6.457c.04.128.083.255.131.381l-6.424 6.592c-6.487 6.656-15.537 10.473-24.831 10.473zm-135.125-9.311-6.293-6.457c-.04-.128-.083-.255-.131-.382l6.424-6.592c6.486-6.655 15.536-10.472 24.83-10.472h15.054c-2.128 5.119-3.309 10.727-3.309 16.607 0 6.33 1.373 12.341 3.819 17.769h-15.564c-9.294 0-18.344-3.817-24.83-10.473zm51.575-7.296c0-15.661 12.741-28.402 28.402-28.402s28.402 12.741 28.402 28.402-12.741 28.402-28.402 28.402-28.402-12.741-28.402-28.402zm88.526-32.514c-1.649-.169-3.309-.254-4.976-.254h-23.541v-22.379c0-1.887-.122-3.764-.337-5.628 7.359-6.345 16.9-9.886 26.688-9.747l9.044.116c1.373.018 2.462 1.106 2.479 2.48l.117 9.067c.123 9.608-3.302 19.028-9.474 26.345zm-67.42-47.464 6.457-6.293c.129-.04.257-.084.384-.131l6.592 6.424c6.654 6.486 10.472 15.537 10.472 24.831v15.054c-5.119-2.128-10.727-3.309-16.606-3.309-6.33 0-12.341 1.373-17.769 3.819v-15.564c-.002-9.294 3.816-18.345 10.47-24.831zm-9.31 135.126v-15.054c5.119 2.128 10.727 3.309 16.606 3.309 6.33 0 12.341-1.373 17.769-3.819v15.565c0 9.294-3.816 18.344-10.472 24.83l-6.458 6.294c-.128.04-.256.084-.382.131l-6.592-6.425c-6.654-6.487-10.471-15.538-10.471-24.831zm145.633-125.202 9.206 3.614c2.209.867 3.305 3.294 2.495 5.524l-3.378 9.296c-2.648 7.292-7.08 13.778-12.857 18.918-.985-.403-1.98-.787-2.989-1.135 2.171-8.076-1.633-16.633-9.452-20.317l-6.242-2.942c3.215-5.032 5.591-10.468 7.075-16.158 5.513.114 11.02 1.189 16.142 3.2zm-41.669-30.489 7.976.103c2.373.03 4.256 1.914 4.287 4.286l.103 7.975c.114 8.932-2.562 17.501-7.739 24.78-.137.193-.261.391-.377.591-2.327-.65-4.686-1.176-7.079-1.549l-.049-3.761c-.122-9.571-7.715-17.164-17.285-17.287l-2.999-.039c-.426-2.48-1.001-4.925-1.723-7.328.173-.101.346-.203.514-.319 7.19-4.988 15.618-7.582 24.371-7.452zm-45.658-40.228 9.066-3.954c2.174-.949 4.665-.007 5.67 2.143l4.186 8.961c3.282 7.028 4.734 14.75 4.283 22.469-2.862 1.2-5.635 2.636-8.295 4.309l-2.454-5.208c-3.845-8.16-12.999-11.965-21.372-9.148-1.232-3.644-2.83-7.133-4.766-10.434 3.976-3.818 8.628-6.934 13.682-9.138zm-51.024 7.904 5.713-5.567c1.698-1.656 4.361-1.657 6.062 0l5.711 5.566c1.578 1.538 3.019 3.181 4.318 4.914.068.092.13.187.202.277 2.793 3.79 4.909 8.01 6.283 12.526-6.051 2.861-11.634 6.693-16.464 11.323-1.688-.761-3.595-.868-5.345-.315-5.023-4.743-10.828-8.651-17.13-11.49 2.07-6.512 5.69-12.398 10.65-17.234zm-31.261 27.209c.585-1.241 2.025-1.782 3.285-1.229l10.809 4.758c4.484 1.974 8.639 4.672 12.3 7.926l-3.573 3.482c-4.452 4.338-8.003 9.484-10.539 15.085-6.341-4.118-13.494-6.909-20.953-8.176.74-3.854 1.957-7.596 3.638-11.165zm-59.856 10.324c.03-2.373 1.913-4.255 4.286-4.286l7.976-.102c.184-.002.366-.004.551-.004 8.732 0 17.101 2.672 24.229 7.742.188.134.383.255.579.369-.649 2.326-1.153 4.692-1.527 7.086l-3.772.048c-9.568.123-17.161 7.716-17.285 17.287l-.039 2.999c-2.479.425-4.927.99-7.333 1.713-.099-.17-.199-.34-.314-.505-4.988-7.192-7.565-15.62-7.453-24.373zm-40.33 53.635-3.953-9.065c-.949-2.176-.008-4.667 2.142-5.671l8.961-4.185c7.042-3.289 14.747-4.756 22.46-4.306 1.201 2.869 2.64 5.65 4.318 8.318l-5.207 2.454c-8.161 3.845-11.965 12.999-9.148 21.373-3.64 1.23-7.125 2.827-10.424 4.76-3.818-3.98-6.948-8.632-9.149-13.678zm2.338 39.249 5.567-5.712c4.962-5.091 11.013-8.764 17.716-10.803 2.86 6.05 6.693 11.633 11.323 16.464-.761 1.688-.868 3.596-.315 5.345-4.743 5.024-8.651 10.829-11.49 17.129-6.514-2.07-12.4-5.69-17.236-10.652l-5.566-5.711c-1.655-1.698-1.656-4.36.001-6.06zm9.407 72.504-9.206-3.614c-2.209-.867-3.305-3.294-2.495-5.524l3.378-9.296c2.65-7.296 7.076-13.781 12.854-18.919.986.404 1.981.788 2.992 1.136-2.171 8.076 1.633 16.633 9.452 20.317l6.242 2.942c-3.217 5.034-5.592 10.472-7.077 16.164-5.512-.114-11.013-1.192-16.14-3.206zm41.669 30.49-7.976-.103c-2.373-.03-4.256-1.914-4.287-4.286l-.103-7.975c-.114-8.932 2.562-17.501 7.739-24.78.137-.193.26-.39.377-.591 2.327.65 4.686 1.175 7.08 1.548l.048 3.762c.122 9.57 7.715 17.164 17.285 17.287l2.985.038c.425 2.481 1.012 4.924 1.735 7.329-.173.101-.345.203-.512.319-7.192 4.987-15.627 7.572-24.371 7.452zm46.772 5.114-5.033-10.682c-1.53-3.248-2.673-6.633-3.424-10.113 7.915-1.238 15.51-4.19 22.173-8.623 2.516 5.367 5.975 10.298 10.266 14.48l3.011 2.934c-3.804 3.501-8.167 6.392-12.899 8.475l-10.81 4.758c-1.256.554-2.7.012-3.284-1.229zm-24.419 140.322v-19.292h30.326c15.278 0 27.709 12.43 27.709 27.709v19.292h-30.325c-15.28.001-27.71-12.43-27.71-27.709zm65.586-104.593-8.743-8.521c-1.581-1.54-3.024-3.187-4.325-4.924-.063-.084-.119-.172-.186-.254-2.797-3.793-4.916-8.017-6.292-12.538 6.05-2.86 11.633-6.693 16.464-11.323.978.441 2.028.67 3.082.67.765 0 1.528-.122 2.264-.355 5.024 4.743 10.829 8.651 17.129 11.49-2.07 6.514-5.689 12.4-10.65 17.235zm65.859-3.155c-.867 2.209-3.297 3.307-5.524 2.496l-9.296-3.377c-7.292-2.649-13.778-7.081-18.918-12.858.404-.986.788-1.981 1.136-2.991 1.509.406 3.033.626 4.541.626 6.561 0 12.78-3.718 15.775-10.075l2.942-6.243c5.032 3.216 10.468 5.588 16.158 7.073-.113 5.513-1.188 11.022-3.199 16.145zm34.001-42.898c-.03 2.373-1.913 4.255-4.286 4.286l-7.976.102c-.184.002-.366.004-.551.004-8.732 0-17.101-2.672-24.229-7.742-.191-.136-.388-.259-.587-.375.649-2.326 1.16-4.688 1.533-7.081l3.775-.048c9.568-.123 17.161-7.716 17.285-17.287l.039-2.996c2.479-.425 4.926-.995 7.332-1.718.1.171.201.342.315.508 4.988 7.192 7.565 15.62 7.453 24.373zm42.142-38.899-8.961 4.185c-7.028 3.282-14.752 4.733-22.47 4.283-1.2-2.861-2.635-5.634-4.308-8.294l5.207-2.454c8.161-3.845 11.965-12.998 9.149-21.373 3.644-1.232 7.133-2.83 10.434-4.766 3.818 3.978 6.934 8.63 9.138 13.683l3.953 9.065c.949 2.176.007 4.667-2.142 5.671z"/></g></svg>