<svg id="Capa_1" enable-background="new 0 0 510.831 510.831" height="512" viewBox="0 0 510.831 510.831" width="512" xmlns="http://www.w3.org/2000/svg"><g><path d="m293.989 466.864c13.664 9.379 31.213 11.006 46.369 4.301l48.491-21.454c25.869-11.446 48.051-29.851 64.073-53.165-28.028-3.824-56.568.212-82.437 11.658l-48.491 21.454c-1.38.61-2.721 1.282-4.023 2.011z" fill="#97da7b"/><g fill="#fee97d"><path d="m208.359 96.233v-.732c0-32.471 14.383-63.274 39.28-84.12l2.603-2.18c2.701-2.262 6.635-2.262 9.336 0l2.603 2.18c24.896 20.846 39.279 84.433 39.279 84.433v107.602l-90.136 4.486z"/><path d="m302.472 320.582v.732c0 32.471-14.383 63.274-39.28 84.12l-2.603 2.18c-2.701 2.262-6.635 2.262-9.336 0l-2.603-2.18c-24.896-20.846-39.279-51.649-39.279-84.12v-.313l6.948-74.14 85.144 3.556z"/><path d="m368.009 254.453h.314c32.471 0 63.274-14.383 84.12-39.279l2.18-2.604c2.262-2.701 2.262-6.635 0-9.336l-2.179-2.603c-20.846-24.896-51.649-39.28-84.12-39.28h-.732l-88.469-2.986v107.247z"/></g><path d="m339.226 225.67 29.3 29.3c22.961 22.961 34.571 54.913 31.707 87.257l-.299 3.382c-.311 3.509-3.092 6.291-6.602 6.602l-3.382.299c-32.345 2.864-64.297-8.747-87.257-31.707l-29.863-29.863-37.582-40.819 74.13-60.261z" fill="#fef0ae"/><g><path d="m336.992 191.95 30.82-30.82c22.961-22.96 34.571-54.912 31.707-87.257l-.299-3.382c-.311-3.509-3.092-6.291-6.602-6.602l-3.382-.299c-32.345-2.864-64.296 8.746-87.257 31.707l-30.091 30.091-40.137 38.102 56.781 51.843z" fill="#fef0ae"/></g><path d="m143.241 255.464h-.732c-32.471 0-63.275-14.384-84.12-39.28l-2.179-2.603c-2.262-2.701-2.262-6.635 0-9.336l2.18-2.604c20.846-24.896 51.649-39.279 84.119-39.279h.313l82.801-1.01 6.127 99.115z" fill="#fee97d"/><path d="m238.532 126.406-30.395-30.394c-22.961-22.961-54.912-34.571-87.257-31.707l-3.382.299c-3.509.311-6.291 3.092-6.602 6.602l-.299 3.382c-2.864 32.345 8.746 64.296 31.707 87.257l29.233 29.233 37.832 42.183 63.46-76.911z" fill="#fef0ae"/><path d="m236.999 293.371-28.148 28.148c-22.96 22.96-54.912 34.57-87.256 31.706l-3.382-.3c-3.509-.311-6.291-3.092-6.601-6.602-3.054-34.488 9.326-68.557 33.808-93.04l27.067-27.067 42.459-42.459 64.175 64.175z" fill="#fef0ae"/><path d="m338.952 194.588c-7.32-9.296-11.563-19.813-12.73-31.55-1.202-12.087-10.5-21.975-22.551-23.492-11.775-1.482-22.041-6.146-31.001-13.565-9.405-7.788-23.022-8.26-32.627-.72-9.285 7.289-19.702 11.494-31.227 12.683-12.039 1.243-21.772 10.455-23.366 22.452-1.534 11.549-6.442 21.809-14.168 30.994-7.81 9.285-8.124 22.918-.593 32.431 7.302 9.224 11.567 19.653 12.797 31.286 1.269 12.012 10.571 21.395 22.517 23.178 11.012 1.644 21.173 6.79 30.637 14.807 9.436 7.993 23.087 8.041 32.783.365 9.371-7.418 19.985-11.702 31.843-12.853 12.134-1.177 21.832-10.637 23.392-22.728 1.503-11.656 6.131-22.066 13.835-31.249 7.693-9.169 7.864-22.634.459-32.039z" fill="#fdb441"/><path d="m261.65 278.285c-11.946-1.783-21.248-11.166-22.517-23.178-1.229-11.633-5.495-22.062-12.797-31.286-7.531-9.513-7.217-23.146.593-32.431 7.726-9.185 12.634-19.446 14.168-30.994 1.594-11.997 11.327-21.21 23.366-22.452 6.546-.676 12.733-2.327 18.56-4.961-3.632-1.954-7.081-4.292-10.354-7.002-9.405-7.788-23.022-8.26-32.627-.72-9.285 7.289-19.702 11.494-31.227 12.683-12.039 1.243-21.772 10.455-23.366 22.452-1.534 11.549-6.442 21.809-14.168 30.994-7.81 9.285-8.124 22.918-.593 32.431 7.302 9.224 11.567 19.653 12.797 31.286 1.269 12.012 10.571 21.395 22.517 23.178 11.012 1.644 21.173 6.79 30.637 14.807 9.436 7.993 23.087 8.041 32.783.365 3.972-3.144 8.169-5.719 12.588-7.737-6.458-3.829-13.23-6.371-20.36-7.435z" fill="#fea613"/><path d="m247.631 263.744c-8.986-6.232-18.417-10.668-28.214-13.272-3.835-1.019-6.763-4.084-7.58-7.967-2.148-10.208-5.997-19.781-11.518-28.642-2.203-3.537-2.127-8.012.214-11.459 6.025-8.871 10.306-18.348 12.809-28.353.979-3.912 4.085-6.908 8.033-7.732 10.212-2.131 19.805-5.977 28.702-11.506 3.509-2.18 7.941-2.113 11.377.182 8.815 5.887 18.351 10.069 28.53 12.511 3.97.952 7.014 4.096 7.834 8.095 2.113 10.3 5.955 19.958 11.496 28.898 2.17 3.501 2.101 7.92-.182 11.348-5.861 8.804-10.026 18.337-12.462 28.522-.95 3.971-4.09 7.021-8.089 7.84-10.49 2.147-20.312 6.087-29.388 11.787-3.568 2.239-8.101 2.148-11.562-.252z" fill="#fec165"/><path d="m239.133 255.107c-1.229-11.633-5.495-22.062-12.797-31.286-7.531-9.513-7.217-23.146.593-32.431 7.726-9.185 12.634-19.446 14.168-30.994.035-.262.095-.515.137-.774-6.323 3.005-12.946 5.254-19.86 6.697-3.948.824-7.054 3.819-8.033 7.732-2.503 10.005-6.784 19.482-12.809 28.353-2.341 3.447-2.417 7.922-.214 11.459 5.52 8.861 9.37 18.434 11.518 28.642.817 3.883 3.745 6.948 7.581 7.967 7.002 1.861 13.812 4.675 20.412 8.394-.314-1.221-.56-2.471-.696-3.759z" fill="#fdb441"/><g><path d="m217.491 257.721c8.924 2.372 17.626 6.472 25.867 12.187 3.077 2.134 6.653 3.206 10.237 3.206 3.319 0 6.645-.919 9.585-2.766 8.282-5.201 17.334-8.832 26.904-10.791 6.812-1.395 12.26-6.671 13.879-13.443 2.221-9.288 6.06-18.073 11.41-26.109 3.893-5.846 4.016-13.483.314-19.456-5.055-8.157-8.596-17.058-10.524-26.454-1.397-6.81-6.669-12.258-13.432-13.881-9.281-2.227-18.067-6.081-26.114-11.455-5.859-3.913-13.513-4.036-19.501-.315-8.118 5.045-16.958 8.589-26.274 10.534-6.809 1.42-12.087 6.499-13.776 13.25-.109.438-.233.873-.356 1.307l-.173.617c-1.108 3.991 1.229 8.125 5.22 9.233 3.99 1.111 8.125-1.229 9.233-5.22l.155-.553c.163-.578.325-1.156.472-1.742.282-1.127 1.159-1.974 2.29-2.209 11.041-2.305 21.514-6.503 31.128-12.478 1.014-.631 2.261-.613 3.251.049 9.525 6.361 19.936 10.926 30.945 13.567 1.144.274 2.001 1.159 2.237 2.309 2.285 11.133 6.479 21.678 12.468 31.342.627 1.011.608 2.253-.05 3.241-6.333 9.514-10.879 19.921-13.513 30.934-.274 1.146-1.155 2.002-2.299 2.237-11.339 2.321-22.063 6.622-31.874 12.783-1.021.642-2.316.618-3.296-.063-9.672-6.708-19.954-11.538-30.562-14.358-1.105-.293-1.936-1.16-2.167-2.262-2.321-11.033-6.523-21.484-12.491-31.064-.465-.747-.585-1.65-.33-2.478 1.221-3.958-.999-8.157-4.957-9.377s-8.157.999-9.377 4.957c-1.537 4.985-.833 10.39 1.932 14.829 5.038 8.087 8.585 16.909 10.544 26.221 1.406 6.675 6.385 11.914 12.995 13.671z"/><path d="m453.935 389.114c-29.423-4.014-59.329.216-86.485 12.23l-34.185 15.125c1.291-4.083 2.269-8.273 2.892-12.537 2.616-17.917-.962-36.403-10.073-52.051l-4.018-6.901c17.591 10.08 37.582 15.461 58.126 15.461 3.461 0 6.939-.152 10.422-.461l3.381-.3c7.139-.632 12.779-6.272 13.411-13.411l.299-3.381c2.624-29.63-6.034-58.764-23.975-81.965 28.919-3.808 55.466-18.247 74.464-40.936l2.18-2.603c4.6-5.494 4.601-13.47 0-18.966l-2.18-2.603c-19.093-22.803-45.809-37.284-74.896-41.004 17.751-23.141 26.303-52.126 23.693-81.6l-.299-3.382c-.631-7.138-6.271-12.778-13.411-13.411l-3.381-.299c-29.63-2.624-58.756 6.031-81.953 23.967-3.811-28.916-18.26-55.459-40.948-74.455l-2.603-2.18c-5.495-4.601-13.471-4.601-18.966 0l-2.603 2.179c-22.804 19.093-37.277 45.813-40.997 74.902-23.144-17.755-52.135-26.309-81.608-23.698l-3.383.299c-7.139.633-12.778 6.273-13.41 13.411l-.299 3.382c-2.624 29.629 6.034 58.763 23.975 81.964-28.918 3.808-55.466 18.247-74.464 40.936l-2.18 2.604c-4.6 5.494-4.601 13.47 0 18.966l2.18 2.603c19.195 22.924 46.094 37.436 75.361 41.061-17.963 24.282-26.565 54.355-23.858 84.926.632 7.138 6.271 12.778 13.411 13.411l3.381.299c3.434.304 6.876.456 10.316.456 7.986 0 15.963-.818 23.823-2.449 4.056-.841 6.662-4.812 5.82-8.867s-4.81-6.66-8.867-5.82c-9.809 2.034-19.825 2.619-29.77 1.739l-3.19-.283c-2.804-32.298 8.729-63.955 31.657-86.884l20.308-20.308c2.675 5.452 4.326 11.283 4.996 17.615.007.065.018.13.025.195l-27.575 27.575c-2.929 2.929-2.929 7.678 0 10.606 1.464 1.464 3.384 2.197 5.303 2.197s3.839-.732 5.303-2.197l22.779-22.779c2.845 4.072 6.577 7.496 10.934 10.003l-23.245 23.245c-2.929 2.929-2.929 7.678 0 10.606 1.464 1.464 3.384 2.197 5.303 2.197s3.839-.732 5.303-2.197l28.503-28.503c.107-.107.202-.221.301-.333 5.693 1.393 11.211 3.912 16.674 7.618l-22.088 22.088c-6.941 6.941-14.852 12.844-23.513 17.545-3.641 1.976-4.99 6.529-3.014 10.169 1.359 2.504 3.937 3.924 6.599 3.924 1.208 0 2.434-.293 3.571-.91 5.518-2.995 10.76-6.432 15.706-10.247 3.803 28.927 18.244 55.484 40.939 74.486l2.603 2.18c2.748 2.3 6.115 3.451 9.483 3.451s6.736-1.15 9.483-3.451l2.603-2.18c19.561-16.379 32.992-38.37 38.767-62.653l6.346 10.899c15.415 26.473 10.579 59.602-11.762 80.563-16.127 15.132-25.377 36.494-25.377 58.609v4.729c0 4.142 3.358 7.5 7.5 7.5s7.5-3.358 7.5-7.5v-4.729c0-7.688 1.385-15.26 3.983-22.376 8.106 4.357 17.015 6.573 25.993 6.573 7.58 0 15.209-1.579 22.436-4.775l11.107-4.914c3.788-1.676 5.5-6.105 3.824-9.894-1.677-3.788-6.104-5.5-9.894-3.824l-11.107 4.914c-11.622 5.142-24.656 4.517-35.621-1.512 2.813-4.303 6.124-8.3 9.92-11.863 4.338-4.07 8.18-8.612 11.492-13.502.631-.32 1.27-.628 1.914-.913l48.491-21.455c20.591-9.11 42.926-13.282 65.29-12.272-14.294 17.229-32.404 30.952-52.995 40.062l-7.986 3.534c-3.788 1.676-5.5 6.105-3.824 9.893 1.239 2.801 3.984 4.467 6.862 4.467 1.014 0 2.044-.207 3.031-.644l7.986-3.533c27.156-12.015 50.4-31.302 67.219-55.776 1.474-2.145 1.731-4.902.678-7.282-1.056-2.379-3.268-4.043-5.847-4.395zm-61.173-47.548-.283 3.191-3.191.283c-30.213 2.673-59.844-8.092-81.292-29.54l-22.94-22.94c5.258-2.414 10.867-3.901 16.933-4.49.422-.041.841-.093 1.258-.149l27.426 27.427c1.464 1.465 3.384 2.197 5.303 2.197s3.839-.732 5.303-2.197c2.929-2.929 2.929-7.678 0-10.606l-22.849-22.85c4.042-2.913 7.401-6.707 9.809-11.128l23.509 23.509c1.464 1.464 3.384 2.197 5.303 2.197s3.839-.732 5.303-2.197c2.929-2.929 2.929-7.678 0-10.606l-28.503-28.503c-.307-.307-.639-.575-.982-.818 1.325-6.189 3.7-11.896 7.18-17.244l23.173 23.173c21.449 21.447 32.216 51.076 29.54 81.291zm53.93-136.12 2.056 2.456-2.057 2.457c-18.882 22.551-46.313 35.775-75.614 36.556l-16.106-16.106h29.277c4.142 0 7.5-3.358 7.5-7.5s-3.358-7.5-7.5-7.5h-32.834c.82-4.916.53-9.988-.88-14.804h33.714c4.142 0 7.5-3.358 7.5-7.5s-3.358-7.5-7.5-7.5h-30.707l17.122-17.122c29.458.668 57.058 13.906 76.029 36.563zm-58.117-134.386 3.19.283.283 3.191c2.676 30.214-8.091 59.843-29.539 81.292l-24.001 24.001c-2.6-5.43-4.197-11.234-4.823-17.532-.015-.149-.037-.295-.054-.443.073-.068.15-.129.221-.2l28.503-28.503c2.929-2.929 2.929-7.678 0-10.606-2.929-2.929-7.678-2.929-10.606 0l-23.893 23.893c-2.834-4.115-6.545-7.574-10.845-10.092l24.269-24.269c2.929-2.929 2.929-7.678 0-10.606-2.929-2.929-7.678-2.929-10.606 0l-28.503 28.503c-.474.474-.864 1-1.185 1.554-6.322-1.228-12.149-3.548-17.616-7.014l23.912-23.912c21.448-21.448 51.076-32.216 81.293-29.54zm-136.121-53.929 2.456-2.057 2.457 2.057c22.551 18.882 35.775 46.313 36.557 75.614l-16.106 16.105v-29.276c0-4.142-3.358-7.5-7.5-7.5s-7.5 3.358-7.5 7.5v33.579c-4.894-1.033-9.963-.986-14.805.159v-33.738c0-4.142-3.358-7.5-7.5-7.5s-7.5 3.358-7.5 7.5v30.706l-17.122-17.122c.669-29.456 13.907-57.056 36.563-76.027zm-134.385 58.117.283-3.191 3.191-.283c30.216-2.675 59.844 8.092 81.292 29.54l23.739 23.739c-5.449 2.801-11.261 4.556-17.555 5.314-.116-.134-.231-.269-.358-.396l-28.503-28.503c-2.929-2.929-7.678-2.929-10.606 0-2.929 2.929-2.929 7.678 0 10.606l23.594 23.594c-4.213 2.695-7.774 6.289-10.408 10.529l-23.654-23.655c-2.928-2.929-7.677-2.929-10.606 0s-2.929 7.678 0 10.606l28.503 28.503c.187.187.381.361.581.524-1.163 6.128-3.446 11.888-6.911 17.406l-23.041-23.041c-21.45-21.447-32.217-51.077-29.541-81.292zm22.097 172.684c-29.457-.668-57.057-13.906-76.028-36.563l-2.056-2.456 2.058-2.458c18.882-22.55 46.313-35.774 75.614-36.556l16.106 16.106h-29.277c-4.142 0-7.5 3.358-7.5 7.5s3.358 7.5 7.5 7.5h31.905c-1.045 4.882-.994 9.952.171 14.804h-32.075c-4.142 0-7.5 3.358-7.5 7.5s3.358 7.5 7.5 7.5h30.707zm36.403-28.766c-5.295-6.69-5.105-16.341.453-22.948 8.853-10.525 14.19-22.245 15.862-34.834 1.131-8.51 7.999-15.082 16.702-15.979 12.944-1.336 24.749-6.129 35.087-14.245 3.214-2.523 7.137-3.776 11.096-3.776 4.281 0 8.604 1.465 12.116 4.374 10.248 8.485 21.972 13.609 34.848 15.229 8.423 1.06 15.163 8.123 16.024 16.792 1.306 13.128 6.118 25.054 14.301 35.448 5.227 6.638 5.095 16.135-.313 22.58-8.625 10.28-13.849 22.093-15.528 35.111-1.123 8.708-7.981 15.378-16.678 16.222-13.261 1.287-25.297 6.145-35.773 14.437-7.011 5.55-16.585 5.465-23.281-.207-10.813-9.159-22.378-14.711-34.377-16.503-8.625-1.287-15.272-8.092-16.166-16.548-1.374-13.014-6.211-24.842-14.373-35.153zm81.808 180.518-2.457 2.057-2.456-2.057c-22.551-18.882-35.775-46.313-36.557-75.614l16.106-16.106v29.277c0 4.142 3.358 7.5 7.5 7.5s7.5-3.358 7.5-7.5v-31.044c1.709.266 3.436.406 5.166.406 3.244 0 6.494-.469 9.639-1.407v32.044c0 4.142 3.358 7.5 7.5 7.5s7.5-3.358 7.5-7.5v-30.706l17.122 17.122c-.669 29.456-13.907 57.057-36.563 76.028z"/></g></g></svg>