<svg id="Capa_1" enable-background="new 0 0 511.661 511.661" height="512" viewBox="0 0 511.661 511.661" width="512" xmlns="http://www.w3.org/2000/svg"><g><path d="m317.007 59.441-1.49-3.148c-7.076-14.953-18.055-27.55-31.599-36.613l-55.472 27.36s-34.355 108.316-34.355 111.261c0 1.829 3.8 25.28 6.681 42.79h132.598l19.335-84.314z" fill="#feaee1"/><path d="m212.639 140.156 25.834-67.629.402-.849c9.968-21.063 27.65-37.488 49.39-45.878l2.578-.995c-7.369-6.015-15.685-10.905-24.716-14.39l-5.953-2.297c-2.125-.82-4.479-.82-6.604 0l-5.953 2.297c-21.74 8.39-39.423 24.815-49.39 45.878l-.402.849-25.834 67.629 10.972 76.319h38.437z" fill="#fe93d3"/><path d="m85.089 169.718 23.724 56.446 33.95 29.374 61.182 9.64 44.757 2.299s-.735.795-1.925 2.084h16.923l-40.637-131.705h-93.525s-38.409-2.767-64.138 5.995z" fill="#ffbee7"/><path d="m202.912 258.163c-41.803 0-79.323-25.651-94.495-64.604l-6.462-16.59c-.621-1.594-1.443-3.103-2.446-4.489l-21.081-29.13c-.592-.818-.882-1.753-.909-2.683-7.747 1.545-15.115 3.789-21.06 7.029-2.547 1.388-3.287 4.703-1.587 7.052l21.081 29.13c1.003 1.386 1.825 2.895 2.446 4.489l6.462 16.59c15.172 38.953 52.692 64.604 94.495 64.604h84.344l-3.517-11.398z" fill="#feaee1"/><g><path d="m271.82 271.274v234.961c0 2.325-1.885 4.21-4.21 4.21h-22.475c-2.325 0-4.21-1.885-4.21-4.21v-234.961-89.625h30.895z" fill="#ade194"/></g><path d="m256.812 90.284c-38.52-33.676-84.541-41.186-109.063-42.633l2.866 52.267-10.006 63.352 18.219 48.803 45.117 43.465 31.283 14.023h41.831 8.223l48.088-23.497v-80.748z" fill="#ffbee7"/><path d="m231.638 255.493c-44.499-28.634-65.045-82.996-50.608-133.904 6.447-22.735 6.052-46.866-1.138-69.377-.001-.002-.001-.005-.002-.007-20.141-4.531-36.703-4.972-44.586-4.847-2.497.04-4.242 2.475-3.482 4.854 7.19 22.511 7.585 46.642 1.138 69.377-14.437 50.908 6.109 105.27 50.608 133.904 14.274 9.185 30.888 14.068 47.862 14.068h17.357 30.713c-16.973 0-33.588-4.884-47.862-14.068z" fill="#feaee1"/><path d="m324.246 70.49-64.744 50.2-25.898 55.156 22.768 69.964 11.222 23.751h52.55l52.534-35.636 23.68-95.386c0-35.253-13.8-66.006-22.266-81.559z" fill="#ffbee7"/><path d="m253.218 176.485c20.61-70.375 105.055-93.231 130.673-98.617-4.867-12.177-10.029-21.56-13.196-26.849-1.78-2.972-5.24-4.5-8.637-3.819-23.155 4.641-111.372 26.852-132.5 98.993-24.378 83.242 27.724 123.368 27.724 123.368h.744c-10.025-20.436-17.033-51.333-4.808-93.076z" fill="#feaee1"/><path d="m363.681 158.3-50.618 19.311-30.606 37.806-13.537 43.938v10.351l37.234 1.04c54.623 1.525 104.805-29.944 127.219-79.78l7.124-15.839c3.361-7.473 7.377-14.634 12-21.399l4.103-6.004c.689-1.008 1.031-2.103 1.093-3.185-37.317 6.196-94.012 13.761-94.012 13.761z" fill="#ffdff3"/><path d="m319.603 202.176s47.306-38.626 116.747-41.23h11.541c1.462-2.45 2.994-4.859 4.605-7.217l4.103-6.004c2.861-4.188-.137-9.869-5.209-9.869h-31.448c-69.441 2.604-116.747 41.23-116.747 41.23-48.174 34.286-39.494 90.474-39.494 90.474l16.51.461c2.242-19.452 10.81-47.503 39.392-67.845z" fill="#ffceed"/><g><path d="m463.602 137.719c-2.397-4.542-7.077-7.363-12.212-7.363h-31.448c-.094 0-.188.002-.281.005-5.464.205-10.791.622-15.972 1.218-2.345-49.307-28.706-87.965-29.878-89.659-1.624-2.347-4.441-3.565-7.262-3.153-.989.146-20.495 3.105-45.204 12.394-1.594-3.176-3.392-6.336-5.385-9.417-2.25-3.478-6.893-4.473-10.371-2.223s-4.473 6.894-2.223 10.371c1.484 2.294 2.843 4.634 4.064 6.983-.945.423-1.892.853-2.844 1.294-16.358 7.586-30.594 16.562-42.55 26.748-.096-.094-.187-.19-.289-.28-17.181-15.02-35.68-25.055-53.238-31.744 9.502-16.19 24.112-28.654 41.807-35.482l5.954-2.297c.388-.149.815-.149 1.203 0l5.954 2.297c6.181 2.385 12.076 5.511 17.519 9.291 3.404 2.363 8.076 1.519 10.438-1.883s1.519-8.076-1.883-10.438c-6.423-4.46-13.379-8.148-20.673-10.963l-5.954-2.297c-3.871-1.494-8.133-1.493-12.004 0l-5.954 2.297c-21.867 8.439-39.74 24.173-50.879 44.612-34.527-10.122-62.446-8.105-64.309-7.954-2.28.185-4.351 1.4-5.625 3.3-1.273 1.9-1.61 4.278-.914 6.457l1.488 4.66c6.762 21.173 7.131 43.667 1.067 65.049-.986 3.476-1.802 6.984-2.487 10.51-14.748-.458-49.728-.199-70.387 11.059-3.103 1.69-5.33 4.638-6.11 8.086-.782 3.454-.04 7.081 2.037 9.948l21.081 29.13c.628.868 1.145 1.815 1.533 2.813l6.462 16.59c7.995 20.525 21.832 37.946 40.017 50.378 18.184 12.432 39.439 19.003 61.467 19.003h52.046.027 1.995v227.1c0 4.142 3.358 7.5 7.5 7.5s7.5-3.358 7.5-7.5v-227.1h.362.01 14.8l.724.02v43.038c0 4.142 3.358 7.5 7.5 7.5s7.5-3.358 7.5-7.5v-42.617l26.625.744c1.355.038 2.704.057 4.054.057 56.23 0 107.04-32.729 130.215-84.257l7.124-15.838c3.172-7.052 6.991-13.864 11.352-20.245l4.102-6.003c2.895-4.242 3.206-9.697.809-14.239zm-153.047-65.781c22.808-10.626 44.237-15.641 53.447-17.471 6.51 10.843 23.403 42.377 24.759 79.372-52.421 9.853-86.754 36.582-90.105 39.273-21.153 15.125-35.195 36.741-40.613 62.527-1.762 8.388-2.347 15.944-2.437 21.879-4.282-4.734-10.038-12.205-14.92-22.404-12.084-25.244-13.407-54.452-3.93-86.813 9.447-32.257 34.276-57.949 73.799-76.363zm-131.199 190.123c-18.994 0-37.322-5.666-53.001-16.386-15.68-10.72-27.611-25.741-34.505-43.44l-6.462-16.591c-.852-2.188-1.982-4.262-3.359-6.163l-19.225-26.566c9.104-4.119 22.69-6.75 39.59-7.644 7.363-.389 14.035-.371 18.857-.256-1.1 14.939.426 30.017 4.598 44.563.944 3.291 3.945 5.435 7.206 5.434.685 0 1.381-.095 2.072-.292 3.981-1.142 6.284-5.296 5.142-9.277-5.796-20.208-5.829-41.581-.093-61.808 6.4-22.568 6.476-46.229.265-68.754 20.433.415 69.983 5.33 110.638 40.376-13.742 14.41-23.443 30.817-28.717 48.828-13.268 45.305-4.507 78.461 5.179 98.299 3.923 8.034 8.297 14.583 12.286 19.677h-8.423c-15.556-.005-30.693-4.457-43.775-12.875-14.473-9.313-26.347-21.497-35.294-36.216-2.151-3.54-6.764-4.666-10.305-2.513-3.539 2.151-4.665 6.765-2.513 10.305 10.138 16.677 23.594 30.485 39.995 41.038.139.09.282.172.422.261zm266.948-112.564c-4.858 7.109-9.113 14.698-12.647 22.555l-7.124 15.838c-21.239 47.224-68.398 76.802-120.17 75.359l-35.713-.997c-.183-5.482.043-14.143 2.186-24.065 4.791-22.18 16.468-40.009 34.707-52.99.13-.092.264-.195.388-.295.456-.371 46.304-37.025 112.153-39.546h29.049z"/><path d="m271.82 344.581c-4.142 0-7.5 3.358-7.5 7.5v152.08c0 4.142 3.358 7.5 7.5 7.5s7.5-3.358 7.5-7.5v-152.08c0-4.142-3.358-7.5-7.5-7.5z"/></g></g></svg>