<svg id="Capa_1" enable-background="new 0 0 510.865 510.865" height="512" viewBox="0 0 510.865 510.865" width="512" xmlns="http://www.w3.org/2000/svg"><g><g><path d="m267.836 509.647c1.309 0 2.37-1.061 2.37-2.37v-31.977c0-15.143-4.99-30.037-14.051-41.937-8.865-11.646-10.125-27.557-3.208-40.536l22.658-42.522 13.29-33.449-25.962-1.974-24.131 40.222-12.134 22.771c-12.737 23.903-10.418 53.207 5.91 74.655 4.919 6.462 7.629 14.549 7.629 22.771v31.977c0 1.309 1.061 2.37 2.37 2.37h25.259z" fill="#ade194"/></g><g fill="#80d261"><path d="m299.863 292.033 17.119 21.954c11.492 14.737 29.136 23.353 47.824 23.353 19.736 0 38.238-9.604 49.595-25.744l3.999-5.683c1.475-2.097 3.366-3.868 5.553-5.205l15.656-9.567c2.141-1.308 2.442-4.279.639-6.024-42.883-41.491-100.864-20.966-100.864-20.966l-59.9 8.088z"/><path d="m295.72 295.465v10.164c0 19.571-10.009 37.782-26.531 48.272l-10.721 6.807c-2.217 1.408-5.032 1.473-7.311.168l-12.846-7.351c-17.799-10.185-28.78-29.122-28.78-49.629v-11.76-48.603h86.19v51.932z"/><path d="m211.002 292.033-17.119 21.954c-11.492 14.737-29.136 23.353-47.824 23.353-19.736 0-38.238-9.604-49.595-25.744l-3.999-5.683c-1.476-2.097-3.366-3.868-5.553-5.205l-15.656-9.567c-2.141-1.308-2.442-4.279-.639-6.024 42.883-41.491 100.864-20.966 100.864-20.966l42.201 4.31z"/></g><path d="m299.863 38.211-3.897-4.643c-9.297-11.077-21.238-19.63-34.718-24.867-4.107-1.596-8.662-1.596-12.769 0-13.48 5.237-25.421 13.79-34.718 24.867l-3.897 4.643-4.816 88.121h101.058z" fill="#e94444"/><path d="m299.863 38.211-3.897-4.643c-2.642-3.148-5.504-6.083-8.547-8.805-9.203 3.238-18.156 7.141-26.827 11.69-3.271 1.716-7.166 1.707-10.438-.006-8.871-4.644-18.084-8.64-27.559-11.941-3.151 2.793-6.109 5.815-8.833 9.062l-3.897 4.643-1.736 31.774-3.079 56.347h101.058z" fill="#d83131"/><path d="m331.909 81.65c-.135.038-.068-16.748-.026-23.686.016-2.572.477-5.12 1.365-7.533l4.665-12.687c1.295-3.522-1.721-7.12-5.415-6.46l-10.317 1.844c-23.881 4.268-46.523 13.122-66.751 25.902l-47.416 31.426-1.624 98.838 114.128 1.842 28.35-59.608z" fill="#e94444"/><path d="m322.837 186.258 22.135-46.539-35.592-56.557-.904-1.027c-10.827-12.286-23.095-23.156-36.444-32.431-5.688 2.827-11.232 5.933-16.601 9.326l-47.416 31.426-1.624 98.838 112.799 1.82z" fill="#d83131"/><path d="m295.72 93.374c-27.846-31.6-65.575-52.836-107.036-60.246l-10.317-1.844c-3.694-.66-6.71 2.938-5.415 6.46l4.665 12.687c.888 2.414 1.349 4.962 1.365 7.533.042 6.939.109 20.724-.026 20.686l-6.309 73.501v41.898h123.073l34.478-45.888z" fill="#e94444"/><g id="XMLID_164_"><g><path d="m310.567 174.288-41.622-67.247-9.216-9.632c-21.07-21.996-50.345-34.911-80.727-35.719.038 7.229.067 16.993-.047 16.961l-6.309 73.501v41.898h123.074z" fill="#d83131"/><path d="m257.192 120.348-1.76-2.84-7.98-8.34c-18.002-18.793-42.652-29.716-68.589-30.474l-12.691 6.051 3.276 17.816 11.794 23.77-8.595 83.561 45.045 75.009-2.69 8.505c2.157.694 4.34 1.329 6.561 1.87l78.301-10.339v-95.645z" fill="#e94444"/><path d="m187.547 203.058v-66.15c0-12.86-3.41-25.5-9.88-36.62l-2.15-3.7c-4.191-7.19.088-16.026 7.742-17.668-2.417-.178-4.847-.272-7.286-.272h-28.5c-9.21 0-14.95 9.98-10.31 17.94l2.15 3.7c6.47 11.12 9.88 23.76 9.88 36.62v66.15c0 44.65 30.83 82.1 72.37 92.22l26.95-3.559c-35.655-13.66-60.966-48.205-60.966-88.661z" fill="#d83131"/><path d="m276.596 119.402-39.005 57.662-4.574 86.558s1.874 19.063 3.223 34.027c2.596.213 5.22.33 7.872.33h22.64c52.42 0 94.92-42.5 94.92-94.92v-66.15c0-12.86 3.41-25.5 9.88-36.62l1.01-1.74c1.522-2.612 1.925-5.421 1.467-8.022z" fill="#e94444"/><path d="m258.321 234.12c0-33.94 13.51-64.94 35.63-87.66 19.018-19.532 44.401-32.942 73.033-36.827 1.296-3.208 2.816-6.334 4.568-9.345l1.01-1.74c4.87-8.36-1.71-18.73-11.35-17.89l-24.97 2.19c-31.09 2.72-58.71 16.61-79.05 37.5-22.12 22.72-35.63 53.72-35.63 87.66v87.27c7.23 1.77 14.78 2.7 22.55 2.7h14.209z" fill="#d83131"/></g></g><g><path d="m445.464 279.728c-18.954-18.34-43.75-28.074-71.707-28.152-.113 0-.225 0-.338 0-6.319 0-12.115.491-17.145 1.179 8.209-14.728 12.896-31.677 12.896-49.701v-66.145c0-11.526 3.065-22.884 8.864-32.845l1.012-1.738c3.668-6.299 3.52-14.036-.386-20.19-3.906-6.155-10.851-9.588-18.104-8.947l-21.226 1.858c-.003-4.608.018-11.114.055-17.038.01-1.709.314-3.388.903-4.99l4.665-12.687c1.524-4.145.708-8.821-2.129-12.205s-7.303-5.002-11.645-4.226l-10.317 1.844c-6.152 1.099-12.217 2.486-18.184 4.153l-.967-1.152c-10.08-12.009-23.133-21.357-37.746-27.036-5.869-2.281-12.333-2.281-18.202 0-14.614 5.678-27.667 15.026-37.747 27.036l-.771.919c-5.673-1.564-11.424-2.88-17.241-3.92l-10.318-1.844c-4.347-.778-8.809.842-11.645 4.226-2.837 3.384-3.652 8.061-2.128 12.205l4.665 12.687c.589 1.603.894 3.281.904 4.99.035 5.693.051 9.995.054 13.141h-24.064c-7.041 0-13.339 3.644-16.848 9.748s-3.49 13.38.053 19.465l2.155 3.7c5.799 9.961 8.864 21.319 8.864 32.846v66.145c0 17.905 4.593 34.884 12.78 49.689-5.004-.681-10.754-1.167-17.029-1.167-.112 0-.226 0-.338 0-27.957.078-52.752 9.812-71.707 28.152-2.548 2.465-3.786 5.896-3.397 9.413.387 3.501 2.333 6.563 5.34 8.4l15.655 9.568c1.32.807 2.441 1.857 3.331 3.122l3.999 5.683c12.747 18.114 33.58 28.928 55.729 28.928 21.147 0 40.734-9.565 53.739-26.242l3.128-4.012c2.814 16.7 12.128 31.767 25.925 41.742l-8.753 15.896c-14.193 25.776-11.608 57.375 6.585 80.501 3.884 4.938 6.023 11.117 6.023 17.399v33.239c0 4.142 3.358 7.5 7.5 7.5s7.5-3.358 7.5-7.5v-33.239c0-9.631-3.279-19.104-9.234-26.673-14.462-18.384-16.517-43.502-5.234-63.992l8.457-15.358 9.444 5.405c1.156.662 2.441.991 3.725.991.15 0 .299-.022.449-.031l-2.211 4.016c-1.998 3.628-.676 8.189 2.953 10.188 1.147.632 2.387.932 3.61.932 2.646 0 5.211-1.403 6.577-3.884l15.266-27.726c13.056-11.553 20.889-27.867 21.645-45.544l7.915 10.151c13.003 16.677 32.59 26.242 53.738 26.242 22.148 0 42.981-10.814 55.729-28.928l4-5.685c.889-1.263 2.009-2.313 3.329-3.12l15.657-9.568c3.006-1.837 4.952-4.9 5.339-8.401.39-3.519-.85-6.949-3.396-9.413zm-121.964-239.217 5.785-1.034-3.076 8.364c-1.19 3.236-1.804 6.626-1.825 10.076-.021 3.464-.049 9.376-.055 14.435-.001 1.624 0 3.157.003 4.499-9.135 1.598-18.053 4.15-26.611 7.579-8.614-9.237-18.1-17.578-28.284-24.925 16.88-9.207 35.013-15.589 54.063-18.994zm-72.305-24.819c2.365-.919 4.969-.919 7.336 0 10.84 4.212 20.654 10.833 28.63 19.271-10.999 4.105-21.618 9.202-31.781 15.292-10.335-6.179-21.238-11.398-32.553-15.574 7.929-8.305 17.648-14.824 28.368-18.989zm-107.556 77.123c-1.165-2.001-.396-3.772-.012-4.441s1.528-2.224 3.844-2.224h28.501c8.866 0 17.683 1.293 26.208 3.844 3.968 1.187 8.147-1.067 9.335-5.036 1.187-3.968-1.067-8.147-5.036-9.335-6.526-1.952-13.202-3.258-19.944-3.932 0-.281 0-.553 0-.842-.005-4.308-.033-9.469-.054-12.93-.021-3.45-.635-6.84-1.826-10.076l-3.076-8.365 5.785 1.034c36.41 6.507 70.157 24.376 96.042 50.659-9.141 4.987-17.71 11.046-25.494 18.083l-5.044-5.269c-4.684-4.892-9.883-9.368-15.453-13.304-3.383-2.392-8.063-1.587-10.453 1.796-2.391 3.382-1.587 8.063 1.796 10.453 4.788 3.384 9.254 7.229 13.275 11.429l5.338 5.575c-17.887 20.3-29.305 45.745-32.42 72.638-.477 4.115 2.473 7.837 6.587 8.313 4.12.479 7.836-2.473 8.313-6.587 3.097-26.736 15.442-51.868 34.761-70.767 19.464-19.041 45.135-30.837 72.283-33.215l24.968-2.186c2.42-.208 3.696 1.357 4.131 2.042.434.685 1.313 2.503.088 4.605l-1.012 1.738c-7.132 12.25-10.901 26.218-10.901 40.393v66.145c0 48.204-39.217 87.421-87.421 87.421h-22.633c-5.053 0-10.096-.442-15.058-1.305v-63.772c0-4.142-3.358-7.5-7.5-7.5s-7.5 3.358-7.5 7.5v59.759c-34.206-12.444-57.363-44.936-57.363-82.103v-66.145c0-14.174-3.77-28.142-10.901-40.393zm44.329 216.561c-10.142 13.006-25.417 20.465-41.91 20.465-17.273 0-33.521-8.434-43.462-22.561l-3.999-5.683c-2.078-2.953-4.694-5.405-7.776-7.288l-11.484-7.018c15.631-13.581 34.886-20.545 57.309-20.713 14.43-.1 25.996 2.773 30.41 4.051 1.309 1.493 2.659 2.95 4.054 4.365-10.689.73-24.311 2.317-37.712 5.71-4.016 1.017-6.446 5.096-5.43 9.111.86 3.398 3.913 5.661 7.265 5.661.609 0 1.229-.075 1.846-.231 21.715-5.498 44.82-5.866 51.852-5.838 3.26 2.077 6.647 3.985 10.164 5.696zm77.202 38.194-10.507 6.671-12.626-7.225c-15.424-8.827-25.005-25.349-25.005-43.12v-2.072c.811.221 1.619.447 2.439.65.037.01.071.025.108.035.032.009.066.012.098.02.033.008.065.018.099.026.002.001.005.002.007.002 7.942 1.936 16.129 2.917 24.334 2.917h3.816v25.826.012c.006 4.137 3.362 7.488 7.5 7.488 4.143 0 7.5-3.357 7.5-7.5v-25.825h3.816c7.363 0 14.545-.788 21.472-2.271v2.426c-.001 17.096-8.618 32.775-23.051 41.94zm154.873-53.26c-3.083 1.884-5.699 4.337-7.775 7.288l-3.999 5.683c-9.941 14.127-26.188 22.561-43.462 22.561-16.493 0-31.769-7.459-41.91-20.465l-11.168-14.323c3.459-1.698 6.811-3.582 10.038-5.645 6.826-.034 30.128.295 52.019 5.838.618.157 1.236.231 1.847.231 3.352 0 6.404-2.264 7.265-5.661 1.017-4.015-1.414-8.095-5.43-9.111-13.471-3.411-27.163-4.995-37.882-5.72 1.375-1.392 2.71-2.824 4.004-4.293 4.236-1.246 15.951-4.233 30.63-4.113 22.423.168 41.677 7.132 57.309 20.713z"/><path d="m256.028 408.002c-.072-4.142-3.46-7.427-7.63-7.368-4.142.073-7.44 3.489-7.368 7.63.167 9.487 3.358 18.448 9.23 25.914 8.025 10.201 12.445 22.967 12.445 35.947v33.239c0 4.142 3.357 7.5 7.5 7.5s7.5-3.358 7.5-7.5v-33.239c0-16.329-5.561-32.389-15.656-45.221-3.831-4.87-5.913-10.715-6.021-16.902z"/></g></g></svg>