<svg id="Capa_1" enable-background="new 0 0 512.672 512.672" height="512" viewBox="0 0 512.672 512.672" width="512" xmlns="http://www.w3.org/2000/svg"><g><path d="m349.443 420.499-34.189 15.145c-18.893 8.369-39.702 10.518-58.238 6.015 9.12-16.753 24.694-30.72 43.587-39.089l34.189-15.145c12.301-5.449 25.523-8.306 38.491-8.318l19.239-.018c2.21-.002 3.372 2.621 1.885 4.256l-12.94 14.237c-8.723 9.596-19.723 17.468-32.024 22.917z" fill="#80d261"/><path d="m164.59 420.499 34.189 15.145c18.893 8.369 39.702 10.518 58.238 6.015-9.12-16.753-24.694-30.72-43.587-39.089l-34.189-15.145c-12.301-5.449-25.523-8.306-38.491-8.318l-19.239-.018c-2.21-.002-3.372 2.621-1.885 4.256l12.94 14.237c8.722 9.596 19.722 17.468 32.024 22.917z" fill="#80d261"/><g><path d="m295.912 139.835 44.9 54.56-15.97 69.61c-2.7 20.22-14.95 38.15-33.23 47.95l-30.95 16.6c-2.32 1.25-5.12 1.25-7.44 0l-30.95-16.6c-17.97-9.63-30.11-27.12-33.09-46.92l-4.99-54.81 50.95-70.39z" fill="#528fd8"/></g><path d="m331.612 104.105c0-30.15-14.84-58.36-39.69-75.44l-27.41-18.84c-4.56-3.13-10.58-3.13-15.14 0l-27.41 18.84c-24.85 17.08-39.69 45.29-39.69 75.44v45.76l28.553 24.603v-1.038h95.745l32.278 4.441z" fill="#528fd8"/><g id="XMLID_166_"><g><path d="m396.832 60.165c11.21 11.21 18.15 26.7 18.15 43.81 0 34.22-27.74 61.95-61.96 61.95h-84.74c34.98 0 63.33-28.35 63.33-63.32v-54c0-3.64 2.95-6.59 6.58-6.59h14.83c17.11 0 32.6 6.93 43.81 18.15z" fill="#82aee3"/><path d="m245.602 165.925h-84.74c-17.11 0-32.6-6.93-43.81-18.14s-18.15-26.7-18.15-43.81c0-34.22 27.74-61.96 61.96-61.96h14.83c3.63 0 6.58 2.95 6.58 6.59v54c0 34.97 28.35 63.32 63.33 63.32z" fill="#82aee3"/><path d="m142.51 151.832c-11.21-11.21-18.15-26.7-18.15-43.81 0-32.708 25.348-59.477 57.469-61.78-.95-2.471-3.338-4.226-6.136-4.226h-14.83c-34.22 0-61.96 27.74-61.96 61.96 0 17.11 6.94 32.6 18.15 43.81s26.7 18.14 43.81 18.14h3.419c-8.243-3.139-15.649-7.972-21.772-14.094z" fill="#528fd8"/></g></g><path d="m256.336 165.93-16.52 18.237c-16.011 17.675-29.117 37.779-38.828 59.561-11.383 25.534-36.723 41.981-64.68 41.981h-46.926c-4.337 0-7.085-4.652-4.992-8.45l10.024-18.194v-5.277c0-48.523 39.335-87.858 87.858-87.858z" fill="#82aee3"/><path d="m108.092 277.259 7.747-14.061c1.494-2.711 2.277-5.756 2.277-8.851v-.558c0-48.523 39.335-87.858 87.858-87.858h-23.702c-48.523 0-87.858 39.335-87.858 87.858v5.277l-10.024 18.193c-2.093 3.799.655 8.45 4.992 8.45h23.702c-4.337 0-7.085-4.652-4.992-8.45z" fill="#528fd8"/><g id="XMLID_165_"><g><path d="m428.282 277.255c2.09 3.8-.66 8.45-4.99 8.45h-46.93c-27.96 0-53.3-16.44-64.68-41.98-4.86-10.89-10.56-21.36-17.05-31.32s-13.77-19.4-21.78-28.24l-16.52-18.24h74.07c48.52 0 87.85 39.34 87.85 87.86v5.28z" fill="#82aee3"/></g></g><path d="m256.261 160.071-12.539-45.589c-2.375-8.634-11.693-13.322-20.041-10.083-8.348 3.239-12.067 12.985-7.997 20.961l20.378 38.932 6.881 9.778 15.668-5.629z" fill="#fee45a"/><path d="m278.441 163.509 19.759-38.149c4.07-7.976.352-17.722-7.997-20.961-8.348-3.239-17.667 1.449-20.041 10.083l-12.539 45.589-3.984 11.996 13.203 4.622z" fill="#fee45a"/><g><path d="m434.851 273.64-9.094-16.504v-3.348c0-36.328-20.422-67.972-50.386-84.067 27.365-9.326 47.112-35.266 47.112-65.747 0-38.298-31.158-69.456-69.456-69.456h-14.829c-7.767 0-14.085 6.318-14.085 14.085v3.11c-7.105-11.398-16.544-21.395-27.938-29.226l-27.416-18.844c-7.067-4.858-16.565-4.858-23.633 0l-27.416 18.844c-11.394 7.831-20.832 17.829-27.938 29.226v-3.11c0-7.767-6.318-14.085-14.085-14.085h-14.829c-38.298 0-69.456 31.158-69.456 69.456 0 5.836.729 11.644 2.166 17.261 1.025 4.012 5.108 6.435 9.124 5.407 4.014-1.026 6.435-5.112 5.407-9.125-1.126-4.404-1.697-8.96-1.697-13.543 0-30.027 24.429-54.456 54.456-54.456h13.914v53.086c0 .255.009.508.011.763-.002.244-.011.488-.011.732 0 .208.014.413.031.617.637 21.659 11.048 40.905 26.963 53.479-28.46-2.526-50.852-26.487-50.852-55.591 0-4.142-3.357-7.5-7.5-7.5s-7.5 3.358-7.5 7.5c0 22.659 10.709 42.852 27.318 55.825h-2.375c-14.781 0-28.618-5.834-38.96-16.429-2.894-2.963-7.642-3.022-10.606-.127-2.964 2.894-3.021 7.642-.128 10.606 7.586 7.77 16.651 13.519 26.569 17.013-30.199 16.022-50.818 47.793-50.818 84.295v3.347l-9.094 16.506c-2.275 4.132-2.202 9.023.197 13.084s6.647 6.485 11.364 6.485h46.927c17.694 0 34.461-5.992 47.925-16.407 5.56 17.721 17.931 32.887 34.493 41.768l30.035 16.104v83.394c-8.962-9.221-19.944-16.884-32.296-22.355l-34.188-15.144c-13.205-5.85-27.563-8.948-41.522-8.961l-19.238-.018c-.003 0-.006 0-.009 0-3.971 0-7.575 2.345-9.185 5.976-1.609 3.634-.923 7.882 1.751 10.825l12.94 14.236c9.389 10.33 21.331 18.881 34.537 24.73l6.616 2.931c3.787 1.678 8.217-.033 9.895-3.82s-.033-8.217-3.82-9.895l-6.616-2.931c-11.311-5.01-21.516-12.308-29.512-21.105l-5.396-5.937 8.023.007c11.888.011 24.149 2.665 35.461 7.676l34.188 15.144c13.871 6.145 25.698 15.439 34.169 26.709-13.325 1.217-27.431-.997-40.701-6.494-3.824-1.583-8.214.232-9.799 4.059-1.586 3.827.231 8.214 4.059 9.8 12.726 5.271 26.167 7.954 39.277 7.954 3.826 0 7.622-.235 11.365-.694v54.411c0 4.142 3.357 7.5 7.5 7.5s7.5-3.358 7.5-7.5v-54.605c4.264.601 8.596.906 12.962.906 13.91 0 28.154-3.03 41.568-8.972l34.188-15.145c13.206-5.85 25.148-14.401 34.537-24.73l12.941-14.237c2.673-2.942 3.359-7.19 1.75-10.824-1.609-3.631-5.213-5.976-9.185-5.976-.003 0-.006 0-.009 0l-19.238.018c-13.959.013-28.317 3.112-41.521 8.961l-34.188 15.145c-13.053 5.782-24.581 14.006-33.805 23.937v-84.263c.149-.074.301-.144.448-.223l25.338-13.586c3.65-1.958 5.023-6.503 3.065-10.154-1.957-3.65-6.501-5.023-10.153-3.066l-25.339 13.586c-.111.06-.245.06-.358 0l-30.948-16.594c-15.421-8.269-26.233-23.434-29.075-40.668 4.425-5.364 8.183-11.359 11.099-17.9 8.025-17.999 18.407-34.741 30.912-49.903-6.754 20.233-14.03 48.779-13.101 75.931.139 4.053 3.468 7.244 7.491 7.244.087 0 .174-.001.262-.004 4.14-.142 7.381-3.612 7.238-7.752-.999-29.192 8.736-61.186 15.696-80.058 6.96 18.872 16.694 50.866 15.695 80.058-.141 4.14 3.1 7.61 7.24 7.752.087.003.174.004.261.004 4.023 0 7.353-3.191 7.491-7.244.928-27.152-6.347-55.698-13.101-75.93 12.505 15.161 22.887 31.902 30.911 49.902 3.136 7.036 7.239 13.45 12.108 19.115-1.688 9.007-5.553 17.508-11.285 24.739-2.573 3.246-2.028 7.963 1.218 10.536 1.378 1.093 3.021 1.624 4.654 1.624 2.211 0 4.401-.974 5.882-2.841 5.33-6.723 9.381-14.32 12.005-22.401 13.294 9.955 29.682 15.657 46.949 15.657h46.926c4.718 0 8.967-2.425 11.366-6.487 2.399-4.063 2.472-8.954.196-13.084zm-131.209 135.787 34.188-15.145c11.312-5.01 23.573-7.665 35.461-7.676l8.024-.007-5.397 5.938c-7.996 8.797-18.201 16.095-29.512 21.105l-34.188 15.145c-13.875 6.146-28.708 8.66-42.75 7.357 8.468-11.273 20.3-20.571 34.174-26.717zm35.47-306.822v-53.087h13.914c30.027 0 54.456 24.429 54.456 54.456s-24.429 54.456-54.456 54.456h-2.375c16.609-12.973 27.318-33.166 27.318-55.825 0-4.142-3.357-7.5-7.5-7.5s-7.5 3.358-7.5 7.5c0 29.105-22.392 53.065-50.852 55.591 15.916-12.574 26.326-31.82 26.963-53.479.017-.204.031-.409.031-.617 0-.245-.009-.488-.011-.732.004-.255.012-.508.012-.763zm-149.325.564c.302-27.331 13.862-52.816 36.419-68.32l27.416-18.844c1.985-1.364 4.653-1.365 6.641 0l27.416 18.844c22.557 15.505 36.117 40.99 36.419 68.32-.218 21.835-13.026 40.709-31.505 49.684l12.288-24.084c2.902-5.688 3.262-12.373.985-18.339s-6.996-10.714-12.95-13.023c-5.95-2.309-12.637-1.989-18.343.881-5.705 2.87-9.949 8.048-11.643 14.206l-5.988 21.772-5.988-21.772c-1.693-6.158-5.938-11.335-11.643-14.206-5.704-2.87-12.391-3.191-18.343-.881-5.954 2.31-10.674 7.057-12.95 13.023s-1.917 12.651.985 18.339l12.288 24.084c-18.478-8.975-31.286-27.849-31.504-49.684zm32.578 18.782c-.992-1.943-1.109-4.136-.332-6.174.777-2.039 2.326-3.596 4.361-4.386 2.032-.789 4.227-.685 6.176.296 1.95.981 3.342 2.68 3.921 4.784l11.667 42.417c-.8-.291-1.66-.458-2.56-.458-1.594 0-3.169-.083-4.73-.215zm69.154 0-18.502 36.264c-1.561.132-3.136.215-4.73.215-.901 0-1.76.167-2.56.458l11.667-42.417c.579-2.104 1.971-3.803 3.921-4.784 1.949-.981 4.143-1.085 6.176-.296 2.035.79 3.584 2.347 4.361 4.386.777 2.038.66 4.231-.333 6.174zm-97.381 118.723c-10.164 22.802-32.863 37.535-57.829 37.535h-43.879l8.554-15.524c.611-1.109.932-2.354.932-3.62v-5.277c0-44.303 36.038-80.347 80.338-80.358h40.34l-26.966 13.736c-29.119 14.833-54.748 36.586-74.115 62.906-2.455 3.336-1.74 8.031 1.596 10.486 1.339.985 2.896 1.459 4.439 1.459 2.304 0 4.577-1.058 6.047-3.056 17.989-24.447 41.794-44.652 68.842-58.43l23.907-12.178c-12.995 15.937-23.808 33.484-32.206 52.321zm182.225 37.535c-24.966 0-47.665-14.733-57.83-37.535-8.584-19.256-19.692-37.165-33.074-53.38l25.99 13.239c27.048 13.778 50.853 33.982 68.842 58.43 1.471 1.998 3.743 3.056 6.047 3.056 1.544 0 3.101-.475 4.439-1.459 3.336-2.455 4.051-7.15 1.596-10.486-19.367-26.32-44.996-48.073-74.115-62.906l-26.966-13.736h39.127c44.301.01 80.338 36.055 80.338 80.358v5.277c0 1.266.32 2.511.931 3.619l8.555 15.525h-43.88z"/></g></g></svg>