<svg id="Capa_1" enable-background="new 0 0 511.962 511.962" height="512" viewBox="0 0 511.962 511.962" width="512" xmlns="http://www.w3.org/2000/svg"><g><path d="m238.552 449.816 4.528-6.528c.398-.574.501-1.303.277-1.964l-.804-2.378c-2.697-7.974-7.474-14.771-13.533-19.989-.746-.642-1.816-.74-2.647-.214l-6.389 4.047c-1.458.924-3.365-.109-3.387-1.836l-.107-8.303c-.012-.891-.552-1.702-1.384-2.023-7.452-2.874-15.651-3.878-23.808-2.598-.894.14-1.601.839-1.787 1.725l-2.017 9.605c-.362 1.724-2.498 2.349-3.733 1.094l-7.204-7.327c-.569-.578-1.409-.798-2.188-.572l-19.38 5.619c-3.525 1.022-5.447 4.702-4.271 8.179l6.465 19.115c.26.768.92 1.332 1.72 1.468l10.129 1.724c1.736.296 2.444 2.406 1.236 3.688l-6.729 7.144c-.621.659-.791 1.638-.395 2.452 3.611 7.425 9.121 13.579 15.738 18.052.738.499 1.713.48 2.451-.02l6.875-4.657c1.429-.968 3.367.006 3.442 1.73l.33 7.553c.042.957.692 1.795 1.62 2.035 7.764 2.007 16.097 2.05 24.205-.3l2.411-.699c.671-.195 1.21-.695 1.454-1.35l2.77-7.447c.61-1.641 2.797-1.952 3.84-.545l3.362 4.533c.549.741 1.501 1.061 2.387.805l18.696-5.42c1.207-.35 1.878-1.636 1.476-2.826l-6.237-18.44c-.295-.873-1.103-1.471-2.024-1.499l-5.641-.169c-1.75-.053-2.745-2.025-1.747-3.464z" fill="#80d261"/><path d="m138.256 194.379c-2.094-.149-4.172-.463-6.223-.98-36.977-9.325-60.037-44.306-51.507-78.132 8.531-33.826 45.421-53.688 82.398-44.363 21.467 5.414 35.366 30.873 43.251 51.28l15.818 29.986-11.178 44.656z" fill="#6354b1"/><path d="m323.546 162.511c21.511 3.978 50.47 5.479 66.328-9.963 27.321-26.605 29.74-68.433 5.402-93.426s-66.215-23.686-93.536 2.918c-4.989 4.859-8.331 11.062-10.469 17.951l-26.698 60.875 36.434 25.964z" fill="#8379c1"/><path d="m323.05 214.275c12.996 17.597 33.124 38.471 55.253 38.022 38.127-.774 68.461-29.675 67.753-64.553s-32.19-62.524-70.316-61.75c-6.963.141-13.64 2.39-19.907 5.962l-61.077 26.232 8.881 43.848z" fill="#8379c1"/><path d="m301.038 261.304c5.344 21.213 16.041 48.165 36.685 56.15 35.567 13.756 74.601-1.467 87.185-34.004s-6.047-70.064-41.614-83.82c-6.495-2.512-13.526-2.966-20.68-2.041l-66.463 1.084-8.428 43.937z" fill="#6354b1"/><path d="m258.599 261.13c-13.974 16.831-29.423 41.37-23.69 62.749 9.878 36.833 45.201 59.366 78.895 50.329s53.001-46.221 43.122-83.054c-1.804-6.727-5.586-12.671-10.554-17.901l-40.09-53.022-40.447 19.119z" fill="#8379c1"/><path d="m212.881 247.482c-20.517 7.59-46.165 21.119-51.887 42.501-9.859 36.838 9.468 74.012 43.167 83.031 33.699 9.018 69.009-13.534 78.868-50.372 1.8-6.727 1.497-13.767-.191-20.78l-8.214-65.963-44.588-3.662z" fill="#6354b1"/><g fill="#8379c1"><path d="m183.506 214.914c-21.736-2.466-50.729-1.942-65.47 14.569-25.397 28.447-24.89 70.342 1.133 93.575s67.707 19.006 93.104-9.441c4.638-5.195 7.538-11.616 9.191-18.638l22.383-62.59-38.157-23.357z"/><path d="m188.153 171.969c-11.496-18.612-29.828-41.08-51.919-42.463-38.06-2.383-70.681 23.91-72.86 58.727s26.907 64.973 64.967 67.356c6.951.435 13.791-1.254 20.332-4.295l63.038-21.09-5.223-44.432z"/><path d="m258.8 113.972c11.627-18.53 23.697-44.896 15.188-65.33-14.66-35.204-52.652-52.87-84.856-39.459s-46.426 52.822-31.765 88.025c2.677 6.429 7.212 11.822 12.828 16.349l46.747 47.257 37.565-24.298z"/></g><path d="m326.244 130.94c17.857-12.636 39.136-32.336 39.136-54.47 0-38.135-28.28-69.049-63.165-69.049s-63.165 30.914-63.165 69.048c0 6.964 2.113 13.686 5.557 20.024l24.987 61.597 44.019-7.989z" fill="#6354b1"/><path d="m314.517 166.39c1.811-1.061 3.702-1.978 5.686-2.712 35.768-13.224 74.571 2.581 86.668 35.301s-7.092 69.966-42.86 83.19c-20.765 7.677-46.628-5.457-64.672-17.826l-31.222-25.125-11.934-44.222z" fill="#6e61b6"/><path d="m250.683 128.577c-.593-2.014-1.027-4.07-1.26-6.172-4.205-37.902 20.493-71.746 55.165-75.593s66.189 23.76 70.394 61.662c2.441 22.004-16.543 43.934-32.9 58.462l-31.914 24.239-45.795.914z" fill="#6e61b6"/><path d="m301.144 200.428c17.753 12.783 43.301 26.51 64.237 19.317 36.065-12.391 56.113-49.181 44.778-82.174-11.335-32.992-49.761-49.692-85.826-37.301-2 .687-3.912 1.56-5.748 2.579l-70.726 33.05 19.531 51.682z" fill="#978ecb"/><path d="m296.423 241.852c1.56 1.405 3.007 2.929 4.307 4.598 23.438 30.082 20.129 71.849-7.389 93.289-27.519 21.44-68.827 14.435-92.264-15.647-13.606-17.464-8.924-46.09-2.602-67.034l14.487-37.365 38.529-24.769z" fill="#6e61b6"/><path d="m215.562 248.554c-.801 1.94-1.753 3.814-2.89 5.598-20.499 32.156-60.964 43.022-90.38 24.27-29.416-18.753-36.645-60.022-16.145-92.178 11.901-18.668 40.442-23.839 62.294-24.894l40.059 1.141 36.239 28.013z" fill="#6e61b6"/><path d="m174.528 171.562c-2.032-.528-4.018-1.214-5.941-2.096-34.662-15.899-50.972-54.492-36.428-86.201s54.434-44.525 89.096-28.627c20.123 9.23 29.157 36.793 33.197 58.294l4.36 39.838-22.782 39.736z" fill="#6e61b6"/><path d="m155.657 229.79c-2.094-.149-4.172-.463-6.223-.98-36.977-9.325-60.037-44.306-51.507-78.132 8.531-33.826 45.421-53.688 82.398-44.363 21.467 5.414 35.366 30.873 43.251 51.28l15.818 29.986-11.178 44.656z" fill="#978ecb"/><path d="m180.164 214.669c-2.094-.149-4.172-.463-6.223-.98-36.977-9.325-60.037-44.306-51.507-78.132 2.714-10.764 8.313-20.125 15.86-27.57-19.657 6.873-35.207 22.229-40.367 42.691-8.53 33.826 14.53 68.807 51.507 78.132 2.051.517 4.129.83 6.223.98l72.56 2.448 3.958-15.814z" fill="#8379c1"/><path d="m260.509 298.183c-.822 1.932-1.793 3.795-2.949 5.567-20.834 31.94-61.41 42.383-90.628 23.324-29.219-19.059-36.016-60.402-15.182-92.342 12.092-18.538 40.675-23.413 62.534-24.241h40.835l37.512 17.239z" fill="#978ecb"/><path d="m191.096 330.833c-29.218-19.059-36.016-60.402-15.182-92.342 12.092-18.538 40.675-23.413 62.534-24.241h24.852l-8.18-3.759h-40.835c-21.86.828-50.442 5.703-62.534 24.241-20.834 31.94-14.037 73.283 15.182 92.342 10.76 7.019 23.09 10.035 35.378 9.451-3.861-1.463-7.638-3.359-11.215-5.692z" fill="#8379c1"/><path d="m359.261 221.243c1.56 1.405 3.007 2.929 4.307 4.598 23.438 30.082 20.129 71.849-7.389 93.289-27.519 21.44-68.827 14.435-92.264-15.647-13.606-17.464-8.924-46.09-2.602-67.034l14.487-37.365 38.529-24.769z" fill="#978ecb"/><path d="m280.02 151.046c17.857-12.636 39.136-32.336 39.136-54.47 0-38.135-28.28-69.049-63.165-69.049s-63.165 30.914-63.165 69.049c0 6.964 2.113 13.686 5.557 20.024l24.987 61.597 44.019-7.989z" fill="#978ecb"/><path d="m224.41 125.077c-3.444-6.338-5.557-13.06-5.557-20.024 0-38.135 28.28-69.049 63.165-69.049 1.561 0 3.12.078 4.652.2-9.081-5.524-19.55-8.677-30.679-8.677-34.885 0-63.165 30.914-63.165 69.049 0 6.964 2.113 13.686 5.557 20.024l24.987 61.597 21.04-3.818z" fill="#8379c1"/><circle cx="255.991" cy="190.54" fill="#6e61b6" r="46.224"/><path d="m234.492 189.141c0-20.322 13.12-37.569 31.348-43.763-3.175-.689-6.468-1.062-9.849-1.062-25.529 0-46.224 20.695-46.224 46.224s20.695 46.224 46.224 46.224c5.207 0 10.207-.874 14.876-2.461-20.795-4.515-36.375-23.014-36.375-45.162z" fill="#6354b1"/><circle cx="255.991" cy="190.54" fill="#6354b1" r="16.224"/><g><path d="m279.715 190.54c0-13.082-10.643-23.724-23.725-23.724s-23.725 10.643-23.725 23.724 10.643 23.724 23.725 23.724 23.725-10.643 23.725-23.724zm-32.449 0c0-4.811 3.914-8.724 8.725-8.724s8.725 3.914 8.725 8.724-3.914 8.724-8.725 8.724-8.725-3.914-8.725-8.724z"/><path d="m453.462 187.156c-.398-23.299-14.532-44.45-36.886-55.198-.203-.098-.409-.181-.616-.259-1.382-3.403-3.039-6.653-4.939-9.742 5.552-14.057 6.373-29.316 2.267-43.138-1.18-3.97-5.351-6.235-9.325-5.054-3.971 1.18-6.233 5.354-5.054 9.325 2.364 7.957 2.577 16.582.719 25.014-5.756-5.341-12.514-9.773-20.12-13.08-.008-.004-.017-.007-.025-.01-3.238-16.291-11.889-30.524-24.696-40.417-1.539-1.188-3.129-2.283-4.747-3.322 12.071-1.098 23.939 2.004 33.249 9.108 1.358 1.037 2.958 1.538 4.544 1.538 2.259 0 4.492-1.017 5.968-2.951 2.514-3.293 1.881-8-1.412-10.512-10.209-7.791-22.664-11.971-35.59-12.371-7.082-14.819-19.356-26.173-34.345-31.53-21.751-7.775-46.521-1.984-64.274 14.7-17.324-17.134-41.927-23.552-63.881-16.336-20.723 6.814-36.149 24.678-40.984 47.11-2.824 1.599-5.542 3.407-8.122 5.434-4.414 3.469-8.305 7.426-11.641 11.779-23.086 1.16-43.275 13.619-53.307 33.181-7.545 14.714-8.447 31.656-3.222 47.331-11.894 11.776-18.601 27.388-18.533 43.609.089 21.328 11.424 40.736 30.473 52.497.185.583.352 1.169.553 1.748 2.022 5.808 4.852 11.242 8.357 16.201-7.194 22.192-2.622 45.619 12.356 62.001 11.57 12.654 27.966 19.567 45.473 19.567 1.069 0 2.142-.027 3.218-.079 7.165 17.45 20.861 30.359 38.282 35.79 5.723 1.784 11.603 2.649 17.478 2.649 13.168 0 26.28-4.37 37.426-12.467l10.598 19.638c9.056 16.78 7.839 36.871-3.177 52.435-2.074 2.931-3.88 6.003-5.425 9.183-1.046-1.669-2.572-2.985-4.361-3.768 1.321-2.376 1.597-5.241.719-7.839l-.805-2.376c-3.031-8.962-8.476-17.008-15.742-23.267-2.817-2.43-6.651-3.026-9.984-1.676-.393-3.588-2.719-6.654-6.126-7.968-8.863-3.418-18.433-4.458-27.668-3.01-3.922.614-7.11 3.639-7.952 7.532l-.278-.284c-2.505-2.548-6.192-3.514-9.625-2.518l-19.38 5.619c-3.688 1.069-6.692 3.52-8.458 6.9-1.766 3.381-2.06 7.247-.829 10.885l6.464 19.113c1.145 3.385 4.043 5.861 7.566 6.461l.393.067c-2.714 2.92-3.373 7.264-1.637 10.828 4.089 8.408 10.41 15.665 18.279 20.984 3.024 2.046 6.871 2.204 10.042.476.791 3.496 3.439 6.292 7.002 7.214 4.436 1.146 8.967 1.719 13.481 1.719 4.968 0 9.914-.693 14.688-2.077l2.415-.7c2.629-.764 4.821-2.625 6.018-5.068 2.291 1.404 5.122 1.839 7.792 1.063l11.502-3.334v18.961c0 4.142 3.357 7.5 7.5 7.5s7.5-3.358 7.5-7.5v-25.677c0-10.365 3.165-20.316 9.153-28.776 14.332-20.25 15.916-46.392 4.134-68.224l-4.866-9.016c9.375 5.053 19.685 7.729 30.009 7.729 6.444 0 12.896-1.037 19.116-3.174 21.959-7.545 37.728-27.675 41.083-51.948 2.498.27 4.987.419 7.455.419 21.582 0 41.554-10.183 52.905-27.655 11.255-17.325 12.613-39.237 4.074-58.898 17.639-12.154 28.134-31.541 27.781-52.089zm-217.988 286.249-1.17-1.577c-2.123-2.862-5.632-4.33-9.161-3.828-3.527.5-6.49 2.887-7.732 6.227l-1.841 4.949c-5.258 1.501-10.813 1.832-16.276.987l-.15-3.44c-.153-3.51-2.198-6.671-5.338-8.25s-6.897-1.334-9.803.636l-3.771 2.555c-3.42-2.788-6.332-6.112-8.602-9.823l4.097-4.35c2.458-2.608 3.278-6.341 2.14-9.74-1.139-3.399-4.042-5.885-7.575-6.486l-7.015-1.194-5.08-15.02 15.229-4.415 4.988 5.073c2.513 2.556 6.211 3.517 9.651 2.511 3.44-1.008 6.034-3.814 6.77-7.319l1.229-5.851c4.34-.256 8.733.232 12.975 1.446l.06 4.555c.045 3.512 1.992 6.733 5.079 8.407 3.089 1.673 6.849 1.546 9.821-.333l2.908-1.843c3.814 4 6.719 8.748 8.492 13.92l-3.009 4.338c-2.031 2.928-2.296 6.723-.691 9.904 1.605 3.182 4.814 5.224 8.377 5.331l1.964.059 3.285 9.715zm202.99-285.992c.275 16.007-8.338 31.17-22.706 40.417-.135-.009-.271-.007-.407-.008.798-11.152-1.261-22.466-6.088-33.138 8.207-12.746 12.373-27.587 11.397-42.522 10.975 8.886 17.571 21.609 17.804 35.251zm-52.638 71.482c-1.795-11.935-6.385-23.476-13.501-33.769 10.002-4.094 18.757-9.954 25.981-17.026 3.078 10.399 2.958 21.227-.476 31.356-2.498 7.368-6.575 13.933-12.004 19.439zm-84.408 62.302c-.152-.051-.303-.106-.457-.147-12.07-3.953-22.907-11.622-31.131-22.177-11.167-14.33-7.036-39.52-2.615-55.798 1.805-.385 3.576-.864 5.31-1.426l17.651 29.239c1.409 2.334 3.887 3.625 6.428 3.625 1.32 0 2.657-.349 3.869-1.08 3.546-2.141 4.686-6.751 2.545-10.297l-16.96-28.096c2.523-1.71 4.884-3.639 7.077-5.741l24.252 22.016c1.437 1.304 3.24 1.947 5.039 1.947 2.041 0 4.075-.829 5.555-2.459 2.784-3.067 2.556-7.81-.512-10.594l-25.031-22.722c.992-1.703 1.893-3.464 2.696-5.278 20.213 12.931 36.054 16.975 47.956 16.975 1.171 0 2.293-.049 3.389-.123.411.458.808.921 1.173 1.389 9.781 12.554 14.689 27.693 13.955 42.826-.001.026-.003.051-.004.077-.03.594-.051 1.187-.098 1.78-1.228 15.496-8.308 29.02-19.937 38.08s-26.47 12.619-41.799 10.02c-2.835-.481-5.623-1.167-8.351-2.036zm-50.226 23.85c-.068 0-.137 0-.206 0-8.547 0-16.92-2.198-24.5-6.312 13.238-5.291 25.376-14.422 34.603-26.928 7.143 8.161 15.655 14.716 25.048 19.35-9.808 8.861-22.113 13.837-34.945 13.89zm-80.162-24.255c-12.348-8.054-20.536-20.937-23.058-36.275-.158-.964-.293-1.931-.405-2.899-.005-.096-.019-.19-.027-.285-1.615-14.597 2.056-29.571 10.492-42.504 9.929-15.223 35.109-19.499 51.935-20.605.551.913 1.132 1.805 1.735 2.681l-23.029 25.248c-2.792 3.061-2.573 7.804.487 10.596 1.438 1.312 3.247 1.958 5.052 1.958 2.035 0 4.063-.824 5.543-2.446l22.12-24.251c2.342 1.93 4.858 3.654 7.506 5.171l-14.208 29.497c-1.798 3.732-.229 8.214 3.502 10.012 1.05.505 2.158.745 3.25.745 2.79 0 5.47-1.565 6.762-4.247l14.663-30.441c2.639.639 5.352 1.08 8.125 1.312-4.211 17.432-6.165 37.782.708 54.051-.294.526-.587 1.054-.906 1.542-12.33 18.904-32.379 29.431-51.99 29.429-9.876 0-19.646-2.672-28.257-8.289zm-58.738-64.699c-.145-.195-.299-.383-.463-.564-3.482-4.418-6.246-9.399-8.145-14.852-3.7-10.625-3.677-22.221-.156-33.172 1.873 2.429 3.914 4.773 6.12 7.016 1.468 1.492 3.406 2.24 5.346 2.24 1.899 0 3.8-.717 5.26-2.154 2.953-2.905 2.991-7.654.086-10.606-4.59-4.665-8.278-9.869-11.011-15.387-.049-.108-.104-.212-.157-.318-5.486-11.251-6.995-23.794-3.972-35.783 3.51-13.92 12.645-25.585 25.76-32.992.01-.006.021-.011.031-.018.342-.193.676-.396 1.023-.583 13.909-7.488 30.413-9.383 46.477-5.331 17.629 4.445 29.857 26.88 36.37 42.439-1.351 1.607-2.606 3.295-3.764 5.053l-32.099-11.731c-3.895-1.424-8.197.581-9.618 4.47-1.422 3.891.579 8.197 4.47 9.619l30.804 11.258c-.889 2.875-1.529 5.857-1.925 8.915l-32.669-1.957c-4.151-.243-7.687 2.904-7.935 7.039s2.903 7.687 7.038 7.935l33.716 2.019c.258 1.698.601 3.369 1.015 5.011-26.214 2.442-41.701 10.087-50.839 18.242-.605-.109-1.211-.217-1.786-.362-2.135-.538-4.318-1.208-6.49-1.99-3.895-1.405-8.193.618-9.598 4.515-1.403 3.897.618 8.194 4.516 9.598 1.086.391 2.177.754 3.267 1.098-6.532 11.383-10.175 23.9-10.713 36.544-7.97-3.589-14.742-8.781-19.959-15.211zm88.034-159.517c0-33.938 24.972-61.548 55.665-61.548s55.665 27.61 55.665 61.548c0 13.95-11.41 30.049-32.233 45.628-1.217-.593-2.466-1.13-3.732-1.631l4.946-33.802c.6-4.099-2.236-7.907-6.335-8.507-4.102-.6-7.907 2.237-8.507 6.335l-4.75 32.461c-1.665-.156-3.349-.245-5.054-.245-1.369 0-2.722.068-4.065.17l-4.739-32.386c-.599-4.098-4.407-6.931-8.507-6.335-4.099.6-6.935 4.408-6.335 8.507l4.891 33.429c-3.739 1.397-7.278 3.205-10.571 5.36-5.379-11.892-12.65-24.267-22.156-33.446-2.765-5.359-4.183-10.582-4.183-15.538zm16.94 93.964c0-21.353 17.372-38.724 38.725-38.724s38.725 17.372 38.725 38.724c0 19.819-14.969 36.198-34.193 38.45-.009.001-.018.002-.027.003-1.479.172-2.98.271-4.505.271-21.353 0-38.725-17.372-38.725-38.724zm185.799-50.531c9.973 29.028-8.025 61.616-40.121 72.643-17.189 5.906-39.674-6.192-53.629-15.663.222-1.849.351-3.725.38-5.626l33.375-7.286c4.047-.884 6.611-4.88 5.728-8.927-.883-4.046-4.873-6.608-8.927-5.728l-32.052 6.997c-.808-2.963-1.862-5.824-3.142-8.56l28.635-15.849c3.624-2.006 4.936-6.57 2.93-10.194-2.005-3.624-6.572-4.936-10.193-2.93l-29.59 16.377c-1.269-1.454-2.611-2.844-4.028-4.154 14.043-11.168 28.105-26.031 32.681-43.104.554-.234 1.107-.453 1.657-.641 14.441-4.96 29.673-4.909 43.314.057.105.041.212.075.319.112 1.052.39 2.096.8 3.128 1.249 14.256 6.195 24.745 17.285 29.535 31.227zm-40.523-50.104c-11.784-2.12-24.089-1.507-36.041 1.852-.759-13.155-4.598-25.412-10.744-35.948 10.954.396 21.267 4.02 29.859 10.657 7.763 5.998 13.555 14.097 16.926 23.439zm-45.136-71.222c9.684 3.46 17.667 10.031 23.163 18.885-4.564.974-9.096 2.415-13.518 4.346-.064.028-.123.063-.185.092-7.107-1.371-14.519-1.619-22.043-.682-7.757-8.047-17.186-14.215-27.675-17.788 12.365-7.581 27.093-9.557 40.258-4.853zm-118.421-1.513c12.96-4.262 27.239-2.124 39.227 5.314-12.842 3.619-24.262 11.073-33.184 21.145-11.365-2.901-22.951-3.031-33.8-.538 5.414-12.366 15.335-21.836 27.757-25.921zm-44.523 50.089c11.364-8.93 26.188-12.523 41.067-10.267-6.472 11.557-10.203 25.107-10.203 39.584 0 1.153.063 2.311.159 3.47-1.092-.373-2.196-.718-3.326-1.003-15.902-4.01-32.213-3.236-46.968 2.084 1.202-8.123 4.068-15.669 8.444-22.192.045-.064.087-.129.129-.195 2.928-4.321 6.511-8.191 10.698-11.481zm-60.868 40.01c6.103-11.901 17.323-20.303 30.74-23.583-3.042 7.833-4.689 16.346-4.794 25.229-13.321 8.681-22.955 21.117-27.679 35.782-4.616-12.397-4.194-25.868 1.733-37.428zm-20.102 84.033c-.044-10.44 3.706-20.589 10.477-28.917 1.46 2.321 3.066 4.584 4.831 6.769.485 7.594 2.274 15.093 5.289 22.222-5.131 9.742-7.865 20.281-8.152 30.801-7.915-8.532-12.397-19.355-12.445-30.875zm47.81 122.386c-9.416-10.298-13.334-24.417-11.18-38.707 6.716 5.548 14.565 9.919 23.207 12.806 2.871 16.311 10.869 30.429 22.85 40.583-13.504.116-26.094-5.077-34.877-14.682zm80.368 51.081c-12.644-3.942-22.727-13.222-28.326-25.848 8.278 3.466 17.064 5.145 25.897 5.144 2.665 0 5.334-.162 7.995-.464 9.642 8.237 21.052 13.566 33.101 15.556-11.773 7.383-25.804 9.621-38.667 5.612zm113.622-1.631c-14.057 4.83-29.753 2.096-42.447-6.848 10.834-3.82 20.73-10.458 28.797-19.463 1.856.461 3.727.874 5.621 1.195 4.13.7 8.234 1.046 12.285 1.046 8.325 0 16.411-1.471 23.974-4.327-5 13.393-15.173 23.91-28.23 28.397zm93.738-73.171c-7.539 11.602-20.248 18.924-34.488 20.502 6.49-9.397 10.531-20.483 11.748-32.526 12.017-8.216 20.785-19.547 25.506-33.014 6.672 15.143 5.761 31.912-2.766 45.038z"/></g></g></svg>