<svg id="Capa_1" enable-background="new 0 0 510.143 510.143" height="512" viewBox="0 0 510.143 510.143" width="512" xmlns="http://www.w3.org/2000/svg"><g><g id="XMLID_168_"><g><path d="m211.879 372.862-14.62 20.75c-28.04 24.4-69.99 23.66-97.14-1.73l-10.17-9.51-18.8-10.75c-3.53-2.02-4.39-6.71-1.85-9.89 62.56-78.02 130.35.63 130.35.63z" fill="#80d261"/></g></g><g id="XMLID_169_"><g><path d="m318.779 385.802v4.88c0 26.43-21.42 47.85-47.84 47.85h-43.68v-17.83c0-26.42 21.42-47.84 47.85-47.84h30.73c7.15 0 12.94 5.8 12.94 12.94z" fill="#80d261"/></g></g><path d="m220.592 502.643c3.685 0 6.671-2.987 6.671-6.671v-102.36c0-23.948 4.84-47.227 14.387-69.189l15.328-35.264 30.953-60.895-26.436-18.368-33.993 71.817-13.367 30.752c-11.13 25.606-16.873 53.227-16.873 81.147v102.36c0 3.685 2.987 6.671 6.671 6.671z" fill="#ade194"/><path d="m333.599 10.472c-8.07-2.03-16.16-3-24.12-3-42.03 0-80.47 27.07-93.75 68.29-16.211-2.953-32.337-1.735-47.189 2.947l-41.002 43.177-9.663 79.112 45.209 53.695 149.013 39.89 37.353 6.091 12.63-6.084c1.844-2.8 3.26-5.949 4.119-9.387l18.42-73.65 22.91-94.11c5.66-48.451-25.35-94.761-73.93-106.971z" fill="#ee6161"/><g><path d="m319.555 283.836-117.91-29.79c-38.8-12.6-65.01-47.5-67.83-86.66-.17-2.32-.25-4.66-.25-7.01 0-7.96.97-16.05 3-24.13 6.47-25.77 22.54-46.59 43.43-59.62.603-.376 1.21-.745 1.821-1.109-12.837 2.156-25.039 6.827-35.927 13.624-20.89 13.03-36.96 33.85-43.43 59.62-2.03 8.08-3 16.17-3 24.13 0 2.35.08 4.69.25 7.01 2.82 39.16 29.03 74.06 67.83 86.66l117.91 29.79 43.67 11.03c12.938 3.272 26.034-2.253 32.975-12.799z" fill="#e94444"/></g><g><path d="m424.796 196.632c-2.932 0-5.903-.738-8.634-2.29-39.312-22.354-81.923-37.083-126.649-43.777l-25.901-3.876c-9.559-1.431-16.147-10.339-14.717-19.897 1.431-9.559 10.343-16.145 19.897-14.717l25.901 3.876c49.006 7.335 95.695 23.473 138.77 47.965 8.401 4.778 11.34 15.461 6.562 23.863-3.225 5.671-9.141 8.853-15.229 8.853z" fill="#fee97d"/></g><path d="m313.836 144.757-25.901-3.876c-9.559-1.431-16.147-10.339-14.717-19.897.436-2.915 1.575-5.547 3.208-7.766l-7.635-1.143c-9.555-1.428-18.466 5.158-19.897 14.717s5.158 18.467 14.717 19.897l25.901 3.876c44.726 6.694 87.337 21.423 126.649 43.777 2.731 1.552 5.703 2.29 8.634 2.29 5.951 0 11.73-3.047 15-8.48-39.121-22.136-81.493-36.74-125.959-43.395z" fill="#fee45a"/><g><path d="m114.202 237.779c13.074 16.901 30.717 29.322 51.021 35.918.159.052.319.098.48.139l9.847 2.488c.617.156 1.234.23 1.842.23 3.353 0 6.407-2.266 7.266-5.665 1.015-4.016-1.418-8.094-5.435-9.108l-9.6-2.425c-17.328-5.681-32.386-16.311-43.558-30.754-11.057-14.293-17.583-31.32-18.874-49.239-.693-9.632.161-19.313 2.539-28.775 5.777-22.983 20.028-42.547 40.127-55.086 19.301-12.04 42.215-16.426 64.519-12.356 3.702.679 7.331-1.495 8.485-5.077 14.669-45.489 62.504-71.986 108.91-60.324 44.225 11.116 73.59 53.602 68.307 98.827-.481 4.114 2.465 7.839 6.579 8.319 4.113.487 7.839-2.465 8.319-6.579 6.155-52.681-28.044-102.169-79.55-115.115-51.952-13.058-105.455 14.968-124.69 64.23-23.958-2.898-48.165 2.463-68.817 15.347-23.41 14.604-40.008 37.389-46.736 64.157-2.767 11.01-3.761 22.284-2.952 33.509 1.504 20.875 9.102 40.703 21.971 57.339z"/><path d="m386.439 204.273c-4.015-1.004-8.09 1.438-9.095 5.457l-18.418 73.651c-1.494 5.974-5.227 11.005-10.511 14.167s-11.482 4.072-17.454 2.564l-120.74-30.501c-4.02-1.014-8.094 1.418-9.108 5.435-1.015 4.016 1.418 8.094 5.435 9.108l10.559 2.667-9.846 22.652c-5.335 12.275-9.447 24.891-12.349 37.766-12.81-11.194-36.287-27.52-64.312-27.52-.424 0-.853.004-1.279.011-24.201.431-46.362 12.984-65.867 37.312-2.595 3.237-3.64 7.427-2.867 11.496.77 4.05 3.264 7.546 6.842 9.592l18.037 10.313 9.529 8.91c15.405 14.407 35.013 21.647 54.654 21.646 13.846-.001 27.705-3.61 40.115-10.833v94.478c0 4.142 3.358 7.5 7.5 7.5s7.5-3.358 7.5-7.5v-109.032c0-27.052 5.468-53.349 16.252-78.159l10.827-24.909 14.738 3.723-8.82 20.292c-1.651 3.799.09 8.217 3.889 9.868.974.423 1.988.624 2.986.624 2.896 0 5.654-1.687 6.882-4.512l9.801-22.548 65.968 16.665c3.109.786 6.254 1.174 9.379 1.174 6.787 0 13.473-1.833 19.45-5.409 8.729-5.222 14.895-13.533 17.362-23.4l18.418-73.651c1.004-4.02-1.439-8.093-5.457-9.097zm-281.2 182.126-10.168-9.508c-.425-.397-.895-.744-1.4-1.033l-17.877-10.221c16.394-20.14 34.461-30.537 53.714-30.906 29.645-.549 54.759 22.536 62.216 30.142-.446 3.266-.814 6.545-1.107 9.838-25.951-17.128-58.339-17.284-59.837-17.257-4.138.013-7.479 3.375-7.472 7.513.007 4.137 3.368 7.487 7.505 7.487h.002c.353 0 34.729.222 57.18 18.959-25.033 18.342-59.693 16.551-82.756-5.014z"/><path d="m437.169 157.396c-43.88-24.951-91.442-41.391-141.366-48.863l-.704-.105c10.974-5.712 27.065-10.995 45.228-6.972 4.043.892 8.049-1.657 8.945-5.701s-1.657-8.049-5.701-8.945c-34.701-7.685-62.143 11.247-70.853 18.268l-2.818-.422c-2.236-.334-4.446-.354-6.591-.104 1.629-3.806 3.603-7.797 5.992-11.747 13.187-21.797 32.476-32.297 57.331-31.165 4.124.178 7.643-3.018 7.83-7.156.186-4.138-3.018-7.643-7.156-7.829-30.515-1.375-55.093 12.055-71.104 38.826-7.341 12.275-11.219 24.627-13.122 32.358-7.837-1.405-20.697-2.887-34.896-1.174-30.97 3.738-53.236 20.739-64.391 49.165-1.513 3.856.386 8.208 4.242 9.722.9.353 1.826.52 2.738.52 2.995 0 5.824-1.806 6.984-4.762 9.088-23.161 26.513-36.517 51.789-39.698 10.31-1.297 19.967-.601 26.872.368-6.117 2.072-13.759 5.967-21.193 13.289-18.691 18.409-28.168 49.841-28.168 93.424 0 4.142 3.358 7.5 7.5 7.5s7.5-3.358 7.5-7.5c0-27.198 4.139-63.658 23.856-82.897 7.779-7.59 15.477-10.016 19.627-10.794-4.223 13.713-16.334 62.126 4.999 111.067 1.229 2.821 3.986 4.505 6.879 4.505 1 0 2.018-.202 2.993-.627 3.797-1.655 5.533-6.075 3.878-9.872-17.424-39.973-9.723-80.734-5.511-96.674l64.734 115.176c1.376 2.449 3.922 3.827 6.545 3.827 1.244 0 2.506-.311 3.668-.963 3.611-2.029 4.893-6.602 2.863-10.213l-58.931-104.852 10.743 1.608c1.327.199 2.652.424 3.978.638.298.28.616.545.968.779 15.139 10.111 35.955 27.706 49.154 54.113 1.314 2.628 3.963 4.148 6.714 4.148 1.127 0 2.271-.255 3.347-.793 3.705-1.852 5.208-6.357 3.355-10.062-8.525-17.055-19.837-30.749-31.085-41.415 7.381 1.902 14.698 4.034 21.918 6.394 3.936 1.288 8.172-.861 9.459-4.798s-.861-8.172-4.798-9.459c-19.766-6.462-40.218-11.3-60.79-14.38l-25.901-3.876c-2.642-.396-4.972-1.796-6.56-3.943s-2.245-4.785-1.85-7.426c.816-5.452 5.917-9.229 11.37-8.41l25.901 3.876c48.09 7.198 93.905 23.034 136.172 47.067 4.793 2.726 6.476 8.843 3.75 13.637-1.775 3.121-5.112 5.06-8.709 5.06-1.716 0-3.42-.453-4.927-1.31-12.084-6.872-24.708-13.142-37.519-18.637-3.805-1.632-8.216.128-9.849 3.936-1.633 3.807.129 8.216 3.936 9.849 12.299 5.275 24.417 11.295 36.019 17.892 3.763 2.139 8.031 3.27 12.34 3.27 8.979 0 17.313-4.845 21.748-12.645 6.817-11.985 2.612-27.278-9.372-34.093z"/><path d="m305.84 365.362h-30.732c-15.704 0-29.889 6.585-39.972 17.126.747-11.173 2.617-22.226 5.589-32.984 1.103-3.992-1.239-8.123-5.232-9.226-3.991-1.106-8.123 1.239-9.226 5.232-4.315 15.618-6.503 31.802-6.503 48.102v27.094 17.822 64.115c0 4.142 3.358 7.5 7.5 7.5s7.5-3.358 7.5-7.5v-56.615h36.174c30.517 0 55.344-24.827 55.344-55.344v-4.88c0-11.272-9.17-20.442-20.442-20.442zm5.442 25.323c0 22.246-18.098 40.344-40.344 40.344h-26.981l34.599-18.738c3.642-1.972 4.996-6.524 3.023-10.167-1.972-3.642-6.523-4.997-10.167-3.023l-36.604 19.824c.936-21.422 18.65-38.563 40.299-38.563h30.732c3.001 0 5.442 2.441 5.442 5.442v4.881z"/></g></g></svg>