<svg id="Capa_1" enable-background="new 0 0 510.775 510.775" height="512" viewBox="0 0 510.775 510.775" width="512" xmlns="http://www.w3.org/2000/svg"><g><g id="XMLID_173_"><g><path d="m225.597 44.443 50.49 99.7-79.46 70.5-101.97-88.53c-10.87-15.01-17.27-33.46-17.27-53.4v-62.82c0-1.32 1.07-2.39 2.39-2.39h72.51c30.04 0 56.69 14.53 73.31 36.94z" fill="#80d261"/></g></g><g><g id="XMLID_171_"><g><path d="m489.017 98.643v33.08c0 42.44-24.65 79.13-60.41 96.52l-79.81 27.08-74.22-29.64c7.19-84.62 112.18-126.25 112.18-126.25 9.51-2.76 19.55-4.24 29.95-4.24h68.86c1.9 0 3.45 1.54 3.45 3.45z" fill="#80d261"/></g></g></g><g><g id="XMLID_172_"><g><path d="m489.017 98.643v33.08c0 42.44-24.65 79.13-60.41 96.52l-79.81 27.08-74.22-29.64c7.19-84.62 112.18-126.25 112.18-126.25 9.51-2.76 19.55-4.24 29.95-4.24h68.86c1.9 0 3.45 1.54 3.45 3.45z" fill="#80d261"/></g></g></g><g><g id="XMLID_170_"><g><path d="m423.512 333.273v62.584c0 3.947-3.199 7.146-7.146 7.146h-62.584c-21.74 0-41.61-7.99-56.84-21.19 0 0-35.076-32.674-39.886-77.614l-2.864-75.956 114.39 22.47s40.69 31.94 50.98 56.61c2.56 8.2 3.95 16.91 3.95 25.95z" fill="#80d261"/></g></g></g><g><path d="m219.127 503.275v-32.91c0-9.54-1.098-19.089-3.263-28.382-5.038-21.623-2.32-44.453 7.655-64.287.029-.059.059-.117.087-.176l4.675-9.607 35.401-83.269-20.124-10.399-28.262 51.789-18.624 38.272c-9.655 19.235-14.117 40.606-13.139 61.903-4.67-2.77-9.698-5.063-15.045-6.779l-19.74-6.335-25.392-6.638-9.778 28 25.699 7.106 20.044 6.432c17.828 5.721 29.805 22.144 29.805 40.867v14.413z" fill="#ade194"/></g><path d="m225.458 127.691c-2.131-2.763-4.365-5.46-6.708-8.078-17.081-19.085-40.727-30.621-64.869-31.649l-2.978-.127c-1.753-.075-3.246 1.262-3.366 3.013l-.203 2.974c-1.267 18.555 3.692 37.502 13.829 53.949l80.658 71.83 18.195-9.077z" fill="#efedef"/><path d="m170.645 274.813c-1.077.379-2.151.768-3.239 1.122-24.354 7.929-50.596 6.033-71.99-5.2l-2.829-1.485c-1.448-.76-2.027-2.537-1.304-4.004l1.412-2.866c10.681-21.675 30.777-38.656 55.131-46.585 3.416-1.112 6.862-2.091 10.327-2.939l92.309-4.497 1.008 12.892z" fill="#efedef"/><path d="m280.701 316.264c.147 2.538.251 5.083.263 7.638.118 25.612-9.695 50.023-26.921 66.969l-2.837 2.791c-.855.841-2.225.847-3.087.014l-2.862-2.764c-17.382-16.786-27.419-41.106-27.537-66.718-.011-2.46.064-4.911.178-7.357l27.147-97.233h21.072z" fill="#efedef"/><path d="m332.962 280.929c4.448 1.571 8.983 2.949 13.607 4.081 24.877 6.094 50.905 2.251 71.403-10.543l2.428-1.515c1.545-.964 2.04-2.984 1.115-4.553l-1.453-2.466c-12.157-20.638-33.199-35.983-57.797-42.185l-97.035-18.69-10.705 18.201 35.922 41.719z" fill="#efedef"/><path d="m288.618 123.039c.105-.178.306-.538.306-.538 13.075-22.024 34.048-37.909 57.537-43.578l2.537-.612c1.907-.46 3.833.683 4.342 2.578l.677 2.52c6.27 23.336 2.366 49.355-10.708 71.379-2.244 3.78-4.671 7.424-7.229 10.953l-66.48 59.947-18.127-8.74 37.176-93.959" fill="#efedef"/><g fill="#f9f7f8"><path d="m276.628 234.004c23.736 10.635 44.455 28.498 59.186 51.132 13.971 21.466 18.944 47.302 13.641 70.877l-.713 3.171c-.352 1.566-1.888 2.566-3.463 2.254l-3.188-.632c-23.703-4.696-45.313-19.703-59.285-41.17-14.733-22.637-22.678-48.816-22.791-74.828v-22.71z"/><path d="m251.211 244.25c-3.442 25.781-14.672 50.725-32.18 71.287-16.604 19.501-39.958 31.619-64.067 33.242l-3.954.266c-1.205.081-2.256-.813-2.368-2.016l-.368-3.946c-2.241-24.06 5.997-49.046 22.602-68.548 17.509-20.564 40.344-35.628 65.248-43.137l16.735-5.713z"/><path d="m234.166 222.797c-25.698 4.037-52.81.368-77.507-10.567-23.419-10.37-41.68-29.311-50.096-51.962l-1.389-3.738c-.416-1.12.136-2.368 1.245-2.812l3.701-1.484c22.428-8.994 48.726-8.204 72.145 2.165 24.697 10.935 45.636 28.543 59.92 50.283l12.34 16.299z"/><path d="m266.967 201.442c14.092-21.861 21.712-48.133 21.712-75.138 0-25.613-9.926-49.978-27.23-66.844l-2.498-2.434c-1.055-1.028-2.737-1.028-3.792 0l-2.498 2.434c-17.304 16.866-27.23 41.232-27.23 66.844 0 27.006 7.62 53.278 21.712 75.138l9.911 20.657z"/><path d="m279.674 225.723c24.968 7.291 52.323 7.122 78.215-.562 24.554-7.287 45.089-23.734 56.335-45.122l1.409-2.679c.805-1.531.243-3.424-1.267-4.268l-2.642-1.477c-21.092-11.791-47.275-14.374-71.829-7.087-25.892 7.684-48.912 22.465-65.86 42.196l-19.508 14.257z"/><path d="m117.316 409.042c-.088 6.043-2.026 11.915-5.551 16.824-9.897 13.78-27.594 19.54-43.706 14.224l-9.091-3c-13.926-4.595-25.729-14.055-33.246-26.646-8.746-14.649-2.477-33.648 13.27-40.216 13.534-5.645 28.649-6.222 42.575-1.627l9.091 3c16.111 5.316 26.906 20.477 26.658 37.441z"/></g><path d="m80.85 418.659-9.091-3c-13.926-4.595-25.729-14.055-33.246-26.646-3.107-5.204-4.31-10.955-3.876-16.504-12.475 7.978-16.803 24.723-8.915 37.934 7.517 12.591 19.32 22.051 33.246 26.646l9.091 3c16.111 5.316 33.809-.443 43.706-14.224 2.893-4.029 4.696-8.708 5.306-13.596-10.051 7.931-23.621 10.548-36.221 6.39z" fill="#efedef"/><path d="m114.169 393.167 20.371 6.722c9.457 3.12 14.593 13.316 11.473 22.773l-3.081 9.338c-3.12 9.457-13.316 14.593-22.773 11.473l-20.371-6.722z" fill="#80d261"/><path d="m142.77 405.528-2.681 8.125c-3.12 9.457-13.316 14.593-22.773 11.473l-12.348-4.074-5.18 15.7 20.371 6.722c9.457 3.12 19.652-2.016 22.773-11.473l3.081-9.338c2.015-6.11.571-12.516-3.243-17.135z" fill="#68ca44"/><circle cx="257.055" cy="222.099" fill="#fff5c6" r="22.907"/><path d="m253.18 222.099c0-9.255 5.491-17.222 13.391-20.835-2.899-1.326-6.119-2.071-9.516-2.071-12.651 0-22.906 10.256-22.906 22.907s10.256 22.906 22.906 22.906c3.396 0 6.617-.745 9.516-2.071-7.899-3.614-13.391-11.581-13.391-20.836z" fill="#fef0ae"/><g><path d="m340.634 368.163 6.018 1.192c.492.098.981.145 1.465.145 3.438 0 6.527-2.376 7.31-5.855l1.347-5.986c4.769-21.205 1.884-44.052-7.857-64.45 2.358.477 4.748.887 7.152 1.207.336.044.668.066.998.066 3.703 0 6.924-2.742 7.425-6.512.546-4.106-2.34-7.877-6.446-8.423-3.288-.437-6.549-1.049-9.693-1.82-3.499-.857-7.095-1.913-10.715-3.128-10.848-14.939-24.134-27.558-39.24-37.286 6.311.845 12.681 1.283 19.078 1.283 14.2 0 28.52-2.083 42.545-6.245.824-.244 1.643-.499 2.459-.762 21.369 5.92 39.64 19.322 50.511 37.136-7.714 4.65-16.279 7.961-25.478 9.846-4.058.831-6.673 4.794-5.842 8.853.727 3.55 3.852 5.996 7.339 5.996.499 0 1.005-.05 1.513-.154 11.355-2.326 21.926-6.51 31.418-12.434l5.205-3.248c3.451-2.153 4.556-6.665 2.492-10.169l-3.114-5.286c-10.03-17.026-25.649-30.74-44.262-39.259 16.494-9.392 30.024-23.031 38.598-39.338l2.855-5.43c1.893-3.6.572-8.053-2.979-10.037l-5.355-2.994c-18.711-10.46-41.073-14.238-63.103-10.948 12.059-22.756 15.348-48.958 8.979-72.659l-1.592-5.925c-1.055-3.928-5.05-6.299-9.003-5.345l-5.963 1.44c-19.527 4.713-37.421 15.912-51.064 31.601-4.214-18.857-13.533-36.064-26.952-49.143l-2.36-2.301c-4.076-3.974-10.463-3.973-14.538 0l-2.359 2.299c-5.937 5.786-11.137 12.45-15.455 19.806-2.097 3.572-.901 8.167 2.671 10.265 3.571 2.096 8.167.901 10.265-2.671 3.434-5.85 7.518-11.168 12.148-15.825 15.345 15.429 24.123 37.457 24.123 60.64 0 23.057-5.738 45.217-16.623 64.577v-48.367c0-4.142-3.358-7.5-7.5-7.5s-7.5 3.358-7.5 7.5v48.367c-10.885-19.36-16.623-41.521-16.623-64.578 0-5.765.551-11.552 1.639-17.203.783-4.067-1.88-8-5.947-8.782-4.071-.784-8 1.88-8.782 5.947-.198 1.027-.375 2.06-.542 3.094-17.9-17.436-41.254-27.875-65.099-28.889l-6.129-.261c-4.068-.178-7.524 2.924-7.801 6.982l-.418 6.12c-1.035 15.156 1.825 30.83 8.122 45.33-13.982-.685-27.883 1.511-40.645 6.629l-5.694 2.284c-3.775 1.514-5.655 5.76-4.239 9.573l2.137 5.75c7.249 19.512 21.206 36.457 39.318 48.206-23.26 9.327-42.307 26.517-52.884 47.981l-2.712 5.503c-1.798 3.648-.36 8.065 3.241 9.956l5.432 2.852c13.754 7.222 29.331 10.888 45.216 10.888 5.322 0 10.679-.418 16.013-1.246-9.723 17.556-14.154 37.419-12.352 56.761l.569 6.109c.361 3.879 3.621 6.805 7.461 6.805.169 0 .34-.006.511-.018l6.121-.413c15.258-1.027 30.217-5.922 43.592-14.004l-9.09 18.682c-8.307 16.551-13.042 34.747-13.918 53.244-1.736-.694-3.495-1.327-5.271-1.896l-18.748-6.016c-2.87-6.179-8.178-11.208-15.142-13.506l-17.274-5.7c-5.429-10.457-14.792-18.689-26.607-22.588l-9.091-3c-15.637-5.159-32.616-4.51-47.812 1.828-9.515 3.968-16.825 11.859-20.055 21.649s-2.052 20.481 3.233 29.333c8.44 14.137 21.7 24.764 37.335 29.923l9.091 2.999c4.828 1.593 9.756 2.362 14.621 2.362 7.038 0 13.934-1.626 20.193-4.683l17.286 5.704c2.631.868 5.333 1.298 8.025 1.298 3.935 0 7.845-.921 11.461-2.743.135-.068.258-.151.391-.222l19.344 6.207c14.712 4.721 24.597 18.274 24.597 33.726v14.413c0 4.142 3.358 7.5 7.5 7.5s7.5-3.358 7.5-7.5v-14.413c0-21.995-14.071-41.288-35.014-48.008l-12.529-4.021c.361-.806.688-1.633.969-2.483l3.082-9.338c.265-.803.485-1.61.667-2.418l12.395 3.977c4.694 1.507 9.24 3.555 13.511 6.088 1.18.7 2.503 1.049 3.826 1.049 1.336 0 2.673-.357 3.86-1.07 2.364-1.419 3.758-4.021 3.632-6.774-.925-20.132 3.345-40.255 12.391-58.277l9.591-19.71c1.637 6.984 3.974 13.734 6.963 20.123-2.884 6.25-8.374 18.358-9.708 22.786-1.194 3.966 1.053 8.149 5.019 9.344.721.217 1.449.32 2.166.32 3.223 0 6.201-2.094 7.179-5.339.544-1.807 2.451-6.316 4.643-11.269 3.226 4.469 6.824 8.647 10.777 12.465l4.413 4.262c1.454 1.404 3.332 2.105 5.21 2.105 1.9 0 3.801-.719 5.26-2.153l4.374-4.302c15.46-15.208 25.4-35.921 28.284-58.287 14.376 15.528 33.007 26.264 53.044 30.234zm-270.225 64.804-9.091-3c-12.21-4.028-22.565-12.327-29.157-23.368-3.052-5.113-3.733-11.289-1.867-16.943 1.866-5.655 6.088-10.213 11.584-12.506 6.573-2.741 13.572-4.119 20.584-4.119 5.649 0 11.306.895 16.753 2.692l9.091 3c8.671 2.861 15.374 9.18 18.857 17.121.1.26.215.514.342.761 1.555 3.819 2.373 7.992 2.309 12.327v.001c-.066 4.533-1.499 8.875-4.144 12.558-2.53 3.522-5.671 6.389-9.195 8.533-.248.122-.489.256-.722.405-7.523 4.31-16.672 5.399-25.344 2.538zm52.1 3.384-7.554-2.493c1.013-1.153 1.99-2.349 2.901-3.617 4.441-6.184 6.848-13.477 6.958-21.089.023-1.56-.04-3.103-.168-4.63l7.543 2.489c5.514 1.82 8.52 7.787 6.701 13.3l-3.082 9.338c-.881 2.671-2.75 4.839-5.262 6.105s-5.365 1.478-8.037.597zm204.307-151.135c.047.067.089.136.138.202.876 1.253 1.736 2.521 2.574 3.809 12.646 19.43 17.305 42.681 12.861 63.982-21.277-4.561-40.651-18.234-53.297-37.665-.67-1.029-1.311-2.072-1.951-3.114-.05-.084-.103-.167-.156-.249-11.308-18.511-17.865-39.043-19.197-59.985l26.57 40.601c1.439 2.199 3.836 3.394 6.282 3.394 1.409 0 2.833-.396 4.1-1.226 3.466-2.268 4.437-6.917 2.168-10.382l-26.4-40.341c18.245 9.566 34.089 23.561 46.308 40.974zm-54.354-63.117c0 8.495-6.911 15.406-15.406 15.406s-15.407-6.911-15.407-15.406 6.912-15.407 15.407-15.407 15.406 6.912 15.406 15.407zm134.564-44.506c-10.426 19.101-29.046 33.783-51.271 40.378-21.735 6.449-44.218 7.344-65.552 2.689l45.535-12.671c3.99-1.11 6.325-5.246 5.215-9.236-1.111-3.99-5.244-6.325-9.236-5.215l-47.591 13.243c14.76-15.474 33.395-27.116 54.417-33.962.034-.012.069-.02.102-.032 1.124-.365 2.247-.731 3.384-1.068 22.225-6.595 45.839-4.447 64.997 5.874zm-59.954-91.093c5.319 21.101 1.622 44.523-10.212 64.458-1.645 2.771-3.489 5.604-5.482 8.447-17.823 6.148-34.066 15.431-47.965 27.38 8.388-18.703 12.766-39.264 12.766-60.48 0-.413-.01-.825-.015-1.238 11.87-19.275 30.289-33.25 50.908-38.567zm-192.326 9.017c21.724 1.263 42.956 11.823 58.416 29.098 1.65 1.843 3.262 3.785 4.841 5.761.397 14.993 2.98 29.617 7.629 43.443-11.733-10.74-25.318-19.632-40.329-26.279-6.297-2.788-12.79-4.931-19.367-6.429-8.05-14.169-11.995-30.2-11.19-45.594zm-40.731 63.245c20.319-7.783 44.016-6.892 65.214 2.495 21.2 9.387 39.221 23.712 52.538 41.642l-44.676-19.467c-3.798-1.655-8.217.083-9.872 3.879-1.655 3.797.082 8.217 3.879 9.872l43.999 19.172c-21.99 2.037-44.44-1.702-65.403-10.984-21.196-9.386-37.784-26.33-45.679-46.609zm-14.06 105.876c9.921-19.367 28.149-34.533 50.193-41.71 2.439-.794 4.931-1.502 7.428-2.161 18.015 7.383 36.954 11.145 55.841 11.145.226 0 .452-.012.678-.013-18.011 8.564-34.259 20.944-47.794 36.485-.406.141-.809.287-1.218.42-22.044 7.177-45.706 5.65-65.128-4.166zm76.631 14.76c14.619-17.169 32.855-30.142 53.144-37.893l-31.204 35.039c-2.754 3.093-2.48 7.834.613 10.589 1.43 1.273 3.21 1.899 4.985 1.899 2.065 0 4.122-.848 5.604-2.512l33.052-37.114c-4.111 22.287-14.211 43.359-29.46 61.27-15.029 17.651-35.993 28.733-57.679 30.533-1.682-21.696 5.915-44.159 20.945-61.811zm73.035 105.29c-5.828-5.806-10.718-12.562-14.556-19.969-.012-.025-.024-.049-.036-.074-6.291-12.169-9.743-26.095-9.81-40.485-.006-1.375.018-2.828.07-4.426 13.466-15.997 23.28-34.249 28.94-53.659 2.868 18.308 9.32 36.098 19.083 52.483.095 1.979.145 3.725.152 5.38.107 23.181-8.569 45.25-23.843 60.75z"/><path d="m485.565 87.689h-68.861c-10.877 0-21.655 1.527-32.034 4.538-3.978 1.154-6.267 5.315-5.113 9.293s5.312 6.264 9.293 5.113c.952-.276 1.91-.53 2.87-.778v28.671c0 4.142 3.358 7.5 7.5 7.5s7.5-3.358 7.5-7.5v-31.333c3.31-.33 6.641-.504 9.984-.504h19.061v33.344l-7.997 7.675c-2.988 2.868-3.086 7.616-.218 10.604 1.473 1.535 3.441 2.307 5.412 2.307 1.868 0 3.738-.693 5.192-2.089l3.005-2.884h38.346c-2.224 10.968-6.278 21.495-12.052 31.161h-24.736c-4.142 0-7.5 3.358-7.5 7.5s3.358 7.5 7.5 7.5h13.762c-8.701 9.84-19.265 17.911-31.156 23.696-3.725 1.812-5.275 6.3-3.463 10.025 1.298 2.668 3.969 4.22 6.75 4.22 1.101 0 2.219-.243 3.276-.757 19.081-9.283 35.214-23.66 46.655-41.577 11.758-18.414 17.973-39.745 17.973-61.688v-33.086c.001-6.038-4.911-10.951-10.949-10.951zm-34.8 15h19.742l-19.742 18.948zm6.024 33.958 24.726-23.731v18.811c0 1.645-.055 3.284-.135 4.92z"/><path d="m94.659 133.615c1.523 0 3.062-.463 4.391-1.424 3.355-2.429 4.107-7.117 1.679-10.473-5.244-7.246-9.232-15.164-11.898-23.514h28.989c4.142 0 7.5-3.358 7.5-7.5s-3.358-7.5-7.5-7.5h-32.28c-.431-3.457-.658-6.958-.658-10.493v-11.685h39.599l1.587 1.461c1.441 1.327 3.262 1.982 5.078 1.982 2.023 0 4.041-.814 5.52-2.42 2.806-3.047 2.609-7.792-.438-10.597l-2.609-2.402v-34.05h18.667c3.668 0 7.292.24 10.859.696v44.028c0 4.142 3.358 7.5 7.5 7.5s7.5-3.358 7.5-7.5v-40.693c8.799 2.832 17.039 7.11 24.431 12.696v35.258c0 4.142 3.358 7.5 7.5 7.5s7.5-3.358 7.5-7.5v-20.646c.676.844 1.343 1.697 1.991 2.571 2.466 3.328 7.165 4.025 10.491 1.559 3.328-2.466 4.025-7.164 1.559-10.491-18.557-25.033-48.213-39.978-79.332-39.978h-72.507c-5.457 0-9.896 4.439-9.896 9.896v62.815c0 20.913 6.464 40.899 18.694 57.8 1.467 2.027 3.759 3.104 6.083 3.104zm-9.777-87.589v-21.455l23.306 21.456h-23.306zm33.736-10.785-21.986-20.241h21.986z"/><path d="m417.658 300.165c-3.953 1.236-6.156 5.443-4.919 9.397.392 1.253.74 2.517 1.068 3.787h-33.399c-4.142 0-7.5 3.358-7.5 7.5s3.358 7.5 7.5 7.5h35.77c.1 1.636.164 3.278.164 4.925v21.224h-30.249l-1.233-1.237c-2.924-2.934-7.673-2.943-10.606-.018-2.934 2.924-2.942 7.672-.018 10.606l3.438 3.449.005.005 28.101 28.196h-25.73v-10.981c0-4.142-3.358-7.5-7.5-7.5s-7.5 3.358-7.5 7.5v10.982h-10.932c-4.555 0-9.071-.403-13.506-1.169v-6.75c0-4.142-3.358-7.5-7.5-7.5s-7.5 3.358-7.5 7.5v2.609c-8.498-3.271-16.438-7.991-23.424-14.044-3.131-2.712-7.868-2.374-10.58.757-2.712 3.13-2.374 7.867.757 10.58 17.13 14.842 39.061 23.016 61.752 23.016h69.726c4.142 0 7.5-3.358 7.5-7.5v-69.726c0-9.609-1.442-19.093-4.287-28.19-1.238-3.951-5.444-6.152-9.398-4.918zm-1.316 69.334v15.352l-15.3-15.352z"/><path d="m221.067 425.791c-.252-4.134-3.796-7.283-7.943-7.028-4.134.252-7.281 3.809-7.028 7.943.352 5.756 1.181 11.469 2.465 16.978 2.035 8.737 3.067 17.714 3.067 26.681v32.91c0 4.142 3.358 7.5 7.5 7.5s7.5-3.358 7.5-7.5v-32.91c0-10.111-1.164-20.232-3.459-30.084-1.095-4.695-1.802-9.57-2.102-14.49z"/></g></g></svg>