<svg id="Capa_1" enable-background="new 0 0 512.116 512.116" height="512" viewBox="0 0 512.116 512.116" width="512" xmlns="http://www.w3.org/2000/svg"><g><g><path d="m267.297 509.821c2.301 0 4.166-1.865 4.166-4.166v-156.775-68.841h-30.895v68.841 156.775c0 2.301 1.865 4.166 4.166 4.166z" fill="#ade194"/></g><path d="m247.547 105.169c5.666-12.402 8.662-25.101 8.349-38.168-.706-29.413-24.53-53.055-53.928-54.225l-25.57-1.017c-3.296-.131-6.408 1.515-8.156 4.312l-13.555 21.706c-15.584 24.955-9.458 57.955 14.454 75.097 10.623 7.616 22.805 12.289 36.245 14.588l28.295 2.496z" fill="#fff9e2"/><path d="m203.064 208.589c-8.547 9.948-18.093 18.244-28.817 24.592-37.356 22.113-85.717 7.388-105.497-31.254l-12.421-24.263c-2.519-4.92-2.206-10.813.82-15.439l14.92-22.812c23.76-36.329 73.407-45.851 108.21-19.909 9.946 7.414 18.528 16.623 25.95 27.357.117.17.25.329.396.474l22.105 22.018c1.256 1.251 1.399 3.238.333 4.655l-25.831 34.372c-.053.072-.11.141-.168.209z" fill="#fff9e2"/><path d="m219.482 183.749c-11.293 5.819-22.872 9.849-34.788 11.78-43.293 7.017-83.318-24.664-87.171-68.352l-2.39-27.104c-.492-5.578 2.045-10.992 6.646-14.183l22.359-15.508c36.036-24.995 85.991-14.512 108.303 23.245 6.111 10.341 10.412 21.755 13.169 34.086.048.213.114.421.199.622l12.138 28.532c.734 1.724.084 3.726-1.522 4.691l-36.696 22.054c-.08.048-.163.094-.247.137z" fill="#fef0ae"/><g><g id="XMLID_174_"><g><path d="m258.685 260.813-23.19 77.12c-10.23 40.99-47.28 71.36-91.44 71.36h-55.72c-3.43 0-6.21-2.78-6.21-6.21v-17.51c0-41.56 26.9-76.83 64.23-89.36l73.37-29.68z" fill="#80d261"/></g></g></g><path d="m211.817 230.862c-12.924 1.172-24.832 4.69-35.482 11.117-23.973 14.467-32.265 45.314-19.355 70.16l11.229 21.611c1.447 2.785 4.277 4.581 7.413 4.704l24.335.956c27.979 1.099 52.357-19.54 55.236-47.392 1.279-12.373-.609-24.646-5.053-36.838l-11.293-24.561z" fill="#fff9e2"/><path d="m241.502 212.698c-2.018 12.772-5.731 24.675-11.44 35.555-19.887 37.898-68.084 50.589-104.69 28.416l-22.986-13.923c-4.661-2.823-7.45-7.929-7.308-13.377l.703-26.864c1.119-42.782 37.837-76.482 80.47-72.742 12.184 1.069 24.152 4.35 35.937 9.511.186.082.38.147.578.193l29.947 7.023c1.702.399 2.85 1.992 2.69 3.733l-3.87 42.213c-.007.087-.018.175-.031.262z" fill="#fef0ae"/><g><g id="XMLID_175_"><g><path d="m429.905 385.573v17.51c0 3.43-2.78 6.21-6.21 6.21h-55.72c-44.16 0-81.21-30.37-91.44-71.36l-17.58-57.25 29.81-15.36 76.91 30.89c37.33 12.53 64.23 47.8 64.23 89.36z" fill="#80d261"/></g></g></g><path d="m315.547 205.343c10.707 13.478 23.277 24.121 38.157 31.253 33.493 16.052 73.735 2.792 91.888-29.611l15.79-28.184c2.035-3.632 1.966-8.077-.18-11.645l-16.655-27.681c-19.148-31.825-59.781-43.833-92.761-26.751-14.652 7.589-26.886 18.616-37.171 32.419l-19.015 30.402z" fill="#fff9e2"/><path d="m295.917 231.155c12.974.252 25.102 2.917 36.182 8.572 24.939 12.73 35.398 42.911 24.282 68.611l-9.668 22.353c-1.246 2.881-3.941 4.873-7.061 5.218l-24.206 2.679c-27.83 3.081-53.611-15.777-58.458-43.355-2.154-12.253-1.141-24.631 2.429-37.11l6.763-22.113z" fill="#fff9e2"/><path d="m287.854 226.922c3.818 14.891 10.188 28.15 19.721 39.387 21.458 25.295 59.102 29.148 85.712 9.345l23.145-17.225c2.983-2.22 4.547-5.869 4.097-9.56l-3.492-28.639c-4.014-32.927-32.768-57.526-65.883-55.617-14.712.848-28.706 5.38-42.122 12.887l-26.582 17.858z" fill="#fef0ae"/><path d="m240.855 234.858c-10.935 6.986-19.889 15.59-26.388 26.196-14.629 23.875-7.797 55.078 15.097 71.198l19.913 14.021c2.567 1.807 5.905 2.099 8.746.766l22.046-10.348c25.347-11.898 37.495-41.439 27.236-67.492-4.557-11.574-11.881-21.602-21.436-30.382l-21.327-16.61z" fill="#fef0ae"/><path d="m211.834 207.372c-9.455 8.892-19.992 15.465-31.87 19.166-26.732 8.33-55.309-5.941-65.325-32.088l-8.712-22.743c-1.123-2.931-.588-6.239 1.402-8.667l15.436-18.837c17.747-21.657 49.365-26.194 72.11-9.862 10.104 7.255 18.031 16.813 24.201 28.23l16.069 19.867z" fill="#fee97d"/><path d="m295.922 128.922c13.922-.661 26.863-3.887 38.589-10.293 26.393-14.418 36.714-47.138 24.006-74.396l-11.053-23.709c-1.425-3.056-4.378-5.113-7.738-5.39l-26.07-2.148c-29.973-2.47-57.086 18.553-61.46 48.308-1.943 13.219-.484 26.476 3.723 39.764l10.985 26.877z" fill="#fff9e2"/><path d="m278.14 115.68c10.284-7.913 18.454-17.264 24.003-28.397 12.491-25.06 2.965-55.548-21.248-69.61l-21.06-12.231c-2.714-1.576-6.065-1.576-8.78 0l-21.06 12.231c-24.213 14.062-33.739 44.551-21.248 69.61 5.549 11.133 13.719 20.484 24.003 28.397l22.694 14.687z" fill="#fff5c6"/><path d="m252.711 150.225c6.821-11.039 11.156-22.675 12.409-35.051 2.821-27.858-16.872-53.007-44.493-57.597l-24.025-3.993c-3.096-.515-6.231.671-8.212 3.105l-15.373 18.889c-17.675 21.717-15.803 53.604 4.744 72.626 9.128 8.451 20.077 14.308 32.495 18.073l26.422 5.712z" fill="#fee97d"/><path d="m241.211 192.795c-11.974 5.009-24.147 7.468-36.568 6.766-27.956-1.578-49.708-24.969-49.914-52.968l-.179-24.354c-.023-3.139 1.639-6.049 4.353-7.624l21.064-12.224c24.218-14.054 55.418-7.208 70.986 16.065 6.916 10.339 10.986 22.071 12.758 34.926l8.077 24.242z" fill="#fff5c6"/><path d="m290.017 189.106c12.974.252 25.102 2.917 36.182 8.572 24.939 12.73 35.398 42.911 24.282 68.611l-9.668 22.353c-1.246 2.881-3.941 4.873-7.061 5.218l-24.206 2.679c-27.83 3.081-53.611-15.777-58.458-43.355-2.154-12.253-1.141-24.631 2.429-37.11l6.763-22.113z" fill="#fee97d"/><path d="m221.733 185.663c-12.924 1.172-24.832 4.69-35.482 11.117-23.973 14.467-32.265 45.314-19.355 70.16l11.229 21.611c1.447 2.785 4.277 4.581 7.413 4.704l24.335.956c27.979 1.099 52.357-19.54 55.236-47.392 1.279-12.373-.609-24.646-5.053-36.838l-11.293-24.561z" fill="#fee97d"/><path d="m239.349 180.052c-11.129 6.915-20.242 15.429-26.855 25.926-14.888 23.629-7.935 54.51 15.365 70.464l20.266 13.876c2.612 1.788 6.01 2.078 8.901.758l22.437-10.242c25.796-11.775 38.159-41.012 27.719-66.797-4.638-11.455-12.091-21.379-21.816-30.069l-21.706-16.438z" fill="#fff5c6"/><path d="m266.273 161.073-29.033-6.809c-.698-.301-1.397-.59-2.095-.874v-50.24c-11.591-7.212-25.705-9.708-39.224-6.874-4.405 14.787-3.443 31.126 3.878 45.813.007.014.014.029.021.043 1.047 2.097-.097 4.617-2.384 5.135-9.672 2.19-31.795 7.975-40.065 15.564 6.606 20.306 24.956 35.47 47.271 36.73 12.421.701 24.595-1.757 36.568-6.766l26.884-13.338.929-10.13z" fill="#fef0ae"/><path d="m308.654 218.2h-45.832c1.22-4.182 2.188-8.528 2.895-13.03l.05-.318 3.063-33.407-5.169-3.915-24.312 12.522c-11.129 6.915-20.242 15.429-26.855 25.926-12.542 19.906-9.582 44.956 5.591 61.895 13.065-4.121 24.577-12.414 32.546-23.854.446-.641.883-1.289 1.311-1.944 1.667-2.55 5.351-2.547 7.014.005.426.653.861 1.3 1.306 1.939 8.675 12.454 21.549 21.178 36.055 24.85 12.753-13.366 17.904-32.577 12.337-50.669z" fill="#fef0ae"/><path d="m255.838 203.618c-2.013 12.822-6.303 24.477-13.414 34.686-16.003 22.976-47.326 29.234-71.275 14.727l-20.831-12.618c-2.685-1.626-4.291-4.567-4.209-7.705l.637-24.346c.732-27.991 22.921-50.968 50.902-52.02 12.43-.467 24.554 2.219 36.429 7.451l24.878 5.834z" fill="#fff9e2"/><path d="m153.465 224.372c.732-27.991 22.921-50.968 50.902-52.02 12.43-.468 24.554 2.219 36.429 7.451l16.863 3.955 1.296-14.131-24.878-5.834c-11.875-5.232-23.999-7.918-36.429-7.451-27.98 1.052-50.169 24.029-50.902 52.02l-.637 24.346c-.082 3.138 1.525 6.079 4.209 7.705l2.685 1.626z" fill="#fff5c6"/><path d="m314.196 182.907c14.995 4.712 29.949 6.327 44.851 4.104 33.544-5.004 57.188-35.628 54.332-69.423l-2.485-29.395c-.32-3.789-2.647-7.114-6.096-8.714l-26.763-12.408c-30.769-14.266-67.643-2.55-83.84 27.248-7.196 13.238-10.804 27.839-11.516 43.541l1.182 32.722z" fill="#fef0ae"/><path d="m297.488 197.681c8.072 10.161 17.548 18.185 28.766 23.561 25.25 12.102 55.587 2.104 69.273-22.323l11.904-21.247c1.534-2.738 1.482-6.089-.136-8.779l-12.556-20.868c-14.436-23.992-45.068-33.045-69.931-20.167-11.046 5.721-20.269 14.034-28.022 24.44l-14.334 22.919z" fill="#fee97d"/><path d="m281.413 164.914c12.962-.615 25.01-3.619 35.927-9.583 24.573-13.424 34.181-43.886 22.35-69.264l-10.291-22.073c-1.326-2.845-4.076-4.76-7.204-5.018l-24.272-2c-27.906-2.3-53.148 17.273-57.221 44.976-1.809 12.307-.45 24.649 3.466 37.021l10.228 25.023z" fill="#fee97d"/><path d="m280.149 197.667c12.802 3.155 25.422 3.786 37.818 1.288 27.904-5.623 46.292-31.692 42.299-59.13l-3.473-23.866c-.448-3.076-2.557-5.682-5.526-6.828l-23.037-8.893c-26.486-10.225-56.865 1.027-69.045 26.079-5.411 11.13-7.748 23.207-7.604 36.049l2.537 26.64z" fill="#fff5c6"/><path d="m313.62 146.349c-.021-.001-.044-.002-.067-.002-2.125-.071-3.43-2.313-2.481-4.215.007-.014.014-.029.021-.043 7.213-14.47 8.248-30.549 4.065-45.162-22.769-2.91-45.764 8.392-55.972 29.389-5.411 11.13-7.748 23.207-7.604 36.049l2.537 26.64 4.569 1.52 21.461 7.141c12.802 3.155 25.422 3.786 37.818 1.288 18.473-3.722 32.777-16.408 39.176-32.518-10.979-11.825-26.378-19.442-43.523-20.087z" fill="#fef0ae"/><path d="m276.815 163.793c11.875-5.232 23.999-7.918 36.429-7.451 27.98 1.052 50.169 24.029 50.902 52.02l.637 24.346c.082 3.138-1.525 6.079-4.209 7.705l-20.831 12.618c-23.949 14.507-55.272 8.25-71.275-14.727-7.111-10.209-11.4-21.864-13.414-34.686l-3.171-22.905z" fill="#fff9e2"/><path d="m343.723 235.734c-23.949 14.507-55.272 8.25-71.275-14.727-7.111-10.209-11.4-21.864-13.414-34.686l-1.324-9.563-5.827 3.955 3.171 22.905c2.013 12.822 6.303 24.477 13.414 34.686 16.003 22.976 47.326 29.234 71.275 14.727l20.831-12.618c2.685-1.626 4.291-4.567 4.209-7.705l-.251-9.579z" fill="#fff5c6"/><path d="m278.14 166.025c10.284-7.913 18.454-17.264 24.003-28.397 12.491-25.06 2.965-55.548-21.248-69.61l-21.06-12.231c-2.714-1.576-6.065-1.576-8.78 0l-21.06 12.231c-24.213 14.062-33.739 44.551-21.248 69.61 5.549 11.133 13.719 20.484 24.003 28.397l22.694 14.687z" fill="#fff9e2"/><path d="m253.033 166.126c-10.284-7.913-18.454-17.264-24.003-28.397-12.491-25.06-2.965-55.548 21.248-69.61l15.396-8.942-5.837-3.39c-2.714-1.576-6.065-1.576-8.78 0l-21.06 12.231c-24.213 14.062-33.739 44.551-21.248 69.61 5.549 11.133 13.719 20.484 24.003 28.397l22.694 14.688 10.063-6.513z" fill="#fff5c6"/><circle cx="255.446" cy="177.978" fill="#fee97d" r="25.65"/><path d="m246.138 177.978c0-11.308 7.321-20.9 17.479-24.313-2.567-.863-5.313-1.337-8.171-1.337-14.166 0-25.65 11.484-25.65 25.65s11.484 25.65 25.65 25.65c2.858 0 5.604-.474 8.171-1.337-10.158-3.413-17.479-13.005-17.479-24.313z" fill="#fedf30"/><path d="m458.214 161.897-20.035-30.115c-5.437-8.173-12.127-15.281-19.911-21.181l-.427-17.664c-.162-6.66-3.905-12.759-9.768-15.917l-6.545-3.527c-3.648-1.967-8.196-.603-10.161 3.044-1.965 3.646-.602 8.195 3.044 10.16l6.547 3.528c1.133.61 1.855 1.789 1.887 3.075l.747 30.899c.2 8.271-1.281 16.382-4.315 23.951l-1.592-2.493c-8.333-13.049-21.275-22.029-36.157-25.297-.469-4.916-3.375-9.33-7.762-11.687l-.827-.444c-.412-9.972-3.25-19.694-8.323-28.369l-6.522-11.153c9.653-1.083 19.546.146 28.635 3.647.887.341 1.798.503 2.693.503 3.013 0 5.854-1.828 7.001-4.807 1.488-3.865-.438-8.206-4.304-9.694-.056-.021-.112-.04-.168-.061-1.644-5.142-3.838-10.091-6.563-14.75l-15.13-25.871c-3.301-5.647-9.413-9.157-15.955-9.041l-29.97.32c-7.637.082-15.141 1.345-22.364 3.745l-18.694-10.648c-4.88-2.78-10.912-2.729-15.741.132l-18.083 10.706c-7.396-2.523-15.079-3.849-22.893-3.933l-29.969-.32c-.065-.001-.13-.001-.195-.001-6.466 0-12.492 3.451-15.76 9.041l-15.13 25.872c-2.723 4.657-4.915 9.601-6.559 14.738-3.033 1.163-6.015 2.509-8.917 4.073l-27.208 14.661c-5.864 3.159-9.606 9.258-9.768 15.918l-.428 17.663c-7.784 5.901-14.474 13.009-19.911 21.182l-20.036 30.115c-4.064 6.11-4.543 13.979-1.251 20.535l16.229 32.325c4.877 9.716 11.43 18.287 19.47 25.551l-.528 9.041c-.388 6.649 2.84 13.037 8.423 16.668l6.064 3.945c1.263.822 2.681 1.214 4.083 1.214 2.453 0 4.856-1.202 6.293-3.411 2.259-3.472 1.275-8.118-2.197-10.376l-6.064-3.945c-1.079-.702-1.703-1.937-1.628-3.222l1.801-30.855c.453-7.76 2.379-15.274 5.638-22.213l1.876 3.569c6.144 11.685 15.919 20.755 27.877 25.989l-.152 5.8c-.152 5.816 2.845 11.301 7.821 14.315l6.165 3.734c.868 5.883 2.566 11.582 5.094 16.983l5.869 12.54c-9.494.232-18.879-1.772-27.579-5.944-3.735-1.791-8.214-.215-10.006 3.52-1.791 3.735-.215 8.214 3.52 10.006 2.499 1.198 5.044 2.251 7.625 3.162.057.264.116.526.176.789-30.385 12.616-52.445 38.97-59.901 70.35-.028.117-.055.233-.078.352-1.756 7.507-2.688 15.295-2.688 23.252v17.514c0 7.558 6.148 13.706 13.706 13.706h55.719c37.747 0 71.443-20.613 89.013-52.381v140.205c0 4.142 3.358 7.5 7.5 7.5s7.5-3.358 7.5-7.5v-150.549c2.319 1.253 4.883 1.889 7.451 1.889 2.678 0 5.356-.682 7.756-2.049l.688-.392v151.101c0 4.142 3.357 7.5 7.5 7.5s7.5-3.358 7.5-7.5v-140.204c17.57 31.768 51.266 52.381 89.014 52.381h55.72c7.557 0 13.705-6.148 13.705-13.706v-17.514c0-7.957-.932-15.745-2.688-23.253-.022-.118-.05-.234-.077-.35-7.541-31.739-30.023-58.33-60.945-70.772.026-.118.053-.236.079-.354 5.64-1.984 11.078-4.641 16.196-7.97l25.908-16.854c5.584-3.633 8.811-10.02 8.422-16.669l-.528-9.039c8.04-7.263 14.592-15.835 19.471-25.552l16.229-32.325c3.291-6.56 2.812-14.429-1.254-20.537zm-73.171-8.167 8.621 13.501c.005.007.009.015.014.022l3.617 5.665c.13.203.141.461.028.674l-10.595 20.151c-3.545 6.745-8.729 12.309-15.038 16.272l-.048-1.849c-.399-15.245-6.385-29.123-15.959-39.626 4.468-8.137 6.679-17.237 6.436-26.658l-.151-5.876c9.452 2.98 17.606 9.161 23.075 17.724zm17.58 176.671c6.308 7.662 11.285 16.386 14.668 25.808h-42.309l-23.918-19.303 3.804-6.505zm-67.68 16.908c1.484-.036 2.943-.247 4.347-.63l25.545 20.615v34.431c-10.496-.374-20.578-2.62-29.892-6.443zm44.891 32.091 27.747 22.392h-27.747zm13.735-8.191h27.634c.783 4.691 1.198 9.489 1.198 14.363v8.905zm-41.129-66.371-15.13 25.873c-.589 1.007-1.648 1.638-2.846 1.612l-6.723-.072c-.1-.004-.198-.015-.298-.015-.065 0-.129.008-.194.01l-22.753-.243c-2.504-.027-4.989-.221-7.449-.563 7.852-8.598 13.017-19.455 14.615-31.092l17.817-1.441c3.745-.303 7.207-1.902 9.858-4.411 3.168.398 6.337.614 9.494.614 2.79 0 5.57-.158 8.328-.464-1.237 3.524-2.812 6.93-4.719 10.192zm-145.541-18.919-24.275-1.964c-.443-.036-.835-.308-1.023-.711l-10.028-21.426c8.717 4.372 18.092 6.487 27.374 6.487 3.848 0 7.676-.379 11.436-1.093 3.513 6.482 8.363 12.18 14.193 16.684-5.684 1.795-11.701 2.508-17.677 2.023zm-15.381-219.509c.225-.384.642-.583 1.085-.615l14.773.158h.007.004l9.568.102c.819.009 1.635.041 2.448.092-9.062 7.035-15.726 16.299-19.626 26.552-8.56.051-16.956 2.18-24.585 6.275l-.889.477c1.06-4.192 2.71-8.237 4.921-12.019zm85.611 8.093c20.916 12.148 28.956 38.406 18.302 59.779-3.674 7.371-8.632 13.972-15.049 20.011-.432.156-.865.312-1.297.475-1.511-1.539-3.169-2.932-4.954-4.154l6.739-30.649c.89-4.045-1.669-8.046-5.715-8.936-4.052-.89-8.045 1.67-8.936 5.715l-6.244 28.401c-1.482-.203-2.993-.317-4.53-.317s-3.047.114-4.53.317l-6.244-28.401c-.89-4.046-4.89-6.604-8.936-5.715-4.045.89-6.604 4.89-5.715 8.936l6.739 30.649c-1.785 1.223-3.443 2.616-4.953 4.154-.432-.163-.864-.318-1.297-.475-6.416-6.039-11.375-12.64-15.05-20.011-10.653-21.373-2.614-47.631 18.302-59.779l21.061-12.231c.384-.223.862-.222 1.246 0zm79.866 147.263.292 11.138c.011.444-.218.863-.599 1.094l-20.83 12.618c-20.689 12.534-47.586 6.998-61.235-12.598-4.926-7.072-8.418-14.992-10.628-24.013 2.276-.608 4.453-1.455 6.509-2.509l23.665 20.607c1.42 1.237 3.175 1.844 4.922 1.844 2.094 0 4.176-.872 5.659-2.575 2.72-3.124 2.393-7.861-.731-10.582l-21.937-19.102c1.793-2.417 3.262-5.087 4.35-7.944l27.918 8.136c.701.204 1.407.301 2.102.301 3.249 0 6.243-2.127 7.197-5.403 1.159-3.977-1.125-8.14-5.102-9.299l-30.113-8.776c-.216-2.188-.647-4.314-1.269-6.358.344-.295.681-.594 1.019-.893 8.379-2.735 16.556-3.92 24.779-3.616 23.864.898 43.054 20.542 43.687 44.722l.344 13.117c-.002.031 0 .061.001.091zm-119.699-43.788c0-10.008 8.142-18.15 18.15-18.15s18.15 8.142 18.15 18.15c0 9.985-8.106 18.11-18.083 18.146-.019.001-.037.002-.056.003-.003 0-.007 0-.01 0s-.006 0-.009 0c-.018-.001-.036-.002-.054-.003-9.979-.034-18.088-8.159-18.088-18.146zm109.304-56.127.525 20.418c.146 5.674-.953 11.186-3.21 16.26-8.826-5.754-19.219-9.262-30.389-9.682-3.083-.117-6.184-.048-9.296.192 1.703-2.616 3.25-5.304 4.626-8.066 5.263-10.558 7.1-22.006 5.918-33.054 4.813.513 9.496 1.942 13.831 4.27zm-179.623 36.678c-2.257-5.075-3.357-10.587-3.21-16.261l.526-20.417 17.994-9.661c4.336-2.328 9.019-3.757 13.832-4.27-1.182 11.047.655 22.495 5.917 33.053 1.377 2.763 2.925 5.451 4.628 8.067-3.112-.24-6.213-.31-9.298-.194-11.17.422-21.563 3.929-30.389 9.683zm30.952 5.308c8.231-.31 16.402.877 24.776 3.613.339.3.677.6 1.022.896-.622 2.044-1.053 4.169-1.269 6.357l-30.113 8.776c-3.977 1.159-6.261 5.322-5.102 9.299.955 3.276 3.949 5.403 7.197 5.403.695 0 1.401-.097 2.102-.301l27.918-8.136c1.088 2.857 2.557 5.527 4.35 7.944l-21.937 19.103c-3.124 2.72-3.451 7.458-.731 10.582 1.483 1.703 3.565 2.575 5.659 2.575 1.747 0 3.502-.607 4.922-1.844l23.665-20.607c2.056 1.053 4.233 1.901 6.509 2.509-2.211 9.021-5.703 16.941-10.629 24.013-13.649 19.596-40.546 25.129-61.235 12.598l-20.832-12.618c-.38-.23-.608-.649-.597-1.093l.292-11.155c0-.022.001-.044.002-.065l.343-13.126c.635-24.181 19.824-43.825 43.688-44.723zm39.899 110.939c-5.208-3.022-9.608-7.274-12.837-12.311 9.21-4.338 17.418-11.017 23.587-19.874 2.601-3.735 4.888-7.715 6.868-11.915 1.98 4.199 4.266 8.179 6.868 11.915 6.18 8.873 14.403 15.559 23.631 19.896-3.222 5.019-7.607 9.258-12.795 12.274l-17.656 10.265zm62.733-7.552c3.744.707 7.554 1.082 11.385 1.082 9.28 0 18.657-2.115 27.374-6.487l-10.028 21.428c-.188.402-.58.674-1.023.709l-24.275 1.964c-6.061.49-12.02-.197-17.664-1.985 5.846-4.508 10.71-10.217 14.231-16.711zm35.139-168.249c-7.628-4.095-16.026-6.224-24.585-6.275-3.9-10.253-10.564-19.517-19.626-26.552.813-.051 1.629-.083 2.448-.092l10.485-.112h.015l13.853-.148c.433.018.859.231 1.084.615l12.295 21.024c2.212 3.782 3.861 7.827 4.922 12.019zm-31.206-75.021 29.971-.32h.034c1.153 0 2.228.615 2.811 1.613l15.131 25.873c.528.904 1.025 1.825 1.503 2.754-8.242-.981-16.636-.613-24.77 1.112-2.946-2.653-6.809-4.19-10.871-4.19-.059 0-.116 0-.174.001l-7.313.078c-2.208-9.882-6.999-18.96-13.767-26.358 2.459-.343 4.943-.537 7.445-.563zm-49.318-8.865c.208-.123.465-.124.674-.005l19.782 11.268c9.569 5.451 16.568 14.356 19.713 24.688l-1.57.017c-7.081.076-13.984 1.367-20.583 3.815l-9.59-5.57c-5.031-2.922-11.283-2.922-16.313 0l-9.59 5.57c-6.598-2.448-13.502-3.739-20.583-3.815l-.635-.007c2.945-9.666 9.283-18.105 17.921-23.613.036-.024.074-.045.109-.069.358-.227.708-.463 1.074-.68zm-96.724 36.029 15.13-25.873c.589-1.007 1.691-1.583 2.846-1.612l29.969.32c2.777.03 5.533.26 8.259.68-6.705 7.388-11.45 16.441-13.644 26.25l-8.248-.088c-4.101-.022-8.04 1.511-11.036 4.192-8.216-1.763-16.56-2.148-24.75-1.173.47-.909.956-1.811 1.474-2.696zm-48.517 39.106 27.208-14.663c3.331-1.795 6.786-3.252 10.32-4.387.013-.004.025-.008.038-.013 8.168-2.617 16.766-3.453 25.303-2.464l-6.528 11.163c-5.073 8.675-7.91 18.397-8.323 28.369l-.828.445c-4.387 2.356-7.292 6.77-7.762 11.687-14.882 3.268-27.823 12.248-36.156 25.297l-1.592 2.493c-3.034-7.569-4.515-15.681-4.315-23.952l.747-30.898c.031-1.288.754-2.467 1.888-3.077zm-21.537 128.269-.065 1.111c-2.767-3.604-5.207-7.463-7.273-11.577l-16.229-32.326c-.881-1.755-.753-3.86.334-5.496l20.036-30.115c2.182-3.279 4.62-6.338 7.272-9.19.775 11.288 4.061 22.197 9.676 32.075l-1.195 1.871c-3.021 4.731-3.275 10.757-.663 15.727l.415.789c-7.289 11.078-11.531 23.816-12.308 37.131zm35.765-24.75-10.594-20.15c-.112-.213-.101-.471.028-.674l12.252-19.188c5.468-8.563 13.622-14.744 23.074-17.724l-.151 5.876c-.242 9.421 1.969 18.522 6.436 26.658-9.574 10.502-15.56 24.381-15.959 39.626l-.048 1.848c-6.308-3.963-11.492-9.528-15.038-16.272zm37.9 101.369c3.156 0 6.326-.217 9.494-.616 2.651 2.509 6.113 4.108 9.856 4.411l18.763 1.518c1.607 11.524 6.731 22.324 14.495 30.895-2.731.422-5.492.653-8.274.683l-29.97.32c-1.161.02-2.256-.605-2.846-1.613l-15.13-25.872c-1.907-3.261-3.481-6.667-4.717-10.191 2.761.309 5.54.465 8.329.465zm-72.434 90.46c0-4.874.415-9.672 1.198-14.363h27.634l-28.832 23.268zm19.778-55.171h46.617l4.169 7.129-23.146 18.679h-42.309c3.383-9.422 8.361-18.146 14.669-25.808zm22.789 48.999v22.392h-27.747zm15-12.106 25.285-20.405c1.273.281 2.582.434 3.912.434.065 0 .13 0 .195-.001l.5-.005v47.965c-9.314 3.824-19.396 6.07-29.892 6.444zm-1.692-54.883 1.749 2.99h-21.919c5.157-3.75 10.765-6.968 16.771-9.544 1.021 2.229 2.149 4.417 3.399 6.554zm46.584 74.922v-40.177l14.471-.155c6.523-.07 12.953-1.016 19.204-2.789-6.392 17.996-18.369 32.963-33.675 43.121zm63.762-46.461c-.209.119-.468.117-.675-.005l-15.763-9.333c-.016-.01-.033-.019-.049-.029l-3.778-2.236c-.363-.215-.709-.453-1.065-.678-.036-.024-.073-.046-.11-.07-9.84-6.276-16.678-16.383-18.945-27.657 8.634-.695 17.088-3.214 24.695-7.392l7.875 4.569c2.3 1.335 4.878 2.002 7.458 2.002 2.582 0 5.165-.669 7.469-2.008l7.809-4.54c7.866 4.312 16.635 6.851 25.572 7.436-2.269 11.232-9.048 21.255-18.843 27.527-.009.005-.017.011-.026.016-.606.387-1.213.772-1.842 1.13zm30.546 3.692c5.846 1.543 11.849 2.372 17.938 2.438l15.608.167v40.165c-15.206-10.092-27.124-24.931-33.546-42.77zm100.301-29.163h-23.057l1.749-2.99c1.323-2.262 2.505-4.584 3.572-6.951 6.367 2.643 12.305 5.992 17.736 9.941zm20.997-61.957-25.908 16.854c-5.101 3.319-10.597 5.806-16.313 7.45-.101.024-.2.053-.3.082-5.779 1.63-11.78 2.387-17.833 2.241l5.862-12.526c2.528-5.402 4.226-11.101 5.094-16.984l6.162-3.733c4.978-3.014 7.975-8.499 7.822-14.316l-.152-5.8c11.958-5.234 21.734-14.304 27.877-25.989l1.876-3.569c3.259 6.939 5.185 14.453 5.637 22.212l1.801 30.856c.077 1.286-.547 2.521-1.625 3.222zm38.367-77.742-16.228 32.325c-2.066 4.115-4.507 7.973-7.274 11.578l-.065-1.112c-.777-13.314-5.019-26.051-12.309-37.131l.415-.79c2.612-4.969 2.357-10.995-.663-15.726l-1.195-1.871c5.615-9.878 8.901-20.786 9.676-32.074 2.652 2.852 5.091 5.911 7.272 9.19l20.035 30.116c1.089 1.634 1.218 3.74.336 5.495z"/></g></svg>