<svg id="Capa_1" enable-background="new 0 0 507.411 507.411" height="512" viewBox="0 0 507.411 507.411" width="512" xmlns="http://www.w3.org/2000/svg"><g><path d="m257.26 275.147c108.584-13.702 148.409 43.568 148.409 43.568 36.497 43.39 29.207 114.593 25.377 138.915-.797 5.06-4.957 8.898-10.065 9.284-25.161 1.904-99.705 3.472-139.373-39.532-48.206-52.26-26.653-150.553-26.653-150.553z" fill="#f9f7f8"/><path d="m405.668 318.716s-4.332-6.226-14.027-14.081c-39.504 9.07-82.826-14.429-107.786-31.521-8.369.207-17.22.85-26.596 2.033l-2.305 1.681s-1.292 5.903-2.536 15.569c21.865 16.696 69.93 48.231 121.064 48.231 8.582 0 17.254-.889 25.899-2.885 5.558-1.283 10.918-2.985 16.09-5.027-2.85-4.9-6.097-9.595-9.803-14z" fill="#efedef"/><path d="m251.564 269.773s74.718 67.404 143.993 51.407c57.005-13.164 92.561-78.7 103.368-101.502 2.194-4.628.92-10.144-3.081-13.342-19.232-15.373-77.48-56.969-133.25-46.751 0 0-69.476 6.235-111.349 107.353z" fill="#f9f7f8"/><path d="m311.651 182.996c-9.512 22.006-26.139 41.271-40.83 55.339v44.896c22.753-17.563 74.392-63.307 81.75-121.527-9.358 2.657-24.338 8.527-40.92 21.292z" fill="#efedef"/><path d="m263.821 24.726c-3.938-3.276-9.596-3.414-13.689-.334-11.7 8.805-35.815 28.669-54.276 55.22l72.389 183.848c24.671-20.6 66.953-63.115 68.179-113.37 1.429-58.488-53.205-109.226-72.603-125.364z" fill="#f9f7f8"/><g><path d="m231.191 88.036c8.136-11.702 17.364-22.085 26.148-30.813l3.43-4.106.422.352c6.422-6.13 12.475-11.316 17.507-15.374-5.86-5.661-11.053-10.19-14.876-13.37-3.938-3.276-9.596-3.414-13.689-.334-11.7 8.805-35.815 28.669-54.276 55.22l17.045 43.288z" fill="#efedef"/></g><path d="m195.856 79.612c-12.581 18.094-22.536 39.293-24.147 62.216 0 0-11.24 68.844 76.286 134.55l2.825.396s7.203-4.778 17.424-13.314z" fill="#f9f7f8"/><path d="m207.044 150.251c.664-9.444 2.76-18.589 5.857-27.351l-17.045-43.288c-12.581 18.094-22.536 39.293-24.147 62.216 0 0-11.24 68.844 76.286 134.55l2.825.396s4.774-3.167 12.063-8.949c-65.213-60.062-55.839-117.574-55.839-117.574z" fill="#efedef"/><path d="m253.76 276.397c-50.684 53.379-108.219 50.546-108.219 50.546-12.2 1.298-24.643.821-36.867-2.282-56.701-14.405-90.817-80.698-101.132-103.727-2.092-4.678-.693-10.16 3.373-13.278 20.046-15.317 81.672-57.296 138.373-42.891 68.914 17.501 104.472 111.632 104.472 111.632z" fill="#f9f7f8"/><path d="m159.089 288.187c-12.2 1.298-24.642.821-36.867-2.282-47.807-12.145-79.558-61.176-94.525-90.063-7.025 4.566-12.746 8.73-16.781 11.813-4.067 3.118-5.465 8.6-3.373 13.278 10.314 23.03 44.431 89.323 101.132 103.728 12.224 3.103 24.666 3.581 36.867 2.282 0 0 57.535 2.833 108.219-50.546 0 0-2.894-7.654-8.62-18.994-43.919 32.853-86.052 30.784-86.052 30.784z" fill="#efedef"/><g><g><path d="m254.953 276.824c30.94 66.79 7.1 119.23 7.1 119.23-3.29 11.82-8.32 23.21-15.71 33.43-34.29 47.4-108.49 54.68-133.7 55.78-5.12.22-9.7-3.1-11.1-8.03-6.85-24.28-23.16-97.04 11.13-144.44 41.67-57.61 142.28-55.97 142.28-55.97z" fill="#f9f7f8"/></g></g><path d="m254.953 276.824s-8.395-.134-21.326 1.058c20.176 58.513.278 102.304.278 102.304-3.29 11.82-8.32 23.21-15.71 33.43-29.039 40.142-86.697 51.508-118.987 54.717.834 3.419 1.635 6.417 2.335 8.901 1.4 4.93 5.98 8.25 11.1 8.03 25.21-1.1 99.41-8.38 133.7-55.78 7.39-10.22 12.42-21.61 15.71-33.43 0 0 23.84-52.44-7.1-119.23z" fill="#efedef"/><g fill="#fff9e2"><path d="m193.721 82.759c.701-1.055 1.409-2.102 2.129-3.137-.72 1.035-1.428 2.082-2.129 3.137z"/><path d="m268.232 263.471c-.62.517-1.228 1.02-1.824 1.51.597-.49 1.204-.992 1.824-1.51z"/><path d="m251.115 276.576c-.064.043-.114.077-.156.105.043-.029.091-.061.156-.105z"/><path d="m247.996 276.378c-.322-.242-.63-.484-.949-.725.319.241.627.483.949.725l1.306.183z"/><path d="m251.514 276.304c-.121.083-.225.154-.315.215.089-.061.194-.132.315-.215z"/><path d="m264.546 266.496c-6.424 5.178-11.188 8.539-12.963 9.76 1.766-1.214 6.529-4.575 12.963-9.76z"/><path d="m266.308 265.063c-.586.481-1.162.949-1.724 1.402.563-.454 1.137-.921 1.724-1.402z"/></g><circle cx="257.994" cy="288.658" fill="#fef0ae" r="51.42"/><path d="m247.962 288.658c0-21.034 12.636-39.108 30.726-47.072-6.333-2.788-13.33-4.348-20.694-4.348-28.398 0-51.42 23.021-51.42 51.42s23.021 51.42 51.42 51.42c7.364 0 14.36-1.559 20.694-4.348-18.09-7.965-30.726-26.038-30.726-47.072z" fill="#fee97d"/><g><path d="m499.598 193.556c-10.512-7.468-32.05-21.495-58.198-31.532-32.684-12.545-62.299-15.103-88.027-7.606-2.975.867-5.94 1.891-8.886 3.057.299-3.147.456-6.276.456-9.38 0-4.494-.318-9.125-.946-13.764-.556-4.105-4.327-6.983-8.439-6.426-4.104.556-6.981 4.334-6.426 8.438.539 3.975.812 7.928.812 11.751 0 38.96-27.105 74.267-49.621 96.877l2.056-43.501c.196-4.137-3-7.65-7.137-7.846-4.157-.2-7.65 3-7.846 7.138l-2.779 58.796c-2.443 2.099-4.656 3.924-6.565 5.458-3.748-8.205-10.188-21.097-19.323-35.254l-2.493-42.661c-.242-4.136-3.777-7.297-7.925-7.05-4.135.242-7.291 3.79-7.05 7.925l1.129 19.329c-12.239-14.846-25.399-26.694-39.139-35.284-2.173-8.103-3.283-16.14-3.283-23.929 0-55.729 55.718-104.159 72.795-117.674 1.29-1.021 3.092-1.021 4.384 0 1.602 1.268 3.489 2.8 5.585 4.562-24.775 23.516-59.702 65.177-59.702 113.113 0 4.924.381 9.992 1.131 15.063.551 3.726 3.753 6.403 7.409 6.403.365 0 .735-.027 1.107-.082 4.098-.606 6.928-4.419 6.321-8.517-.643-4.347-.969-8.676-.969-12.868 0-43.057 33.019-81.559 55.954-103.105 15.352 14.426 34.831 36.057 46.298 61.47 1.703 3.776 6.146 5.454 9.921 3.752 3.775-1.704 5.455-6.146 3.751-9.921-17.868-39.601-53.156-70.28-67.499-81.632-6.771-5.358-16.229-5.358-23.001 0-10.11 8.002-29.604 24.756-46.556 47.052-21.188 27.866-31.931 55.584-31.931 82.384 0 4.949.381 9.97 1.128 15.027-4.72-1.957-9.488-3.544-14.292-4.742-26.002-6.481-55.497-2.76-87.66 11.059-25.732 11.059-46.702 25.922-56.912 33.797-6.839 5.274-9.127 14.452-5.563 22.32 5.319 11.746 16.862 34.711 34.396 56.553 20.764 25.864 43.667 42.591 68.134 49.79-6.625 10.037-11.683 21.593-15.032 34.437-1.045 4.008 1.357 8.104 5.365 9.149.635.166 1.271.245 1.897.245 3.331 0 6.373-2.236 7.253-5.61 3.272-12.551 8.342-23.63 15.068-32.929 1.28-1.77 2.626-3.476 4.025-5.13.015-.018.031-.035.046-.052 21.341-25.176 55.859-37.065 84.252-42.675l-20.498 20.352c-2.939 2.918-2.956 7.667-.038 10.606 1.466 1.477 3.394 2.216 5.322 2.216 1.91 0 3.821-.726 5.284-2.178l34.964-34.714c5.441-.553 10.144-.87 13.842-1.05-.79 5.063-1.699 11.952-2.362 20.115l-26.888 38.174c-2.385 3.386-1.573 8.065 1.813 10.451 1.313.925 2.819 1.369 4.312 1.369 2.357 0 4.678-1.108 6.139-3.182l13.735-19.5c.004.225.005.447.01.672.491 24 4.379 45.44 11.436 63.654-3.26 10.841-7.909 20.52-13.876 28.77-32.66 45.153-106.19 51.74-127.948 52.683-1.646.074-3.106-.984-3.554-2.569-.578-2.048-1.207-4.39-1.858-6.974 33.853-4.53 86.572-17.807 114.673-56.658 4.286-5.926 8.036-12.548 11.146-19.682 1.655-3.797-.081-8.217-3.878-9.872-3.794-1.656-8.216.08-9.872 3.878-2.681 6.149-5.894 11.83-9.55 16.885-25.243 34.898-74.577 46.738-105.784 50.751-2.871-14.853-5.197-33.568-4.337-53.009.183-4.138-3.023-7.641-7.161-7.824-4.154-.172-7.642 3.023-7.824 7.161-1.463 33.053 5.644 63.945 10.01 79.417 2.271 8.046 9.527 13.499 17.817 13.498.271 0 .547-.006.821-.018 12.882-.559 38.495-2.709 65.298-10.839 33.498-10.161 58.448-26.324 74.155-48.039 4.154-5.744 7.736-12.061 10.763-18.857 3.801 6.402 8.106 12.238 12.912 17.448 18.171 19.699 44.861 32.789 79.329 38.906 16.547 2.937 32.411 3.787 45.234 3.787 8.548 0 15.746-.378 20.889-.767 8.612-.652 15.565-7.066 16.906-15.596 1.937-12.292 4.836-36.967 2.499-64.117-2.527-29.351-10.378-53.724-23.358-72.637 20.382-9.27 39.266-25.54 56.29-48.542 16.664-22.514 27.295-45.916 32.148-57.862 3.252-7.999.606-17.081-6.434-22.082zm-385.298 125.447c-.81-.176-1.619-.352-2.394-.546-54.073-13.477-87.591-79.254-96.576-99.093-.679-1.5-.243-3.249 1.061-4.254 1.577-1.217 3.52-2.678 5.782-4.316 15.813 27.921 45.592 69.391 88.614 83.338.769.25 1.548.368 2.314.368 3.163 0 6.104-2.018 7.133-5.189 1.277-3.94-.882-8.17-4.822-9.447-38.874-12.603-66.332-51.697-80.801-77.549 26.575-17.07 71.961-39.749 113.567-29.381 37.259 9.287 64.711 43.265 81.286 70.394l-36.941-17.035c-3.764-1.736-8.217-.091-9.951 3.67s-.092 8.217 3.67 9.951l55.373 25.534c.726 1.479 1.393 2.87 1.996 4.154-6.561.331-15.514 1.038-25.842 2.533-.042-.007-.081-.019-.123-.025l-57.029-8.753c-4.092-.628-7.923 2.181-8.551 6.275-.629 4.094 2.181 7.922 6.275 8.551l19.484 2.99c-22.755 7.267-46.16 18.982-63.525 37.83zm309.336 137.462c-.255 1.625-1.58 2.847-3.222 2.971-1.985.15-4.41.304-7.198.43 3.816-55.326-9.247-89.378-21.24-108.44-2.205-3.507-6.838-4.559-10.342-2.354-3.506 2.206-4.56 6.836-2.354 10.342 19.851 31.549 20.757 74.263 18.88 100.707-31.583-.333-81.969-6.308-111.04-37.824-25.349-27.481-30.071-69.415-29.333-100.934l18.066 31.797c1.381 2.432 3.917 3.796 6.527 3.796 1.256 0 2.528-.316 3.698-.98 3.602-2.046 4.862-6.625 2.815-10.226l-29.139-51.287c.192-1.569.387-3.034.578-4.403 7.397 5.108 18.48 12.189 31.985 19.073l40.098 36.212c1.435 1.295 3.232 1.934 5.024 1.934 2.048 0 4.088-.834 5.568-2.473 2.776-3.074 2.534-7.817-.54-10.593l-9.992-9.023c14.321 4.075 28.098 6.138 41.097 6.138 10.319 0 20.148-1.306 29.373-3.911 10.773 14.802 32.345 55.064 20.691 129.048zm-24.108-143.66c-38.625 11.256-81.592-6.321-109.583-22.022l36.09 1.706c.121.006.241.008.36.008 3.979 0 7.296-3.129 7.485-7.146.196-4.138-3-7.65-7.137-7.846l-56.904-2.689c4.857-3.978 11.024-9.322 17.742-15.843l54.113-12.817c4.03-.955 6.524-4.996 5.569-9.026-.954-4.031-4.994-6.523-9.026-5.569l-32.201 7.626c17.7-21.096 29.584-42.686 35.188-63.744 5.363-2.795 10.847-5.022 16.345-6.624 53.503-15.593 115.588 24.352 133.342 36.965 1.342.954 1.846 2.684 1.227 4.209-.75 1.844-1.691 4.084-2.82 6.637-29.509-17.206-79.278-39.08-125.295-25.67-2.624.765-5.3 1.678-8.181 2.792-3.863 1.494-5.784 5.836-4.29 9.7 1.492 3.863 5.833 5.784 9.7 4.291 2.478-.958 4.757-1.737 6.967-2.38 41.327-12.044 87.518 8.873 114.624 24.862-14.362 28.131-42.149 70.583-83.315 82.58z"/><path d="m269.332 159.795-.601 12.696c-.196 4.138 2.999 7.65 7.137 7.846.121.006.241.008.36.008 3.979 0 7.296-3.129 7.485-7.146l.601-12.696c.196-4.138-2.999-7.65-7.137-7.846-4.178-.201-7.649 3.002-7.845 7.138z"/><path d="m367.71 279.441-12.695-.6c-4.175-.201-7.651 3-7.846 7.138-.196 4.137 3 7.65 7.137 7.846l12.695.6c.121.006.241.008.36.008 3.979 0 7.296-3.129 7.485-7.146.197-4.137-2.999-7.65-7.136-7.846z"/><path d="m163.674 228.754c2.836 0 5.55-1.617 6.815-4.361 1.734-3.762.092-8.217-3.67-9.951l-11.542-5.322c-3.765-1.736-8.216-.091-9.951 3.67-1.734 3.762-.092 8.217 3.67 9.951l11.542 5.322c1.018.469 2.085.691 3.136.691z"/><path d="m303.121 370.789c-2.046-3.602-6.624-4.864-10.227-2.816-3.602 2.046-4.862 6.624-2.816 10.226l5.518 9.712c1.382 2.432 3.918 3.797 6.528 3.797 1.256 0 2.528-.316 3.698-.98 3.602-2.046 4.862-6.624 2.816-10.226z"/><path d="m167.056 350.199 9.671-9.602c2.939-2.918 2.956-7.667.038-10.606s-7.667-2.957-10.606-.038l-9.671 9.602c-2.939 2.918-2.956 7.667-.038 10.606 1.466 1.477 3.394 2.216 5.322 2.216 1.91 0 3.821-.726 5.284-2.178z"/></g></g></svg>