<svg id="Capa_1" enable-background="new 0 0 513.209 513.209" height="512" viewBox="0 0 513.209 513.209" width="512" xmlns="http://www.w3.org/2000/svg"><g><path d="m463.498 200.241v-3.73c0-32.82-26.61-59.43-59.43-59.43-7.304 0-14.297 1.324-20.76 3.735l-41.724 97.325 4.254 4.768 15.372-3.806 10.065-4.704 11.62 37.332 22.509 23.332 26.352-22.234 13.725-31.454 15.646 4.279 7.631-10.356.311-.065c-3.672-11.265-5.571-23.069-5.571-34.992z" fill="#ffbee7"/><path d="m168.568 200.241v-3.73c0-16.41-6.65-31.27-17.4-42.02-10.76-10.76-25.61-17.41-42.03-17.41-10.228 0-19.852 2.586-28.256 7.137l-28.173 91.857 2.995 1.642s14.948 2.667 15.792 2.667 14.771 29.596 14.771 29.596l21.084 21.665 19.924-9.672 12.38-24.566 8.511-18.376 19.924.387 5.031-7.481c-3.003-10.263-4.553-20.931-4.553-31.696z" fill="#ffbee7"/><path d="m109.138 137.081c-32.82 0-59.43 26.61-59.43 59.43v3.73c0 11.013-1.617 21.926-4.755 32.406h24.944c3.138-10.479 4.755-21.392 4.755-32.406v-3.73c0-28.542 20.129-52.378 46.961-58.109-4.023-.859-8.194-1.321-12.475-1.321z" fill="#feaee1"/><path d="m180.998 251.741c-3.259-6.359-5.885-12.994-7.878-19.805h-4.182c-6.451 0-12.627-1.589-18.086-4.456-4.106-2.157-9.082.301-9.826 4.879-2.37 14.586-9.284 28.155-19.907 38.707l-5.12 5.09c-3.79 3.78-9.92 3.78-13.71 0l-5.13-5.09c-10.616-10.552-17.528-24.121-19.898-38.708-.744-4.578-5.719-7.036-9.825-4.88-5.462 2.869-11.641 4.458-18.087 4.458h-4.19c-1.991 6.811-4.615 13.446-7.87 19.805l-9.84 19.18c-1.35 2.64.57 5.77 3.52 5.77h18.38c10.29 0 19.9-4.05 27-10.89 0 18.79 7.49 36.78 20.81 50.02l5.13 5.09c3.79 3.78 9.92 3.78 13.71 0l5.12-5.09c13.33-13.24 20.82-31.23 20.82-50.02 7.1 6.84 16.7 10.89 27 10.89h18.37c2.96 0 4.88-3.13 3.53-5.77z" fill="#ffdff3"/><path d="m404.068 137.081c-16.41 0-31.27 6.65-42.02 17.41-10.76 10.75-17.41 25.61-17.41 42.02v3.73c0 14.281-2.717 28.394-7.957 41.609h24.944c5.24-13.215 7.957-27.328 7.957-41.609v-3.73c0-16.41 6.65-31.27 17.41-42.02 7.947-7.954 18.143-13.652 29.547-16.088-4.023-.86-8.192-1.322-12.471-1.322z" fill="#feaee1"/><g><path d="m475.928 251.741c-2.721-5.308-4.998-10.81-6.838-16.444h-.331c-7.43 0-14.491-2.108-20.514-5.846-2.853-1.771-6.604.087-7.007 3.42-1.894 15.662-8.998 30.323-20.3 41.556l-5.12 5.09c-3.8 3.78-9.92 3.78-13.72 0l-5.12-5.09c-11.301-11.234-18.406-25.894-20.3-41.556-.403-3.333-4.154-5.191-7.007-3.42-6.023 3.738-13.084 5.846-20.514 5.846h-10.113c-1.84 5.634-4.117 11.135-6.838 16.444l-9.83 19.18c-1.35 2.64.56 5.77 3.52 5.77h18.37c10.31 0 19.91-4.06 27.01-10.9 0 18.79 7.49 36.79 20.81 50.03l5.12 5.09c3.8 3.78 9.92 3.78 13.72 0l5.12-5.09c13.32-13.24 20.81-31.24 20.81-50.03 7.1 6.84 16.7 10.9 27.01 10.9h18.37c2.96 0 4.87-3.13 3.52-5.77z" fill="#ffdff3"/></g><g fill="#80d261"><path d="m303.003 464.856h-46.398v-40.093c0-26.826 21.747-48.572 48.572-48.572h6.305c22.143 0 40.093 17.95 40.093 40.093 0 26.826-21.746 48.572-48.572 48.572z"/><path d="m210.207 464.856h46.398v-40.093c0-26.826-21.747-48.572-48.572-48.572h-6.305c-22.143 0-40.093 17.95-40.093 40.093-.001 26.826 21.746 48.572 48.572 48.572z"/><path d="m130.468 141.042v-14.7c0-11.778-9.548-21.326-21.326-21.326-11.778 0-21.326 9.548-21.326 21.326v14.7z"/></g><path d="m54.329 276.361c-1.987-.869-3.025-3.313-1.937-5.44l9.84-19.18c4.076-7.963 7.179-16.353 9.264-24.989-1.331-.178-2.74.033-4.061.726-5.462 2.869-11.641 4.458-18.087 4.458h-4.19c-1.991 6.811-4.615 13.446-7.87 19.805l-9.84 19.18c-1.35 2.64.57 5.77 3.52 5.77h18.38c1.682 0 3.343-.119 4.981-.33z" fill="#ffceed"/><path d="m325.898 276.691h18.37c1.684 0 3.347-.119 4.986-.33-1.99-.87-3.02-3.312-1.933-5.44l9.83-19.18c3.264-6.368 5.892-13.011 7.886-19.832-4.893 2.189-10.281 3.388-15.879 3.388h-10.113c-1.84 5.634-4.117 11.135-6.838 16.444l-9.83 19.18c-1.349 2.64.561 5.77 3.521 5.77z" fill="#ffceed"/><g><path d="m411.567 126.745c-.021-.03-.039-.006-.054.059.043-.019.068-.039.054-.059z" fill="#feaee1"/></g><path d="m425.393 141.042v-14.7c0-11.778-9.548-21.326-21.326-21.326-11.778 0-21.326 9.548-21.326 21.326v14.7z" fill="#80d261"/><g><path d="m492.433 267.505-9.833-19.187c-7.591-14.812-11.604-31.438-11.604-48.08v-3.725c0-26.59-15.588-49.604-38.104-60.394v-9.777c0-13.301-9.057-24.521-21.326-27.83v-17.28c.001-44.792-36.439-81.232-81.23-81.232-32.643 0-60.831 19.364-73.73 47.199-12.901-27.835-41.09-47.199-73.732-47.199-44.791 0-81.231 36.44-81.231 81.231v17.28c-12.269 3.31-21.326 14.53-21.326 27.83v9.777c-22.516 10.79-38.104 33.804-38.104 60.394v3.725c0 .84-.018 1.679-.038 2.518-.099 4.141 3.178 7.578 7.318 7.677.062.001.122.002.184.002 4.059 0 7.396-3.241 7.494-7.321.022-.958.042-1.916.042-2.876v-3.725c0-12.391 4.368-23.777 11.638-32.714v26.904c0 4.142 3.357 7.5 7.5 7.5s7.5-3.358 7.5-7.5v-39.521c5.411-3.031 11.414-5.123 17.792-6.05v36.387c0 4.142 3.357 7.5 7.5 7.5s7.5-3.358 7.5-7.5v-36.387c6.378.927 12.381 3.019 17.792 6.05v39.521c0 4.142 3.357 7.5 7.5 7.5s7.5-3.358 7.5-7.5v-26.904c7.27 8.936 11.638 20.323 11.638 32.714v3.725c0 19.012 4.583 38.003 13.254 54.92l7.189 14.029h-12.576c-13.244 0-25.136-8.38-29.59-20.853-1.394-3.9-5.688-5.933-9.586-4.541-3.901 1.393-5.934 5.685-4.541 9.585 2.061 5.769 5.198 10.945 9.137 15.334-.741 15.636-7.397 30.728-18.526 41.791l-5.121 5.09c-.867.861-2.275.862-3.143 0l-5.122-5.091c-11.128-11.061-17.783-26.154-18.525-41.79 3.938-4.389 7.076-9.566 9.136-15.335 1.393-3.901-.641-8.192-4.541-9.585-3.903-1.393-8.192.64-9.586 4.541-4.453 12.472-16.345 20.852-29.589 20.852h-12.574l7.189-14.029c2.927-5.712 5.427-11.754 7.428-17.959 1.271-3.942-.894-8.168-4.835-9.44s-8.169.893-9.44 4.835c-1.754 5.438-3.941 10.728-6.502 15.723l-9.833 19.187c-1.835 3.581-1.678 7.768.421 11.201 2.098 3.433 5.752 5.482 9.775 5.482h18.372c7.349 0 14.416-1.747 20.725-4.904 2.795 15.741 10.391 30.515 21.805 41.86l5.122 5.09c3.349 3.329 7.746 4.993 12.145 4.993s8.798-1.665 12.146-4.993l5.121-5.09c11.415-11.346 19.003-26.122 21.798-41.864 6.311 3.16 13.381 4.909 20.733 4.909h18.371c4.023 0 7.678-2.049 9.776-5.482s2.256-7.62.421-11.201l-9.833-19.188c-7.591-14.81-11.604-31.436-11.604-48.079v-3.725c0-26.59-15.588-49.604-38.104-60.394v-9.777c0-13.301-9.057-24.521-21.326-27.83v-17.28c0-36.52 29.711-66.231 66.231-66.231s66.231 29.711 66.231 66.231v175.149 130.265c-10.247-11.034-24.864-17.955-41.073-17.955h-6.305c-26.243 0-47.593 21.351-47.593 47.594 0 13.394 4.812 26.366 13.547 36.528 2.7 3.141 7.436 3.497 10.577.798 3.141-2.7 3.498-7.436.798-10.577-6.398-7.442-9.922-16.942-9.922-26.75 0-17.972 14.621-32.594 32.593-32.594h6.305c22.647 0 41.072 18.425 41.072 41.072v9.478l-38.556-20.35c-3.666-1.933-8.201-.53-10.134 3.132-1.934 3.664-.531 8.2 3.132 10.134l45.558 24.045v6.155h-38.897c-2.544 0-5.132-.246-7.691-.73-4.068-.769-7.993 1.904-8.765 5.974-.771 4.07 1.904 7.994 5.974 8.764 3.478.658 7.005.992 10.482.992h38.898v33.353c0 4.142 3.357 7.5 7.5 7.5s7.5-3.358 7.5-7.5v-33.354h38.897c30.918 0 56.072-25.154 56.072-56.072 0-26.243-21.35-47.593-47.593-47.593h-6.306c-16.208 0-30.825 6.921-41.071 17.953v-130.259-175.15c0-36.52 29.711-66.231 66.231-66.231s66.23 29.711 66.23 66.231v17.28c-12.269 3.31-21.326 14.53-21.326 27.83v9.777c-22.516 10.79-38.104 33.804-38.104 60.394v3.725c0 16.643-4.012 33.269-11.603 48.079l-9.834 19.187c-1.835 3.581-1.678 7.767.421 11.2 2.098 3.433 5.753 5.483 9.776 5.483h18.372c7.349 0 14.416-1.747 20.724-4.904 2.799 15.741 10.392 30.515 21.806 41.86l5.121 5.092c3.35 3.328 7.748 4.992 12.146 4.992s8.797-1.665 12.145-4.993l5.122-5.091c11.415-11.346 19.001-26.123 21.795-41.866 6.312 3.161 13.382 4.91 20.735 4.91h18.372c4.023 0 7.678-2.049 9.775-5.482 2.106-3.432 2.263-7.619.428-11.199zm-369.464-141.163v4.686c-4.463-.941-9.087-1.444-13.826-1.444s-9.363.503-13.826 1.444v-4.686c0-7.624 6.202-13.826 13.826-13.826s13.826 6.202 13.826 13.826zm182.208 257.348h6.306c17.972 0 32.593 14.622 32.593 32.594 0 22.647-18.425 41.072-41.072 41.072h-38.897v-6.154l45.558-24.045c3.663-1.934 5.065-6.47 3.132-10.134-1.932-3.662-6.469-5.067-10.134-3.132l-38.556 20.35v-9.478c-.002-22.648 18.423-41.073 41.07-41.073zm85.064-257.348c0-7.624 6.202-13.826 13.826-13.826s13.826 6.202 13.826 13.826v4.686c-4.463-.941-9.087-1.444-13.826-1.444s-9.363.503-13.826 1.444zm73.624 142.846c-13.244 0-25.135-8.38-29.589-20.852-1.394-3.9-5.687-5.933-9.586-4.541-3.901 1.393-5.934 5.685-4.541 9.585 2.061 5.769 5.198 10.944 9.136 15.333-.741 15.637-7.397 30.73-18.525 41.791l-5.122 5.091c-.867.859-2.275.861-3.143 0l-5.121-5.091c-11.128-11.061-17.783-26.155-18.525-41.791 3.938-4.389 7.075-9.565 9.136-15.333 1.393-3.901-.64-8.192-4.541-9.585-3.899-1.393-8.192.639-9.586 4.541-4.454 12.472-16.345 20.852-29.589 20.852h-12.576l7.19-14.029c8.67-16.918 13.253-35.909 13.253-54.92v-3.725c0-12.391 4.368-23.777 11.638-32.714v26.904c0 4.142 3.357 7.5 7.5 7.5s7.5-3.358 7.5-7.5v-39.521c5.411-3.031 11.414-5.123 17.792-6.05v36.387c0 4.142 3.357 7.5 7.5 7.5s7.5-3.358 7.5-7.5v-36.387c6.378.927 12.381 3.019 17.792 6.05v39.521c0 4.142 3.357 7.5 7.5 7.5s7.5-3.358 7.5-7.5v-26.904c7.27 8.936 11.638 20.323 11.638 32.714v3.725c0 19.01 4.583 38.001 13.254 54.92l7.189 14.029z"/></g></g></svg>