<svg id="Capa_1" enable-background="new 0 0 510.916 510.916" height="512" viewBox="0 0 510.916 510.916" width="512" xmlns="http://www.w3.org/2000/svg"><g><path d="m265.988 479.273h-25.747c-13.711 0-24.827-11.115-24.827-24.827v-8.191c0-3.832 3.107-6.939 6.939-6.939h18.808c13.711 0 24.827 11.115 24.827 24.827z" fill="#80d261"/><path d="m290.157 464.274h-24.16v-19.464c0-21.542 17.463-39.005 39.005-39.005h17.403c3.732 0 6.757 3.025 6.757 6.757v12.707c0 21.542-17.463 39.005-39.005 39.005z" fill="#80d261"/><circle cx="135.335" cy="293.627" fill="#f9f7f8" r="58.264"/><g id="XMLID_211_"><g><path d="m319.093 46.372c57.067 0 103.324 46.258 103.324 103.306 0 57.067-46.258 103.324-103.324 103.324s-103.306-46.258-103.306-103.324c0-57.048 46.24-103.306 103.306-103.306z" fill="#f9f7f8"/></g></g><g id="XMLID_176_"><g><path d="m319.098 93.292c31.15 0 56.4 25.25 56.4 56.39 0 31.15-25.25 56.4-56.4 56.4s-56.39-25.25-56.39-56.4c0-31.14 25.24-56.39 56.39-56.39z" fill="#fee45a"/></g></g><path d="m285.838 149.682c0-27.177 19.226-49.863 44.825-55.198-3.734-.778-7.601-1.192-11.565-1.192-31.15 0-56.39 25.25-56.39 56.39 0 31.15 25.24 56.4 56.39 56.4 3.965 0 7.832-.402 11.565-1.18-25.599-5.336-44.825-28.035-44.825-55.22z" fill="#fedf30"/><circle cx="135.823" cy="293.627" fill="#fee45a" r="39.801"/><path d="m133.344 328.912c-19.487-10.171-27.039-34.213-16.869-53.7 5.767-11.05 15.995-18.257 27.323-20.577-16.959-3.477-34.85 4.465-43.259 20.577-10.171 19.487-2.618 43.529 16.869 53.7 8.437 4.403 17.728 5.479 26.377 3.708-3.553-.729-7.066-1.947-10.441-3.708z" fill="#fedf30"/><g><path d="m442.526 144.269 7.904-8.629c2.797-3.055 2.589-7.799-.465-10.597-3.054-2.796-7.798-2.589-10.597.465l-10.872 11.87-46.335 2.033c-1.488-9.197-4.964-17.952-10.283-25.736-2.337-3.42-7.003-4.297-10.424-1.96-3.42 2.337-4.297 7.004-1.96 10.424 5.56 8.136 8.499 17.661 8.499 27.546 0 26.961-21.935 48.896-48.896 48.896s-48.896-21.935-48.896-48.896 21.935-48.896 48.896-48.896c6.505 0 12.828 1.261 18.793 3.748 3.824 1.594 8.215-.213 9.809-4.037 1.593-3.823-.214-8.215-4.037-9.809-5.486-2.286-11.203-3.763-17.065-4.448v-46.392l10.344-10.343c2.929-2.929 2.929-7.677 0-10.606-2.928-2.929-7.677-2.929-10.606 0l-7.237 7.237-8.275-8.275c-2.929-2.93-7.678-2.929-10.606 0-2.929 2.929-2.929 7.678 0 10.606l11.381 11.381v46.393c-4.232.497-8.337 1.407-12.276 2.692l-19.438-42.119 5.057-13.727c1.432-3.887-.558-8.198-4.445-9.63-3.889-1.431-8.199.558-9.63 4.445l-3.538 9.604-10.981-4.046c-3.887-1.431-8.198.558-9.63 4.445s.558 8.198 4.445 9.63l15.103 5.564 19.444 42.131c-3.582 2.205-6.927 4.755-9.997 7.601l-35.323-30.118-1.16-14.582c-.329-4.129-3.942-7.213-8.071-6.882-4.129.329-7.21 3.942-6.882 8.071l.812 10.202-11.666.928c-4.129.329-7.21 3.942-6.882 8.071.328 4.128 3.937 7.206 8.071 6.882l16.045-1.276 35.311 30.108c-2.322 3.469-4.31 7.178-5.925 11.08l-44.663-12.536-7.163-12.755c-2.029-3.611-6.602-4.896-10.212-2.866-3.611 2.028-4.895 6.6-2.866 10.212l5.012 8.924-10.203 5.731c-3.611 2.028-4.895 6.6-2.866 10.212 2.027 3.611 6.599 4.894 10.212 2.866l14.034-7.882 44.653 12.533c-.507 3.236-.775 6.551-.775 9.927 0 .88.031 1.752.067 2.623l-45.808 7.333-11.849-8.579c-3.357-2.429-8.044-1.678-10.474 1.677-2.429 3.355-1.678 8.044 1.677 10.474l8.29 6.002-6.863 9.478c-2.429 3.355-1.679 8.044 1.676 10.473 1.329.962 2.868 1.426 4.392 1.426 2.324 0 4.614-1.076 6.081-3.102l9.439-13.038 45.808-7.333c1.158 4.075 2.709 7.984 4.613 11.686l-38.531 25.861-14.353-2.824c-4.059-.8-8.007 1.847-8.807 5.911s1.847 8.007 5.911 8.807l10.042 1.976-2.259 11.482c-.8 4.064 1.847 8.007 5.911 8.807.489.096.976.143 1.456.143 3.511 0 6.647-2.478 7.351-6.054l3.107-15.792 38.547-25.873c2.732 3.181 5.768 6.088 9.067 8.681l-24.157 39.643-14.215 3.45c-4.025.977-6.497 5.032-5.52 9.058.833 3.431 3.902 5.733 7.283 5.733.585 0 1.181-.069 1.775-.213l9.946-2.414 2.76 11.372c.833 3.431 3.902 5.733 7.283 5.733.585 0 1.181-.069 1.775-.213 4.025-.977 6.496-5.032 5.52-9.058l-3.797-15.642 24.145-39.623c3.778 1.738 7.751 3.115 11.88 4.093l-5.319 46.084-11.462 9.09c-3.245 2.574-3.79 7.292-1.216 10.537 1.481 1.867 3.67 2.84 5.881 2.84 1.633 0 3.277-.531 4.656-1.624l8.019-6.36 7.271 9.168c1.481 1.867 3.67 2.84 5.881 2.84 1.633 0 3.277-.531 4.655-1.624 3.246-2.574 3.79-7.292 1.216-10.537l-10.002-12.611 5.318-46.077c4.28-.012 8.463-.446 12.508-1.265l14.478 44.058-6.598 13.056c-1.868 3.697-.386 8.208 3.311 10.077 1.085.548 2.239.808 3.377.808 2.74 0 5.379-1.506 6.7-4.119l4.616-9.135 10.444 5.278c1.085.548 2.239.808 3.377.808 2.74 0 5.379-1.506 6.7-4.119 1.868-3.697.386-8.208-3.311-10.077l-14.366-7.259-14.484-44.078c3.822-1.784 7.439-3.931 10.806-6.404l31.633 33.965-.52 14.618c-.147 4.14 3.089 7.615 7.229 7.762.091.003.181.005.271.005 4.019 0 7.347-3.185 7.49-7.233l.364-10.229 11.695.416c.09.003.181.005.271.005 4.019 0 7.347-3.185 7.49-7.234.147-4.139-3.089-7.614-7.229-7.761l-16.085-.571-31.639-33.971c2.707-3.188 5.109-6.642 7.156-10.32l42.943 17.579 5.654 13.491c1.204 2.874 3.988 4.603 6.92 4.603.966 0 1.949-.188 2.896-.585 3.82-1.601 5.619-5.996 4.018-9.816l-3.956-9.439 10.793-4.523c3.82-1.601 5.619-5.996 4.018-9.816s-5.997-5.62-9.816-4.018l-14.845 6.221-42.932-17.574c1.108-3.986 1.836-8.125 2.148-12.381l46.352-2.034 10.788 9.881c1.44 1.318 3.254 1.969 5.064 1.969 2.03 0 4.053-.819 5.533-2.434 2.798-3.055 2.589-7.799-.465-10.597z"/><path d="m472.22 83.388-9.749-3.114 3.56-11.148c1.26-3.946-.917-8.166-4.863-9.426-3.943-1.258-8.166.917-9.426 4.863l-4.897 15.333-47.491 24.497c-3.682 1.899-5.126 6.422-3.228 10.104 1.332 2.582 3.954 4.063 6.672 4.063 1.157 0 2.332-.269 3.432-.836l47.492-24.497 13.935 4.451c.759.242 1.527.357 2.284.357 3.175 0 6.125-2.033 7.143-5.22 1.259-3.946-.918-8.167-4.864-9.427z"/><path d="m474.333 19.504-10.233-.176.201-11.7c.071-4.142-3.229-7.556-7.371-7.627-4.176-.057-7.557 3.229-7.627 7.371l-.276 16.093-38.427 37.133c-2.979 2.878-3.06 7.626-.182 10.605 1.472 1.523 3.432 2.289 5.395 2.289 1.876 0 3.755-.7 5.21-2.106l38.428-37.133 14.627.25c.044 0 .087.001.131.001 4.082 0 7.426-3.274 7.497-7.372.068-4.142-3.232-7.557-7.373-7.628z"/><path d="m359.051 82.019c1.161.652 2.421.961 3.664.961 2.624 0 5.171-1.379 6.547-3.831l22.228-39.602 14.083-3.957c3.988-1.12 6.312-5.261 5.191-9.249-1.12-3.988-5.26-6.315-9.249-5.191l-9.853 2.769-3.166-11.266c-1.12-3.988-5.261-6.313-9.249-5.191-3.988 1.12-6.312 5.261-5.191 9.249l4.354 15.496-22.229 39.602c-2.026 3.611-.742 8.183 2.87 10.21z"/><path d="m60.915 365.905c-3.452-2.289-8.106-1.343-10.394 2.111l-9.956 15.031-5.344 1.085c-4.06.824-6.682 4.783-5.858 8.842.722 3.556 3.849 6.009 7.342 6.009.495 0 .997-.049 1.5-.151l1.039-.211.352 1.733c.722 3.556 3.849 6.009 7.342 6.009.495 0 .997-.049 1.5-.151 4.059-.824 6.682-4.783 5.857-8.843l-1.226-6.038 9.957-15.031c2.288-3.454 1.343-8.108-2.111-10.395z"/><path d="m211.351 336.561c-.398-4.123-4.06-7.141-8.187-6.744l-10.397 1.004-16.15-13.303c.387-.662.78-1.318 1.138-2.005 2.759-5.287 4.405-10.862 5.045-16.46l20.888-.926 6.941 6.352c1.439 1.317 3.253 1.967 5.062 1.967 2.031 0 4.056-.82 5.535-2.437 2.796-3.056 2.586-7.8-.469-10.596l-3.701-3.387 4.086-4.465c2.796-3.056 2.586-7.8-.47-10.596-3.055-2.796-7.799-2.587-10.596.47l-7.051 7.706-20.902.926c-1.326-6.391-3.967-12.481-7.773-17.85l14.904-14.676 9.409.073h.06c4.114 0 7.466-3.32 7.499-7.442.032-4.142-3.3-7.526-7.442-7.558l-5.016-.039.047-6.052c.032-4.142-3.3-7.525-7.442-7.558-.02 0-.039 0-.059 0-4.115 0-7.467 3.32-7.499 7.442l-.08 10.444-14.888 14.66c-1.916-1.407-3.962-2.686-6.133-3.819-3.756-1.96-7.659-3.355-11.611-4.234l1.248-20.865 7.039-6.244c3.099-2.749 3.382-7.489.633-10.587-2.748-3.099-7.488-3.383-10.587-.633l-3.753 3.329-4.016-4.527c-2.748-3.098-7.488-3.383-10.587-.633-3.099 2.749-3.382 7.489-.633 10.587l6.932 7.814-1.25 20.885c-12.947 1.314-25.15 7.926-33.23 18.785l-18.528-9.67-2.82-8.978c-1.242-3.952-5.452-6.15-9.403-4.907-3.952 1.242-6.148 5.452-4.907 9.403l1.503 4.785-5.773 1.814c-3.952 1.241-6.149 5.451-4.908 9.403s5.452 6.148 9.403 4.908l9.965-3.13 18.528 9.67c-2.122 6.353-2.808 12.938-2.199 19.351l-20.261 5.224-8.105-4.782c-3.568-2.106-8.166-.919-10.271 2.648s-.919 8.166 2.648 10.271l4.321 2.549-3.076 5.212c-2.105 3.567-.919 8.166 2.648 10.271 1.196.706 2.508 1.042 3.804 1.042 2.567 0 5.067-1.319 6.466-3.69l5.308-8.996 20.264-5.226c2.585 5.936 6.388 11.365 11.281 15.874l-11.543 17.425-9.222 1.873c-4.059.824-6.682 4.783-5.857 8.843.722 3.556 3.849 6.009 7.342 6.009.495 0 .997-.049 1.5-.151l4.916-.998 1.204 5.931c.722 3.556 3.849 6.009 7.342 6.009.495 0 .997-.049 1.5-.151 4.059-.824 6.682-4.783 5.857-8.842l-2.079-10.237 11.545-17.428c6.145 2.791 12.614 4.152 19.016 4.212l3.091 20.683-5.597 7.564c-2.464 3.33-1.762 8.026 1.567 10.49 1.342.993 2.905 1.472 4.456 1.472 2.296 0 4.563-1.051 6.035-3.039l2.984-4.033 4.865 3.6c1.342.993 2.905 1.472 4.456 1.472 2.296 0 4.563-1.051 6.035-3.039 2.464-3.33 1.762-8.026-1.567-10.49l-8.396-6.213-3.096-20.715c6.195-1.969 11.984-5.196 16.95-9.563l16.144 13.3.905 9.366c.375 3.878 3.639 6.779 7.457 6.779.241 0 .485-.012.73-.035 4.123-.398 7.143-4.063 6.744-8.187l-.482-4.993 6.024-.582c4.121-.398 7.14-4.063 6.742-8.186zm-65.847-12.117c-1.596.502-3.211.873-4.834 1.123-.024.003-.049.004-.073.007-.013.002-.026.006-.039.008-6.711 1.009-13.548-.118-19.68-3.319-1.001-.523-1.963-1.092-2.886-1.702-.002-.001-.004-.003-.007-.005-.001 0-.002-.001-.003-.002-13.617-9.008-18.511-27.088-10.795-41.872 5.757-11.031 17.031-17.352 28.689-17.352 5.029 0 10.133 1.177 14.892 3.661 15.79 8.241 21.931 27.791 13.69 43.581-1.035 1.982-2.257 3.826-3.638 5.52-.021.025-.046.047-.067.073-.013.016-.023.033-.036.048-3.936 4.781-9.167 8.331-15.213 10.231z"/><path d="m62.177 207.286 10.237 2.075 15.358 23.172c1.443 2.178 3.828 3.357 6.258 3.357 1.423 0 2.862-.405 4.137-1.25 3.453-2.288 4.396-6.942 2.108-10.395l-15.358-23.172 1.87-9.222c.823-4.059-1.801-8.018-5.86-8.841-4.061-.824-8.018 1.801-8.841 5.86l-.997 4.916-5.931-1.203c-4.061-.826-8.018 1.8-8.841 5.86-.824 4.062 1.8 8.02 5.86 8.843z"/><path d="m108.928 166.07-2.253 19.485c-.476 4.115 2.474 7.836 6.589 8.312.292.034.583.05.871.05 3.756 0 6.999-2.817 7.441-6.639l2.253-19.485 7.374-5.845c3.246-2.573 3.792-7.29 1.219-10.536-2.573-3.247-7.291-3.792-10.536-1.219l-3.931 3.116-3.76-4.743c-2.573-3.246-7.291-3.79-10.537-1.218-3.246 2.573-3.792 7.291-1.218 10.537z"/><path d="m347.558 308.195c0-4.142-3.358-7.5-7.5-7.5s-7.5 3.358-7.5 7.5c0 9.945-3.281 19.809-9.237 27.772l-52.599 70.327c-1.828 2.444-3.456 5.027-4.893 7.711-1.582-2.897-3.391-5.676-5.426-8.295l-31.019-39.919c-2.541-3.27-7.253-3.861-10.524-1.32-3.271 2.542-3.862 7.253-1.32 10.524l31.019 39.919c4.884 6.285 8.09 13.76 9.342 21.582-4.886-2.969-10.616-4.68-16.739-4.68h-18.808c-7.961 0-14.439 6.477-14.439 14.438v8.191c0 17.825 14.501 32.327 32.327 32.327h18.257v16.643c0 4.142 3.358 7.5 7.5 7.5s7.5-3.358 7.5-7.5v-31.641h16.66c5.439 0 10.775-.935 15.859-2.779 3.894-1.412 5.905-5.714 4.493-9.608s-5.714-5.905-9.608-4.493c-3.439 1.248-7.054 1.88-10.744 1.88h-16.66v-11.964c0-17.372 14.133-31.504 31.504-31.504h16.66v11.964c0 3.998-.748 7.907-2.222 11.619-1.529 3.85.352 8.209 4.202 9.738 3.849 1.53 8.21-.352 9.738-4.202 2.177-5.482 3.281-11.253 3.281-17.155v-12.707c0-7.861-6.396-14.257-14.257-14.257h-17.403c-3.602 0-7.105.425-10.474 1.204l40.805-54.558c7.884-10.541 12.225-23.595 12.225-36.757zm-89.07 163.578h-18.247c-9.554 0-17.327-7.773-17.327-17.327v-7.63h18.247c9.554 0 17.327 7.772 17.327 17.327z"/></g></g></svg>