<svg id="Capa_1" enable-background="new 0 0 512.454 512.454" height="512" viewBox="0 0 512.454 512.454" width="512" xmlns="http://www.w3.org/2000/svg"><g><path d="m480.553 79.548-30.3-61.71c-2.07-4.22-7.88-4.71-10.63-.9-1.95 2.7-3.86 5.44-5.7 8.21l-10.38 72.444 3.986 144.639 6.394 48.406 22-2.78c19.06-4.39 34.33-18.79 39.76-37.72 6.18-21.53 9.24-43.63 9.24-65.68 0-36.079-8.2-71.99-24.37-104.909z" fill="#97da7b"/><g id="XMLID_213_"><g><path d="m438.993 50.678c13.22 66.58 14.27 135 3.09 201.96l-8.16 38-40.64-99.78-5.11-36.34 5.72-30.82c3.58-19.26 9.27-38.02 16.94-55.92 6.36-14.85 14.08-29.13 23.09-42.63z" fill="#80d261"/></g></g><g><path d="m337.341 171.539c0-8.871 10.931-13.007 16.608-6.251 54.214 64.52 83.803 145.685 83.803 231.167v110.775c0 1.606 1.302 2.907 2.907 2.907h24.186c1.606 0 2.907-1.302 2.907-2.907v-110.776c0-101.866-38.725-198.084-109.041-270.93s-164.426-114.243-264.995-116.565c-.087-.002-.175-.003-.262-.004l-70.874-.381c-8.284-.045-15.036 6.72-15.08 15.109-.044 8.389 6.636 15.225 14.92 15.27l26.925.145c3.31.018 5.984 2.74 5.984 6.092v57.691h30v-57.465c0-3.377 2.713-6.11 6.048-6.092l1.784.01c26.536.623 52.583 4.198 77.767 10.559 4.004 1.011 6.812 4.661 6.812 8.84v124.041h30v-107.996c0-6.473 6.495-10.906 12.401-8.428 28.656 12.024 55.703 27.907 80.496 47.366 4.245 3.331 6.703 8.487 6.703 13.925v190.2h26.943l.882-42.205z" fill="#ade194"/></g><path d="m382.277 363.631c4.466-9.538 6.73-20.311 6.112-31.675-1.832-33.685-29.252-60.859-62.952-62.396-37.941-1.73-69.245 28.518-69.245 66.078 0 9.986 2.221 19.449 6.186 27.936 1.451 3.107 2.185 6.499 2.185 9.928v33.978l-4.947 14.825c-1.493 4.475 2.511 8.85 7.1 7.757l27.365-6.514c1.315-.313 2.698-.174 3.925.395l21.803 10.112c1.605.745 3.457.745 5.063 0l21.803-10.112c1.227-.569 2.609-.708 3.925-.395l27.365 6.514c4.59 1.093 8.594-3.282 7.1-7.757l-4.947-14.825v-33.976c.001-3.409.714-6.787 2.159-9.873z" fill="#f9f7f8"/><g><path d="m292.256 417.597 4.947-14.825v-33.978c0-3.429-.734-6.821-2.185-9.928-3.964-8.487-6.186-17.95-6.186-27.936 0-27.5 16.791-51.063 40.673-61.042-1.346-.146-2.699-.265-4.066-.328-37.941-1.73-69.245 28.518-69.245 66.078 0 9.986 2.221 19.449 6.186 27.936 1.451 3.107 2.185 6.499 2.185 9.928v33.978l-4.947 14.825c-1.493 4.475 2.511 8.85 7.1 7.757l26.905-6.405c-1.453-1.518-2.13-3.773-1.367-6.06z" fill="#efedef"/></g><path d="m243.816 220.726c3.648-7.79 5.497-16.588 4.992-25.87-1.497-27.511-23.891-49.705-51.414-50.96-30.987-1.413-56.554 23.291-56.554 53.967 0 8.156 1.814 15.885 5.052 22.816 1.185 2.537 1.785 5.308 1.785 8.109v27.751l-4.04 12.108c-1.22 3.655 2.051 7.228 5.799 6.335l22.35-5.32c1.074-.256 2.203-.142 3.205.323l17.807 8.258c1.311.608 2.824.608 4.135 0l17.807-8.258c1.002-.465 2.131-.578 3.205-.323l22.35 5.32c3.748.892 7.019-2.68 5.799-6.335l-4.04-12.108v-27.749c-.001-2.784.582-5.543 1.762-8.064z" fill="#f9f7f8"/><path d="m106.125 129.565c2.667-5.696 4.019-12.13 3.65-18.917-1.094-20.117-17.47-36.346-37.596-37.264-22.659-1.033-41.355 17.032-41.355 39.463 0 5.964 1.327 11.615 3.694 16.684.867 1.855 1.305 3.881 1.305 5.929v20.292l-2.954 8.854c-.892 2.673 1.5 5.285 4.24 4.633l16.343-3.89c.786-.187 1.611-.104 2.344.236l13.021 6.039c.959.445 2.065.445 3.023 0l13.021-6.039c.733-.34 1.558-.423 2.344-.236l16.343 3.89c2.741.652 5.132-1.96 4.241-4.633l-2.954-8.854v-20.291c.001-2.035.427-4.052 1.29-5.896z" fill="#f9f7f8"/><g><path d="m359.661 158.472c-4.633-5.444-11.972-7.364-18.697-4.893-6.757 2.486-11.124 8.737-11.124 15.927v92.877c-1.35-.139-2.703-.254-4.062-.316-3.688-.17-7.341-.063-10.938.296v-136.208c0-7.66-3.592-15.017-9.608-19.679-7.757-6.013-15.87-11.782-24.112-17.147-3.471-2.26-8.117-1.279-10.377 2.193-2.26 3.471-1.278 8.117 2.194 10.377 7.899 5.143 15.673 10.671 23.107 16.433 2.378 1.843 3.797 4.767 3.797 7.823v139.305c-10.485 3.35-20.15 9.067-28.371 16.921-14.688 14.034-22.778 32.947-22.778 53.256 0 10.854 2.318 21.321 6.891 31.111.968 2.072 1.48 4.407 1.48 6.753v32.759l-4.561 13.67c-1.552 4.651-.459 9.787 2.852 13.404s8.332 5.157 13.1 4.023l26.864-6.395 21.336 9.895c1.808.838 3.747 1.257 5.687 1.257s3.88-.419 5.687-1.257l21.336-9.895 26.865 6.395c4.771 1.134 9.79-.406 13.1-4.023 3.311-3.617 4.403-8.753 2.851-13.404l-4.561-13.669v-32.758c0-2.352.501-4.666 1.45-6.692 5.115-10.923 7.47-23.117 6.809-35.263-.419-7.708-2.063-15.287-4.886-22.524-1.504-3.858-5.852-5.767-9.713-4.262-3.859 1.505-5.767 5.854-4.262 9.713 2.244 5.752 3.55 11.771 3.883 17.887.534 9.822-1.288 19.272-5.416 28.087-1.875 4.004-2.866 8.518-2.866 13.053v33.976c0 .807.13 1.608.386 2.374l4.103 12.294-24.771-5.896c-2.943-.7-6.075-.385-8.815.888l-21.179 9.822-21.177-9.821c-2.742-1.273-5.874-1.588-8.818-.888l-24.77 5.896 4.102-12.295c.255-.765.386-1.567.386-2.374v-33.978c0-4.525-1-9.056-2.89-13.102-3.637-7.787-5.481-16.119-5.481-24.763 0-16.173 6.442-31.234 18.14-42.411 5.933-5.669 12.815-9.933 20.271-12.669l-.647.863c-14.537 19.386-22.543 43.407-22.543 67.638 0 4.142 3.358 7.5 7.5 7.5s7.5-3.358 7.5-7.5c0-21.007 6.941-41.833 19.544-58.639l1.383-1.845v68.42c0 4.142 3.358 7.5 7.5 7.5s7.5-3.358 7.5-7.5v-68.42l1.384 1.845c12.603 16.807 19.543 37.632 19.543 58.639 0 4.142 3.358 7.5 7.5 7.5s7.5-3.358 7.5-7.5c0-24.231-8.006-48.252-22.542-67.638l-.559-.746c6.522 2.436 12.635 6.026 17.972 10.648 3.132 2.712 7.869 2.372 10.58-.759s2.372-7.868-.759-10.58c-7.521-6.514-16.277-11.399-25.618-14.427v-96.051c0-1.132.708-1.63 1.302-1.849.83-.307 1.532-.125 2.094.536 26.441 31.075 46.932 66.102 60.904 104.107 14.008 38.103 21.111 78.247 21.111 119.316v112.267c0 4.142 3.358 7.5 7.5 7.5s7.5-3.358 7.5-7.5v-112.264c0-42.841-7.413-84.726-22.032-124.492-14.585-39.67-35.97-76.225-63.561-108.652z"/><path d="m487.289 76.243-30.302-61.713c-2.143-4.364-6.315-7.215-11.16-7.626-4.848-.419-9.438 1.696-12.286 5.637-14.361 19.873-25.985 41.645-34.549 64.709-1.442 3.883.537 8.2 4.42 9.642 3.884 1.443 8.2-.537 9.642-4.42 4.764-12.831 10.536-25.234 17.242-37.1l1.343 6.764c11.399 57.398 13.647 115.641 6.735 173.501-11.641-24.746-25.93-48.305-42.725-70.311l5.619-30.262c.765-4.121 1.688-8.451 2.745-12.869.963-4.029-1.522-8.075-5.551-9.038-4.026-.96-8.075 1.522-9.038 5.551-1.115 4.665-2.092 9.247-2.904 13.618l-3.264 17.58c-6.11-7.222-12.505-14.255-19.18-21.084-71.695-73.347-167.65-115.028-270.193-117.366l-71.263-.382c-6.045-.017-11.673 2.279-15.945 6.506s-6.642 9.865-6.675 15.874c-.032 6.01 2.279 11.673 6.506 15.945s9.865 6.643 15.875 6.675l25.449.135v25.348c-3.579 1.959-6.93 4.396-9.968 7.299-9.375 8.957-14.538 21.028-14.538 33.991 0 6.928 1.48 13.609 4.399 19.858.393.84.6 1.792.6 2.755v19.074l-2.568 7.699c-1.274 3.817-.377 8.033 2.341 11.001 2.716 2.968 6.836 4.231 10.75 3.301l15.024-3.577 11.79 5.468c1.483.688 3.076 1.033 4.669 1.033 1.592 0 3.184-.344 4.667-1.032l11.792-5.468 15.023 3.576c3.916.93 8.034-.333 10.752-3.301 2.717-2.968 3.614-7.184 2.34-11.001l-2.569-7.698v-19.073c0-.965.201-1.904.582-2.716 3.266-6.973 4.769-14.754 4.347-22.504-.897-16.49-10.624-30.906-24.434-38.562v-25.232l.226.001c25.734.602 51.323 4.035 76.058 10.205.664.166 1.128.764 1.128 1.454v83.33c-6.519 2.851-12.558 6.858-17.874 11.936-12.271 11.724-19.028 27.524-19.028 44.49 0 9.068 1.937 17.813 5.757 25.992.707 1.511 1.08 3.217 1.08 4.933v26.532l-3.655 10.953c-1.425 4.272-.421 8.989 2.62 12.311s7.648 4.737 12.031 3.694l21.477-5.112 16.992 7.88c1.661.77 3.442 1.155 5.224 1.155s3.563-.385 5.222-1.155l16.993-7.88 21.477 5.112c4.38 1.042 8.992-.372 12.032-3.694 3.041-3.322 4.044-8.039 2.618-12.31l-3.654-10.953v-26.531c0-1.72.365-3.408 1.055-4.882 0 0 0 0 0-.001 4.273-9.126 6.24-19.313 5.688-29.457-.825-15.167-7.273-29.459-18.156-40.246-6.563-6.505-14.393-11.373-22.899-14.375v-65.878c0-.665.366-1.049.673-1.254.432-.288.887-.333 1.356-.14 9.621 3.986 19.25 8.514 28.619 13.457 3.663 1.932 8.2.53 10.133-3.134s.53-8.2-3.134-10.133c-9.777-5.158-19.829-9.884-29.875-14.047-5.083-2.107-10.851-1.536-15.431 1.525-4.597 3.071-7.341 8.202-7.341 13.727v62.625c-.833-.073-1.668-.135-2.506-.173-4.235-.195-8.415.034-12.494.668v-78.966c0-7.589-5.139-14.172-12.498-16.007-25.829-6.443-52.546-10.025-79.408-10.648-.045-.001-.09-.001-.135-.002l-1.783-.009c-.025 0-.05 0-.075 0-3.596 0-6.978 1.395-9.529 3.933-2.57 2.556-3.985 5.959-3.985 9.583v21.502c-1.743-.286-3.513-.485-5.309-.567-3.286-.149-6.528.037-9.691.54v-21.699c0-7.414-6.031-13.477-13.444-13.516l-26.924-.143c-4.135-.022-7.482-3.404-7.46-7.54.01-2.003.801-3.882 2.225-5.292 1.424-1.409 3.353-2.202 5.315-2.168l70.872.376.133.002c98.597 2.248 190.865 42.327 259.803 112.856 68.938 70.528 106.904 163.684 106.904 262.308v112.264c0 4.142 3.358 7.5 7.5 7.5s7.5-3.358 7.5-7.5v-112.264c0-33.454-4.204-66.303-12.352-97.928 19.259-6.3 34.335-21.775 39.992-41.48 16.845-58.676 11.304-121.169-15.603-175.965zm-245.97 119.021c.424 7.793-1.021 15.29-4.295 22.281-1.617 3.452-2.471 7.34-2.471 11.244v27.75c0 .807.13 1.608.386 2.374l2.568 7.697-17.825-4.243c-2.704-.645-5.58-.354-8.098.814l-16.719 7.753-16.717-7.752c-1.642-.762-3.436-1.151-5.234-1.151-.961 0-1.924.111-2.865.335l-17.826 4.243 2.568-7.697c.255-.765.386-1.567.386-2.374v-27.75c0-3.896-.861-7.797-2.489-11.283-2.885-6.175-4.347-12.784-4.347-19.642 0-12.83 5.111-24.778 14.391-33.645 4.362-4.167 9.374-7.371 14.792-9.548-7.194 15.856-11 34.563-11 54.154 0 4.142 3.358 7.5 7.5 7.5s7.5-3.358 7.5-7.5c0-17.413 3.504-34.612 9.868-48.43l1.907-4.141 1.907 4.141c6.363 13.817 9.868 31.017 9.868 48.43 0 4.142 3.358 7.5 7.5 7.5s7.5-3.358 7.5-7.5c0-19.817-3.888-38.734-11.243-54.705l-.324-.703c18.107 5.656 31.747 22.273 32.812 41.848zm-141.986-68.88c-1.307 2.79-1.997 5.929-1.997 9.077v20.292c0 .807.13 1.608.386 2.374l.73 2.189-9.508-2.263c-2.414-.575-4.984-.317-7.237.728l-11.377 5.276-11.376-5.275c-1.468-.681-3.07-1.028-4.677-1.028-.859 0-1.719.1-2.56.299l-9.509 2.264.73-2.19c.255-.765.386-1.567.386-2.374v-20.292c0-3.141-.695-6.289-2.009-9.104-1.984-4.247-2.99-8.792-2.99-13.51 0-8.826 3.516-17.046 9.9-23.145 4.157-3.971 9.172-6.676 14.605-7.974v26.08c0 4.142 3.358 7.5 7.5 7.5s7.5-3.358 7.5-7.5v-26.068c13.386 3.279 23.688 15.179 24.457 29.316.291 5.364-.703 10.52-2.954 15.328zm389.141 121.686c-4.215 14.68-15.352 26.238-29.607 31.131-2.717-9.071-5.765-18.031-9.136-26.864 11.097-67.59 9.965-135.92-3.381-203.123l-4.461-22.466c.847-1.239 1.703-2.471 2.572-3.695l29.363 59.801c25.264 51.449 30.466 110.124 14.65 165.216z"/></g></g></svg>