<svg id="Capa_1" enable-background="new 0 0 511.071 511.071" height="512" viewBox="0 0 511.071 511.071" width="512" xmlns="http://www.w3.org/2000/svg"><g><path d="m203.992 479.416c-23.68-83.542-56.685-164.155-98.392-240.316l-31.009-56.625c-3.287-6.003 3.991-12.196 9.408-8.013 102.967 79.489 119.993 174.313 119.993 174.313z" fill="#80d261"/><path d="m203.992 496.37 42.658-41.17c9.283-8.96 20.086-16.197 31.903-21.375l29.732-13.027c5.006-2.194 4.348-9.495-.97-10.757l-10.624-2.521c-25.021-5.938-51.335 1.473-69.579 19.596l-23.119 22.965v46.289z" fill="#97da7b"/><path d="m373.228 126.785 14.045 16.068c21.081 24.118 32.7 55.064 32.7 87.097v69.178c0 13.04 2.495 25.959 7.351 38.06l9.599 23.924c1.319 3.288-1.102 6.867-4.644 6.867-17.154 0-33.377-7.801-44.087-21.201l-16.873-21.109-47.904-74.676 10.845-139.939h26.621z" fill="#82aee3"/><path d="m317.339 325.669-16.873 21.109c-10.71 13.399-26.933 21.201-44.087 21.201-3.542 0-5.963-3.58-4.644-6.867l9.599-23.924c4.856-12.102 7.351-25.021 7.351-38.06v-69.178c0-32.033 11.618-62.979 32.7-87.097l14.045-16.068 21.473-24.278 19.879 21.827-8.171 157.738z" fill="#82aee3"/><path d="m274.286 361.112 9.599-23.924c4.856-12.102 7.351-25.021 7.351-38.061v-69.178c0-32.033 11.618-62.979 32.7-87.096l14.045-16.068 10.363-11.717-11.44-12.562-21.473 24.278-14.045 16.068c-21.082 24.118-32.7 55.064-32.7 87.096v69.178c0 13.04-2.495 25.959-7.351 38.061l-9.599 23.924c-1.319 3.288 1.102 6.867 4.644 6.867 6.192 0 12.257-1.031 17.991-2.96-.531-1.175-.624-2.563-.085-3.906z" fill="#528fd8"/><path d="m358.509 135.516 12.116 32.725c8.155 22.027 12.33 45.328 12.33 68.816v19.209c0 38.81-10.622 76.88-30.714 110.084l-3.668 6.062c-1.934 3.196-6.57 3.196-8.504 0l-3.668-6.062c-20.093-33.204-30.714-71.274-30.714-110.084v-19.209c0-23.488 4.175-46.789 12.33-68.816l12.116-32.725 2.35-27.778h21.735z" fill="#528fd8"/><path d="m355.535 135.516h-22.429c-8.717 0-15.783-7.066-15.783-15.783v-2.029c0-14.91 12.087-26.998 26.998-26.998 14.91 0 26.998 12.087 26.998 26.998v2.029c0 8.717-7.067 15.783-15.784 15.783z" fill="#80d261"/><path d="m336.821 119.733v-2.029c0-11.472 7.158-21.265 17.249-25.176-3.025-1.172-6.31-1.822-9.749-1.822-14.911 0-26.998 12.087-26.998 26.998v2.029c0 8.717 7.067 15.783 15.783 15.783h19.498c-8.717 0-15.783-7.066-15.783-15.783z" fill="#68ca44"/><g><path d="m443.883 358.319-9.599-23.925c-4.52-11.264-6.812-23.13-6.812-35.267v-69.178c0-33.856-12.271-66.541-34.554-92.032l-14.045-16.068c-.046-.053-.097-.098-.145-.15.055-.649.089-1.304.089-1.967v-2.029c0-16.446-11.571-30.232-26.998-33.667v-6.373c.002-42.823-34.839-77.663-77.663-77.663s-77.664 34.84-77.664 77.664v225.5c-2.111-4.773-4.499-9.835-7.2-15.14-15.976-31.38-46.417-77.585-100.71-119.5-5.237-4.042-12.406-3.866-17.435.432-5.018 4.289-6.307 11.329-3.135 17.121l31.009 56.625c17.046 31.128 32.898 63.607 47.115 96.535 1.641 3.803 6.057 5.555 9.858 3.913 3.803-1.642 5.555-6.056 3.913-9.858-14.401-33.355-30.459-66.258-47.73-97.795l-28.225-51.541c49.011 39.048 76.846 81.322 91.672 110.287 15.12 29.541 20.077 51.454 20.866 55.266v80.021c-7.407-22.384-15.496-44.631-24.236-66.518-1.536-3.847-5.899-5.721-9.747-4.184-3.847 1.536-5.72 5.9-4.184 9.747 14.632 36.64 27.466 74.285 38.167 111.907v23.088c0 4.142 3.358 7.5 7.5 7.5s7.5-3.358 7.5-7.5v-4.016l40.366-38.958c8.672-8.369 18.667-15.065 29.706-19.902l29.732-13.027c5.285-2.315 8.364-7.525 7.846-13.271-.518-5.747-4.48-10.32-10.095-11.653l-10.625-2.521c-27.736-6.583-56.372 1.481-76.596 21.573l-10.333 10.265v-354.396c0-34.553 28.111-62.664 62.664-62.664 34.554 0 62.665 28.111 62.665 62.664v6.373c-15.427 3.435-26.998 17.221-26.998 33.667v2.029c0 .668.035 1.327.09 1.981-.043.047-.089.088-.131.136l-14.043 16.067c-22.282 25.491-34.554 58.175-34.554 92.032v69.178c0 12.137-2.292 24.003-6.811 35.267l-9.6 23.925c-1.547 3.858-1.081 8.217 1.248 11.661s6.201 5.499 10.358 5.499c19.541 0 37.745-8.754 49.945-24.018l8.667-10.844c4.23 10.197 9.233 20.1 14.992 29.616l3.668 6.062c2.278 3.765 6.267 6.013 10.667 6.014h.002c4.4 0 8.389-2.248 10.669-6.014l3.668-6.062c5.761-9.52 10.766-19.428 14.997-29.629l8.678 10.857c12.2 15.264 30.404 24.018 49.945 24.018 4.157 0 8.029-2.056 10.357-5.5 2.331-3.443 2.797-7.802 1.249-11.66zm-211.486 74.118c16.519-16.409 39.907-22.998 62.562-17.62l5.378 1.276-24.793 10.862c-12.673 5.552-24.146 13.24-34.103 22.848l-29.949 28.905v-25.507zm92.426-314.733c0-10.751 8.747-19.498 19.498-19.498s19.498 8.747 19.498 19.498v2.029c0 4.567-3.716 8.283-8.284 8.283h-22.429c-4.567 0-8.283-3.716-8.283-8.283zm26.998 234.138v-26.766c0-4.142-3.357-7.5-7.5-7.5s-7.5 3.358-7.5 7.5v26.767c-15.491-29.416-23.635-62.209-23.635-95.576v-19.209c0-5.811.276-11.736.822-17.61.383-4.125-2.649-7.778-6.774-8.162-4.116-.39-7.778 2.649-8.161 6.774-.589 6.333-.887 12.725-.887 18.998v19.209c0 23.166 3.663 46.073 10.745 67.91l-14.323 17.919c-8.554 10.701-20.962 17.221-34.481 18.242l8.169-20.357c5.235-13.049 7.89-26.793 7.89-40.853v-69.178c0-30.226 10.955-59.404 30.848-82.161l9.901-11.328c1.146 1.108 2.404 2.099 3.757 2.956l-9.708 26.221c-2.3 6.211-4.339 12.688-6.06 19.251-1.051 4.007 1.346 8.106 5.353 9.157.638.167 1.277.247 1.907.247 3.327 0 6.366-2.231 7.25-5.6 1.597-6.09 3.486-12.095 5.616-17.848l10.303-27.829h1.468v114.731c0 4.142 3.357 7.5 7.5 7.5s7.5-3.358 7.5-7.5v-114.731h1.467l10.303 27.829c7.872 21.262 11.863 43.539 11.863 66.212v19.209c.001 33.369-8.143 66.162-23.633 95.576zm42.229-9.746-14.335-17.935c7.079-21.832 10.739-44.734 10.739-67.895v-19.209c0-24.457-4.306-48.486-12.797-71.42l-9.708-26.221c1.357-.859 2.618-1.853 3.767-2.965l9.91 11.338c19.892 22.757 30.847 51.936 30.847 82.16v69.178c0 14.06 2.654 27.804 7.89 40.853l8.168 20.358c-13.519-1.021-25.927-7.541-34.481-18.242z"/><path d="m344.321 279.855c-4.143 0-7.5 3.358-7.5 7.5v4.864c0 4.142 3.357 7.5 7.5 7.5s7.5-3.358 7.5-7.5v-4.864c0-4.142-3.358-7.5-7.5-7.5z"/></g></g></svg>