<svg id="Capa_1" enable-background="new 0 0 511.134 511.134" height="512" viewBox="0 0 511.134 511.134" width="512" xmlns="http://www.w3.org/2000/svg"><g><path d="m271.423 468.021 31.106 3.511c17.034 1.923 33.851-5.098 44.462-18.56 6.924-8.785 10.671-19.654 10.631-30.839l-.035-10.098c-.017-4.774-5.094-7.827-9.318-5.603l-76.846 40.458-15.661 8.338v9.898z" fill="#97da7b"/><path d="m239.711 468.021-31.106 3.511c-17.034 1.923-33.851-5.098-44.462-18.56-6.924-8.785-10.671-19.654-10.631-30.839l.036-10.098c.017-4.774 5.094-7.827 9.318-5.603l76.846 40.458 13.733 6.626v12.043z" fill="#80d261"/><path d="m322.239 103.033-17.034-37.08c-9.806-21.345-24.17-40.281-42.083-55.476-4.646-3.941-11.463-3.941-16.109 0-17.913 15.195-32.277 34.131-42.083 55.476l-17.034 37.08-18.376 61.23 72.062 32.572h27.972l80.505-20.301z" fill="#fe8f83"/><path d="m196.776 167.883 18.376-61.23 17.034-37.08c9.132-19.879 22.233-37.672 38.457-52.296-2.431-2.341-4.94-4.61-7.522-6.8-4.646-3.941-11.463-3.941-16.109 0-17.913 15.195-32.277 34.131-42.083 55.476l-17.034 37.08-18.376 61.23 72.062 32.572h19.247z" fill="#fe7c66"/><path d="m205.241 310.766-19.74 4.102c-24.844 5.162-50.517 4.816-75.212-1.013-6.406-1.512-10.777-7.438-10.329-14.005 1.724-25.316 8.976-49.946 21.244-72.157l18.647-33.758 27.726-44.11 95.201 38.137 15.976 97.274z" fill="#fe8f83"/><path d="m239.99 287.92-19.74 4.102c-24.844 5.162-50.517 4.816-75.212-1.013-6.406-1.512-10.777-7.438-10.329-14.005 1.724-25.316 8.976-49.946 21.244-72.157l18.647-33.758 9.265-14.74-16.287-6.524-27.726 44.11-18.647 33.758c-12.269 22.211-19.52 46.841-21.244 72.157-.447 6.567 3.924 12.493 10.329 14.005 24.696 5.829 50.369 6.175 75.212 1.013l19.74-4.102 73.511-25.531-1.675-10.196z" fill="#fe7c66"/><path d="m370.633 194.567 18.298 33.126c12.269 22.211 19.52 46.841 21.244 72.157.447 6.567-3.924 12.493-10.329 14.005-24.696 5.829-50.369 6.175-75.212 1.013l-19.74-4.102-57.144-16.863 5.695-111.367 83.281-48.509z" fill="#fe8f83"/><g><path d="m268.227 510.551c1.54 0 2.788-1.248 2.788-2.788v-146.033l.389-56.374c.011-1.547-1.24-2.807-2.787-2.807h-25.709c-1.54 0-2.788 1.248-2.788 2.788v56.393 146.034c0 1.54 1.248 2.788 2.788 2.788h25.319z" fill="#ade194"/></g><g><path d="m276.026 196.834c16.593 17.774 36.993 46.118 36.993 78.051 0 40.687-33.119 75.55-49.283 90.142-4.926 4.447-12.411 4.447-17.337 0-16.164-14.592-49.283-49.455-49.283-90.142 0-31.63 20.014-59.735 36.519-77.538l17.667-9.385h11.475z" fill="#ffa799"/></g><path d="m263.689 356.724c-16.164-14.592-49.283-49.455-49.283-90.142 0-31.63 20.014-59.735 36.519-77.538l2.037-1.082h-1.66l-17.667 9.385c-16.505 17.803-36.519 45.908-36.519 77.538 0 40.687 33.119 75.55 49.283 90.142 4.926 4.447 12.411 4.447 17.337 0 1.714-1.547 3.627-3.336 5.663-5.322-2.065-.485-4.036-1.47-5.71-2.981z" fill="#fe8f83"/><path d="m255.567 189.724s-.569-55.677 38.707-77.689c35.495-19.893 93.55-5.945 120.009 5.845 3.743 1.668 4.797 6.479 2.073 9.54l-7.46 8.383c-7.375 8.286-13.58 17.543-18.444 27.512l-6.37 13.057c-13.81 28.305-46.593 41.826-76.341 31.487z" fill="#ffa799"/><path d="m255.567 189.724s.569-55.677-38.707-77.689c-35.495-19.893-93.55-5.945-120.009 5.845-3.743 1.668-4.798 6.479-2.073 9.54l7.46 8.383c7.375 8.286 13.58 17.543 18.444 27.512l6.37 13.057c13.81 28.305 46.593 41.826 76.341 31.487z" fill="#ffa799"/><path d="m221.595 198.233c-29.749 10.34-62.532-3.182-76.342-31.487l-6.37-13.057c-4.864-9.969-11.07-19.226-18.444-27.512l-7.46-8.383c-1.431-1.608-1.81-3.696-1.314-5.56-5.59 1.84-10.604 3.769-14.814 5.645-3.743 1.668-4.798 6.479-2.073 9.54l7.46 8.383c7.375 8.286 13.58 17.543 18.444 27.512l6.37 13.057c13.81 28.305 46.593 41.826 76.342 31.487l52.173-18.133s.011-1.185-.089-3.267z" fill="#fe8f83"/><g><path d="m397.192 166.603c4.565-9.356 10.388-18.042 17.307-25.815l7.46-8.382c2.859-3.213 4.026-7.64 3.121-11.843-.907-4.213-3.803-7.777-7.744-9.534-12.262-5.464-28.307-10.271-44.021-13.189-4.063-.751-7.985 1.932-8.743 6.004-.756 4.073 1.932 7.987 6.005 8.744 13.829 2.568 27.851 6.673 38.837 11.352l-6.12 6.876c-7.828 8.796-14.417 18.623-19.582 29.21l-6.37 13.057c-12.135 24.872-40.996 36.778-67.14 27.69l-17.521-6.089 20.104-4.857c4.025-.973 6.501-5.025 5.528-9.051-.972-4.026-5.024-6.503-9.052-5.529l-42.773 10.333-.077-.027 32.169-22.759c3.381-2.392 4.183-7.073 1.791-10.454-2.393-3.381-7.072-4.185-10.455-1.791l-24.136 17.076c3.64-16.413 12.166-37.842 32.161-49.048 10.707-6 24.675-9.042 41.524-9.042.219 0 .445 0 .658.001 4.126 0 7.48-3.336 7.499-7.467.019-4.142-3.324-7.515-7.467-7.533-4.61-.024-9.044.167-13.311.556l-14.824-32.27c-10.193-22.189-25.425-42.268-44.047-58.064-7.479-6.343-18.334-6.344-25.813 0-18.622 15.797-33.854 35.875-44.047 58.064l-14.802 32.22c-9.495-.807-19.764-.632-30.674.58-20.243 2.25-42.239 8.009-58.839 15.406-3.942 1.756-6.838 5.32-7.745 9.533-.905 4.203.262 8.631 3.121 11.844l7.46 8.383c6.919 7.773 12.741 16.458 17.307 25.814l6.37 13.057c2.789 5.717 6.279 10.888 10.31 15.469l-15.984 28.938c-12.712 23.013-20.375 49.042-22.161 75.274-.7 10.275 6.066 19.449 16.089 21.813 8.938 2.11 18.181 3.549 27.468 4.276.199.016.397.023.594.023 3.877 0 7.161-2.985 7.47-6.915.323-4.129-2.763-7.739-6.892-8.063-8.524-.667-17.001-1.987-25.194-3.921-2.847-.672-4.768-3.277-4.569-6.196 1.639-24.059 8.667-47.933 20.327-69.04l14.259-25.814c7.102 5.143 15.109 8.897 23.569 11.082l-12.549 6.607c-3.665 1.93-5.072 6.465-3.143 10.13 1.344 2.551 3.947 4.007 6.644 4.007 1.177 0 2.373-.278 3.487-.865l35.164-18.514c.202-.106.394-.224.582-.345 3.376-.633 6.743-1.508 10.074-2.666l5.525-1.92c-3.503 5.073-6.825 10.509-9.779 16.244l-32.844 20.944c-3.493 2.227-4.519 6.864-2.291 10.356 1.43 2.243 3.854 3.468 6.33 3.468 1.38 0 2.776-.38 4.025-1.177l15.652-9.981c-1.813 7.078-2.86 14.438-2.86 22.009 0 9.965 1.814 20.107 5.385 30.349l-11.026 2.291c-5.113 1.063-10.453 1.9-15.871 2.488-4.117.447-7.094 4.147-6.646 8.265.417 3.843 3.667 6.691 7.447 6.691.27 0 .543-.015.818-.044 5.897-.64 11.72-1.553 17.304-2.714l13.959-2.9c2.432 4.841 5.245 9.697 8.45 14.558 7.427 11.268 15.826 20.886 23.186 28.345v72.466l-66.26-34.884c-4.325-2.278-9.409-2.133-13.597.386s-6.699 6.94-6.716 11.827l-.035 10.098c-.046 12.825 4.301 25.435 12.24 35.508 10.944 13.885 27.29 21.74 44.669 21.739 2.161 0 4.342-.122 6.525-.368l23.173-2.616v27.265c0 4.142 3.357 7.5 7.5 7.5s7.5-3.358 7.5-7.5v-129.172c2.392.94 4.918 1.42 7.447 1.42 2.885 0 5.765-.629 8.447-1.853v8.234c0 4.142 3.357 7.5 7.5 7.5s7.5-3.358 7.5-7.5v-21.07c7.115-7.309 15.092-16.562 22.186-27.322 3.205-4.862 6.018-9.717 8.45-14.558l13.958 2.9c12.067 2.507 24.438 3.759 36.815 3.759 14.023 0 28.053-1.607 41.645-4.816 10.022-2.365 16.789-11.539 16.089-21.813-1.786-26.232-9.449-52.261-22.161-75.274l-15.599-28.241c4.294-4.75 7.995-10.159 10.926-16.166zm-185.447-97.519c9.284-20.211 23.157-38.499 40.119-52.888 1.855-1.574 4.551-1.574 6.406 0 16.962 14.389 30.835 32.677 40.119 52.888l13.08 28.473c-7.704 1.828-14.68 4.471-20.862 7.936-3.833 2.148-7.43 4.682-10.804 7.537l.983-23.381c.174-4.139-3.04-7.634-7.178-7.808-4.143-.187-7.636 3.04-7.809 7.178l-1.79 42.585c-3.281 5.328-6.11 11.188-8.442 17.554-2.333-6.366-5.162-12.226-8.442-17.554l-1.79-42.585c-.174-4.139-3.688-7.37-7.809-7.178-4.138.174-7.352 3.669-7.178 7.808l.983 23.381c-3.374-2.856-6.971-5.389-10.804-7.537-6.382-3.577-13.687-6.29-21.777-8.121zm-10.813 131.688c-26.144 9.086-55.004-2.818-67.14-27.69l-6.37-13.057c-5.165-10.586-11.754-20.414-19.582-29.209l-6.119-6.875c12.005-5.096 31.546-11.072 52.574-13.41 16.956-1.884 40.937-2.018 58.897 8.047 19.905 11.156 28.444 32.585 32.111 49.013l-24.087-17.041c-3.385-2.395-8.063-1.59-10.455 1.791s-1.59 8.062 1.791 10.454l32.169 22.759-.077.027-42.773-10.333c-4.031-.973-8.08 1.503-9.052 5.529-.973 4.026 1.503 8.079 5.528 9.051l20.104 4.857zm6.833 263.308c-14.566 1.646-28.664-4.245-37.731-15.75-5.852-7.424-9.056-16.718-9.021-26.17l.028-8.211 71.579 37.685v9.642zm43.658-104.621c-14.073-12.706-46.808-46.381-46.808-84.575 0-25.423 14.33-48.752 28.452-65.568l-2.703 34.102c-.327 4.129 2.755 7.742 6.884 8.069.202.016.402.024.601.024 3.874 0 7.157-2.98 7.469-6.908l3.536-44.607 6.713-2.333 6.713 2.333 3.536 44.607c.312 3.928 3.595 6.908 7.469 6.908.198 0 .399-.008.601-.024 4.129-.327 7.211-3.94 6.884-8.069l-2.598-32.779c13.812 16.77 27.347 39.515 27.347 64.245 0 38.194-32.734 71.869-46.809 84.575-2.075 1.875-5.207 1.877-7.287 0zm151.269-59.099c.198 2.918-1.723 5.523-4.569 6.195-23.47 5.54-48.354 5.876-71.964.969l-11.025-2.291c3.57-10.241 5.385-20.384 5.385-30.349 0-7.846-1.126-15.461-3.062-22.776l16.854 10.748c1.249.797 2.646 1.177 4.025 1.177 2.476 0 4.9-1.226 6.33-3.468 2.228-3.493 1.202-8.129-2.291-10.356l-33.449-21.331c-.267-.17-.542-.315-.82-.447-2.931-5.595-6.211-10.903-9.662-15.865l6.835 2.375c3.332 1.158 6.699 2.033 10.075 2.667.188.121.379.238.581.344l35.164 18.514c1.115.587 2.31.865 3.487.865 2.695 0 5.301-1.457 6.644-4.007 1.93-3.665.522-8.201-3.143-10.13l-12.55-6.608c8.176-2.111 15.93-5.689 22.852-10.569l13.977 25.303c11.659 21.107 18.687 44.98 20.326 69.04z"/><path d="m358.371 400.182c-4.19-2.519-9.272-2.664-13.597-.386l-66.26 34.884v-20.457c0-4.142-3.357-7.5-7.5-7.5s-7.5 3.358-7.5 7.5v89.411c0 4.142 3.357 7.5 7.5 7.5s7.5-3.358 7.5-7.5v-27.265l23.173 2.616c2.186.247 4.363.368 6.525.368 17.378 0 33.726-7.855 44.669-21.739 7.939-10.073 12.286-22.684 12.24-35.507l-.035-10.098c-.016-4.887-2.527-9.309-6.715-11.827zm-17.271 48.147c-9.068 11.506-23.175 17.393-37.731 15.75l-24.854-2.806v-9.642l71.579-37.685.028 8.212c.034 9.453-3.17 18.747-9.022 26.171z"/></g></g></svg>