<svg id="Capa_1" enable-background="new 0 0 512.573 512.573" height="512" viewBox="0 0 512.573 512.573" width="512" xmlns="http://www.w3.org/2000/svg"><g><g><path d="m332.089 300.244c-2.232 4.075-5.069 7.907-8.52 11.358-14.06 14.06-34.405 18-51.99 11.824-10.604-3.725-22.054-3.725-32.659 0-17.585 6.177-37.93 2.236-51.99-11.824-3.431-3.431-6.253-7.239-8.479-11.287l-17.39-47.751 86.408-89.664h24.514l72.218 59.455z" fill="#fee45a"/></g><g><path d="m409.752 164.702c2.706-4.388 4.785-9.265 6.058-14.55 4.656-19.331-2.601-38.743-17.047-50.52-8.711-7.102-14.687-16.869-17.044-27.859-3.908-18.223-17.887-33.522-37.219-38.178-4.25-1.023-8.503-1.46-12.679-1.382l-46.294 5.967-33.437 129.846 75.067 27.87 72.955-3.112z" fill="#fef0ae"/></g><path d="m282.132 143.291 44.245-52.936c17.151-19.654 16.37-49.515-2.35-68.235-14.06-14.06-34.406-18-51.99-11.824-10.605 3.725-22.054 3.725-32.659 0-17.585-6.177-37.93-2.236-51.99 11.824-3.092 3.091-5.683 6.491-7.796 10.094l-14.088 41.429 70.079 91.031h32.501z" fill="#fee97d"/><path d="m249.08 134.555-22.735-67.354c-7.814-24.887-33.695-39.804-59.432-33.605-19.331 4.656-33.31 19.955-37.219 38.178-2.357 10.99-8.333 20.757-17.044 27.859-14.446 11.777-21.702 31.188-17.047 50.52 1.273 5.285 3.352 10.161 6.058 14.55l23.421 25.408 122.989-21.657z" fill="#fedf30"/><g id="XMLID_218_"><g><path d="m255.147 159.681-7.51 41.5-25.59 66.29c-8.88 24.53-35.38 38.32-60.83 31.02-9.55-2.74-17.66-8.08-23.77-15.04-6.1-6.95-10.21-15.52-11.77-24.7-1.88-11.08-7.43-21.1-15.83-28.57-13.93-12.38-20.34-32.09-14.86-51.2 6.3-21.95 26.31-36.25 48.06-36.25 3.46 0 6.97.37 10.48 1.12l70.26 13.52z" fill="#fed402"/></g></g><path d="m286.411 157.601 71.476-13.755c25.504-5.474 51.244 9.685 58.542 35.133 5.482 19.113-.934 38.819-14.861 51.205-8.398 7.47-13.949 17.484-15.832 28.565-3.122 18.375-16.431 34.26-35.545 39.741-25.448 7.299-51.945-6.494-60.821-31.022l-25.989-67.303-11.292-33.272z" fill="#fee97d"/><g><path d="m165.214 222.355c-2.637 0-5.193-1.392-6.563-3.86-2.011-3.621-.706-8.187 2.916-10.198l58.678-32.584 17.594-10.051c3.592-2.054 8.177-.805 10.232 2.792s.804 8.178-2.793 10.232l-17.673 10.096-58.757 32.628c-1.152.641-2.402.945-3.634.945z" fill="#fed402"/></g><path d="m278.302 478.662h-22.664v-11.431c0-14.57 11.811-26.381 26.381-26.381h16.862c3.204 0 5.802 2.598 5.802 5.802v5.629c0 14.57-11.811 26.381-26.381 26.381z" fill="#80d261"/><path d="m232.974 464.184h22.664v-11.431c0-14.57-11.811-26.381-26.381-26.381h-16.862c-3.204 0-5.802 2.598-5.802 5.802v5.629c0 14.569 11.811 26.381 26.381 26.381z" fill="#80d261"/><path d="m252.69 204.628c-7.189-5.425-14.841-9.024-22.857-10.75-1.016-.219-1.785-1.023-1.955-2.048-1.395-8.404-4.53-16.171-9.366-23.2-.613-.891-.593-2.059.052-2.927 5.251-7.066 8.727-14.76 10.383-22.983.208-1.033 1.022-1.818 2.061-1.988 8.427-1.375 16.229-4.512 23.307-9.37.851-.584 1.956-.596 2.812-.019 6.909 4.667 19.238 8.764 23.471 10.094.904.284 1.548 1.061 1.694 1.997 1.344 8.643 4.519 16.62 9.484 23.826.543.788.604 1.808.129 2.639-2.221 3.882-8.512 15.306-10.383 23.319-.232.995-1.038 1.733-2.047 1.893-8.651 1.368-16.63 4.572-23.836 9.573-.897.623-2.078.602-2.949-.056z" fill="#e19974"/><path d="m259.986 195.87c-4.977-1.808-8.846-5.818-10.411-10.869-.999-3.224-2.112-6.417-3.689-9.402-2.731-5.169-2.68-11.343.179-16.426 1.076-1.913 2.034-3.866 2.872-5.857 2.995-7.112 8.731-12.716 15.966-15.399.958-.355 1.906-.736 2.844-1.141-3.832-1.602-7.713-3.468-10.628-5.438-.851-.575-1.952-.562-2.799.02-7.079 4.86-14.883 7.998-23.311 9.374-1.04.17-1.854.956-2.062 1.989-1.656 8.222-5.131 15.916-10.381 22.981-.646.869-.666 2.038-.052 2.929 4.835 7.029 7.97 14.795 9.365 23.199.17 1.025.94 1.829 1.955 2.047 8.015 1.726 15.667 5.324 22.856 10.749.872.658 2.053.678 2.951.056 3.461-2.402 7.106-4.378 10.913-5.946-2.158-1.101-4.347-2.059-6.568-2.866z" fill="#dc8758"/><path d="m423.638 176.911c-1.257-4.385-3.009-8.535-5.184-12.409 2.032-3.996 3.593-8.214 4.647-12.593 5.151-21.383-2.542-44.184-19.599-58.089-7.44-6.066-12.437-14.233-14.449-23.619-4.615-21.516-21.414-38.746-42.796-43.896-3.374-.812-6.821-1.312-10.289-1.504-1.94-2.813-4.146-5.491-6.639-7.983-15.552-15.554-39.015-20.893-59.778-13.598-9.059 3.18-18.633 3.181-27.689 0-20.764-7.295-44.226-1.956-59.779 13.597-2.448 2.448-4.659 5.127-6.63 7.979-3.436.196-6.879.686-10.296 1.509-21.382 5.15-38.181 22.38-42.796 43.897-2.013 9.385-7.009 17.552-14.449 23.618-17.057 13.905-24.75 36.706-19.6 58.088 1.056 4.386 2.62 8.612 4.659 12.617-2.171 3.841-3.933 7.982-5.196 12.387-.253.883-.478 1.768-.688 2.653-.953 4.031 1.541 8.072 5.572 9.025.581.138 1.161.204 1.732.203 3.398 0 6.477-2.325 7.293-5.775.155-.659.321-1.318.509-1.973 6.144-21.418 28.001-34.536 49.759-29.868.053.011.104.022.157.032l59.547 11.459c-1.11 2.184-1.366 4.684-.766 7.023l-25.247.81c-15.917.51-31.451 6.368-43.742 16.495-3.197 2.634-3.653 7.361-1.02 10.558 1.482 1.8 3.629 2.731 5.792 2.731 1.679 0 3.368-.561 4.765-1.711 9.747-8.03 22.064-12.675 34.686-13.08l17.518-.562-42.075 23.364c-3.622 2.011-4.927 6.577-2.916 10.198 1.37 2.468 3.927 3.86 6.563 3.86 1.231 0 2.481-.304 3.634-.945l44.113-24.496-9.961 16.98c-6.39 10.892-16.358 19.49-28.07 24.211-3.842 1.548-5.701 5.918-4.152 9.76 1.178 2.923 3.989 4.698 6.959 4.698.933 0 1.883-.175 2.801-.546 14.771-5.954 27.343-16.797 35.4-30.534l11.956-20.38c.123.031.237.08.361.106 3.401.732 6.747 1.873 10.02 3.403l-23.229 60.153c-.02.05-.038.1-.057.149-7.572 20.927-30.278 32.509-51.7 26.365-15.631-4.483-27.492-17.746-30.218-33.788-2.154-12.678-8.633-24.367-18.242-32.914-4.446-3.954-8.096-8.933-10.553-14.399-1.699-3.778-6.142-5.462-9.916-3.765-3.778 1.698-5.464 6.138-3.766 9.916 3.366 7.487 8.166 14.034 14.267 19.458 7.172 6.379 11.813 14.753 13.422 24.218 3.686 21.694 19.729 39.63 40.871 45.694 5.033 1.443 10.115 2.156 15.137 2.211 2.133 3.229 4.585 6.245 7.335 8.994 15.551 15.551 39.015 20.889 59.778 13.597 9.058-3.182 18.633-3.181 27.688 0 3.855 1.354 7.802 2.272 11.774 2.771l-1.205 19.437c-1.009 16.268-6.116 32.166-14.771 45.976-5.675 9.057-10.001 18.808-12.903 28.966-6.016-5.453-13.992-8.781-22.732-8.781h-16.862c-7.335 0-13.302 5.967-13.302 13.302v5.629c0 18.682 15.199 33.881 33.881 33.881h14.671v33.39c0 4.142 3.357 7.5 7.5 7.5s7.5-3.358 7.5-7.5v-18.911h15.657c18.682 0 33.881-15.199 33.881-33.881v-5.629c0-7.334-5.967-13.302-13.302-13.302h-16.862c-6.265 0-12.135 1.716-17.175 4.693 2.385-11.071 6.68-21.691 12.759-31.392 9.979-15.924 15.868-34.255 17.03-53.013l1.269-20.464c12.271-1.678 23.952-7.25 32.971-16.269 2.748-2.749 5.199-5.762 7.331-8.988.095 0 .19.005.285.005 5.226 0 10.527-.719 15.771-2.222 21.143-6.064 37.186-24 40.871-45.694 1.608-9.464 6.25-17.838 13.422-24.217 16.445-14.623 23.152-37.734 17.087-58.876zm-209.545 260.891v-3.931h15.164c9.582 0 17.501 7.181 18.705 16.44-.157 2.116-.244 4.241-.282 6.372h-14.706c-10.411.001-18.881-8.469-18.881-18.881zm67.926 10.548h15.164v3.931c0 10.411-8.47 18.881-18.881 18.881h-15.164v-3.931c0-10.411 8.47-18.881 18.881-18.881zm-178.407-297.368c-.263-.854-.508-1.714-.718-2.586-3.808-15.809 1.882-32.668 14.495-42.95 9.967-8.126 16.941-19.526 19.637-32.099 3.413-15.911 15.833-28.652 31.642-32.46 12.625-3.039 25.763-.21 36.044 7.763 3.271 2.538 7.983 1.943 10.523-1.33 2.538-3.273 1.942-7.984-1.33-10.523-6.166-4.782-13.095-8.188-20.385-10.148 11.493-10.883 28.377-14.544 43.371-9.278 12.131 4.261 25.496 4.26 37.631 0 15.354-5.393 32.702-1.447 44.201 10.051 15.756 15.756 16.636 41.233 2.003 58-.035.041-.07.081-.104.122l-35.756 42.78 2.56-6.915c5.842-15.78 7.115-32.827 3.682-49.297-.845-4.055-4.815-6.656-8.872-5.812-4.055.845-6.657 4.818-5.812 8.873 2.856 13.708 1.797 27.895-3.064 41.029l-4.733 12.784c-1.421-.632-2.771-1.275-4-1.92v-53.423c0-4.142-3.357-7.5-7.5-7.5s-7.5 3.358-7.5 7.5v39.078l-15.455-45.786c-1.325-3.926-5.585-6.034-9.505-4.708-3.925 1.325-6.032 5.58-4.708 9.504l19.868 58.859c-2.841 1.104-5.783 1.937-8.812 2.507l-6.531-8.503c-8.879-11.561-20.958-19.865-34.932-24.013-3.974-1.178-8.146 1.084-9.324 5.055-1.18 3.971 1.084 8.146 5.055 9.325 10.923 3.243 20.364 9.733 27.305 18.77l8.232 10.718c-.411 1.496-.887 2.975-1.444 4.43l-64.355-12.384c-19.014-4.051-38.064 1.936-51.409 14.487zm122.988 16.337c4.143-6.194 7.139-12.835 8.94-19.814 7.188-1.555 13.982-4.293 20.267-8.167 6.265 3.566 14.414 6.566 19.621 8.308 1.54 7.563 4.373 14.685 8.448 21.241-2.65 4.837-6.604 12.587-8.763 19.402-7.391 1.542-14.355 4.319-20.78 8.288-6.246-4.269-12.844-7.364-19.684-9.238-1.548-7.107-4.246-13.817-8.049-20.02zm91.665 138.98c-11.499 11.499-28.852 15.442-44.201 10.051-12.133-4.262-25.497-4.262-37.63 0-15.354 5.393-32.703 1.447-44.202-10.052-.266-.266-.51-.552-.769-.824 16.883-5.076 31.204-17.773 37.603-35.376l19.072-49.391v52.354c0 4.142 3.357 7.5 7.5 7.5s7.5-3.358 7.5-7.5v-52.709l19.209 49.746c6.309 17.355 20.313 29.949 36.883 35.164-.322.345-.63.702-.965 1.037zm78.319-81.719c-9.608 8.546-16.087 20.235-18.24 32.913-2.727 16.042-14.588 29.305-30.219 33.788-21.42 6.146-44.128-5.438-51.7-26.365-.019-.05-.037-.1-.057-.149l-23.331-60.418c2.469-.797 5.005-1.417 7.61-1.829.513-.081 1.011-.202 1.494-.355l11.334 19.32c8.058 13.736 20.63 24.58 35.4 30.534.919.371 1.868.546 2.801.546 2.97 0 5.781-1.775 6.959-4.698 1.549-3.842-.311-8.212-4.152-9.76-11.712-4.721-21.681-13.319-28.07-24.211l-9.961-16.98 44.113 24.496c1.153.641 2.402.945 3.634.945 2.636 0 5.193-1.393 6.563-3.86 2.011-3.621.706-8.187-2.916-10.198l-42.075-23.364 17.518.562c12.621.405 24.938 5.05 34.686 13.08 1.396 1.151 3.085 1.711 4.765 1.711 2.163 0 4.31-.931 5.792-2.731 2.634-3.197 2.178-7.924-1.02-10.558-12.291-10.126-27.825-15.984-43.742-16.495l-24.115-.773c.239-2.326-.331-4.721-1.698-6.712l61.347-11.806c.052-.01.104-.021.155-.031.718-.154 1.435-.286 2.152-.402 4.089-.661 6.867-4.512 6.207-8.601-.662-4.089-4.515-6.871-8.602-6.207-.986.159-1.91.332-2.822.525l-27.635 5.318c10.745-6.056 19.832-14.866 26.165-25.549 2.111-3.563.936-8.164-2.628-10.276-3.563-2.113-8.163-.936-10.276 2.627-6.469 10.914-16.579 19.363-28.468 23.791l-18.222 6.786 36.75-43.969c13.259-15.236 17.057-35.761 11.683-54.052 15.318 4.102 27.285 16.61 30.624 32.174 2.695 12.573 9.67 23.973 19.637 32.1 12.613 10.282 18.303 27.141 14.495 42.95-.204.848-.442 1.685-.697 2.516-3.599-3.38-7.655-6.326-12.123-8.741-3.645-1.972-8.195-.613-10.165 3.03-1.97 3.644-.613 8.194 3.03 10.165 6.05 3.271 11.091 7.844 14.856 13.347.108.171.223.339.345.503 2.382 3.591 4.229 7.565 5.453 11.833 4.486 15.628-.474 32.715-12.634 43.53z"/></g></svg>