<svg id="Capa_1" enable-background="new 0 0 512.267 512.267" height="512" viewBox="0 0 512.267 512.267" width="512" xmlns="http://www.w3.org/2000/svg"><g><path d="m352.548 431.948-30.556 21.554c-16.885 11.911-36.869 18.098-55.928 17.317 5.658-18.216 18.192-34.966 35.077-46.876l30.556-21.554c10.994-7.755 23.399-13.149 36.113-15.704l18.862-3.789c2.167-.435 3.82 1.909 2.683 3.804l-9.898 16.497c-6.671 11.12-15.915 20.996-26.909 28.751z" fill="#80d261"/><path d="m159.9 433.132 30.556 21.554c16.885 11.911 36.869 18.098 55.928 17.317-5.658-18.216-18.192-34.966-35.077-46.876l-30.556-21.554c-10.994-7.755-23.399-13.149-36.113-15.704l-18.862-3.789c-2.167-.435-3.82 1.909-2.683 3.804l9.898 16.497c6.672 11.12 15.915 20.996 26.909 28.751z" fill="#80d261"/><g><path d="m268.173 511.231c1.882 0 3.408-1.526 3.408-3.408v-139.953-80.207h-30.895v83.296 136.864c0 1.882 1.526 3.408 3.408 3.408z" fill="#ade194"/></g><circle cx="376.135" cy="129.415" r="6.687"/><circle cx="361.624" cy="154.72" r="6.038"/><circle cx="300.391" cy="317.909" fill="#f28cc4" r="58.042"/><circle cx="217.465" cy="320.582" fill="#ed74b7" r="54.404"/><circle cx="155.586" cy="283.136" fill="#f28cc4" r="54.404"/><circle cx="124.275" cy="190.868" fill="#ed74b7" r="54.404"/><circle cx="134.951" cy="127.128" fill="#f28cc4" r="54.404"/><circle cx="212.958" cy="60.979" fill="#ed74b7" r="54.404"/><circle cx="300.391" cy="61.469" fill="#f28cc4" r="54.404"/><circle cx="353.425" cy="96.971" fill="#ed74b7" r="54.404"/><circle cx="393.708" cy="190.141" fill="#f28cc4" r="54.404"/><circle cx="370.42" cy="266.885" fill="#ed74b7" r="54.404"/><g fill="#f6a6d2"><circle cx="252.371" cy="290.148" r="63.092"/><circle cx="158.178" cy="223.361" r="63.092"/><circle cx="347.189" cy="223.361" r="63.092"/><circle cx="309.69" cy="108.016" r="63.092"/><circle cx="189.279" cy="111.025" r="63.092"/></g><circle cx="317.374" cy="270.706" fill="#f6c2e0" r="63.092"/><circle cx="205.56" cy="271.61" fill="#f6c2e0" r="63.092"/><circle cx="160.167" cy="166.903" fill="#f6c2e0" r="63.092"/><circle cx="256.143" cy="94.165" fill="#f6c2e0" r="63.092"/><circle cx="351.371" cy="158.955" fill="#f6c2e0" r="63.092"/><g id="XMLID_220_"><g><path d="m255.633 133.553c31.65 0 57.32 25.66 57.32 57.31 0 31.66-25.67 57.32-57.32 57.32s-57.32-25.66-57.32-57.32c0-31.65 25.67-57.31 57.32-57.31z" fill="#fee97d"/></g></g><path d="m230.959 190.863c0-25.978 17.298-47.907 40.997-54.938-5.175-1.535-10.65-2.372-16.323-2.372-31.65 0-57.32 25.66-57.32 57.31 0 31.66 25.67 57.32 57.32 57.32 5.673 0 11.148-.837 16.323-2.372-23.699-7.031-40.997-28.962-40.997-54.948z" fill="#fedf30"/><g id="XMLID_221_"><g><path d="m312.561 184.158-.238.226-14.58 12c-8.6 7.08-20.43 7.65-29.5 2.28-2.51-1.48-4.8-3.41-6.76-5.79-3.7-4.5-5.62-9.88-5.85-15.28.01-.36.02-.72.02-1.08 0-.23 0-.46-.02-.69.18-7.2 3.37-14.28 9.36-19.21l17.48-14.39 1.624-1.107c16.06 8.72 26.324 24.061 28.464 43.041z" fill="#fedf30"/><path d="m281.393 240.063-.073 2.054c-7.83 4.01-16.297 6.066-25.687 6.066-10.38 0-17.513-1.343-25.913-6.183l.153-1.937v-18.16c0-9.33 4.97-17.51 12.4-22.03 3.89-2.37 8.46-3.73 13.36-3.73 4.45 0 8.63 1.12 12.28 3.11 8.03 4.36 13.48 12.87 13.48 22.65z" fill="#fedf30"/><path d="m233.707 208.406c-2.423 3.928-3.833 8.547-3.833 13.498v18.16l-.152 1.923c7.784 3.954 16.582 6.196 25.908 6.197h.004c.955 0 1.895-.036 2.832-.078.418-.021.836-.04 1.251-.069.227-.015.45-.04.676-.057 3.983-.332 7.852-1.066 11.564-2.168-18.117-5.376-32.483-19.462-38.25-37.406z" fill="#fed402"/><path d="m255.633 175.823c-.03.59-.03 1.18 0 1.77-.23 5.4-2.15 10.78-5.85 15.28-2.23 2.7-4.89 4.84-7.81 6.38-8.91 4.73-20.18 3.94-28.45-2.87l-14.58-12-.26-.03c2.04-18.02 13.685-34.257 28.475-43.237l1.635 1.107 17.48 14.39c5.99 4.93 9.18 12.01 9.36 19.21z" fill="#fedf30"/><path d="m232.078 202.145c-.729-3.648-1.12-7.419-1.12-11.282 0-13.745 4.845-26.354 12.916-36.225l-15.081-12.415-1.62-1.097c-.093.053-.185.106-.278.16-13.736 8.443-24.715 23.142-27.715 39.692-.002.013-.005.027-.007.04-.173.958-.307 1.926-.426 2.896-.018.147-.039.293-.056.441l.251.029 14.58 12c5.404 4.449 12.087 6.312 18.556 5.761z" fill="#fed402"/></g></g><g><path d="m453.615 187.156c-.399-23.299-14.533-44.449-36.886-55.197-.202-.097-.408-.18-.614-.258-1.39-3.415-3.05-6.657-4.944-9.722 9.319-23.587 4.872-49.793-11.517-67.127-11.284-11.934-26.569-18.404-42.748-18.859-7.089-14.772-19.342-26.089-34.3-31.435-21.752-7.772-46.52-1.985-64.275 14.7-17.323-17.135-41.928-23.555-63.88-16.337-1.067.352-2.174.756-3.384 1.236-3.85 1.529-5.73 5.89-4.2 9.739 1.529 3.85 5.893 5.729 9.739 4.2.925-.367 1.753-.671 2.53-.926 12.96-4.263 27.238-2.125 39.226 5.314-12.842 3.619-24.262 11.073-33.183 21.146-11.366-2.902-22.951-3.032-33.799-.539 1.115-2.559 2.42-5.009 3.907-7.303 2.253-3.476 1.263-8.12-2.213-10.373-3.476-2.254-8.12-1.264-10.373 2.213-4.341 6.696-7.496 14.376-9.235 22.402-2.825 1.599-5.542 3.407-8.122 5.435-4.414 3.468-8.305 7.426-11.641 11.779-23.083 1.169-43.275 13.619-53.306 33.181-7.545 14.714-8.448 31.655-3.222 47.331-11.894 11.776-18.601 27.388-18.533 43.609.089 21.329 11.423 40.736 30.473 52.496.185.583.352 1.17.553 1.749 2.023 5.808 4.852 11.242 8.358 16.201-7.195 22.191-2.622 45.619 12.356 62 11.571 12.655 27.964 19.569 45.473 19.568 1.069 0 2.142-.027 3.218-.079 7.164 17.45 20.861 30.359 38.282 35.79 5.722 1.784 11.603 2.648 17.478 2.648 6.196 0 12.376-.985 18.351-2.848v7.417c0 4.143 3.358 7.5 7.5 7.5s7.5-3.357 7.5-7.5v-14.283c3.681-2.284 7.183-4.952 10.45-7.987 1.756 1.54 3.573 2.978 5.446 4.311v136.419c0 4.143 3.358 7.5 7.5 7.5s7.5-3.357 7.5-7.5v-28.291c14.431-.66 29.021-4.842 42.561-12.262 3.632-1.991 4.963-6.55 2.972-10.182-1.99-3.633-6.547-4.962-10.182-2.973-9.799 5.371-20.189 8.755-30.545 9.99 5.926-12.793 15.55-24.358 27.831-33.269l30.267-21.959c10.013-7.264 21.449-12.424 33.072-14.92l7.845-1.686-4.036 6.936c-5.98 10.273-14.433 19.544-24.446 26.809l-14.448 10.482c-3.353 2.433-4.099 7.122-1.667 10.475 2.433 3.352 7.122 4.1 10.475 1.666l14.448-10.482c11.689-8.48 21.58-19.34 28.602-31.404l9.678-16.629c2-3.436 1.782-7.735-.553-10.952-2.335-3.218-6.354-4.752-10.239-3.92l-18.81 4.04c-13.648 2.932-27.041 8.964-38.73 17.445l-30.267 21.959c-9.367 6.796-17.412 14.956-23.828 24v-63.26c7.133 2.703 14.623 4.119 22.119 4.119 6.447 0 12.896-1.037 19.117-3.175 21.96-7.544 37.729-27.674 41.083-51.948 2.498.271 4.987.419 7.454.419 21.583 0 41.554-10.184 52.906-27.656 11.255-17.324 12.613-39.237 4.074-58.897 17.639-12.151 28.134-31.538 27.782-52.086zm-14.998.258c.274 16.007-8.339 31.17-22.707 40.417-.135-.009-.27-.007-.406-.008.798-11.152-1.261-22.467-6.088-33.139 8.207-12.746 12.373-27.586 11.398-42.521 10.973 8.886 17.569 21.609 17.803 35.251zm-52.671 71.513c-1.754-11.697-6.224-23.304-13.47-33.8 10.002-4.095 18.758-9.955 25.981-17.026 3.078 10.399 2.958 21.228-.475 31.357-2.502 7.381-6.591 13.957-12.036 19.469zm-84.378 62.269c-.151-.051-.302-.105-.455-.146-12.07-3.952-22.907-11.621-31.13-22.176-8.791-11.282-8.1-29.169-5.38-43.826 4.985-.693 9.787-1.956 14.345-3.72l18.661 37.14c1.317 2.621 3.961 4.135 6.708 4.135 1.132 0 2.281-.258 3.361-.801 3.701-1.859 5.194-6.367 3.334-10.068l-18.792-37.401c3.28-2.251 6.347-4.791 9.155-7.591l33.571 24.847c1.342.993 2.906 1.472 4.456 1.472 2.296 0 4.563-1.051 6.034-3.038 2.464-3.329 1.763-8.026-1.566-10.49l-33.163-24.545c1.448-2.329 2.747-4.759 3.895-7.272 14.075 7.67 26.937 11.536 38.448 11.536 1.225 0 2.433-.048 3.628-.135.393.441.773.885 1.124 1.335 20.858 26.771 18.129 63.899-6.083 82.764-11.628 9.06-26.474 12.618-41.799 10.019-2.835-.483-5.623-1.168-8.352-2.039zm-50.224 23.852c-8.637.055-17.081-2.151-24.717-6.307 13.242-5.29 25.384-14.422 34.613-26.932 7.143 8.161 15.655 14.716 25.048 19.349-9.807 8.86-22.112 13.837-34.944 13.89zm-80.162-24.255c-12.347-8.053-20.536-20.937-23.058-36.275-2.563-15.587 1.01-31.813 10.06-45.687 7.76-11.898 24.726-17.064 39.348-19.278 1.91 3.852 4.192 7.484 6.798 10.857l-30.31 28.479c-3.019 2.836-3.167 7.582-.331 10.602 1.476 1.57 3.47 2.364 5.468 2.364 1.841 0 3.686-.674 5.134-2.034l30.509-28.666c3.072 2.499 6.372 4.728 9.871 6.639l-14.255 39.236c-1.415 3.894.595 8.196 4.488 9.61.846.308 1.71.453 2.561.453 3.065 0 5.942-1.894 7.05-4.94l14.082-38.759c3.471.947 7.052 1.62 10.727 1.977-2.817 17.163-1.797 31.467 3.022 42.756-.294.526-.596 1.04-.914 1.526-12.331 18.904-32.379 29.431-51.991 29.429-9.878 0-19.648-2.672-28.259-8.289zm-58.732-64.691c-.147-.199-.305-.391-.472-.576-3.48-4.417-6.243-9.396-8.142-14.848-3.707-10.646-3.677-22.267-.136-33.236 9.505 12.381 23.094 22.181 39.418 27.314-6.533 11.383-10.177 23.902-10.715 36.547-7.967-3.585-14.736-8.775-19.953-15.201zm66.193-142.513c13.903 3.506 24.373 18.099 31.25 31.4-2.419 2.412-4.639 5.02-6.655 7.786l-35.265-21.433c-3.541-2.15-8.153-1.025-10.305 2.514-2.151 3.54-1.026 8.153 2.514 10.305l35.667 21.678c-1.525 3.63-2.721 7.429-3.568 11.357l-41.705-3.263c-4.106-.322-7.738 2.765-8.061 6.894-.323 4.13 2.764 7.739 6.894 8.062l41.441 3.242c.086 4.478.628 8.844 1.582 13.058-17.048 2.921-30.18 8.518-39.257 16.707-.594-.107-1.189-.213-1.755-.356-32.908-8.299-53.574-39.264-46.068-69.025 7.505-29.764 40.383-47.227 73.291-38.926zm76.99 27.462c4.864 0 9.562.713 14.009 2.019l-9.417 7.755c-1.694 1.395-3.228 2.934-4.592 4.592-1.364-1.658-2.897-3.196-4.591-4.591l-9.418-7.756c4.448-1.306 9.146-2.019 14.009-2.019zm90.135-74.583c7.775 6.007 13.573 14.122 16.942 23.482-11.55-2.083-23.876-1.607-36.057 1.809-.759-13.155-4.598-25.413-10.744-35.949 10.953.396 21.267 4.021 29.859 10.658zm-20.475 41.526c.545-.229 1.089-.444 1.628-.63 32.096-11.027 66.322 3.617 76.296 32.645 9.973 29.028-8.025 61.616-40.122 72.645-13.71 4.708-30.666-1.974-43.827-9.511.689-3.576 1.077-7.256 1.149-11.013l41.441-3.242c4.13-.322 7.216-3.932 6.894-8.062-.322-4.129-3.937-7.214-8.061-6.894l-41.705 3.263c-.847-3.928-2.043-7.728-3.568-11.357l35.667-21.678c3.54-2.151 4.665-6.765 2.514-10.305-2.151-3.539-6.763-4.664-10.305-2.514l-35.265 21.433c-2.218-3.043-4.695-5.883-7.398-8.494 13.213-12.034 21.467-24.181 24.662-36.286zm-69.66 132.689c-6.445 0-12.601-1.244-18.26-3.482v-15.294c0-10.068 8.191-18.26 18.26-18.26 10.068 0 18.26 8.191 18.26 18.26v15.294c-5.658 2.238-11.815 3.482-18.26 3.482zm-14.126-78.279c3.765 3.1 6.097 7.48 6.567 12.335.034.348.036.694.05 1.042-.012.51-.012 1.02-.001 1.527-.167 3.938-1.578 7.702-4.128 10.798-3.101 3.765-7.481 6.098-12.336 6.567-4.85.468-9.602-.979-13.367-4.08l-11.51-9.478c2.522-12.658 9.86-23.594 20.011-30.829zm21.636 13.371c.014-.345.016-.689.05-1.036.47-4.854 2.802-9.235 6.567-12.336l14.713-12.117c10.152 7.236 17.489 18.171 20.011 30.829l-11.51 9.478c-3.766 3.101-8.517 4.546-13.367 4.08-4.855-.47-9.236-2.803-12.336-6.567-2.549-3.096-3.96-6.858-4.128-10.794.013-.511.012-1.023 0-1.537zm-56.376 24.759 1.99 1.638c4.691 3.864 10.22 6.312 16.075 7.203-1.58 3.87-2.459 8.099-2.459 12.531v6.007c-7.869-7.071-13.478-16.605-15.606-27.379zm82.126 27.38v-6.007c0-4.432-.878-8.661-2.459-12.531 5.855-.892 11.385-3.34 16.076-7.202l1.989-1.638c-2.128 10.773-7.737 20.307-15.606 27.378zm99.861-162.757c10.706 11.323 14.615 27.186 11.039 43.024-5.87-5.447-12.691-9.869-20.146-13.111-3.23-16.314-11.887-30.568-24.709-40.474-1.563-1.207-3.178-2.318-4.823-3.371.55-.052 1.099-.093 1.647-.128.097.004.192.022.29.022.365 0 .732-.034 1.099-.089 13.521-.495 26.386 4.379 35.603 14.127zm-71.196-46.473c9.673 3.457 17.65 10.017 23.145 18.855-4.531.987-9.053 2.434-13.5 4.375-.063.028-.122.062-.184.092-7.108-1.372-14.521-1.62-22.046-.682-7.757-8.047-17.186-14.215-27.674-17.787 12.367-7.582 27.095-9.558 40.259-4.853zm-61.415 16.344c30.693 0 55.665 27.61 55.665 61.549 0 1.645-.159 3.281-.446 4.904-.001.003-.001.006-.002.01-2.249 12.715-12.729 24.643-22.884 33.53-3.698-2.183-7.629-4.005-11.748-5.427l2.45-10.279c.96-4.029-1.527-8.074-5.556-9.035-4.027-.953-8.074 1.527-9.035 5.557l-2.512 10.536c-2.12-.21-4.268-.322-6.442-.322-1.84 0-3.658.096-5.46.247l-9.681-40.612c-.96-4.028-5.004-6.513-9.035-5.557-4.029.961-6.517 5.006-5.556 9.035l9.563 40.116c-4.798 1.575-9.354 3.685-13.587 6.278-5.267-9.731-11.044-17.615-17.302-23.613-2.707-5.297-4.097-10.463-4.097-15.368 0-33.938 24.971-61.549 55.665-61.549zm-101.529 32.233c11.365-8.931 26.19-12.523 41.067-10.268-6.472 11.557-10.203 25.107-10.203 39.584 0 1.147.063 2.298.157 3.452-1.098-.373-2.205-.703-3.324-.985-16.31-4.113-32.632-3.025-46.977 2.146 1.196-8.145 4.065-15.711 8.451-22.25.047-.067.091-.136.135-.204 2.927-4.318 6.508-8.187 10.694-11.475zm-60.867 40.008c6.102-11.9 17.322-20.302 30.739-23.583-3.048 7.849-4.696 16.381-4.795 25.283-12.875 8.416-22.826 20.717-27.677 35.729-4.617-12.396-4.195-25.868 1.733-37.429zm-20.103 84.034c-.043-10.44 3.706-20.589 10.478-28.917 1.466 2.33 3.078 4.602 4.851 6.794.501 7.635 2.325 15.096 5.301 22.132-5.153 9.76-7.896 20.323-8.184 30.866-7.917-8.531-12.399-19.354-12.446-30.875zm47.811 122.385c-9.416-10.297-13.335-24.416-11.18-38.706 6.717 5.549 14.566 9.92 23.208 12.807 2.871 16.311 10.868 30.429 22.849 40.583-13.506.115-26.095-5.078-34.877-14.684zm80.367 51.081c-12.644-3.942-22.728-13.223-28.327-25.848 8.279 3.466 17.065 5.145 25.898 5.144 2.665 0 5.333-.162 7.993-.463 9.643 8.237 21.054 13.566 33.103 15.555-11.772 7.385-25.804 9.625-38.667 5.612zm113.621-1.63c-14.056 4.828-29.752 2.095-42.447-6.848 10.834-3.82 20.729-10.458 28.797-19.463 1.856.461 3.727.874 5.621 1.195 4.13.7 8.236 1.047 12.286 1.047 8.326 0 16.411-1.471 23.973-4.328-4.999 13.393-15.172 23.91-28.23 28.397zm93.739-73.171c-7.546 11.615-20.274 18.939-34.534 20.507 6.613-9.613 10.56-20.805 11.752-32.502 12.039-8.218 20.823-19.561 25.549-33.042 6.671 15.142 5.76 31.911-2.767 45.037z"/><path d="m240.686 410.768c-4.142 0-7.5 3.357-7.5 7.5v20.371c-6.502-8.851-14.59-16.807-23.952-23.412l-30.556-21.554c-11.803-8.325-25.275-14.179-38.958-16.928l-18.861-3.789c-3.897-.785-7.896.808-10.187 4.058-2.292 3.248-2.451 7.549-.406 10.957l9.898 16.498c7.182 11.97 17.215 22.696 29.017 31.021l30.556 21.554c16.207 11.433 34.941 17.941 53.449 18.68v29.042c0 4.143 3.358 7.5 7.5 7.5s7.5-3.357 7.5-7.5v-86.498c0-4.142-3.358-7.5-7.5-7.5zm-52.303 34.019-30.556-21.554c-10.109-7.131-18.685-16.287-24.801-26.48l-4.128-6.881 7.867 1.581c11.653 2.34 23.157 7.347 33.267 14.479l30.556 21.554c12.4 8.747 22.177 20.183 28.273 32.898-14.024-1.477-28.079-6.851-40.478-15.597z"/></g></g></svg>