<svg id="Capa_1" enable-background="new 0 0 512.667 512.667" height="512" viewBox="0 0 512.667 512.667" width="512" xmlns="http://www.w3.org/2000/svg"><g><g fill="#efedef"><path d="m187.509 193.125.722-1.746c5.936-14.355 6.612-30.346 1.909-45.151-13.786 7.16-24.6 18.958-30.536 33.314l-.627 1.516-35.314 64.356 33.75 17.069z"/><path d="m127.998 181.306-.724-1.745c-5.953-14.348-16.782-26.133-30.577-33.276-4.685 14.811-3.99 30.801 1.964 45.149l.629 1.516 24.285 62.931 30.123-11.676z"/><path d="m77.561 215.03-1.746-.722c-14.355-5.936-30.346-6.612-45.151-1.909 7.16 13.786 18.958 24.6 33.314 30.536l1.516.627 65.793 26.035 13.523-26.035z"/><path d="m209.414 303.073 1.746.722c14.355 5.936 30.346 6.612 45.151 1.909-7.16-13.786-18.958-24.6-33.314-30.536l-1.517-.627-65.554-29.126-15.955 25.932z"/><path d="m187.685 325.154.629 1.516c5.953 14.348 6.649 30.338 1.964 45.149-13.794-7.143-24.623-18.928-30.577-33.276l-.723-1.743-27.691-69.823 29.865-14.433z"/><path d="m127.999 337.043-.628 1.518c-5.936 14.355-16.751 26.154-30.536 33.314-4.703-14.805-4.027-30.796 1.909-45.151l.722-1.746 21.732-61.139 28.848 5.677z"/><path d="m77.385 303.249-1.516.629c-14.348 5.953-30.338 6.649-45.149 1.964 7.143-13.794 18.928-24.623 33.276-30.577l1.745-.724 53.073-22.666 16.627 28.519z"/><path d="m221.233 243.562 1.745-.724c14.348-5.953 26.133-16.782 33.276-30.577-14.811-4.685-30.801-3.989-45.149 1.964l-1.516.629c-1.163-.318-81.254 30.56-81.254 30.56l11.637 27.936z"/></g><g fill="#f9f7f8"><path d="m182.129 274.541h40.993c15.534 0 30.57-5.486 42.454-15.489-11.885-10.003-26.92-15.489-42.454-15.489h-40.993-53.793v30.978z"/><path d="m181.769 275.428 28.981 28.981c10.984 10.984 17.737 25.495 19.067 40.972-15.477-1.33-29.988-8.083-40.972-19.067l-28.981-28.981-31.529-33.493 23.731-22.909z"/><path d="m158.977 297.692v40.994c0 15.534-5.486 30.569-15.489 42.454-10.004-11.884-15.489-26.92-15.489-42.454v-40.993-45.151h30.978z"/><path d="m127.111 297.333-28.981 28.981c-10.984 10.984-25.495 17.737-40.972 19.067 1.33-15.477 8.083-29.988 19.067-40.972l28.981-28.981 32.513-30.013 21.257 18.425z"/><path d="m104.846 274.541h-40.993c-15.534 0-30.57-5.486-42.454-15.489 11.885-10.003 26.92-15.489 42.454-15.489h40.993 39.963v30.978z"/><path d="m127.111 220.77-28.981-28.981c-10.984-10.984-25.495-17.737-40.972-19.067 1.33 15.477 8.083 29.988 19.067 40.972l28.981 28.981 28.153 22.947 18.708-22.834z"/><path d="m158.977 220.41v-40.993c0-15.534-5.486-30.569-15.489-42.454-10.004 11.885-15.489 26.92-15.489 42.454v40.993l.337 42.073h29.077z"/><path d="m159.864 220.77 28.981-28.981c10.984-10.984 25.495-17.737 40.972-19.067-1.33 15.477-8.083 29.988-19.067 40.972l-28.981 28.981-41.796 34.009-14.578-26.791z"/></g><g><circle cx="143.484" cy="259.05" fill="#fee45a" r="41.63"/></g><path d="m123.539 259.605c0-19.61 13.578-36.052 31.834-40.464-3.765-1.118-7.76-1.722-11.889-1.722-22.99 0-41.63 18.64-41.63 41.63s18.64 41.63 41.63 41.63c3.381 0 6.684-.407 9.831-1.167-17.204-5.112-29.776-21.044-29.776-39.907z" fill="#fed402"/><path d="m245.952 229.685-2.025.84c-19.171 7.955-40.536 8.884-60.326 2.624 9.544-18.432 25.291-32.901 44.463-40.856l2.332-.968 79.706-35.354 22.732 43.774z" fill="#efedef"/><path d="m313.58 274.84-.839 2.028c-7.931 19.181-22.381 34.945-40.801 44.512-6.284-19.782-5.381-41.148 2.551-60.329l.965-2.333 35.801-83.503 40.572 12.971z" fill="#efedef"/><path d="m393.33 258.954.84 2.025c7.955 19.172 8.884 40.536 2.624 60.326-18.432-9.545-32.901-25.291-40.856-44.463l-.967-2.33-42.571-92.123 46.378-18.119z" fill="#efedef"/><path d="m438.487 191.326 2.026.838c19.181 7.931 34.945 22.381 44.512 40.801-19.782 6.284-41.148 5.381-60.329-2.551l-2.333-.964-86.322-41.322 24.526-32.403z" fill="#efedef"/><path d="m438.156 149.934 2.331-.967c19.171-7.955 34.918-22.424 44.463-40.856-19.79-6.26-41.154-5.331-60.326 2.624l-2.025.84-97.833 28.528 11.277 40.235z" fill="#efedef"/><path d="m393.095 82.541.965-2.333c7.931-19.181 8.835-40.547 2.551-60.329-18.42 9.567-32.87 25.331-40.801 44.512l-.838 2.026-38.158 78.183 39.957 19.669z" fill="#efedef"/><path d="m354.972 222.261v54.774c0 20.756-7.33 40.846-20.696 56.725-13.366-15.879-20.696-35.969-20.696-56.725v-54.774l-.001-45.233h37.219z" fill="#f9f7f8"/><path d="m312.394 221.781-38.724 38.724c-14.677 14.677-34.065 23.699-54.745 25.477 1.777-20.68 10.8-40.068 25.477-54.745l38.724-38.724 29.269-25.111 25.592 26.79z" fill="#f9f7f8"/><path d="m385.425 192.512 38.724 38.724c14.677 14.677 23.7 34.065 25.477 54.745-20.68-1.777-40.068-10.8-54.745-25.477l-38.724-38.724-39.344-37.167 31.287-28.889z" fill="#f9f7f8"/><path d="m385.922 191.351 54.774-.043c20.756-.016 40.84-7.361 56.709-20.74-15.89-13.354-35.985-20.668-56.742-20.652l-54.774.043-47.92.037.032 41.392z" fill="#f9f7f8"/><path d="m385.425 148.749 38.724-38.724c14.677-14.677 23.7-34.065 25.477-54.745-20.68 1.777-40.068 10.8-54.745 25.477l-38.724 38.724-26.578 32.779 25.393 18.371z" fill="#f9f7f8"/><path d="m313.579 66.75-.967-2.332c-7.955-19.171-22.424-34.918-40.856-44.462-6.26 19.79-5.331 41.154 2.624 60.326l.84 2.025 38.809 81.963 33.92-17.985z" fill="#efedef"/><path d="m313.579 119v-54.774c0-20.756 7.33-40.846 20.696-56.725 13.366 15.88 20.696 35.969 20.696 56.725v54.774 45.271h-40.404z" fill="#f9f7f8"/><path d="m246.186 111.81-2.333-.965c-19.181-7.931-40.547-8.835-60.329-2.551 9.567 18.42 25.331 32.87 44.512 40.801l2.026.838 80.038 38.253 15.646-39.439z" fill="#efedef"/><path d="m283.125 148.749-38.724-38.724c-14.677-14.677-23.7-34.065-25.477-54.745 20.68 1.777 40.068 10.8 54.745 25.477l38.724 38.724 33.344 32.137-26.262 26.262z" fill="#f9f7f8"/><g><path d="m282.644 191.326h-54.774c-20.756 0-40.846-7.33-56.726-20.696 15.88-13.366 35.969-20.696 56.726-20.696h54.774 42.121v43.015z" fill="#f9f7f8"/></g><g><path d="m334.274 115.01c30.72 0 55.63 24.9 55.63 55.62s-24.91 55.63-55.63 55.63-55.62-24.91-55.62-55.63 24.9-55.62 55.62-55.62z" fill="#fee45a"/></g><path d="m306.498 170.63c0-25.913 17.717-47.684 41.698-53.863-4.45-1.146-9.115-1.757-13.922-1.757-30.72 0-55.62 24.9-55.62 55.62s24.9 55.63 55.62 55.63c4.807 0 9.473-.61 13.922-1.757-23.981-6.182-41.698-27.961-41.698-53.873z" fill="#fed402"/><path d="m188.358 469.798 24.664 10.85c13.63 5.996 29.355 5.854 44.012-.398-5.295-15.028-15.816-26.717-29.445-32.713l-24.664-10.85c-8.874-3.904-18.715-5.237-28.65-3.882l-14.738 2.011c-1.693.231-2.848 2.857-1.874 4.261l8.476 12.224c5.712 8.239 13.345 14.593 22.219 18.497z" fill="#80d261"/><path d="m345.806 460.957-32.738 14.402c-18.091 7.959-38.113 9.706-56.034 4.891 8.56-16.465 23.377-30.044 41.468-38.002l32.738-14.402c11.779-5.182 24.48-7.773 36.976-7.544l18.538.34c2.13.039 3.285 2.665 1.874 4.261l-12.276 13.895c-8.275 9.365-18.767 16.977-30.546 22.159z" fill="#80d261"/><g><path d="m502.235 164.894c-11.495-9.677-25.074-16.43-39.526-19.859 12.035-8.7 21.991-20.132 28.9-33.474 1.018-1.966 1.115-4.279.267-6.323s-2.556-3.609-4.666-4.276c-14.261-4.512-29.317-5.559-43.914-3.224 7.731-12.601 12.52-26.913 13.801-41.815.189-2.204-.604-4.38-2.169-5.945-1.565-1.564-3.742-2.359-5.945-2.169-14.968 1.286-29.342 6.111-41.982 13.902 2.357-14.66 1.305-29.783-3.243-44.1-.67-2.109-2.237-3.814-4.282-4.66-2.044-.847-4.359-.745-6.323.275-13.275 6.895-24.659 16.803-33.33 28.777-3.443-14.378-10.177-27.887-19.81-39.332-1.425-1.693-3.525-2.671-5.738-2.671s-4.313.978-5.738 2.67c-10.331 12.273-17.329 26.92-20.505 42.469-1.787-.366-3.71-.093-5.392.929-3.541 2.149-4.669 6.762-2.52 10.303 2.164 3.564 4.036 7.239 5.564 10.924l.395.951v34.314l-24.502-24.502-.269-.648c-6.033-14.539-7.645-30.518-4.746-45.868 1.302.887 2.58 1.811 3.828 2.771 3.282 2.525 7.991 1.912 10.518-1.371 2.526-3.282 1.912-7.991-1.371-10.518-4.499-3.461-9.32-6.532-14.332-9.127-1.964-1.017-4.279-1.113-6.323-.268-2.044.849-3.609 2.556-4.276 4.666-4.511 14.26-5.562 29.316-3.226 43.913-12.6-7.729-26.912-12.519-41.813-13.8-2.207-.188-4.381.604-5.945 2.169-1.565 1.565-2.359 3.741-2.169 5.946 1.286 14.961 6.108 29.33 13.893 41.967-14.657-2.349-29.778-1.288-44.091 3.257-2.109.67-3.815 2.237-4.66 4.282-.846 2.045-.745 4.359.275 6.323 6.895 13.274 16.804 24.659 28.777 33.331-14.378 3.443-27.887 10.177-39.331 19.811-1.693 1.425-2.67 3.524-2.67 5.737s.978 4.313 2.67 5.738c11.495 9.676 25.074 16.428 39.525 19.857-12.035 8.699-21.991 20.133-28.9 33.474-1.018 1.966-1.115 4.279-.267 6.323s2.556 3.609 4.666 4.276c9.38 2.968 19.104 4.443 28.816 4.442 5.054 0 10.102-.42 15.098-1.219-7.73 12.601-12.52 26.913-13.801 41.814-.189 2.205.604 4.381 2.169 5.945 1.412 1.413 3.323 2.197 5.303 2.197.213 0 .428-.009.643-.027 14.962-1.285 29.332-6.108 41.97-13.895-2.354 14.657-1.292 29.779 3.255 44.093.67 2.109 2.237 3.814 4.282 4.66.92.381 1.894.569 2.866.569 1.189 0 2.376-.283 3.457-.844 13.275-6.894 24.66-16.803 33.332-28.777 1.973 8.239 5.034 16.186 9.1 23.628l-44.532 54.203c-8.003 9.741-14.138 20.808-18.225 32.59-8.452-18.137-22.423-33.572-40.414-43.712l-14.224-8.016c.053-3.252-.099-6.505-.463-9.738 9.206 5.075 19.433 8.236 30.039 9.148.215.019.429.027.643.027 1.98 0 3.891-.784 5.303-2.197 1.565-1.564 2.359-3.74 2.169-5.945-1.158-13.474-5.931-26.425-13.803-37.454-2.405-3.372-7.089-4.152-10.461-1.747-3.372 2.406-4.154 7.09-1.748 10.462 4.379 6.136 7.562 13.012 9.411 20.255-10.501-2.679-20.174-8.145-27.911-15.881l-22.985-22.986c1.762-1.25 3.457-2.611 5.064-4.095 2.617-2.417 4.938-5.084 6.963-7.939l.902.902c1.464 1.464 3.384 2.196 5.303 2.196s3.839-.732 5.303-2.196c2.929-2.93 2.929-7.678 0-10.607l-4.492-4.492c1.068-3.444 1.782-7.014 2.092-10.665.351-4.128-2.71-7.758-6.837-8.108-4.138-.351-7.758 2.711-8.109 6.837-1.548 18.206-17.09 32.468-35.382 32.468-19.587 0-35.523-15.936-35.523-35.523s15.936-35.522 35.523-35.522c4.238 0 8.387.741 12.333 2.203l.928.365c2.309.907 4.918.616 6.969-.781 2.051-1.396 3.278-3.717 3.278-6.198v-25.873c0-4.143-3.358-7.5-7.5-7.5s-7.5 3.357-7.5 7.5v16c-2.797-.477-5.638-.716-8.507-.716-2.9 0-5.739.259-8.507.731v-32.506c0-10.938 2.975-21.643 8.504-30.96 1.281 2.163 2.432 4.413 3.445 6.738 1.655 3.797 6.075 5.536 9.872 3.878 3.797-1.654 5.534-6.074 3.879-9.871-2.927-6.717-6.781-12.938-11.455-18.489-1.425-1.692-3.525-2.67-5.738-2.67s-4.313.978-5.738 2.67c-6.889 8.185-11.902 17.706-14.817 27.861-6.58-8.263-14.853-15.138-24.351-20.057-1.966-1.018-4.279-1.114-6.323-.268-2.044.849-3.609 2.556-4.277 4.666-3.211 10.151-4.204 20.812-3.029 31.26-9.206-5.075-19.433-8.237-30.04-9.149-2.207-.19-4.38.604-5.946 2.169-1.565 1.565-2.359 3.741-2.169 5.946.916 10.654 4.102 20.927 9.218 30.166-10.494-1.188-21.204-.19-31.396 3.049-2.109.67-3.814 2.237-4.66 4.282-.845 2.045-.745 4.358.275 6.322 4.907 9.448 11.743 17.688 19.962 24.245-10.099 2.921-19.567 7.918-27.711 14.774-1.693 1.425-2.67 3.524-2.67 5.737s.978 4.313 2.67 5.738c8.183 6.887 17.701 11.898 27.853 14.813-8.262 6.581-15.132 14.856-20.05 24.354-1.018 1.966-1.115 4.279-.267 6.323s2.555 3.609 4.665 4.276c7.421 2.348 15.114 3.516 22.799 3.516 2.824 0 5.647-.159 8.455-.476-5.072 9.204-8.232 19.427-9.143 30.03-.189 2.205.604 4.381 2.169 5.945 1.412 1.413 3.323 2.197 5.303 2.197.213 0 .428-.009.643-.027 10.654-.916 20.926-4.101 30.164-9.217-1.188 10.493-.188 21.202 3.05 31.395.67 2.109 2.237 3.814 4.282 4.66.919.381 1.894.569 2.866.569 1.189 0 2.376-.283 3.457-.844 9.449-4.908 17.69-11.744 24.246-19.963 2.921 10.099 7.917 19.567 14.772 27.712 1.425 1.692 3.525 2.67 5.738 2.67s4.313-.978 5.738-2.67c6.889-8.185 11.902-17.705 14.816-27.86 6.58 8.264 14.853 15.138 24.352 20.057 1.079.559 2.262.84 3.449.84.975 0 1.953-.19 2.875-.572 2.044-.849 3.609-2.556 4.276-4.666.568-1.796 1.055-3.61 1.485-5.434l8.868 4.997c25.84 14.563 41.892 42.034 41.892 71.695v2.799c-5.316-5.411-11.568-9.778-18.576-12.86l-24.664-10.851c-10.111-4.447-21.415-5.988-32.685-4.447l-14.736 2.011c-3.4.463-6.313 2.743-7.79 6.1-1.478 3.357-1.192 7.046.764 9.866l8.476 12.224c6.482 9.348 15.252 16.641 25.363 21.089l24.665 10.85c7.66 3.37 15.837 5.053 24.149 5.053 4.991 0 10.03-.627 15.033-1.841v14.442c0 4.143 3.358 7.5 7.5 7.5s7.5-3.357 7.5-7.5v-15.785c4.376.663 8.842 1.003 13.349 1.003 10.066 0 20.319-1.649 30.125-4.923 3.929-1.312 6.051-5.561 4.739-9.489s-5.558-6.048-9.489-4.739c-11.066 3.694-22.754 4.937-33.79 3.688 7.961-11.007 19.179-19.991 32.403-25.809l32.737-14.401c10.751-4.729 22.436-7.137 33.818-6.91l7.854.144-5.201 5.887c-7.532 8.525-17.195 15.532-27.945 20.261l-10.89 4.79c-3.792 1.668-5.513 6.094-3.845 9.885 1.668 3.792 6.094 5.511 9.885 3.846l10.89-4.79c12.725-5.598 24.187-13.918 33.146-24.06l12.277-13.896c2.571-2.911 3.212-7.111 1.633-10.7-1.579-3.588-5.108-5.953-8.992-6.024l-18.538-.34c-13.531-.237-27.407 2.58-40.134 8.178l-32.737 14.401c-12.038 5.296-22.687 12.852-31.298 22.032v-6.682-6.311c0-21.029 7.352-41.561 20.702-57.81l41.575-50.604c.681.869 1.365 1.736 2.078 2.583 1.425 1.692 3.525 2.67 5.738 2.67s4.313-.978 5.738-2.67c10.726-12.743 17.871-28.041 20.862-44.255 1.26-.002 2.535-.321 3.706-.991 3.595-2.058 4.841-6.64 2.784-10.234-1.707-2.982-3.221-6.058-4.5-9.141l-.394-.95v-34.317l24.502 24.502.269.649c6.031 14.536 7.644 30.51 4.747 45.858-1.894-1.292-3.741-2.67-5.532-4.127-3.211-2.613-7.937-2.13-10.551 1.084-2.614 3.213-2.129 7.937 1.084 10.551 5.107 4.155 10.61 7.771 16.355 10.745 1.079.559 2.262.84 3.448.84.976 0 1.953-.19 2.875-.573 2.044-.848 3.609-2.555 4.276-4.665 4.512-14.264 5.547-29.322 3.21-43.922 12.604 7.736 26.922 12.528 41.828 13.809.215.019.429.027.643.027 1.98 0 3.891-.784 5.303-2.196 1.565-1.565 2.359-3.741 2.169-5.945-1.286-14.968-6.111-29.341-13.902-41.982 5.021.806 10.094 1.235 15.174 1.235 9.75 0 19.514-1.488 28.926-4.478 2.109-.67 3.815-2.237 4.66-4.282.846-2.045.745-4.359-.275-6.323-6.894-13.274-16.801-24.66-28.775-33.331 14.377-3.443 27.885-10.177 39.328-19.809 1.693-1.426 2.67-3.525 2.67-5.738s-.977-4.315-2.67-5.739zm-404.209-8.836c8.681 6.488 15.532 15.236 19.725 25.34l.176.424v22.1l-15.813-15.812-.079-.189c-4.192-10.107-5.546-21.136-4.009-31.863zm-8.77 40.407 23.001 23.001c-4.655 3.305-8.725 7.376-12.031 12.031l-23.002-23.001c-7.736-7.735-13.202-17.41-15.88-27.911 10.501 2.678 20.176 8.144 27.912 15.88zm-52.491 20.928c10.724-1.553 21.756-.21 31.867 3.972l.423.175 15.627 15.627h-22.362l-.189-.078c-10.11-4.182-18.867-11.024-25.366-19.696zm-8.595 43.281c9.319-5.532 20.025-8.508 30.966-8.508h32.506c-.471 2.768-.731 5.607-.731 8.507s.259 5.74.731 8.508h-32.506c-10.941 0-21.647-2.976-30.966-8.507zm8.648 43.407c6.488-8.68 15.235-15.531 25.341-19.725l.424-.176h22.099l-15.812 15.813-.19.079c-10.105 4.194-21.134 5.55-31.862 4.009zm52.438 20.801c-7.737 7.737-17.411 13.203-27.912 15.882 2.678-10.501 8.145-20.177 15.88-27.912l23.002-23.001c3.305 4.655 7.376 8.725 12.031 12.031zm28.672 14.901-.08.193c-4.18 10.11-11.021 18.867-19.694 25.365-1.551-10.726-.21-21.756 3.971-31.865l.176-.426 15.627-15.627zm32.014 3.189c0 10.94-2.976 21.646-8.507 30.966-5.531-9.319-8.507-20.025-8.507-30.966v-32.506c2.768.471 5.607.73 8.506.73 2.875 0 5.717-.255 8.508-.729zm34.9 22.317c-8.681-6.487-15.532-15.235-19.726-25.341l-.175-.421v-22.101l15.813 15.813.078.188c4.193 10.105 5.547 21.135 4.01 31.862zm31.2 108.493-24.665-10.85c-7.577-3.333-14.173-8.833-19.078-15.905l-4.043-5.832 7.031-.96c8.528-1.162 17.041-.018 24.616 3.316l24.665 10.851c9.592 4.219 17.36 11.695 22.403 21.422-10.575 2.853-21.336 2.18-30.929-2.042zm257.325-360.865c-8.79 12.917-21.215 23.09-35.755 29.123l-.95.395h-34.315l24.503-24.502.649-.269c14.538-6.035 30.516-7.647 45.868-4.747zm-73.183-26.856c11.131-11.131 25.28-18.727 40.575-21.913-3.187 15.294-10.781 29.443-21.913 40.574l-31.615 31.615c-4.843-7.452-11.21-13.819-18.661-18.662zm-37.713-18.153.269-.649c6.015-14.547 16.173-26.985 29.079-35.79 2.918 15.348 1.326 31.326-4.689 45.873l-.394.953-24.264 24.264v-34.651zm-41.392-3.682c0-15.742 4.635-31.117 13.196-44.186 8.562 13.068 13.196 28.444 13.196 44.186v44.677c-4.258-.909-8.67-1.398-13.196-1.398s-8.938.489-13.196 1.398zm-52.712 21.835 31.614 31.614c-7.452 4.843-13.819 11.21-18.662 18.662l-31.615-31.615c-11.131-11.131-18.726-25.279-21.913-40.574 15.296 3.186 29.445 10.782 40.576 21.913zm-73.254 27.026c15.35-2.919 31.329-1.324 45.875 4.689l.952.394 24.265 24.265h-34.651l-.649-.269c-14.549-6.016-26.987-16.174-35.792-29.079zm-11.428 57.544c13.068-8.562 28.443-13.196 44.186-13.196h44.677c-.909 4.258-1.398 8.671-1.398 13.196s.489 8.937 1.398 13.195h-44.677c-15.742 0-31.118-4.635-44.186-13.195zm11.498 57.713c8.79-12.916 21.215-23.089 35.755-29.123l.951-.395h34.315l-24.503 24.503-.649.269c-14.538 6.033-30.515 7.644-45.869 4.746zm73.184 26.856c-11.132 11.132-25.281 18.728-40.575 21.913 3.187-15.294 10.782-29.443 21.913-40.574l31.615-31.615c4.843 7.452 11.21 13.819 18.662 18.662zm37.713 18.151-.27.652c-6.016 14.548-16.173 26.985-29.079 35.79-2.918-15.349-1.326-31.328 4.689-45.875l.394-.952 24.265-24.265v34.65zm41.392 3.684c0 15.742-4.635 31.117-13.196 44.186-8.562-13.068-13.196-28.444-13.196-44.186v-44.677c4.258.909 8.67 1.398 13.195 1.398 4.526 0 8.938-.489 13.197-1.398zm-13.197-58.279c-26.537 0-48.125-21.589-48.125-48.125 0-26.537 21.589-48.126 48.125-48.126s48.125 21.589 48.125 48.126c0 26.536-21.588 48.125-48.125 48.125zm65.909 36.444-31.614-31.614c7.452-4.843 13.819-11.21 18.662-18.662l31.615 31.615c11.131 11.131 18.726 25.28 21.913 40.574-15.296-3.185-29.445-10.781-40.576-21.913zm73.254-27.026c-15.346 2.921-31.329 1.325-45.875-4.689l-.952-.394-24.265-24.265h34.651l.649.269c14.549 6.015 26.987 16.174 35.792 29.079zm-32.758-44.348h-44.677c.909-4.258 1.398-8.67 1.398-13.195 0-4.526-.489-8.938-1.398-13.196h44.677c15.743 0 31.118 4.635 44.186 13.196-13.069 8.56-28.444 13.195-44.186 13.195z"/></g></g></svg>