<svg id="Capa_1" enable-background="new 0 0 509.091 509.091" height="512" viewBox="0 0 509.091 509.091" width="512" xmlns="http://www.w3.org/2000/svg"><g><path d="m337.835 424.239-32.551 18.403c-17.988 10.169-38.489 14.336-57.375 11.66 7.445-17.562 21.584-32.98 39.572-43.149l32.551-18.403c11.712-6.621 24.592-10.753 37.498-12.028l19.146-1.892c2.199-.217 3.611 2.28 2.291 4.052l-11.492 15.429c-7.747 10.401-17.928 19.307-29.64 25.928z" fill="#80d261"/><path d="m179.742 443.072 24.636 10.913c13.614 6.031 29.34 5.929 44.012-.286-5.256-15.042-15.748-26.757-29.362-32.788l-24.636-10.913c-8.864-3.927-18.702-5.285-28.64-3.955l-14.743 1.974c-1.694.227-2.855 2.849-1.885 4.256l8.445 12.245c5.692 8.255 13.309 14.628 22.173 18.554z" fill="#80d261"/><g><g><path d="m311.2 99.592 28.5-57.987c2.719-5.532.444-12.186-5.051-14.979-8.209-4.174-16.786-7.727-25.671-10.596-5.875-1.897-12.191 1.213-14.161 7.064l-20.161 59.859-28.371 81.098 32.558 10.616z" fill="#efedef"/></g></g><g><g><path d="m353.259 164.632 62.441-21.547c5.836-2.014 8.899-8.352 6.959-14.212-2.934-8.862-6.549-17.413-10.783-25.592-2.834-5.475-9.505-7.701-15.017-4.941l-55.117 27.599-81.3 38.694 8.803 23.621z" fill="#efedef"/></g></g><g><g><path d="m339.505 241.207 57.987 28.5c5.532 2.719 12.186.444 14.979-5.051 4.174-8.209 7.727-16.786 10.596-25.671 1.897-5.875-1.213-12.191-7.064-14.161l-59.859-20.161-78.629-26.69-15.324 23.433z" fill="#efedef"/></g></g><g><g><path d="m313.16 271.75 27.599 55.117c2.76 5.512.534 12.183-4.941 15.017-8.179 4.234-16.73 7.849-25.592 10.783-5.861 1.94-12.199-1.123-14.212-6.959l-21.547-62.442-25.15-72.872 29.527-14.135z" fill="#efedef"/></g></g><g><g><path d="m234.625 85.839-21.547-62.441c-2.014-5.836-8.352-8.899-14.212-6.959-8.862 2.934-17.413 6.549-25.592 10.783-5.475 2.834-7.701 9.505-4.941 15.017l27.599 55.117 37.406 70.37s23.493-8.318 23.885-8.733-22.598-73.154-22.598-73.154z" fill="#efedef"/></g></g><g><g><path d="m169.586 127.898-57.988-28.501c-5.532-2.719-12.186-.444-14.979 5.051-4.174 8.209-7.727 16.786-10.596 25.671-1.897 5.875 1.213 12.191 7.064 14.161l59.86 20.161 60.17 21.029 13.728-29.242z" fill="#efedef"/></g></g><g><g><path d="m167.347 243.168-55.116 27.598c-5.512 2.76-12.183.534-15.017-4.941-4.234-8.179-7.849-16.73-10.783-25.592-1.94-5.861 1.123-12.199 6.959-14.212l62.441-21.547 67.796-26.5 12.89 26.69z" fill="#efedef"/></g></g><path d="m234.434 286.152-20.161 59.859c-1.971 5.851-8.286 8.961-14.161 7.064-8.885-2.869-17.462-6.422-25.671-10.595-5.495-2.794-7.77-9.447-5.051-14.979l28.5-57.987 36.734-73.254 33.804 8.405z" fill="#efedef"/><g><g fill="#f9f7f8"><path d="m271.852 125.405 6.966-105.436c.407-6.156-4.239-11.444-10.39-11.927-4.581-.359-9.21-.544-13.883-.544s-9.303.185-13.883.544c-6.151.482-10.796 5.77-10.39 11.927l6.966 105.436 4.123 45.203s27.073.706 26.797 0 3.694-45.203 3.694-45.203z"/><path d="m313.693 201.859 105.436 6.966c6.156.407 11.444-4.239 11.927-10.39.359-4.581.544-9.21.544-13.883s-.185-9.302-.544-13.883c-.482-6.151-5.77-10.797-11.927-10.39l-105.436 6.966-42.586 2.229v30.197z"/><path d="m195.398 201.859-105.436 6.966c-6.156.407-11.444-4.239-11.927-10.39-.359-4.581-.544-9.21-.544-13.883s.185-9.302.544-13.883c.482-6.151 5.77-10.797 11.927-10.39l105.436 6.966 34.85 1.425 2.287 31.001z"/><path d="m224.955 130.485-69.623-79.474c-4.068-4.643-11.095-5.092-15.787-1.08-7.04 6.019-13.601 12.581-19.621 19.62-4.012 4.692-3.563 11.719 1.08 15.787l79.474 69.623 29.769 23.012 19.068-18.617z"/><path d="m308.613 154.961 79.474-69.623c4.643-4.068 5.092-11.095 1.08-15.787-6.019-7.04-12.581-13.601-19.62-19.62-4.692-4.012-11.719-3.563-15.787 1.08l-69.623 79.474-29.591 31.342 14.295 22.725z"/><path d="m308.613 214.143 79.474 69.623c4.643 4.068 5.092 11.095 1.08 15.787-6.019 7.04-12.581 13.601-19.62 19.621-4.692 4.012-11.719 3.563-15.787-1.08l-69.623-79.474-18.166-22.568 21.783-23.515z"/><path d="m224.955 238.62-69.623 79.474c-4.068 4.643-11.095 5.092-15.787 1.08-7.04-6.019-13.601-12.581-19.621-19.621-4.012-4.692-3.563-11.719 1.08-15.787l79.474-69.623 37.547-33.224 20.097 21.589z"/></g></g><path d="m271.852 243.7 6.966 105.436c.407 6.156-4.239 11.444-10.39 11.927-4.581.359-9.21.544-13.883.544s-9.302-.185-13.883-.544c-6.151-.482-10.797-5.77-10.39-11.927l6.966-105.436 3.214-55.447h27.976l3.83 53.321" fill="#f9f7f8"/><circle cx="243.27" cy="153.182" r="8.646"/><circle cx="278.843" cy="199.672" r="11.419"/><circle cx="246.286" cy="208.85" r="8.26"/><circle cx="277.516" cy="166.466" r="10.238"/><circle cx="223.627" cy="183.434" r="6.62"/><circle cx="249.891" cy="181.633" r="4.928"/><circle cx="254.546" cy="184.552" fill="#fee45a" r="61.629"/><path d="m234.001 184.552c0-26.832 17.153-49.647 41.087-58.108-6.427-2.272-13.338-3.521-20.542-3.521-34.037 0-61.629 27.592-61.629 61.629s27.592 61.629 61.629 61.629c7.205 0 14.116-1.248 20.542-3.521-23.934-8.461-41.087-31.276-41.087-58.108z" fill="#fed402"/><g><path d="m438.533 170.082c-.8-10.204-9.745-17.962-19.897-17.286l-30.513 2.016c-.035-.69-.16-1.387-.397-2.074-1.351-3.916-5.622-5.992-9.536-4.644l-26.427 9.12-32.851 2.171c-.337-.858-.686-1.708-1.055-2.549l28.109-24.625 54.253-27.166c1.84-.92 4.034-.181 4.999 1.683 4.072 7.867 7.546 16.111 10.323 24.502.663 2.001-.342 4.095-2.284 4.766l-4.85 1.673c-3.916 1.351-5.995 5.62-4.645 9.535 1.071 3.106 3.979 5.057 7.09 5.057.811 0 1.636-.133 2.445-.412l4.852-1.673c9.632-3.325 14.85-13.939 11.632-23.659-3.025-9.139-6.808-18.117-11.243-26.685-4.699-9.078-15.931-12.758-25.035-8.198l-2.842 1.423 2.37-2.076c7.668-6.72 8.492-18.519 1.837-26.302-6.254-7.313-13.133-14.192-20.446-20.446-7.787-6.656-19.584-5.833-26.303 1.838l-5.135 5.861 3.449-7.018c4.49-9.138.729-20.341-8.383-24.973-8.599-4.372-17.604-8.089-26.766-11.047-9.738-3.147-20.32 2.147-23.573 11.807l-1.771 5.259.363-5.497c.672-10.172-7.083-19.098-17.286-19.897-9.607-.754-19.334-.754-28.94 0-10.204.8-17.959 9.727-17.287 19.897l.661 9.998-3.282-9.51c-3.327-9.633-13.939-14.851-23.661-11.633-9.14 3.025-18.117 6.809-26.683 11.242-9.081 4.699-12.759 15.93-8.2 25.036l1.425 2.845-2.077-2.371c-6.719-7.671-18.518-8.496-26.302-1.839-7.313 6.253-14.192 13.133-20.447 20.446-6.656 7.784-5.831 19.583 1.838 26.303l5.861 5.135-7.018-3.449c-9.139-4.489-20.34-.73-24.973 8.384-4.373 8.601-8.09 17.605-11.047 26.765-3.147 9.746 2.15 20.321 11.807 23.573l5.26 1.771-5.497-.363c-10.172-.678-19.098 7.083-19.897 17.286-.376 4.8-.567 9.668-.567 14.471 0 4.802.191 9.67.567 14.469.767 9.792 9.016 17.328 18.668 17.328.407 0 .818-.014 1.229-.041l10.002-.661-9.513 3.283c-9.633 3.324-14.851 13.938-11.633 23.66 3.026 9.14 6.809 18.117 11.242 26.683 3.332 6.435 9.941 10.156 16.75 10.156 2.799 0 5.633-.63 8.285-1.958l2.846-1.425-2.372 2.078c-7.67 6.718-8.495 18.518-1.839 26.302 6.253 7.313 13.132 14.193 20.447 20.447 3.531 3.02 7.888 4.499 12.223 4.499 5.22 0 10.409-2.147 14.08-6.337l5.135-5.861-3.448 7.016c-4.491 9.137-.73 20.34 8.383 24.974 8.603 4.374 17.608 8.091 26.766 11.048 1.906.615 3.843.907 5.751.907 7.85 0 15.206-4.947 17.822-12.716l1.771-5.258-.363 5.496c-.672 10.171 7.083 19.098 17.289 19.898 4.807.376 9.674.566 14.468.566.664 0 1.332-.012 1.999-.02-8.044 18.542-13.202 38.458-15.233 58.617-5.45-5.767-11.931-10.411-19.245-13.651l-24.637-10.913c-10.099-4.472-21.397-6.04-32.672-4.53l-14.742 1.974c-3.402.455-6.32 2.729-7.805 6.082-1.485 3.354-1.208 7.042.74 9.865l8.445 12.245c6.458 9.365 15.21 16.68 25.31 21.153l24.637 10.913c7.698 3.41 15.926 5.114 24.292 5.114 4.875 0 9.795-.6 14.685-1.757v37.391c0 4.143 3.358 7.5 7.5 7.5s7.5-3.357 7.5-7.5v-39.099c1.283.055 2.569.092 3.863.092 9.289-.001 18.822-1.406 28.1-4.177 3.969-1.186 6.226-5.363 5.04-9.333-1.187-3.969-5.368-6.229-9.333-5.04-7.695 2.298-15.563 3.492-23.212 3.55 7.332-12.037 18.195-22.437 31.398-29.9l32.551-18.403c10.768-6.088 22.713-9.924 34.544-11.093l7.985-.789-4.793 6.436c-7.101 9.532-16.546 17.79-27.316 23.878l-23.651 13.371c-3.605 2.039-4.876 6.614-2.838 10.221 2.039 3.604 6.613 4.877 10.221 2.838l23.651-13.371c12.573-7.108 23.626-16.782 31.963-27.977l11.491-15.428c2.375-3.188 2.646-7.483.689-10.945-1.956-3.461-5.774-5.435-9.731-5.053l-19.146 1.892c-13.894 1.373-27.882 5.855-40.452 12.963l-32.551 18.402c-10.498 5.936-19.736 13.505-27.307 22.209 2.176-19.092 7.381-37.906 15.384-55.3l1.839-3.998c7.776-2.713 13.159-10.353 12.595-18.891l-.661-10.003 3.283 9.513c2.658 7.703 9.978 12.584 17.775 12.584 1.953 0 3.936-.307 5.883-.951 9.144-3.026 18.121-6.809 26.683-11.241 9.081-4.7 12.759-15.931 8.2-25.036l-1.423-2.841 2.075 2.369c3.671 4.19 8.858 6.337 14.079 6.337 4.335 0 8.692-1.48 12.224-4.499 7.314-6.255 14.193-13.135 20.446-20.447 6.656-7.783 5.831-19.582-1.838-26.302l-5.865-5.138 7.02 3.45c2.618 1.287 5.406 1.897 8.161 1.897 6.856 0 13.507-3.777 16.813-10.278 4.372-8.599 8.089-17.604 11.047-26.766 3.147-9.745-2.149-20.32-11.807-23.573l-5.263-1.772 5.499.363c.412.027.821.041 1.229.041 9.652 0 17.901-7.536 18.669-17.327.377-4.796.567-9.664.567-14.47-.001-4.808-.191-9.676-.568-14.472zm-231.117 277.046-24.637-10.913c-7.567-3.353-14.15-8.869-19.036-15.954l-4.029-5.842 7.033-.941c8.529-1.142 17.041.026 24.607 3.378l24.636 10.913c9.582 4.245 17.331 11.74 22.349 21.479-10.583 2.826-21.341 2.125-30.923-2.12zm47.129-208.446c-29.847 0-54.129-24.282-54.129-54.129s24.282-54.129 54.129-54.129 54.129 24.282 54.129 54.129-24.282 54.129-54.129 54.129zm104.856-182.729c1.356-1.548 3.672-1.689 5.271-.321 6.722 5.748 13.045 12.072 18.794 18.794 1.367 1.6 1.226 3.915-.322 5.271l-72.947 63.906c-4.136-5.606-9.096-10.566-14.702-14.702zm-57.476-30.465c.656-1.949 2.74-2.97 4.749-2.321 8.411 2.717 16.681 6.13 24.577 10.145 1.87.951 2.625 3.141 1.719 4.985l-28.063 57.097-22.645 25.849c-.841-.37-1.691-.719-2.549-1.055l2.363-35.769zm-60.676-9.969c8.83-.691 17.766-.691 26.594 0 2.095.165 3.628 1.902 3.493 3.956l-6.392 96.732c-3.393-.514-6.865-.783-10.398-.783-3.534 0-7.005.269-10.398.783l-6.391-96.732c-.136-2.054 1.397-3.791 3.492-3.956zm-66.211 23.362c-.92-1.839-.182-4.034 1.682-4.999 7.867-4.072 16.11-7.546 24.502-10.323 2.001-.661 4.094.342 4.765 2.285l21.219 61.492 2.171 32.852c-.857.336-1.708.685-2.549 1.055l-24.622-28.106zm-49.413 35.545c5.749-6.723 12.072-13.046 18.794-18.794 1.599-1.368 3.915-1.227 5.271.322l63.906 72.947c-5.606 4.136-10.565 9.095-14.701 14.701l-72.947-63.905c-1.549-1.356-1.691-3.672-.323-5.271zm-30.144 62.747c-1.949-.657-2.969-2.743-2.321-4.749 2.715-8.409 6.128-16.678 10.144-24.576.951-1.87 3.139-2.623 4.986-1.72l57.096 28.063 25.849 22.645c-.369.841-.719 1.691-1.055 2.549l-35.765-2.363zm-6.015 64.169c-2.039.124-3.79-1.397-3.954-3.493-.346-4.41-.521-8.884-.521-13.296 0-4.413.175-8.887.521-13.298.164-2.094 1.897-3.611 3.955-3.492l96.733 6.392c-.514 3.393-.783 6.865-.783 10.398s.269 7.006.783 10.398zm19.407 62.718c-1.839.919-4.033.181-4.998-1.683-4.072-7.865-7.545-16.108-10.323-24.501-.663-2.001.341-4.095 2.285-4.766l61.494-21.22 32.849-2.17c.337.858.686 1.709 1.055 2.549l-28.107 24.624zm40.818 49.091c-1.356 1.549-3.672 1.689-5.272.322-6.723-5.749-13.046-12.072-18.794-18.795-1.367-1.6-1.226-3.914.322-5.271l72.947-63.905c4.136 5.606 9.096 10.565 14.701 14.701zm57.474 30.466c-.656 1.948-2.744 2.964-4.749 2.321-8.407-2.715-16.675-6.128-24.576-10.145-1.871-.951-2.626-3.141-1.719-4.985l28.063-57.098 22.644-25.848c.841.369 1.691.719 2.549 1.055l-2.363 35.767zm34.084 9.97c-2.094-.165-3.628-1.902-3.493-3.956l6.391-96.732c3.392.514 6.864.783 10.398.783s7.006-.269 10.398-.783l6.392 96.732c.135 2.054-1.399 3.791-3.492 3.955-8.837.691-17.758.69-26.594.001zm92.804-23.362c.92 1.839.181 4.034-1.684 4.999-7.862 4.07-16.105 7.544-24.501 10.322-2.001.665-4.094-.341-4.765-2.285l-21.221-61.493-2.171-32.85c.858-.336 1.708-.686 2.549-1.055l24.625 28.109zm49.413-35.546c-5.748 6.722-12.071 13.046-18.794 18.795-1.599 1.366-3.915 1.227-5.271-.322l-63.906-72.947c5.606-4.136 10.566-9.096 14.702-14.701l72.947 63.906c1.548 1.355 1.689 3.669.322 5.269zm30.144-62.746c1.949.656 2.969 2.742 2.321 4.749-2.717 8.411-6.13 16.681-10.145 24.576-.95 1.87-3.138 2.625-4.985 1.719l-57.097-28.063-25.849-22.645c.37-.841.719-1.691 1.055-2.549l35.766 2.363zm9.97-34.083c-.165 2.095-1.905 3.614-3.956 3.492l-96.732-6.391c.514-3.393.783-6.865.783-10.398s-.269-7.006-.783-10.398l96.732-6.392c2.024-.113 3.791 1.398 3.956 3.493.346 4.406.521 8.88.521 13.297-.001 4.416-.176 8.889-.521 13.297z"/></g></g></svg>