<svg id="Capa_1" enable-background="new 0 0 511.646 511.646" height="512" viewBox="0 0 511.646 511.646" width="512" xmlns="http://www.w3.org/2000/svg"><g><g id="XMLID_223_"><g><path d="m459.563 385.87c.86 2.95-1.33 5.9-4.4 5.9h-74.97c-32.13 0-62.38-15.16-81.6-40.9l-.09.03-17.77-53.82 81.61.72s67.09-14.63 97.22 88.07z" fill="#80d261"/></g></g><path d="m314.169 315.648c4.854 2.798 10.486 4.4 16.492 4.4 17.527 0 31.867-13.633 33-30.873 17.24-1.134 30.873-15.474 30.873-33 0-5.884-1.542-11.404-4.235-16.191l-18.106-45.304-99.478-26.043-28.934 33.497 27.991 97.641z" fill="#fdb441"/><path d="m390.792 122.335c2.798-4.854 4.4-10.486 4.4-16.492 0-17.527-13.633-31.867-30.873-33-1.134-17.24-15.474-30.873-33-30.873-5.884 0-11.404 1.542-16.191 4.235l-49.545 19.5s-33.816 72.73-33.816 73.535 61.995 59.189 61.995 59.189l70.952-29.792z" fill="#fdb441"/><g id="XMLID_222_"><g><path d="m231.013 319.39-17.96 31.48s-49.47 40.9-81.6 40.9h-74.97c-3.07 0-5.26-2.95-4.4-5.9 30.13-102.7 97.22-88.07 97.22-88.07l61.59 2.43z" fill="#80d261"/></g></g><g><path d="m267.508 510.178c2.355 0 4.263-1.909 4.263-4.263v-109.745l-.033-31.853h-30.862v31.853 109.745c0 2.355 1.909 4.263 4.263 4.263z" fill="#ade194"/></g><path d="m215.012 312.245 1.984 38.374c0 13.796 5.48 27.027 15.236 36.782l3.305 3.305c2.656 2.656 6.257 4.148 10.013 4.148h21.547c3.756 0 7.357-1.492 10.013-4.148l3.305-3.305c9.755-9.755 15.236-22.986 15.236-36.782v-38.374s-79.987 0-80.639 0z" fill="#80d261"/><path d="m223.973 251.516-3.66 39.382c-1.529 19.535-17.963 34.815-37.849 34.612-19.915-.203-36.051-15.861-37.139-35.463-19.576-1.488-34.9-17.941-34.697-37.856.203-19.886 15.816-36.004 35.378-37.134l40.462-22.293h28.544l15.078 27.348z" fill="#fdb441"/><path d="m182.938 325.503c19.672-.043 35.858-15.226 37.375-34.605l3.66-39.382 3.87-19.869-13.899 22.538-20.183 32.544c-9.219 11.11-12.779 25.287-10.823 38.774z" fill="#fea613"/><path d="m293.922 256.572-20.383-29.041h-22.478l20.71 72.243 42.398 15.873c4.186 2.413 8.951 3.929 14.033 4.303.392-11.974-3.501-24.086-11.78-33.773z" fill="#fea613"/><path d="m282.616 264.833 22.922 30.161c12.186 13.965 11.631 35.183-1.67 48.484-13.32 13.321-34.58 13.858-48.544 1.617-13.964 12.241-35.224 11.704-48.544-1.617-13.301-13.301-13.856-34.519-1.67-48.484l20.733-33.432 12.353-20.031h28.065z" fill="#fec165"/><path d="m197.478 45.711c-4.854-2.798-10.486-4.4-16.492-4.4-17.527 0-31.867 13.633-33 30.873-17.24 1.134-30.873 15.474-30.873 33 0 5.883 1.542 11.404 4.235 16.19 0 0 62.41 73.379 62.41 71.347 0-2.031 72.066-91.59 72.066-91.59l-13.829-36.659z" fill="#fdb441"/><path d="m198.613 192.764h-12.145l-40.462 22.292c-19.563 1.13-35.175 17.248-35.378 37.134-.001.126.005.25.005.376 2.469.374 4.982.568 7.526.568 11.983 0 23.545-4.33 32.555-12.193l.352-.307 26.433-26.368z" fill="#fea613"/><path d="m177.1 145.695-26.034-25.971-.352-.307c-9.01-7.863-20.571-12.193-32.555-12.193-.328 0-.652.018-.979.024.316 5.11 1.792 9.905 4.168 14.126 0 0 62.41 73.378 62.41 71.347 0-.704 8.667-11.935 19.988-26.304z" fill="#fea613"/><path d="m167.61 204.355-26.101 26.039c-13.965 12.187-35.183 11.631-48.484-1.67-13.32-13.321-13.858-34.58-1.617-48.544-12.241-13.964-11.704-35.224 1.617-48.544 13.301-13.301 34.519-13.856 48.484-1.67l26.314 26.251 26.681 20.751z" fill="#fec165"/><path d="m120.738 228.724c-13.32-13.321-13.858-34.58-1.617-48.544-12.241-13.964-11.704-35.224 1.617-48.544 3.337-3.337 7.173-5.871 11.268-7.604-12.934-5.464-28.442-2.936-38.981 7.604-13.32 13.32-13.858 34.58-1.617 48.544-12.241 13.964-11.704 35.224 1.617 48.544 10.54 10.54 26.047 13.068 38.981 7.604-4.094-1.733-7.93-4.267-11.268-7.604z" fill="#fdb441"/><path d="m317.085 75.57c8.363-9.583 12.369-21.604 12.129-33.532-5.095.321-9.875 1.797-14.086 4.166l-49.545 19.5s-16.287 35.029-26.254 56.736l11.361 13.308 39.067-32.739 27.021-27.087z" fill="#fea613"/><path d="m241.994 64.473-44.516-18.762c-4.187-2.413-8.953-3.93-14.038-4.303-.397 12.134 3.611 24.411 12.119 34.163l.308.352 25.985 26.047 17.167 20.109c9.722-12.145 16.804-20.946 16.804-20.946z" fill="#fea613"/><path d="m280.287 92.679 26.251-26.314c12.187-13.965 11.631-35.183-1.67-48.484-13.321-13.32-34.581-13.858-48.544-1.617-13.964-12.241-35.224-11.703-48.545 1.617-13.301 13.301-13.856 34.519-1.67 48.484l26.039 26.101 20.183 23.641z" fill="#fec165"/><path d="m390.299 239.984-18.106-45.304-70.657-18.498 31.939 38.412 27.106 27.041.352.307c9.01 7.862 20.571 12.193 32.555 12.193h.002c.327 0 .651-.018.977-.024-.316-5.11-1.792-9.905-4.168-14.127z" fill="#fea613"/><path d="m393.487 108.225c-11.983 0-23.545 4.33-32.555 12.193l-.352.307-26.021 25.957-33.812 28.553 12.487 15.018 51.479-21.615 26.077-46.302c2.419-4.196 3.938-8.974 4.307-14.071-.535-.018-1.07-.04-1.61-.04z" fill="#fea613"/><path d="m343.824 205.143 26.314 26.251c13.965 12.187 35.183 11.631 48.484-1.67 13.32-13.321 13.858-34.58 1.617-48.544 12.241-13.964 11.704-35.224-1.617-48.544-13.301-13.301-34.519-13.856-48.484-1.67l-26.101 26.039-23.641 19.963z" fill="#fec165"/><circle cx="255.823" cy="180.68" fill="#fe9901" r="91.319"/><circle cx="255.823" cy="180.679" fill="#fec165" r="61.319"/><path d="m228.575 180.679c0-27.9 18.737-51.491 44.284-58.893-5.413-1.568-11.124-2.426-17.035-2.426-33.812 0-61.319 27.508-61.319 61.319s27.508 61.319 61.319 61.319c5.911 0 11.623-.857 17.035-2.426-25.547-7.401-44.284-30.992-44.284-58.893z" fill="#fdb441"/><g><path d="m324.643 180.679c0-12.763-3.544-25.242-10.25-36.088-2.178-3.522-6.799-4.613-10.323-2.435-3.522 2.178-4.613 6.8-2.435 10.323 5.238 8.474 8.008 18.225 8.008 28.199 0 29.677-24.144 53.82-53.819 53.82s-53.819-24.144-53.819-53.82 24.144-53.818 53.819-53.818c8.832 0 17.601 2.201 25.357 6.366 3.65 1.958 8.196.589 10.156-3.061 1.959-3.65.589-8.196-3.061-10.156-9.932-5.331-21.154-8.149-32.453-8.149-37.947 0-68.819 30.872-68.819 68.818 0 37.947 30.872 68.82 68.819 68.82s68.82-30.872 68.82-68.819z"/><path d="m150.236 331.567c-3.316.58-6.689 1.285-10.027 2.096-4.024.978-6.495 5.033-5.518 9.059.833 3.43 3.902 5.731 7.282 5.731.586 0 1.182-.069 1.776-.214 3.022-.734 6.074-1.372 9.07-1.896 4.08-.714 6.81-4.6 6.096-8.68-.713-4.08-4.6-6.805-8.679-6.096z"/><path d="m466.756 383.76c-16.367-55.798-43.86-78.264-64.041-87.285-7.115-3.18-13.842-4.965-19.743-5.917 11.472-7.213 19.063-19.994 19.063-34.383 0-3.12-.381-6.219-1.088-9.238 8.448-1.476 16.522-5.452 22.979-11.91 14.499-14.5 16.552-37.098 5.692-53.848 10.859-16.75 8.807-39.348-5.692-53.848-6.316-6.316-14.177-10.26-22.422-11.811.774-3.155 1.188-6.402 1.188-9.678 0-19.211-13.529-35.559-31.764-39.61-4.052-18.233-20.398-31.763-39.609-31.764-3.117 0-6.212.381-9.228 1.085-1.476-8.447-5.462-16.519-11.919-22.977-14.499-14.499-37.098-16.552-53.848-5.692-16.748-10.857-39.346-8.807-53.849 5.693-6.315 6.316-10.259 14.177-11.81 22.422-3.155-.774-6.403-1.188-9.678-1.188-19.213 0-35.561 13.53-39.611 31.767-2.038.454-4.044 1.067-6.003 1.836-3.855 1.514-5.754 5.867-4.24 9.723 1.161 2.955 3.989 4.761 6.983 4.761.912 0 1.839-.167 2.739-.521 2.451-.963 5.016-1.537 7.622-1.708 3.755-.247 6.746-3.237 6.992-6.992.881-13.383 12.089-23.865 25.518-23.865 3.307 0 6.572.644 9.605 1.872 1.327 7.425 4.599 14.577 9.866 20.613.11.126.224.248.342.366l17.546 17.587c-9.847 4.051-18.902 9.646-26.859 16.486l-12.41-12.41c-2.93-2.928-7.678-2.928-10.607 0-2.929 2.93-2.929 7.678 0 10.607l12.41 12.41c-6.676 7.766-12.169 16.575-16.195 26.148l-17.878-17.835c-.118-.118-.24-.231-.365-.341-5.883-5.134-12.824-8.379-20.047-9.769-1.168-2.969-1.781-6.149-1.781-9.362 0-1.575.149-3.171.444-4.742.763-4.071-1.919-7.99-5.99-8.754-4.065-.755-7.99 1.918-8.754 5.99-.465 2.48-.7 5.006-.7 7.506 0 3.116.381 6.211 1.085 9.228-8.447 1.476-16.519 5.462-22.977 11.92-14.499 14.5-16.552 37.098-5.692 53.848-10.859 16.75-8.807 39.348 5.692 53.848 6.316 6.316 14.176 10.265 22.421 11.816-.773 3.153-1.187 6.399-1.187 9.673 0 14.804 8.039 27.901 20.069 34.988-5.986.937-12.836 2.727-20.092 5.97-36.563 16.344-55.007 56.487-64.042 87.286-1.085 3.701-.383 7.593 1.926 10.676 2.303 3.074 5.826 4.838 9.668 4.838h74.975c9.75 0 19.473-1.31 28.897-3.892 3.994-1.095 6.346-5.221 5.251-9.216-1.095-3.993-5.211-6.345-9.216-5.251-8.133 2.229-16.521 3.358-24.933 3.358h-59.663c10.133-7.846 26.905-19.358 47.546-27.966 3.823-1.594 5.63-5.985 4.035-9.809-1.593-3.823-5.984-5.63-9.809-4.035-20.516 8.556-37.257 19.577-48.275 27.861 11.662-29.754 28.383-50.263 48.94-59.784 12.958-6.002 24.389-6.211 29.944-5.825 6.749 13.19 20.498 22.172 36.15 22.172 3.117 0 6.212-.381 9.228-1.085 1.476 8.448 5.462 16.52 11.919 22.978.679.679 1.382 1.32 2.095 1.945-5.836 6.927-12.603 12.969-20.205 17.979-3.458 2.279-4.415 6.931-2.136 10.39 1.441 2.188 3.832 3.374 6.27 3.374 1.416 0 2.849-.4 4.12-1.238 7.184-4.734 13.719-10.271 19.56-16.5 2.542 10.501 7.915 20.137 15.75 27.973l3.304 3.304c.974.975 2.03 1.837 3.144 2.597v105.541c0 4.143 3.357 7.5 7.5 7.5s7.5-3.357 7.5-7.5v-101.793h15.895v101.794c0 4.143 3.357 7.5 7.5 7.5s7.5-3.357 7.5-7.5v-105.542c1.113-.76 2.168-1.622 3.142-2.596l3.307-3.306c7.625-7.625 12.917-16.958 15.539-27.133 20.468 21.299 49.103 33.705 78.931 33.705h74.975c3.841 0 7.365-1.764 9.667-4.838 2.308-3.083 3.01-6.975 1.924-10.677zm-103.587-102.069c-3.754.246-6.745 3.237-6.991 6.991-.881 13.383-12.089 23.865-25.518 23.865-3.307 0-6.572-.644-9.605-1.872-1.327-7.426-4.599-14.577-9.866-20.613-.11-.126-.224-.248-.342-.366l-17.546-17.588c9.847-4.052 18.902-9.646 26.859-16.486l12.41 12.41c1.464 1.464 3.384 2.196 5.303 2.196s3.839-.732 5.304-2.197c2.929-2.929 2.929-7.678-.001-10.606l-12.409-12.409c6.676-7.766 12.169-16.575 16.195-26.149l17.878 17.835c.118.118.24.231.365.341 5.883 5.133 12.823 8.372 20.044 9.762 1.169 2.97 1.784 6.153 1.784 9.369.001 13.429-10.481 24.637-23.864 25.517zm-64.605 56.484c-10.415 10.414-27.236 10.975-38.296 1.28-2.83-2.48-7.059-2.48-9.889 0-11.061 9.696-27.885 9.133-38.297-1.279-10.335-10.336-10.964-27.013-1.476-38.072l23.055-23.111c.005.001.011.002.016.003l-7.553 28.207c-1.071 4.002 1.304 8.113 5.305 9.186.65.174 1.303.257 1.945.257 3.312 0 6.343-2.211 7.24-5.562l7.993-29.849c2.384.173 4.789.265 7.216.265 2.094 0 4.171-.073 6.232-.202l7.977 29.786c.897 3.352 3.929 5.562 7.24 5.562.643 0 1.295-.083 1.945-.257 4.001-1.072 6.376-5.184 5.305-9.186l-7.498-28c.047-.01.093-.02.14-.03l22.877 22.932c9.488 11.057 8.858 27.735-1.477 38.07zm-126.56-157.495c0-46.218 37.602-83.819 83.819-83.819s83.819 37.602 83.819 83.819-37.602 83.819-83.819 83.819-83.819-37.602-83.819-83.819zm242.595-4.445c-2.48 2.83-2.48 7.059 0 9.889 9.696 11.061 9.134 27.883-1.28 38.296-10.334 10.335-27.011 10.965-38.071 1.477l-23.111-23.055c.001-.005.002-.011.003-.016l28.207 7.553c.65.174 1.303.257 1.945.257 3.312 0 6.343-2.211 7.24-5.562 1.071-4.002-1.304-8.113-5.305-9.186l-29.849-7.993c.173-2.384.265-4.789.265-7.216 0-2.094-.073-4.171-.202-6.232l29.786-7.977c4.001-1.072 6.376-5.184 5.305-9.186s-5.185-6.373-9.186-5.305l-28 7.498c-.01-.047-.02-.093-.031-.14l22.932-22.876c11.06-9.488 27.736-8.86 38.071 1.477 10.415 10.415 10.977 27.237 1.281 38.297zm-57.764-102.901c.246 3.754 3.237 6.745 6.991 6.991 13.383.881 23.865 12.089 23.865 25.518 0 3.306-.644 6.571-1.871 9.605-7.426 1.327-14.578 4.6-20.614 9.868-.125.109-.247.223-.365.341l-17.588 17.545c-4.051-9.847-9.646-18.902-16.486-26.858l12.41-12.41c2.929-2.93 2.929-7.678 0-10.607-2.93-2.928-7.678-2.928-10.607 0l-12.41 12.41c-7.766-6.676-16.575-12.169-26.148-16.195l17.835-17.878c.118-.118.231-.24.341-.365 5.134-5.883 8.378-12.824 9.769-20.047 2.969-1.168 6.149-1.781 9.362-1.781 13.427-.001 24.635 10.481 25.516 23.863zm-145.229-12.078c-9.488-11.06-8.857-27.736 1.478-38.071 10.415-10.414 27.236-10.976 38.296-1.28 2.83 2.48 7.059 2.48 9.889 0 11.059-9.697 27.884-9.134 38.297 1.279 10.335 10.336 10.964 27.013 1.476 38.072l-23.055 23.111c-.005-.001-.011-.002-.016-.003l7.553-28.207c1.071-4.002-1.304-8.113-5.305-9.186-4.002-1.069-8.114 1.304-9.186 5.305l-7.993 29.849c-2.384-.173-4.789-.265-7.216-.265-2.094 0-4.171.073-6.232.202l-7.977-29.786c-1.071-4.002-5.183-6.374-9.186-5.305-4.001 1.072-6.376 5.184-5.305 9.186l7.498 28c-.046.01-.093.02-.139.03zm-114.558 123.868c2.48-2.83 2.48-7.059 0-9.889-9.696-11.061-9.134-27.883 1.28-38.296 10.334-10.337 27.012-10.965 38.071-1.477l23.111 23.055c-.001.005-.002.011-.003.016l-28.207-7.553c-4.004-1.069-8.113 1.304-9.186 5.305-1.071 4.002 1.304 8.113 5.305 9.186l29.849 7.993c-.173 2.384-.265 4.789-.265 7.216 0 2.094.073 4.171.202 6.232l-29.786 7.977c-4.001 1.072-6.376 5.184-5.305 9.186.897 3.352 3.929 5.562 7.24 5.562.643 0 1.295-.083 1.945-.257l28-7.498c.01.047.02.093.031.14l-22.93 22.874c-11.058 9.489-27.736 8.861-38.071-1.477-10.415-10.412-10.977-27.234-1.281-38.295zm57.764 102.901c-.246-3.754-3.237-6.745-6.991-6.991-13.383-.881-23.865-12.089-23.865-25.518 0-3.304.643-6.565 1.868-9.597 7.427-1.327 14.58-4.607 20.617-9.876.125-.109.247-.223.365-.341l17.588-17.545c4.051 9.847 9.646 18.902 16.486 26.859l-12.409 12.409c-2.93 2.929-2.93 7.678-.001 10.606 1.465 1.465 3.384 2.197 5.304 2.197 1.919 0 3.839-.732 5.303-2.196l12.41-12.41c7.766 6.676 16.575 12.169 26.149 16.196l-17.836 17.879c-.118.118-.231.24-.341.365-5.133 5.883-8.378 12.824-9.769 20.046-2.968 1.167-6.149 1.781-9.362 1.781-13.427.001-24.635-10.482-25.516-23.864zm120.3 94.072-3.308 3.306c-1.257 1.258-2.929 1.95-4.708 1.95h-21.546c-1.779 0-3.451-.692-4.71-1.951l-3.305-3.304c-5.926-5.927-9.965-13.232-11.84-21.19 2.069.3 4.157.452 6.245.452 8.137-.001 16.285-2.283 23.383-6.885 9.532 6.179 20.958 8.171 31.708 6.073-1.835 8.097-5.904 15.534-11.919 21.549zm32.534-31.868c.517-.469 1.027-.949 1.526-1.448 6.315-6.316 10.259-14.177 11.81-22.422 3.155.774 6.403 1.188 9.678 1.188 15.9 0 29.83-9.272 36.46-22.804 5.413-.419 17.052-.334 30.293 5.798 20.557 9.521 37.278 30.031 48.941 59.784-11.018-8.284-27.76-19.306-48.276-27.862-3.821-1.595-8.215.211-9.809 4.035-1.595 3.823.212 8.215 4.035 9.809 20.642 8.608 37.414 20.121 47.547 27.967h-59.663c-27.972.001-54.729-12.644-72.542-34.045z"/><path d="m371.439 333.663c-3.338-.811-6.711-1.516-10.027-2.096-4.073-.707-7.967 2.016-8.68 6.096-.714 4.08 2.016 7.966 6.096 8.68 2.996.524 6.048 1.162 9.07 1.896.595.145 1.19.214 1.776.214 3.38 0 6.449-2.302 7.282-5.731.978-4.026-1.493-8.081-5.517-9.059z"/></g></g></svg>