<svg id="Capa_1" enable-background="new 0 0 511.669 511.669" height="512" viewBox="0 0 511.669 511.669" width="512" xmlns="http://www.w3.org/2000/svg"><g><g><path d="m404.981 153.922 13.721-25.48c4.041-7.504-.248-16.786-8.581-18.572l-31.176-6.682c-1.231-.264-2.466-.499-3.702-.711l-27.917-3.435-4.012-28.494c-.212-1.237-.447-2.471-.711-3.702l-6.682-31.176c-1.786-8.333-11.069-12.623-18.573-8.582l-25.479 13.722-41.818 15.912-39.443-15.912-25.48-13.721c-7.504-4.041-16.786.248-18.572 8.582l-6.682 31.176c-.264 1.231-.499 2.466-.711 3.702l-5.646 28.494-26.283 3.435c-1.237.212-2.471.447-3.702.711l-31.176 6.682c-8.333 1.786-12.623 11.069-8.582 18.572l13.722 25.48 21.192 41.484-21.193 39.777-13.721 25.479c-4.041 7.504.248 16.786 8.582 18.572l31.176 6.682c1.231.264 2.466.499 3.702.711l20.665 3.788 11.263 28.142c.212 1.237.447 2.471.711 3.702l6.682 31.176c1.786 8.333 11.068 12.623 18.572 8.582l25.48-13.721 36.666-19.573 44.595 19.574 25.479 13.721c7.504 4.041 16.786-.248 18.573-8.582l6.682-31.176 6.409-30.72 26.231-4.911c1.237-.212 2.471-.447 3.702-.711l31.176-6.682c8.333-1.786 12.622-11.069 8.581-18.572l-13.721-25.48-18.927-41.19z" fill="#fe93d3"/></g><path d="m206.403 464.805-57.326-28.957c-18.802-9.498-34.945-23.525-46.973-40.818l-1.259-1.81c-1.117-1.606-.004-3.809 1.952-3.863l2.204-.061c21.057-.581 41.927 4.088 60.729 13.585l57.326 28.957c9.104 4.599 12.756 15.706 8.157 24.81-4.599 9.103-15.707 12.755-24.81 8.157z" fill="#80d261"/><path d="m260.289 482.805 57.326-28.957c18.802-9.498 34.945-23.525 46.973-40.818l1.259-1.81c1.117-1.606.004-3.809-1.952-3.863l-2.204-.061c-21.057-.581-41.927 4.088-60.729 13.585l-57.326 28.957c-9.104 4.599-12.756 15.706-8.157 24.81 4.599 9.103 15.707 12.755 24.81 8.157z" fill="#80d261"/><g><path d="m315.445 77.964c-3.297-8.155-7.619-15.898-12.917-22.955l-26.281-35.008c-12.509-16.662-37.507-16.662-50.015-.001l-26.283 35.01c-5.298 7.057-9.62 14.8-12.916 22.954l-7.598 35.21-44.786 17.174c-8.155 3.297-15.898 7.619-22.955 12.916l-20.321 15.256c-24.009 18.025-24.009 54.045.001 72.069l20.319 15.254c7.057 5.298 14.8 9.62 22.955 12.917l31.075 13.113 21.309 39.271c3.297 8.155 7.619 15.898 12.917 22.955l26.282 35.008c12.508 16.661 37.505 16.662 50.014.001l26.286-35.011c5.296-7.056 9.617-14.799 12.914-22.953l17.993-39.27 34.391-13.114c8.154-3.297 15.898-7.618 22.956-12.916l35.008-26.283c16.661-12.509 16.661-37.506-.001-50.014l-35.008-26.281c-7.057-5.298-14.8-9.62-22.955-12.917l-31.253-7.594z" fill="#feaee1"/></g><path d="m381.03 184.474-13.55-10.17c-7.5-5.63-16.12-9.49-25.21-11.36l9.38-9.38c12.35-12.35 20.36-28.38 22.82-45.68l3.71-26.02c1.18-8.31-5.94-15.43-14.25-14.25l-26.02 3.7c-17.3 2.47-33.33 10.48-45.69 22.83l-9.37 9.38c-1.87-9.09-5.73-17.71-11.36-25.21l-10.17-13.55c-5.04-6.72-15.12-6.72-20.16 0l-10.17 13.55c-5.63 7.5-9.49 16.12-11.36 25.21l-9.38-9.38c-12.35-12.35-28.38-20.36-45.68-22.83l-11.97-1.702-15.936 19.155 13.934 49.901 14.513 19.089-4.643 14.446-36.114 19.99 17.541 17.726 23.216 14.554-8.211 19.743-23.388 43.343 3.151 23.941 9.097 8.966 18.808-2.682c17.3-2.46 33.33-10.47 45.68-22.82l9.38-9.38c1.87 9.09 5.73 17.71 11.36 25.21l10.17 13.55c5.04 6.72 15.12 6.72 20.16 0l10.17-13.55c5.63-7.5 9.49-16.12 11.36-25.21l9.37 9.38c12.36 12.35 28.39 20.36 45.69 22.82l26.02 3.71c8.31 1.18 15.43-5.94 14.25-14.25l-3.71-26.02c-2.46-17.3-10.47-33.33-22.82-45.69l-9.38-9.37c9.09-1.87 17.71-5.73 25.21-11.36l13.55-10.17c6.722-5.04 6.722-15.12.002-20.16z" fill="#ffdff3"/><g><path d="m155.858 306.803 3.7-26.02c2.47-17.3 10.48-33.33 22.83-45.69l2.327-2.325c3.051-3.048 1.873-8.188-2.171-9.686-5.687-2.107-11.076-5.034-15.986-8.719l-13.55-10.17c-6.72-5.04-6.72-15.12 0-20.16l13.55-10.17c4.911-3.687 10.302-6.614 15.991-8.721 4.043-1.497 5.222-6.635 2.174-9.684l-2.335-2.335c-12.35-12.35-20.36-28.38-22.83-45.68l-3.7-26.02c-.601-4.229.955-8.144 3.717-10.819l-21.025-2.99c-8.31-1.18-15.43 5.94-14.25 14.25l3.7 26.02c2.47 17.3 10.48 33.33 22.83 45.68l9.38 9.38c-9.09 1.87-17.71 5.73-25.21 11.36l-13.55 10.17c-6.72 5.04-6.72 15.12 0 20.16l13.55 10.17c7.5 5.63 16.12 9.49 25.21 11.36l-9.38 9.37c-12.35 12.36-20.36 28.39-22.83 45.69l-3.7 26.02c-1.18 8.31 5.94 15.43 14.25 14.25l21.868-3.118c-3.284-2.66-5.22-6.929-4.56-11.573z" fill="#ffceed"/></g><g id="XMLID_224_"><g><path d="m322.04 193.304c1.33.37 1.33 2.26 0 2.64l-19.88 5.55c-.51.14-.89.57-.98 1.1-.8 5-2.36 9.91-4.67 14.54-.2.4-.19.88.03 1.27l25.14 44.86c.68 1.2-.66 2.54-1.87 1.86l-44.78-25.24c-.4-.22-.87-.23-1.28-.02-4.63 2.3-9.55 3.85-14.56 4.65-.53.08-.96.46-1.1.97l-5.6 19.87c-.37 1.34-2.27 1.33-2.64 0l-5.55-19.88c-.14-.51-.57-.89-1.1-.98-5.01-.8-9.91-2.36-14.54-4.67-.41-.2-.88-.19-1.28.03l-44.85 25.14c-1.21.68-2.54-.66-1.86-1.87l25.23-44.78c.23-.4.23-.87.03-1.28-2.3-4.63-3.85-9.55-4.65-14.56-.08-.53-.46-.96-.97-1.1l-19.87-5.6c-1.34-.37-1.34-2.27 0-2.64l19.88-5.55c.51-.14.89-.57.97-1.1.8-5.01 2.36-9.91 4.67-14.54.21-.41.2-.88-.02-1.28l-25.14-44.85c-.68-1.21.66-2.54 1.87-1.86l44.78 25.23c.39.23.87.23 1.27.03 4.64-2.3 9.55-3.85 14.56-4.65.53-.08.96-.46 1.11-.97l5.6-19.87c.37-1.34 2.26-1.33 2.64 0l5.54 19.88c.15.51.58.89 1.11.97 5 .81 9.91 2.36 14.54 4.67.4.21.88.2 1.27-.02l44.85-25.14c1.21-.68 2.55.66 1.87 1.87l-25.24 44.78c-.22.39-.23.87-.02 1.28 2.3 4.63 3.85 9.54 4.65 14.56.08.52.45.96.97 1.1z" fill="#fff5c6"/></g></g><g><path d="m430.294 163.546-15.65-11.749 10.662-19.799c3.056-5.673 3.258-12.282.555-18.132s-7.866-9.979-14.167-11.329l-28.028-6.009 1.937-13.607c.9-6.319-1.173-12.533-5.687-17.047-4.515-4.514-10.727-6.592-17.047-5.687l-13.608 1.937-6.007-28.027c-1.35-6.302-5.479-11.466-11.329-14.169-5.849-2.702-12.459-2.5-18.132.555l-19.807 10.666c-2.51-3.2-7.128-3.826-10.398-1.372-3.313 2.487-3.981 7.188-1.495 10.501l14.437 19.23c3.507 4.671 6.58 9.72 9.189 15.062-6.856 3.891-13.206 8.678-18.798 14.27l-.577.578c-2.282-5.557-5.265-10.828-8.857-15.613l-10.173-13.55c-3.832-5.104-9.69-8.032-16.074-8.032 0 0 0 0-.001 0-.64 0-1.273.037-1.902.096-.027.002-.054.004-.081.007-5.602.542-10.66 3.359-14.092 7.93l-10.173 13.55c-3.593 4.786-6.575 10.058-8.857 15.613l-.577-.578c-5.592-5.592-11.942-10.379-18.798-14.27 2.609-5.341 5.682-10.389 9.188-15.061l26.283-35.009c7.216-9.611 20.499-12.33 30.899-6.327 3.584 2.069 8.173.84 10.245-2.747 2.07-3.587.841-8.174-2.747-10.245-16.965-9.791-38.629-5.356-50.394 10.313l-11.75 15.651-19.8-10.663c-5.674-3.055-12.281-3.259-18.132-.555-5.85 2.703-9.979 7.867-11.329 14.169l-6.008 28.027-13.606-1.937c-6.326-.903-12.533 1.173-17.047 5.686-4.514 4.514-6.587 10.727-5.688 17.048l1.938 13.607-28.028 6.008c-6.301 1.351-11.465 5.479-14.168 11.33-2.702 5.85-2.5 12.458.555 18.131l10.663 19.8-.963.723c-14.417 10.824-22.205 28.043-20.834 46.061.3 3.937 3.587 6.931 7.471 6.931.19 0 .383-.007.577-.021 4.13-.314 7.224-3.917 6.909-8.048-.98-12.884 4.583-25.193 14.883-32.926l20.32-15.256c4.673-3.507 9.722-6.58 15.062-9.189 3.891 6.856 8.678 13.206 14.27 18.798l.578.577c-5.557 2.282-10.828 5.265-15.613 8.857l-13.549 10.173c-5.105 3.832-8.034 9.69-8.034 16.074s2.928 12.243 8.033 16.076l13.55 10.172c4.785 3.593 10.057 6.575 15.613 8.857l-.578.577c-5.592 5.592-10.379 11.943-14.271 18.799-5.341-2.609-10.389-5.682-15.062-9.19l-20.318-15.252c-1.248-.937-2.453-1.962-3.583-3.049-2.985-2.871-7.734-2.778-10.604.206-2.872 2.985-2.779 7.733.206 10.604 1.568 1.509 3.242 2.934 4.976 4.234l.961.722-10.663 19.8c-3.055 5.673-3.257 12.281-.555 18.13 2.702 5.851 7.866 9.98 14.169 11.332l28.028 6.008-1.938 13.608c-.899 6.32 1.174 12.533 5.688 17.047 4.514 4.513 10.731 6.588 17.046 5.686l13.608-1.937 6.007 28.029c1.35 6.301 5.479 11.464 11.329 14.167 2.732 1.263 5.631 1.892 8.522 1.892 3.298 0 6.587-.818 9.609-2.446l19.8-10.662 11.749 15.65c5.611 7.474 13.477 12.521 22.325 14.523l-8.403 24.332c-1.678 4.86-3.104 9.785-4.284 14.759-1.081-.772-2.226-1.469-3.433-2.079l-57.326-28.957c-19.849-10.025-42.082-15.01-64.317-14.388l-6.755.186c-2.754.075-5.245 1.655-6.488 4.115-1.242 2.459-1.036 5.402.537 7.664l3.858 5.548c12.698 18.257 29.901 33.205 49.748 43.23l57.326 28.958c3.686 1.861 7.67 2.803 11.682 2.803 2.729 0 5.47-.436 8.138-1.313.988-.325 1.943-.711 2.872-1.142v32.322c0 4.143 3.357 7.5 7.5 7.5s7.5-3.357 7.5-7.5v-14.448c1.012.484 2.058.912 3.141 1.268 2.667.877 5.407 1.312 8.136 1.312 4.012 0 7.998-.941 11.683-2.803l20.733-10.473c3.697-1.867 5.18-6.379 3.313-10.076s-6.379-5.182-10.076-3.313l-20.733 10.473c-2.615 1.322-5.589 1.544-8.37.63-2.783-.915-5.043-2.858-6.363-5.474-1.321-2.614-1.545-5.588-.63-8.37.915-2.783 2.858-5.044 5.474-6.364l57.326-28.957c15.377-7.768 32.369-12.123 49.563-12.749-10.707 13.467-24.297 24.561-39.673 32.327l-8.045 4.064c-3.697 1.868-5.181 6.379-3.313 10.076s6.38 5.182 10.076 3.313l8.045-4.064c19.847-10.025 37.05-24.974 49.748-43.229l3.858-5.547c1.573-2.263 1.779-5.205.537-7.664-1.241-2.459-3.732-4.04-6.486-4.116l-6.757-.188c-22.222-.617-44.47 4.363-64.317 14.389l-55.329 27.948c1.26-8.404 3.289-16.687 6.082-24.774l9.98-28.899c9.5-1.731 17.981-6.928 23.93-14.851l11.75-15.651 19.8 10.662c3.023 1.628 6.312 2.446 9.609 2.446 2.892 0 5.79-.629 8.522-1.892 5.85-2.703 9.979-7.866 11.329-14.168l6.007-28.028 13.607 1.937c6.325.903 12.535-1.173 17.048-5.687 4.514-4.514 6.587-10.728 5.687-17.046l-1.937-13.608 28.028-6.007c6.3-1.35 11.464-5.479 14.167-11.329 2.703-5.851 2.501-12.459-.555-18.133l-10.662-19.799 15.651-11.75c9.846-7.393 15.493-18.693 15.493-31.006-.002-12.314-5.648-23.615-15.495-31.008zm-18.051-43.387c.705 1.525.652 3.249-.145 4.729l-9.587 17.803-7.227-5.425c-5.517-4.142-11.474-7.761-17.773-10.816 1.769-4.88 3.102-9.917 3.984-15.044l27.053 5.799c1.645.351 2.991 1.428 3.695 2.954zm-103.717-69.655-5.424-7.226 17.803-9.587c1.48-.797 3.202-.849 4.729-.145 1.525.704 2.603 2.052 2.955 3.694l5.797 27.054c-5.126.882-10.164 2.215-15.043 3.984-3.057-6.3-6.677-12.258-10.817-17.774zm-134.637-13.262c.353-1.643 1.43-2.99 2.955-3.694 1.526-.707 3.248-.652 4.729.145l17.803 9.587-5.426 7.227c-4.141 5.517-7.76 11.473-10.815 17.773-4.879-1.769-9.917-3.102-15.044-3.984zm-66.697 100.023-7.227 5.425-9.588-17.803c-.797-1.479-.85-3.203-.145-4.729s2.052-2.603 3.695-2.955l27.054-5.799c.882 5.127 2.215 10.165 3.984 15.045-6.299 3.055-12.256 6.675-17.773 10.816zm-16.959 131.682c-.705-1.525-.652-3.249.145-4.729l9.587-17.803 7.226 5.425c5.516 4.141 11.474 7.761 17.775 10.816-1.769 4.88-3.102 9.917-3.984 15.044l-27.054-5.798c-1.644-.352-2.99-1.43-3.695-2.955zm91.339 86.467c-1.48.797-3.204.85-4.729.145-1.525-.704-2.603-2.051-2.955-3.693l-5.798-27.055c5.127-.882 10.165-2.215 15.044-3.984 3.055 6.301 6.675 12.259 10.816 17.775l5.424 7.226zm42.946 97.853c-1.32 2.614-3.58 4.558-6.363 5.473-2.785.916-5.757.691-8.37-.629l-57.326-28.958c-15.376-7.767-28.966-18.859-39.673-32.326 17.192.626 34.186 4.981 49.562 12.748l57.326 28.957c2.615 1.32 4.559 3.581 5.474 6.364.915 2.782.691 5.756-.63 8.371zm45.729-88.663c-4.532 6.037-11.461 9.499-19.01 9.499-7.549-.001-14.477-3.463-19.009-9.5l-26.281-35.008c-3.508-4.672-6.581-9.721-9.19-15.062 6.856-3.891 13.206-8.678 18.798-14.27l.577-.578c2.282 5.556 5.266 10.827 8.857 15.613l10.173 13.55c3.833 5.105 9.693 8.033 16.076 8.032 6.384 0 12.242-2.928 16.074-8.032l10.173-13.55c3.593-4.785 6.575-10.057 8.857-15.613l.577.578c5.592 5.592 11.942 10.379 18.798 14.271-2.609 5.34-5.681 10.388-9.187 15.06zm58.341-12.74c-.353 1.644-1.43 2.99-2.955 3.694-1.523.707-3.248.652-4.729-.145l-17.803-9.587 5.427-7.229c4.14-5.515 7.759-11.472 10.813-17.772 4.88 1.769 9.917 3.102 15.044 3.984zm40.722-39.24c-1.145 1.146-2.713 1.674-4.327 1.443l-26.018-3.704c-15.588-2.22-30.304-9.573-41.437-20.707l-9.376-9.376c-1.951-1.95-4.815-2.675-7.458-1.88-2.642.792-4.637 2.971-5.192 5.673-1.646 8.005-5.107 15.688-10.012 22.22l-5.724 7.624v-18.857c0-4.143-3.357-7.5-7.5-7.5s-7.5 3.357-7.5 7.5v21.596l-7.78-10.363c-4.904-6.533-8.366-14.217-10.012-22.22-.556-2.702-2.551-4.881-5.192-5.673-.71-.213-1.435-.316-2.153-.316-1.961 0-3.877.77-5.305 2.196l-9.376 9.376c-11.133 11.134-25.849 18.487-41.436 20.707l-26.02 3.704c-1.605.228-3.181-.298-4.325-1.443-1.146-1.146-1.672-2.723-1.444-4.325l3.705-26.019c2.22-15.589 9.573-30.305 20.707-41.438l9.376-9.376c1.95-1.951 2.673-4.815 1.88-7.458-.792-2.642-2.971-4.637-5.673-5.192-8.005-1.646-15.688-5.107-22.22-10.012l-9.186-6.896h19.087c4.143 0 7.5-3.357 7.5-7.5s-3.357-7.5-7.5-7.5h-18.702l8.801-6.607c6.531-4.904 14.215-8.366 22.22-10.012 2.702-.556 4.881-2.551 5.673-5.192.793-2.643.07-5.507-1.88-7.458l-9.376-9.376c-11.134-11.133-18.487-25.849-20.707-41.437l-3.705-26.019c-.228-1.604.298-3.181 1.444-4.326 1.146-1.146 2.721-1.672 4.326-1.443l26.018 3.704c15.588 2.22 30.304 9.573 41.437 20.707l9.376 9.376c1.95 1.95 4.813 2.673 7.458 1.88 2.642-.792 4.637-2.971 5.192-5.673 1.646-8.003 5.107-15.687 10.012-22.22l5.564-7.412v16.141c0 4.143 3.357 7.5 7.5 7.5s7.5-3.357 7.5-7.5v-19.303l7.939 10.575c4.904 6.531 8.366 14.215 10.012 22.22.556 2.702 2.551 4.881 5.192 5.673 2.647.794 5.507.07 7.458-1.88l9.376-9.376c11.133-11.134 25.849-18.487 41.436-20.707l26.02-3.704c1.604-.229 3.181.298 4.326 1.443s1.672 2.722 1.443 4.326l-3.704 26.018c-2.22 15.589-9.573 30.305-20.706 41.438l-9.377 9.376c-1.951 1.951-2.674 4.814-1.882 7.457.793 2.643 2.972 4.638 5.674 5.193 8.005 1.646 15.688 5.107 22.221 10.012l5.849 4.392h-15.911c-4.143 0-7.5 3.357-7.5 7.5s3.357 7.5 7.5 7.5h22.199l-12.137 9.111c-6.532 4.904-14.216 8.366-22.221 10.012-2.702.556-4.881 2.551-5.673 5.192-.793 2.643-.07 5.507 1.88 7.458l9.376 9.376c11.134 11.134 18.488 25.85 20.708 41.438l3.704 26.019c.23 1.602-.297 3.178-1.442 4.324zm42.789-48.406c.797 1.48.85 3.204.145 4.729s-2.051 2.603-3.693 2.955l-27.054 5.798c-.882-5.127-2.215-10.165-3.984-15.044 6.301-3.054 12.259-6.674 17.776-10.816l7.225-5.424zm9.19-50.657-35.008 26.283c-4.673 3.508-9.722 6.58-15.063 9.189-3.891-6.856-8.678-13.206-14.271-18.799l-.578-.577c5.557-2.282 10.828-5.265 15.614-8.857l13.55-10.172c5.105-3.833 8.033-9.692 8.032-16.076 0-6.384-2.928-12.242-8.032-16.074l-13.55-10.173c-4.785-3.592-10.058-6.575-15.613-8.857l.578-.577c5.592-5.592 10.379-11.943 14.27-18.799 5.34 2.609 10.388 5.682 15.061 9.189l35.008 26.281c6.037 4.532 9.5 11.461 9.5 19.01.001 7.548-3.461 14.477-9.498 19.009z"/><path d="m324.056 203.165c3.874-1.083 6.479-4.513 6.483-8.534.005-4.022-2.593-7.458-6.465-8.549h-.001l-16.229-4.57c-.771-3.357-1.839-6.636-3.194-9.804l23.694-42.046c1.974-3.505 1.391-7.772-1.451-10.619-2.843-2.848-7.107-3.438-10.616-1.472l-42.111 23.604c-3.159-1.357-6.432-2.43-9.785-3.206l-4.531-16.233c-1.083-3.874-4.513-6.479-8.534-6.483-.004 0-.007 0-.011 0-4.018 0-7.448 2.597-8.538 6.466l-4.57 16.229c-3.358.771-6.638 1.84-9.804 3.194l-42.042-23.692c-3.504-1.976-7.772-1.396-10.622 1.448-2.849 2.842-3.439 7.109-1.472 10.616l23.604 42.112c-1.358 3.161-2.432 6.435-3.207 9.785l-16.228 4.53c-3.877 1.08-6.484 4.511-6.488 8.535-.005 4.024 2.595 7.46 6.466 8.548l16.229 4.571c.771 3.358 1.84 6.637 3.194 9.803l-23.695 42.048c-1.973 3.505-1.389 7.772 1.453 10.619 2.842 2.846 7.106 3.437 10.615 1.47l42.111-23.604c3.162 1.358 6.435 2.432 9.785 3.207l4.531 16.232c1.083 3.874 4.513 6.479 8.534 6.483h.011c4.018 0 7.448-2.597 8.538-6.466l4.57-16.229c3.358-.771 6.637-1.839 9.804-3.194l42.042 23.692c3.504 1.975 7.773 1.396 10.621-1.446 2.849-2.842 3.44-7.108 1.473-10.618l-23.604-42.111c1.358-3.163 2.432-6.436 3.207-9.786zm-34.01-36.094c-1.449 2.562-1.53 5.668-.217 8.307 1.942 3.908 3.274 8.078 3.959 12.399.488 3.068 2.559 5.65 5.396 6.817-2.834 1.158-4.911 3.737-5.405 6.812-.69 4.311-2.028 8.476-3.98 12.388-1.309 2.631-1.234 5.727.198 8.281l14.451 25.782-25.746-14.508c-1.344-.755-2.836-1.135-4.333-1.135-1.351 0-2.705.309-3.954.93-3.91 1.943-8.08 3.274-12.402 3.96-3.068.488-5.649 2.56-6.814 5.395-1.158-2.834-3.736-4.911-6.813-5.405-4.311-.69-8.476-2.028-12.373-3.974-2.631-1.314-5.73-1.245-8.296.191l-25.783 14.452 14.498-25.729c1.448-2.559 1.529-5.662.217-8.307-1.942-3.908-3.274-8.078-3.959-12.399-.489-3.074-2.563-5.657-5.394-6.817 2.832-1.158 4.909-3.736 5.403-6.812.69-4.311 2.028-8.476 3.98-12.387 1.308-2.627 1.234-5.722-.198-8.282l-14.451-25.782 25.746 14.508c2.557 1.438 5.653 1.514 8.289.206 3.908-1.943 8.078-3.275 12.387-3.958 3.075-.484 5.661-2.557 6.828-5.396 1.159 2.838 3.741 4.915 6.811 5.404 4.314.691 8.479 2.029 12.375 3.974 2.633 1.316 5.734 1.245 8.295-.191l25.785-14.452z"/></g></g></svg>