<svg id="Capa_1" enable-background="new 0 0 511.809 511.809" height="512" viewBox="0 0 511.809 511.809" width="512" xmlns="http://www.w3.org/2000/svg"><g><g id="XMLID_245_"><g fill="#80d261"><path d="m444.634 290.924c5.72 24.89 2.03 51.02-10.37 73.35l-6.48 11.68c-24.41 43.97-70.76 71.25-121.06 71.25h-32.43l-16.14-2.64 13.9-20.38 21.11-57.11c7.77-21.02 24.36-37.59 45.39-45.33l32.5-11.97c11.33-4.17 21.7-10.6 30.48-18.89l23.33-22.05c5.34-5.05 14.15-2.38 15.79 4.78z"/><path d="m239.754 424.184 12.16 18.51-14.4 4.51h-32.43c-50.3 0-96.65-27.28-121.06-71.25l-6.48-11.68c-12.4-22.33-16.09-48.46-10.37-73.35l3.98-17.31c1.64-7.16 10.45-9.83 15.79-4.78l23.33 22.05c8.78 8.29 19.15 14.72 30.48 18.89l32.5 11.97c21.03 7.74 37.62 24.31 45.39 45.33z"/></g></g><path d="m315.652 121.986c-10.577-22.683-33.57-38.411-60.248-38.411-26.655 0-49.631 15.7-60.221 38.35v48.581h120.468v-48.52z" fill="#fef0ae"/><path d="m214.44 129.458c10.589-22.651 33.566-38.35 60.221-38.35 4.891 0 9.657.533 14.247 1.537-9.836-5.759-21.281-9.069-33.504-9.069-26.655 0-49.631 15.7-60.221 38.35v48.581h19.257z" fill="#fee97d"/><path d="m378.086 103.865-14.37 5.97c-17.9 7.45-37.09 11.28-56.47 11.28h-104.8c-19.38 0-38.57-3.83-56.47-11.28l-14.37-5.97c-5.64-2.35-11.13 3.62-8.33 9.05l9.52 18.41c5.44 10.53 8.28 22.21 8.28 34.07v41.26c.025.089-.949 11.794 2.931 18.979 3.88 7.186 27.544 36.393 27.544 36.393l15.575 2.317h132.5l38.97-34.85 9.27-13.08.75-9.76v-41.26c0-11.86 2.84-23.54 8.28-34.07l9.52-18.41c2.8-5.429-2.69-11.399-8.33-9.049z" fill="#f9f7f8"/><path d="m141.076 165.396v41.26c.025.089-.949 11.794 2.931 18.979.711 1.317 2.091 3.378 3.863 5.858l24.162.566c-1.443-2.051-2.108-4.319-2.725-5.462-3.88-7.185-2.906-18.89-2.931-18.979v-41.26c0-11.86-2.84-23.54-8.28-34.07l-9.52-18.41c-.568-1.101-.78-2.221-.734-3.293-.622-.249-1.247-.492-1.866-.75l-14.37-5.97c-5.64-2.35-11.13 3.62-8.33 9.05l9.52 18.41c5.44 10.53 8.28 22.21 8.28 34.071z" fill="#efedef"/><path d="m370.508 212.4-36.179 18.92c-12.422 6.496-26.689 8.316-40.295 5.141l-25.288-5.901c-8.775-2.048-17.905-2.031-26.672.05l-24.196 5.743c-13.668 3.244-28.019 1.44-40.509-5.091l-8.288-4.334v19.534c14.08 16.945 67.761 53.887 67.761 53.887l11.062 12.121v197.975h21.471c1.477 0 2.675-1.198 2.675-2.675v-193.524l32.24-17.93c28.559-15.883 51.666-40.319 66.21-70.017l4.555-9.301c1.454-2.971-1.652-6.112-4.547-4.598z" fill="#ade194"/><path d="m259.422 317.23c0-10.623-5.757-20.412-15.041-25.575l-17.199-9.566c-23.591-13.12-43.446-32.088-57.844-55.027l-28.038-14.662c-2.895-1.514-6.001 1.627-4.547 4.597l4.555 9.301c14.544 29.698 37.651 54.134 66.21 70.017l32.24 17.93v193.525c0 1.478 1.198 2.675 2.675 2.675h16.989z" fill="#80d261"/><g fill="#fee45a"><path d="m255.904 57.139c-8.532 0-15.448-6.916-15.448-15.448v-18.743c0-8.531 6.916-15.448 15.448-15.448 8.531 0 15.448 6.916 15.448 15.448v18.744c0 8.531-6.916 15.447-15.448 15.447z"/><path d="m309.461 52.883c-6.644-5.352-7.69-15.077-2.338-21.721l3.071-3.812c5.352-6.644 15.077-7.69 21.721-2.338 6.644 5.352 7.69 15.077 2.338 21.721l-3.071 3.812c-5.352 6.644-15.077 7.691-21.721 2.338z"/><path d="m202.347 52.883c6.644-5.352 7.69-15.077 2.338-21.721l-3.071-3.812c-5.352-6.644-15.077-7.69-21.721-2.338-6.644 5.352-7.69 15.077-2.338 21.721l3.071 3.812c5.353 6.644 15.078 7.691 21.721 2.338z"/></g><g><path d="m243.346 305.559-29.495-16.066c-3.637-1.983-8.193-.64-10.174 2.998s-.639 8.192 2.999 10.174l25.583 13.936v65.664l-6.575-17.787c-8.545-23.116-26.71-41.257-49.837-49.771l-32.496-11.965c-10.442-3.844-19.836-9.668-27.923-17.311l-23.331-22.047c-4.488-4.24-10.697-5.704-16.607-3.917-5.911 1.79-10.266 6.451-11.648 12.47l-3.977 17.312c-6.144 26.741-2.194 54.68 11.123 78.669l6.479 11.673c25.721 46.335 74.621 75.119 127.617 75.119h27.175v49.601c0 4.143 3.358 7.5 7.5 7.5s7.5-3.357 7.5-7.5v-192.166c-.001-2.747-1.502-5.273-3.913-6.586zm-152.764 66.751-6.48-11.674c-11.516-20.745-14.932-44.905-9.619-68.029l3.977-17.312c.215-.938.866-1.318 1.375-1.472.51-.151 1.261-.198 1.959.462l23.331 22.047c9.569 9.043 20.687 15.936 33.043 20.484l32.496 11.965c19.003 6.996 33.929 21.902 40.95 40.896l20.645 55.847v.654l-16.22-9.831c-31.37-19.012-59.647-42.542-84.046-69.938l-27.99-31.428c-2.756-3.095-7.496-3.368-10.589-.612-3.093 2.755-3.367 7.495-.612 10.589l27.99 31.428c25.394 28.512 54.824 53.002 87.473 72.789l17.377 10.532h-20.558c-47.55.001-91.425-25.825-114.502-67.397z"/><path d="m451.944 289.247-3.977-17.312c-1.383-6.019-5.737-10.68-11.648-12.469-5.91-1.792-12.119-.325-16.607 3.916l-23.33 22.047c-8.088 7.643-17.483 13.467-27.923 17.311l-32.496 11.964c-23.127 8.517-41.292 26.658-49.836 49.773l-6.575 17.787v-65.664l28.328-15.432c30.051-16.369 54.025-41.201 69.33-71.81l4.554-9.108c2.106-4.212 1.273-9.269-2.073-12.583-.759-.751-1.609-1.365-2.514-1.851v-13.524c0-4.143-3.358-7.5-7.5-7.5s-7.5 3.357-7.5 7.5v15.419c0 .172.014.34.026.509l-29.122 14.916 1.97-8.272c1.872-7.86 2.821-15.942 2.821-24.022v-40.257c0-4.143-3.358-7.5-7.5-7.5s-7.5 3.357-7.5 7.5v40.257c0 6.911-.812 13.824-2.413 20.548l-4.232 17.771c-6.762 1.185-13.745 1.036-20.52-.513l-5.413-1.237 1.344-3.128c5.589-13.007 8.422-26.779 8.422-40.937v-20.412c0-4.143-3.358-7.5-7.5-7.5s-7.5 3.357-7.5 7.5v20.412c0 12.109-2.424 23.89-7.204 35.015l-2.428 5.651-5.011-1.146c-2.311-.528-4.654-.92-7.012-1.198v-35.85c0-4.143-3.358-7.5-7.5-7.5s-7.5 3.357-7.5 7.5v35.767c-2.702.287-5.387.723-8.029 1.338l-4.966 1.154-2.456-5.717c-4.78-11.125-7.204-22.905-7.204-35.015v-20.412c0-4.143-3.358-7.5-7.5-7.5s-7.5 3.357-7.5 7.5v20.412c0 14.157 2.833 27.93 8.422 40.937l1.394 3.245-4.386 1.02c-7.154 1.664-14.537 1.761-21.654.377l-4.176-17.535c-1.601-6.724-2.413-13.637-2.413-20.548v-40.257c0-4.143-3.358-7.5-7.5-7.5s-7.5 3.357-7.5 7.5v40.257c0 8.08.949 16.162 2.821 24.022l1.831 7.689-27.983-14.332c.011-.169.026-.338.026-.51v-41.258c0-12.997-3.154-25.969-9.12-37.515l-8.315-16.09 11.955 4.973c18.907 7.863 38.877 11.85 59.356 11.85h104.792c20.479 0 40.45-3.986 59.357-11.85l11.955-4.973-8.315 16.09c-4.968 9.613-7.941 19.967-8.836 30.772-.342 4.128 2.728 7.752 6.855 8.094 4.137.342 7.751-2.728 8.094-6.855.73-8.824 3.157-17.277 7.212-25.124l9.513-18.407c2.741-5.304 1.9-11.569-2.143-15.962-4.043-4.394-10.218-5.753-15.732-3.459l-14.363 5.975c-13.427 5.584-27.45 8.992-41.821 10.198-5.637-10.14-13.525-18.668-22.852-25.067 1.568-7.895 5.018-15.302 10.093-21.601l4.077-5.06c2.507.899 5.126 1.351 7.739 1.351 6.709 0 13.364-2.922 17.891-8.541l3.072-3.813c3.846-4.772 5.602-10.758 4.946-16.853s-3.646-11.569-8.419-15.413c-4.774-3.847-10.762-5.604-16.853-4.947-6.095.656-11.569 3.646-15.414 8.419l-3.072 3.813c-6.289 7.806-6.596 18.502-1.562 26.561l-4.087 5.073c-5.629 6.987-9.718 15.022-12.065 23.604-6.387-2.645-13.169-4.411-20.165-5.18v-13.14c8.98-3.116 15.448-11.656 15.448-21.683v-18.745c-.001-12.653-10.295-22.947-22.949-22.947s-22.948 10.294-22.948 22.947v18.744c0 10.027 6.467 18.567 15.448 21.683v13.048c-7.021.675-13.837 2.353-20.266 4.919-2.362-8.449-6.413-16.36-11.964-23.251l-4.087-5.073c5.034-8.06 4.728-18.756-1.562-26.562l-3.07-3.811c-3.846-4.773-9.32-7.764-15.415-8.42-6.098-.655-12.079 1.102-16.852 4.946-4.773 3.845-7.763 9.319-8.419 15.414s1.101 12.08 4.947 16.854l3.071 3.811c4.528 5.62 11.182 8.542 17.892 8.542 2.612 0 5.231-.452 7.738-1.351l4.077 5.06c4.95 6.145 8.35 13.345 9.97 21.022-9.683 6.444-17.876 15.148-23.685 25.564-14.038-1.275-27.736-4.656-40.865-10.115l-14.365-5.976c-5.513-2.29-11.687-.934-15.73 3.46-4.042 4.393-4.884 10.658-2.143 15.962l9.513 18.407c4.872 9.426 7.446 20.017 7.446 30.628v39.363c-.905.486-1.755 1.1-2.514 1.851-3.347 3.314-4.18 8.371-2.074 12.581l4.555 9.111c10.698 21.396 25.575 39.896 44.218 54.985 3.219 2.607 7.942 2.109 10.548-1.11s2.109-7.942-1.111-10.548c-16.332-13.22-29.487-29.313-39.129-47.859l24.823 12.714c14.046 7.196 30.251 9.19 45.626 5.616l24.196-5.624c7.618-1.773 15.677-1.788 23.303-.044l25.289 5.781c15.298 3.495 31.417 1.482 45.385-5.672l24.934-12.771c-13.963 26.854-35.349 48.661-61.979 63.168l-32.24 17.563c-2.411 1.313-3.912 3.84-3.912 6.586v192.164c0 4.143 3.358 7.5 7.5 7.5s7.5-3.357 7.5-7.5v-49.601h27.175c11.49 0 22.974-1.361 34.133-4.045 4.027-.969 6.507-5.019 5.538-9.046s-5.018-6.505-9.046-5.538c-10.012 2.408-20.316 3.629-30.625 3.629h-20.558l17.377-10.532c19.947-12.089 38.89-26.088 56.301-41.606 3.092-2.756 3.365-7.497.609-10.589-2.756-3.091-7.497-3.364-10.589-.608-16.729 14.91-34.93 28.36-54.095 39.976l-16.22 9.831v-.654l20.645-55.846c7.021-18.994 21.947-33.901 40.95-40.898l32.496-11.964c12.354-4.548 23.472-11.44 33.043-20.484l23.331-22.047c.699-.66 1.45-.614 1.959-.462.508.153 1.159.534 1.375 1.472l3.977 17.312c5.313 23.124 1.897 47.284-9.619 68.03l-6.479 11.672c-12.772 23.008-31.942 41.445-55.439 53.321-3.697 1.868-5.179 6.38-3.311 10.076 1.32 2.612 3.96 4.119 6.7 4.119 1.138 0 2.292-.26 3.377-.809 26.187-13.234 47.553-33.784 61.788-59.428l6.479-11.673c13.313-23.988 17.263-51.928 11.119-78.668zm-138.981-253.379 3.072-3.813c1.332-1.653 3.228-2.688 5.338-2.916.29-.031.578-.047.865-.047 1.806 0 3.545.611 4.972 1.761 1.653 1.331 2.688 3.227 2.916 5.338.228 2.11-.381 4.184-1.712 5.836l-3.072 3.813c-2.749 3.41-7.76 3.951-11.172 1.206-.001-.001-.002-.002-.004-.003-.001-.001-.002-.001-.003-.002-3.409-2.752-3.948-7.762-1.2-11.173zm-126.497 9.971-3.071-3.811c-1.332-1.653-1.94-3.727-1.713-5.837.227-2.111 1.263-4.007 2.916-5.339 1.426-1.148 3.165-1.76 4.971-1.76.287 0 .576.016.865.047 2.11.228 4.006 1.263 5.339 2.917l3.071 3.811c2.748 3.412 2.21 8.422-1.199 11.172-.001.001-.002.001-.003.002s-.002.002-.004.003c-3.411 2.747-8.423 2.208-11.172-1.205zm107.464 68.832 1.024-8.301c2.776 2.507 5.322 5.284 7.595 8.301zm-12.93-17.696-2.183 17.696h-15.413v-23.037c6.16.852 12.091 2.676 17.596 5.341zm-33.043-74.028c0-4.382 3.565-7.947 7.948-7.947s7.948 3.565 7.948 7.947v18.744c0 4.383-3.565 7.948-7.948 7.948s-7.948-3.565-7.948-7.948zm.447 91.724h-15.413l-2.238-18.146c5.536-2.561 11.486-4.274 17.65-5.019v23.165zm-31.648-9.098 1.122 9.097h-9.619c2.517-3.34 5.37-6.385 8.497-9.097z"/><path d="m382.426 365.717c2.909-3.057 5.8-6.196 8.591-9.33 2.755-3.094 2.481-7.834-.612-10.589-3.092-2.754-7.833-2.479-10.589.612-2.682 3.012-5.459 6.027-8.255 8.965-2.855 3-2.739 7.748.262 10.604 1.452 1.382 3.312 2.067 5.17 2.067 1.981 0 3.959-.78 5.433-2.329z"/></g></g></svg>