<svg id="Capa_1" enable-background="new 0 0 511.551 511.551" height="512" viewBox="0 0 511.551 511.551" width="512" xmlns="http://www.w3.org/2000/svg"><g><g id="XMLID_248_"><g><path d="m220.967 276.926v9.67c0 45.49-36.87 82.36-82.36 82.36h-76.47c-3.32 0-6.01-2.69-6.01-6v-76.47c0-20.27 7.33-38.81 19.47-53.16l33.26-42.95 108.33 25.4z" fill="#80d261"/></g></g><g id="XMLID_247_"><g><g><path d="m423.467 350.506v38.74c0 36.23-29.38 65.61-65.62 65.61h-42.83v-42.84c0-36.23 29.37-65.61 65.61-65.61h38.74c2.26 0 4.1 1.84 4.1 4.1z" fill="#80d261"/></g></g></g><path d="m157.91 43.171-24.912-32.274c-3.471-4.496-10.336-4.238-13.46.506l-19.347 29.385c-1.267 1.925-3.28 3.234-5.553 3.612l-26.232 4.362c-2.736.455-5.061 2.25-6.194 4.781l-10.864 24.271c-.941 2.103-2.718 3.719-4.9 4.457l-33.328 11.275c-5.381 1.82-7.369 8.396-3.898 12.893l24.912 32.274 56.616 76.75 119.468-109.154z" fill="#fecec8"/><path d="m235.34 217.033 6.249 8.095c10.931 14.161 8.312 34.503-5.849 45.433-14.161 10.931-34.503 8.312-45.434-5.849l-6.249-8.095-17.47-22.431 51.374-39.894z" fill="#68ca44"/><path d="m400.603 282.099-1.891 8.927c-3.307 15.617-18.649 25.596-34.266 22.288-15.617-3.307-25.596-18.649-22.288-34.266l1.891-8.927 8.312-30.482 51.732 11.5z" fill="#80d261"/><path d="m474.028 128.958 7.538-35.592c1.05-4.959-3.094-9.476-8.125-8.857l-31.16 3.835c-2.041.251-4.094-.36-5.665-1.687l-18.129-15.31c-1.891-1.597-4.456-2.14-6.831-1.447l-22.779 6.646c-1.974.576-4.099.302-5.863-.755l-26.93-16.138c-4.348-2.605-9.967-.155-11.018 4.803l-7.538 35.592-20.649 99.01 141.478 30.227z" fill="#fecec8"/><path d="m332.976 259.074-25.39-16.555c-13.579-8.854-20.689-24.86-18.156-40.872l15.338-96.932c1.594-10.071 12.936-15.264 21.601-9.888l35.564 22.063 44.671 28.478-23.819 136.418z" fill="#fec0b7"/><g id="XMLID_246_"><path d="m415.204 276.489 29.922-4.841c16.003-2.589 28.991-14.338 33.166-30.002l25.275-94.827c2.626-9.853-5.638-19.197-15.738-17.796l-41.455 5.751-67.114 15.466-18.2 124.659z" fill="#fec0b7"/><g><path d="m452.207 140.776c6.76 6.43 9.69 15.9 7.76 25.02l-14.55 68.71c-7.2 33.98-40.57 55.69-74.55 48.49-33.98-7.19-55.69-40.57-48.49-74.55l14.55-68.71c1.93-9.12 8.46-16.58 17.24-19.72l39.84-14.24c9.55-3.41 20.21-1.16 27.55 5.83z" fill="#ffa799"/></g><path d="m357.822 227.182 14.55-68.71c1.93-9.12 8.46-16.58 17.24-19.72l39.84-14.24c1.463-.522 2.953-.896 4.452-1.156l-12.347-11.751c-7.34-6.99-18-9.24-27.55-5.83l-39.84 14.24c-8.78 3.14-15.31 10.6-17.24 19.72l-14.55 68.71c-7.2 33.98 14.51 67.36 48.49 74.55.965.204 1.929.379 2.893.537-13.761-14.505-20.396-35.308-15.938-56.35z" fill="#fe8f83"/></g><path d="m240.598 200.921 12.053-21.648c10.015-17.987 8.971-40.096-2.695-57.059l-60.78-88.384c-6.108-8.882-19.36-8.461-24.892.791l-21.978 36.759-28.81 51.089 107.099 104.218z" fill="#fec0b7"/><path d="m166.588 258.049-33.247 8.648c-14.447 3.758-29.775-1.014-39.535-12.308l-72.509-83.899c-8.773-10.151-4.112-25.975 8.763-29.749l36.098-10.582 89.768-23.85 70.578 92.675-24.076 43.375z" fill="#fec0b7"/><path d="m186.876 244.788-33.247 8.648c-14.447 3.758-29.775-1.014-39.536-12.308l-72.508-83.899c-4.825-5.583-5.579-12.878-3.145-18.945l-8.38 2.457c-12.875 3.774-17.536 19.598-8.763 29.749l72.508 83.899c9.761 11.294 25.089 16.066 39.536 12.308l33.247-8.648 35.841-15.69 3.211-5.785z" fill="#feb2a7"/><path d="m214.521 243.072c-30.81 23.782-75.066 18.085-98.847-12.725l-48.095-62.308c-6.384-8.27-8.021-19.259-4.326-29.031l16.772-44.356c4.019-10.628 13.681-18.087 24.981-19.283l47.157-4.991c10.389-1.099 20.605 3.268 26.989 11.538l48.095 62.308c23.781 30.81 18.084 75.066-12.726 98.848z" fill="#ffa799"/><path d="m150.547 210.303-35.488-45.976c-14.218-18.42-17.866-42.896-9.636-64.661l9.475-25.058c.039-.102.086-.198.126-.3l-10.018 1.06c-11.3 1.196-20.962 8.654-24.981 19.283l-16.772 44.355c-3.695 9.772-2.057 20.761 4.326 29.032l48.095 62.308c23.782 30.81 68.037 36.507 98.847 12.725 2.909-2.246 5.593-4.675 8.051-7.257-26.099 6.164-54.573-2.902-72.025-25.511z" fill="#fe8f83"/><path d="m506.088 128.731c-4.841-5.474-12.054-8.14-19.29-7.138l-3.65.506 5.756-27.179c.994-4.694-.349-9.607-3.592-13.144s-8.024-5.303-12.786-4.711l-31.07 3.861-18.129-15.31c-3.822-3.227-8.972-4.315-13.771-2.917l-22.687 6.658-26.929-16.136c-4.116-2.467-9.199-2.795-13.598-.877s-7.618 5.865-8.613 10.56l-5.643 26.645-1.765-1.095c-6.209-3.852-13.884-4.336-20.527-1.294-6.645 3.041-11.293 9.166-12.435 16.384l-15.337 96.932c-2.991 18.903 5.436 37.873 21.467 48.326l25.347 16.526c2.147 2.705 4.473 5.23 6.959 7.564l-.975 4.604c-2.362 11.155.685 22.216 7.354 30.457-9.401 11.271-17.284 23.544-23.557 36.683-6.141-23.438-19.323-44.591-37.87-60.443l-27.999-23.929c5.306-12.789 3.825-27.994-5.224-39.717l-3.572-4.628c1.562-3.973 2.786-8.058 3.678-12.211l11.572-20.784c11.481-20.62 10.306-45.511-3.068-64.957l-60.78-88.384c-4.323-6.285-11.459-9.894-19.079-9.651-7.625.242-14.515 4.296-18.43 10.844l-.014.023-18.896-24.485c-3.107-4.025-7.992-6.291-13.079-6.124-5.082.191-9.786 2.841-12.582 7.089l-19.348 29.384c-.118.18-.308.303-.518.338l-26.232 4.361c-5.229.87-9.644 4.278-11.81 9.116l-10.864 24.273c-.087.195-.254.347-.458.416l-33.328 11.274c-4.817 1.63-8.572 5.509-10.043 10.377-1.472 4.867-.496 10.178 2.612 14.204l19.18 24.847c-5.8 3.273-10.164 8.672-12.098 15.236-2.504 8.503-.539 17.583 5.257 24.289l50.276 58.175c-11.168 15.315-17.272 33.863-17.272 52.914v76.47c0 7.447 6.059 13.507 13.506 13.507h76.47c24.495 0 47.394-9.694 64.479-27.297 2.885-2.973 2.814-7.721-.158-10.605-2.973-2.884-7.72-2.814-10.605.158-7.064 7.279-15.323 12.93-24.343 16.781v-90.058l.5-.13c.102-.027.199-.063.299-.093.949.034 1.898.056 2.845.056 3.095 0 6.171-.19 9.216-.553l3.534 4.578c6.511 8.435 15.917 13.829 26.484 15.189.873.112 1.745.195 2.616.251v1.858c0 9.42-1.748 18.638-5.195 27.396-1.517 3.854.378 8.209 4.232 9.726.902.355 1.831.523 2.745.523 2.992 0 5.819-1.803 6.981-4.755 4.139-10.516 6.237-21.581 6.237-32.89v-3.782c4.224-1.399 8.227-3.514 11.853-6.313 1.465-1.131 2.821-2.351 4.084-3.635l26.597 22.731c18.803 16.07 31.306 38.371 35.205 62.795.865 5.418 1.304 10.947 1.304 16.434v37.195 42.838 49.015c0 4.143 3.358 7.5 7.5 7.5s7.5-3.357 7.5-7.5v-41.515h35.338c40.314 0 73.112-32.798 73.112-73.112v-38.738c0-6.396-5.204-11.6-11.6-11.6h-38.739c-20.92 0-39.802 8.846-53.141 22.977 6.319-16.18 15.155-31.095 26.329-44.463 2.808 1.443 5.846 2.547 9.08 3.232 2.533.537 5.06.795 7.552.795 16.826-.001 31.982-11.761 35.605-28.866l.964-4.553c3.33-1.153 6.562-2.55 9.669-4.181l29.64-4.795c18.894-3.056 34.287-16.98 39.215-35.474l25.275-94.828c1.882-7.063.116-14.547-4.725-20.021zm-329.335-93.81c2.519-.078 4.808 1.07 6.244 3.159l60.78 88.384c9.351 13.598 10.803 30.708 4.119 45.542-2.266-11.434-7.12-22.528-14.712-32.365l-48.095-62.308c-6.921-8.966-17.668-14.321-28.87-14.607l14.503-24.256c1.299-2.175 3.498-3.468 6.031-3.549zm-161.722 66.237c.115-.381.39-.474.493-.509l33.326-11.273c4.148-1.402 7.554-4.5 9.343-8.497l10.864-24.272c.106-.237.323-.404.579-.447l26.235-4.362c4.319-.72 8.177-3.229 10.583-6.886l19.348-29.385c.06-.091.219-.332.617-.348.377-.012.574.214.641.301l22.501 29.15-11.797 19.73-33.549 3.55c-14.2 1.503-26.157 10.733-31.207 24.089l-12.05 31.867-23.494 6.887-22.306-28.897c-.066-.086-.243-.316-.127-.698zm9.724 54.185c1.072-3.639 3.774-6.338 7.415-7.405l22.59-6.622c-2.434 10.819.029 22.427 6.881 31.306l26.295 34.065c2.531 3.278 7.242 3.884 10.52 1.354 3.279-2.531 3.886-7.241 1.354-10.521l-26.294-34.064c-4.757-6.163-6.001-14.516-3.249-21.797l16.772-44.355c3.035-8.026 10.221-13.574 18.755-14.478l47.158-4.99c7.74-.814 15.505 2.5 20.263 8.663l48.095 62.308c21.216 27.487 16.115 67.11-11.371 88.328-13.315 10.278-29.836 14.755-46.519 12.607s-31.531-10.664-41.809-23.979l-2.266-2.936c-2.532-3.278-7.241-3.886-10.52-1.354-3.279 2.531-3.885 7.24-1.354 10.52l2.266 2.936c7.629 9.883 17.302 17.611 28.269 22.805l-6.552 1.705c-2.697.702-5.418 1.025-8.108 1.022h-.867c-8.735-.248-17.065-4.11-22.998-10.977l-72.508-83.899c-2.482-2.87-3.29-6.602-2.218-10.242zm38.872 162.748h24.097l-24.097 30.43zm42.369 1.089v42.279h-33.48zm-6.394-16.089h-35.975v-16.608c0-3.707.293-7.388.836-11.021h57.019zm-11.471-43.798c.346.401.708.781 1.065 1.168h-20.884c1.975-5.322 4.563-10.416 7.707-15.182zm64.844 100.785c-4.684.905-9.488 1.381-14.372 1.381h-17.607v-61.222l22.518-28.436 9.462-2.461v90.738zm78.182-95.454c-5.263 4.063-11.792 5.829-18.387 4.983-6.219-.8-11.792-3.842-15.814-8.601 7.881-2.734 15.353-6.753 22.148-11.999 6.882-5.312 12.609-11.567 17.184-18.43 3.607 5.104 5.15 11.283 4.347 17.52-.849 6.596-4.215 12.464-9.478 16.527zm121.213-198.452 26.79 16.054c3.543 2.123 7.85 2.676 11.818 1.521l22.718-6.629 18.082 15.269c3.157 2.667 7.321 3.911 11.421 3.4l30.997-3.814-6.845 32.318-18.839 2.614-21.783-20.73c-9.452-8.994-22.957-11.854-35.243-7.464l-28.317 10.119-17.529-10.874zm-55.532 136.647 15.337-96.932c.36-2.275 1.768-4.13 3.863-5.089 2.095-.958 4.419-.813 6.376.401l23.377 14.502c-8.199 4.853-14.199 13.029-16.201 22.482l-14.552 68.713c-2.273 10.736-2.009 21.609.628 31.938l-3.984-2.598c-11.085-7.228-16.912-20.345-14.844-33.417zm37.183 244.537 13.68-13.797h47.681c-10.134 8.596-23.234 13.797-37.532 13.797zm18.056-85.925c5.987-3.392 12.624-5.765 19.683-6.85v33.41l-19.683 19.852zm63.885 22.147h-18.706l18.706-18.866zm-7.967 34.981h-45.421l19.811-19.98h32.818c-1.166 7.185-3.656 13.928-7.208 19.98zm-21.235-45.697v-18.957h18.796zm-49.683.738v49.372l-14.564 14.689v-25.643c-.001-14.719 5.51-28.168 14.564-38.418zm28.924-67.622c-10.841-2.296-18.029-12.471-16.843-23.262 6.208 3.512 12.978 6.101 20.156 7.621 4.956 1.05 9.902 1.556 14.778 1.556 2.263 0 4.507-.122 6.732-.336-3.296 10.335-13.985 16.713-24.823 14.421zm130.318-161.092-25.275 94.828c-3.408 12.788-14.052 22.416-27.117 24.53l-4.631.749c5.018-6.416 9.001-13.809 11.622-22.005 1.262-3.945-.914-8.166-4.859-9.428-3.944-1.263-8.167.914-9.428 4.859-8.68 27.145-36.288 43.151-64.21 37.242-14.473-3.065-26.886-11.583-34.952-23.984s-10.821-27.202-7.755-41.675l14.552-68.713c1.381-6.523 6.141-11.971 12.42-14.215l39.847-14.24c6.921-2.476 14.529-.862 19.854 4.205l30.653 29.171c4.904 4.668 6.995 11.408 5.592 18.03l-9.223 43.546c-.858 4.052 1.731 8.033 5.783 8.891 4.055.863 8.033-1.73 8.892-5.783l9.223-43.546c2.002-9.452-.168-19.358-5.696-27.118l27.248-3.78c2.282-.314 4.466.492 5.992 2.218s2.061 3.992 1.468 6.218z"/></g></svg>