<svg id="Capa_1" enable-background="new 0 0 511.129 511.129" height="512" viewBox="0 0 511.129 511.129" width="512" xmlns="http://www.w3.org/2000/svg"><g><path d="m270.755 468.45h-49.854c-18.93 0-34.275-15.346-34.275-34.275v-20.986c0-4.165 3.376-7.541 7.541-7.541h42.313c18.93 0 34.275 15.346 34.275 34.275z" fill="#80d261"/><path d="m256.848 268.064-9.135-13.14-7.313-17.284-49.15 26.242 18.339 17.548 9.135 13.14c7.319 10.528 21.787 13.129 32.315 5.81 10.528-7.32 13.129-21.788 5.809-32.316z" fill="#80d261"/><path d="m230.644 285.677-9.135-13.14-16.643-15.925-13.616 7.27 18.339 17.548 9.135 13.14c7.319 10.528 21.787 13.129 32.315 5.81 2.361-1.641 4.32-3.644 5.861-5.879-9.488 3.094-20.266-.208-26.256-8.824z" fill="#68ca44"/><g id="XMLID_250_"><g><path d="m163.041 111.263c2.1-10.52 8.16-20.11 17.37-26.52l16.42-11.41c2.65-1.84 6.3-.23 6.73 2.96l3.13 23.26c2.61 19.32 9.77 37.75 20.9 53.76l19.71 28.35c20.4 29.34 13.15 69.66-16.19 90.05-11.26 7.83-24.13 11.58-36.88 11.58-20.47 0-40.6-9.69-53.17-27.77l-19.71-28.35c-11.13-16.01-25.91-29.14-43.12-38.31l-20.71-11.04c-2.84-1.51-3.08-5.5-.43-7.34l16.42-11.42c9.21-6.4 20.32-8.74 30.91-7.04-11.67-16.79-16.17-37.54-12.49-57.65l1.41-7.74c1.05-5.73 6.53-9.53 12.27-8.52l7.74 1.37c20.13 3.55 38.02 15 49.69 31.78z" fill="#f9f7f8"/></g></g><g><path d="m213.509 266.957c-20.47 0-40.6-9.69-53.17-27.77l-19.71-28.35c-11.13-16.01-25.91-29.14-43.12-38.31l-20.71-11.04c-1.279-.68-2.025-1.863-2.223-3.126-.356.232-.714.458-1.065.702l-16.42 11.42c-2.65 1.84-2.41 5.83.43 7.34l20.71 11.04c17.21 9.17 31.99 22.3 43.12 38.31l19.71 28.35c12.57 18.08 32.7 27.77 53.17 27.77 12.75 0 25.62-3.75 36.88-11.58 5.329-3.703 9.931-8.066 13.769-12.899-9.854 5.489-20.659 8.143-31.371 8.143z" fill="#efedef"/></g><g fill="#fec165"><circle cx="64.065" cy="31.915" r="15.128"/><circle cx="30.22" cy="76.445" r="15.128"/><circle cx="118.416" cy="15.129" r="15.128"/></g><path d="m330.106 325.257-9.408 15.886-6.496 11.063c-5.204 8.864-2.238 20.268 6.625 25.472 8.864 5.204 20.268 2.238 25.473-6.625l6.496-11.063 8.057-12.896z" fill="#80d261"/><path d="m326.518 360.727 6.496-11.063 9.314-15.728-12.222-8.68-9.408 15.886-6.496 11.063c-5.204 8.864-2.238 20.268 6.625 25.472 1.873 1.1 3.861 1.813 5.878 2.205-3.472-5.67-3.79-13.019-.187-19.155z" fill="#68ca44"/><g id="XMLID_249_"><g><path d="m431.981 248.553c8.36-2.02 17.38-.82 25.14 3.73l13.82 8.12c2.23 1.31 2.29 4.51.11 5.89l-15.88 10.1c-13.19 8.38-24.2 19.78-32.11 33.26l-14.02 23.87c-14.5 24.7-46.28 32.97-70.98 18.46-16.45-9.66-25.61-26.98-25.61-44.77 0-8.92 2.3-17.96 7.14-26.21l14.02-23.87c7.91-13.48 12.51-28.65 13.4-44.25l1.08-18.79c.15-2.57 2.97-4.08 5.2-2.78l13.83 8.12c7.75 4.55 13.18 11.85 15.5 20.13 8.3-14.13 21.9-24.37 37.77-28.45l6.11-1.57c4.52-1.16 9.13 1.55 10.32 6.06l1.61 6.1c4.17 15.85 1.85 32.71-6.45 46.85z" fill="#f9f7f8"/></g></g><g><path d="m333.149 315.303c0-8.92 2.3-17.96 7.14-26.21l14.02-23.87c7.91-13.48 12.51-28.65 13.4-44.25l1.08-18.79c.031-.523.183-1.007.408-1.428-.672-.463-1.364-.904-2.075-1.322l-13.83-8.12c-2.23-1.3-5.05.21-5.2 2.78l-1.08 18.79c-.89 15.6-5.49 30.77-13.4 44.25l-14.02 23.87c-4.84 8.25-7.14 17.29-7.14 26.21 0 17.79 9.16 35.11 25.61 44.77 5.785 3.398 11.961 5.548 18.209 6.528-14.874-9.893-23.122-26.342-23.122-43.208z" fill="#efedef"/></g><circle cx="453.435" cy="151.412" fill="#fec165" r="12.127"/><circle cx="409.655" cy="141.734" fill="#fec165" r="12.127"/><circle cx="483.909" cy="185.335" fill="#fec165" r="12.127"/><g><path d="m490.049 174.878c-5.775-3.391-13.206-1.458-16.598 4.317-.681 1.161-1.138 2.389-1.402 3.637-10.735 5.939-20.396 13.768-28.42 23.063-.291-1.523-.614-3.04-1.01-4.544l-1.604-6.094c-.431-1.639-1.111-3.149-1.979-4.509l15.196-25.879c.271-.462.485-.941.648-1.429 3.628-.438 7.02-2.492 9.013-5.887 3.391-5.775 1.458-13.207-4.317-16.598s-13.206-1.458-16.598 4.317c-1.994 3.395-2.135 7.357-.75 10.74-.347.38-.661.8-.932 1.262l-15.315 26.083c-1.454-.041-2.934.105-4.408.486l-6.104 1.567c-1.357.349-2.695.753-4.024 1.184 4.129-11.44 6.227-23.574 6.18-35.727.959-.837 1.807-1.833 2.487-2.991 3.391-5.775 1.458-13.207-4.317-16.598s-13.206-1.458-16.598 4.317c-3.209 5.465-1.646 12.406 3.423 16.01-.042 11.509-2.315 22.985-6.719 33.638l-5.006 12.104c-3.626 2.755-6.982 5.865-10.009 9.28-3.353-4.835-7.753-8.998-13.033-12.098l-13.829-8.12c-3.317-1.945-7.32-2.023-10.712-.21-3.391 1.814-5.547 5.189-5.768 9.03l-1.078 18.784c-.824 14.35-5.106 28.485-12.385 40.88l-2.489 4.239c-2.097 3.572-.901 8.168 2.67 10.266 1.193.7 2.5 1.033 3.791 1.033 2.572 0 5.077-1.324 6.475-3.703l2.489-4.239c8.477-14.437 13.465-30.902 14.424-47.616l.699-12.176 8.117 4.768c9.62 5.648 14.683 16.807 12.599 27.766-.773 4.069 1.897 7.995 5.967 8.77 4.07.773 7.996-1.897 8.77-5.967.996-5.239.944-10.507-.029-15.55 7.345-11.08 18.727-19.228 31.636-22.545l6.104-1.568c.525-.132 1.066.182 1.204.707l1.604 6.095c3.395 12.89 1.824 26.799-4.273 38.612-4.879 1.607-9.504 4.128-13.594 7.55-3.177 2.658-3.597 7.389-.938 10.565s7.389 3.596 10.565.938c8.555-7.159 20.766-8.175 30.386-2.525l8.117 4.766-10.291 6.542c-14.128 8.98-26.076 21.358-34.555 35.796l-14.017 23.87c-6 10.219-15.62 17.489-27.088 20.472-6.032 1.57-12.194 1.841-18.168.885-.194-.039-.389-.073-.584-.096-5.179-.901-10.21-2.726-14.879-5.468-4.722-2.772-8.759-6.302-12.039-10.351-.063-.087-.133-.17-.2-.255-9.444-11.837-12.436-28.051-6.927-42.966 1.436-3.886-.551-8.199-4.437-9.634-3.887-1.436-8.199.552-9.634 4.437-6.737 18.239-3.978 37.926 6.182 53.274l-4.006 6.824c-5.937 10.109-4.274 22.615 3.252 30.849l-32.824 52.38v-15.518c0-32.888-4.672-65.572-13.886-97.145l-4.68-16.038c10.23-10.313 11.991-26.808 3.409-39.153l-6.321-9.092c13.507-23.473 13.23-53.639-3.227-77.311l-19.711-28.352c-10.401-14.961-17.186-32.416-19.62-50.477l-3.134-23.261c-.553-4.109-3.149-7.561-6.944-9.231-3.795-1.671-8.094-1.256-11.499 1.111l-16.417 11.419c-6.738 4.684-12.042 10.85-15.688 17.828-4.364-4.476-9.208-8.457-14.431-11.863l-7.992-15.786c-6.438-12.714-10.388-26.614-11.668-40.783.234-.145.472-.278.7-.436 6.86-4.769 8.555-14.196 3.785-21.056-4.769-6.86-14.196-8.554-21.056-3.785s-8.555 14.196-3.786 21.056c1.428 2.054 3.278 3.634 5.347 4.727 1.332 15.906 5.644 31.527 12.714 45.863-3.083-.926-6.217-1.696-9.402-2.259l-7.743-1.368c-2.273-.402-4.522-.339-6.665.092l-22.046-31.715c-.158-.227-.328-.441-.505-.645 2.275-4.749 2.013-10.548-1.208-15.181-4.769-6.86-14.196-8.554-21.056-3.785s-8.555 14.196-3.786 21.056c3.221 4.633 8.566 6.899 13.81 6.42.13.237.271.471.429.698l22.191 31.919c-.991 1.728-1.727 3.636-2.105 5.701l-1.414 7.732c-.545 2.978-.908 5.977-1.124 8.982-10.908-11.457-23.924-20.816-38.222-27.534-.304-2.32-1.141-4.604-2.568-6.658-4.769-6.86-14.196-8.554-21.056-3.785s-8.555 14.195-3.786 21.055 14.196 8.555 21.056 3.786c.229-.159.436-.336.653-.505 12.836 6.135 24.49 14.679 34.166 25.142l11.43 12.359c1.373 6.396 3.495 12.625 6.302 18.552-7.812.987-15.439 3.811-22.177 8.495l-16.422 11.418c-3.404 2.367-5.291 6.252-5.046 10.392.245 4.139 2.575 7.773 6.233 9.723l20.713 11.041c16.081 8.57 30.08 21.01 40.482 35.973l6.906 9.934c1.458 2.096 3.792 3.22 6.165 3.22 1.477 0 2.97-.436 4.274-1.343 3.401-2.364 4.241-7.038 1.877-10.439l-6.906-9.934c-11.754-16.907-27.572-30.963-45.743-40.647l-16.104-8.584 12.134-8.436c12.068-8.392 28.213-8.287 40.173.256 3.371 2.409 8.054 1.627 10.462-1.743s1.627-8.055-1.744-10.462c-5.428-3.878-11.459-6.535-17.715-7.979-9.255-14.622-12.779-32.519-9.659-49.579l1.414-7.732c.305-1.666 1.909-2.785 3.579-2.488l7.742 1.368c17.078 3.018 32.627 12.554 43.109 26.323-.825 6.367-.436 12.946 1.308 19.384 1.083 3.998 5.198 6.36 9.2 5.278 3.998-1.083 6.361-5.202 5.278-9.2-3.843-14.187 1.684-29.355 13.753-37.745l12.133-8.437 2.437 18.086c2.75 20.408 10.416 40.131 22.169 57.036l19.711 28.352c18.003 25.896 11.583 61.61-14.313 79.613-23.101 16.062-55.029 12.739-74.269-7.724-2.836-3.017-7.583-3.163-10.602-.326-3.018 2.837-3.164 7.584-.327 10.602 11.742 12.488 27.637 20.394 44.758 22.26 2.604.284 5.211.425 7.809.425 4.052 0 8.081-.354 12.049-1.027l6.316 9.085c4.684 6.736 11.71 11.246 19.786 12.698 1.835.33 3.674.493 5.5.493 2.866 0 5.694-.42 8.426-1.208l3.602 12.343c8.034 27.532 12.446 55.948 13.167 84.591-7.112-5.893-16.187-9.491-26.063-9.608-.03-.001-.06-.001-.091-.001-4.1 0-7.449 3.3-7.498 7.411-.049 4.142 3.269 7.539 7.411 7.588 13.874.165 25.279 11.04 26.359 24.654v18.403c-.329 1.252-.315 2.551 0 3.775v.961h-42.262c-14.764 0-26.775-12.012-26.775-26.775l.041-21.026h10.725c4.142 0 7.5-3.357 7.5-7.5s-3.358-7.5-7.5-7.5h-10.725c-8.293 0-15.041 6.747-15.041 15.041v20.985c0 23.035 18.74 41.775 41.775 41.775h42.262v27.679c0 4.143 3.357 7.5 7.5 7.5s7.5-3.357 7.5-7.5v-34.064c.054-.365.092-.735.092-1.115v-8.711l45.618-72.797c2.092.526 4.219.793 6.334.793 8.965 0 17.703-4.611 22.561-12.884l4-6.811c1.459.109 2.923.17 4.391.17 5.015-.001 10.063-.642 15.044-1.937 15.346-3.992 28.219-13.721 36.248-27.394l14.017-23.87c7.278-12.396 17.537-23.022 29.666-30.733l15.878-10.094c3.246-2.063 5.144-5.592 5.076-9.438-.068-3.845-2.089-7.304-5.405-9.252l-13.826-8.118c-5.28-3.101-11.059-4.915-16.915-5.487 1.426-4.072 2.458-8.27 3.108-12.527l8.566-10.818c7.157-9.037 16.072-16.613 26.101-22.257 5.618 2.67 12.441.653 15.65-4.811 3.391-5.777 1.458-13.208-4.317-16.599zm-236.795 109.22c-.743 4.132-3.05 7.727-6.497 10.123-3.447 2.397-7.621 3.309-11.752 2.564-4.132-.742-7.727-3.05-10.123-6.497l-3.387-4.872c4.86-1.987 9.525-4.504 13.897-7.543 4.432-3.082 8.396-6.585 11.909-10.403l3.389 4.875c2.396 3.448 3.307 7.622 2.564 11.753zm86.578 83.158c-3.102 5.282-9.926 7.055-15.207 3.956-5.283-3.104-7.058-9.925-3.955-15.209l1.479-2.52c2.766 2.416 5.783 4.612 9.051 6.53 3.251 1.909 6.635 3.482 10.107 4.729z"/></g></g></svg>