<svg id="Capa_1" enable-background="new 0 0 511.343 511.343" height="512" viewBox="0 0 511.343 511.343" width="512" xmlns="http://www.w3.org/2000/svg"><g><path d="m310.165 452.663-29.05 12.868c-16.053 7.111-34.127 8.049-50.584 2.625 7.041-15.833 19.881-28.588 35.934-35.699l29.05-12.868c10.452-4.63 21.853-6.681 33.191-5.971l16.82 1.054c1.932.121 3.094 2.744 1.885 4.256l-10.522 13.165c-7.093 8.874-16.272 15.94-26.724 20.57z" fill="#80d261"/><path d="m140.989 437.785 24.636 10.913c13.614 6.031 29.34 5.928 44.012-.286-5.256-15.042-15.748-26.757-29.362-32.788l-24.636-10.913c-8.864-3.927-18.702-5.285-28.64-3.955l-14.743 1.974c-1.694.227-2.855 2.849-1.885 4.256l8.445 12.245c5.692 8.255 13.309 14.628 22.173 18.554z" fill="#80d261"/><path d="m233.62 510.321c1.19 0 2.155-.965 2.155-2.155v-61.67c0-30.841 8.984-60.568 25.98-85.968l19.822-29.62c.046-.068.087-.138.125-.211l11.019-21.38c.157-.305.239-.644.239-.987v-16.632c0-.873-.527-1.66-1.334-1.992l-13.828-5.698c-.958-.395-2.06-.052-2.626.815l-31.103 47.7-7.019 10.489c-20.461 30.575-31.275 66.36-31.275 103.486v61.67c0 1.19.965 2.155 2.155 2.155h25.69z" fill="#ade194"/><g id="XMLID_251_"><g><path d="m255.671 227.607c32.09 0 58.1-26.01 58.1-58.1 0-32.08-26.01-58.09-58.1-58.09s-58.1 26.01-58.1 58.09c0 15.71 6.23 29.97 16.38 40.42 10.55 10.91 25.34 17.68 41.72 17.68zm157.75-95.2c2.8 11.92 4.28 24.34 4.28 37.1 0 12.77-1.48 25.19-4.28 37.11-.78 3.33-3.78 5.66-7.21 5.66h-47.29l33.44 33.44c2.42 2.42 2.89 6.2 1.08 9.11-13.2 21.27-31.18 39.26-52.45 52.46-2.91 1.81-6.69 1.33-9.12-1.09l-33.43-33.44v47.3c0 3.42-2.34 6.43-5.67 7.21-11.91 2.79-24.33 4.28-37.1 4.28s-25.19-1.49-37.1-4.28c-3.33-.78-5.67-3.79-5.67-7.21v-29.39c0-6.6-7.99-9.91-12.66-5.24l-20.77 20.77c-2.43 2.42-6.21 2.9-9.12 1.09-21.27-13.2-39.25-31.19-52.45-52.46-1.81-2.91-1.34-6.69 1.08-9.11l33.44-33.44h-47.29c-3.43 0-6.43-2.33-7.21-5.66-2.8-11.92-4.28-24.34-4.28-37.11 0-12.76 1.48-25.18 4.28-37.1.78-3.33 3.78-5.66 7.21-5.66h29.38c6.61 0 9.92-7.99 5.25-12.67l-20.78-20.77c-2.42-2.42-2.89-6.2-1.08-9.11 13.2-21.27 31.18-39.26 52.45-52.46 2.91-1.81 6.69-1.33 9.12 1.09l20.77 20.77c4.67 4.67 12.66 1.36 12.66-5.25v-29.38c0-3.42 2.34-6.43 5.67-7.21 11.91-2.79 24.33-4.28 37.1-4.28s25.19 1.49 37.1 4.28c3.33.78 5.67 3.79 5.67 7.21v47.3l33.43-33.44c2.43-2.42 6.21-2.9 9.12-1.09 21.27 13.2 39.25 31.19 52.45 52.46 1.81 2.91 1.34 6.69-1.08 9.11l-20.78 20.77c-4.67 4.68-1.36 12.67 5.25 12.67h29.38c3.43 0 6.43 2.33 7.21 5.66z" fill="#82aee3"/></g></g><path d="m313.771 169.507c0 32.09-26.01 58.1-58.1 58.1-16.38 0-31.17-6.77-41.72-17.68-10.15-10.45-16.38-24.71-16.38-40.42 0-32.08 26.01-58.09 58.1-58.09s58.1 26.01 58.1 58.09z" fill="#fedf30"/><path d="m242.848 209.927c-10.15-10.45-16.38-24.71-16.38-40.42 0-27.093 18.553-49.855 43.652-56.278-4.619-1.182-9.46-1.812-14.448-1.812-32.09 0-58.1 26.01-58.1 58.09 0 15.71 6.23 29.97 16.38 40.42 10.55 10.91 25.34 17.68 41.72 17.68 4.993 0 9.837-.631 14.461-1.815-10.552-2.698-19.946-8.276-27.285-15.865z" fill="#fed402"/><g><path d="m420.727 130.699c-1.581-6.744-7.549-11.455-14.512-11.455l-29.185-.003 20.63-20.629c4.925-4.926 5.813-12.48 2.158-18.371-13.748-22.153-32.724-41.129-54.878-54.877-5.889-3.654-13.444-2.767-18.37 2.159l-20.632 20.632v-2.537-26.649c0-6.964-4.711-12.932-11.455-14.513-25.34-5.941-52.285-5.941-77.625 0-6.744 1.581-11.455 7.549-11.455 14.513l-.003 29.184-20.629-20.63c-4.927-4.925-12.479-5.812-18.371-2.158-22.153 13.748-41.129 32.724-54.877 54.878-3.654 5.89-2.767 13.444 2.158 18.37l20.628 20.632h-16.321-12.861c-6.963 0-12.931 4.711-14.512 11.454-2.971 12.666-4.478 25.725-4.478 38.813 0 13.087 1.506 26.146 4.477 38.814 1.583 6.743 7.551 11.453 14.513 11.453h29.188l-20.633 20.632c-4.925 4.926-5.813 12.479-2.158 18.372 13.748 22.152 32.725 41.128 54.878 54.876 5.89 3.656 13.445 2.768 18.37-2.158l20.632-20.628v17.216 11.967c0 6.962 4.71 12.93 11.455 14.513 4.59 1.076 9.232 1.954 13.907 2.644-6.77 9.852-12.605 20.384-17.341 31.31-1.646 3.801.099 8.217 3.899 9.864.972.421 1.983.62 2.979.62 2.898 0 5.659-1.69 6.886-4.52 4.375-10.096 9.771-19.828 16.037-28.926l4.625-6.713c2.604.119 5.211.196 7.821.196 3.499 0 6.996-.116 10.484-.331l-10.577 15.355c-17.862 25.933-27.304 56.283-27.304 87.77v62.004c0 4.143 3.357 7.5 7.5 7.5s7.5-3.357 7.5-7.5v-29.087c4.798.916 9.682 1.383 14.577 1.383 8.841-.001 17.715-1.492 26.156-4.47 3.906-1.378 5.956-5.662 4.578-9.568s-5.66-5.954-9.568-4.578c-10.243 3.613-21.255 4.525-31.78 2.72 6.613-10.442 16.259-18.771 27.842-23.903l29.05-12.867c9.32-4.129 19.582-5.979 29.685-5.343l7.461.467-4.668 5.84c-6.317 7.905-14.583 14.267-23.9 18.396l-4.896 2.168c-3.788 1.677-5.499 6.106-3.821 9.894 1.676 3.788 6.105 5.498 9.894 3.821l4.898-2.168c11.513-5.102 21.729-12.967 29.544-22.745l10.522-13.165c2.313-2.894 2.786-6.867 1.234-10.37s-4.813-5.823-8.51-6.055l-16.819-1.053c-12.498-.785-25.185 1.498-36.697 6.599l-29.051 12.867c-9.85 4.364-18.562 10.613-25.712 18.295.182-28.104 8.683-55.175 24.64-78.34l18.094-26.268c2.835-.513 5.658-1.086 8.459-1.743 6.743-1.583 11.453-7.551 11.453-14.513v-29.188l20.632 20.633c4.927 4.925 12.478 5.812 18.371 2.158 22.152-13.748 41.129-32.724 54.877-54.878 3.654-5.891 2.767-13.444-2.159-18.37l-20.632-20.632h16.882 12.306c6.962 0 12.93-4.71 14.513-11.455 2.971-12.667 4.477-25.726 4.477-38.813-.002-13.088-1.509-26.147-4.48-38.812zm-14.574 74.08h-12.243-34.99-15.189c-4.143 0-7.5 3.357-7.5 7.5s3.357 7.5 7.5 7.5h12.083l31.196 31.195c-2.327 3.743-4.819 7.386-7.462 10.918l-16.22-16.22c-2.93-2.928-7.678-2.928-10.607 0-2.929 2.93-2.929 7.678 0 10.607l17.217 17.217c-3.401 3.733-6.981 7.303-10.726 10.69l-20.428-20.428c-2.93-2.928-7.678-2.928-10.607 0-2.929 2.93-2.929 7.678 0 10.607l19.381 19.381c-3.379 2.507-6.853 4.883-10.424 7.103l-33.392-33.393c-2.146-2.146-5.371-2.789-8.174-1.626-2.803 1.16-4.63 3.896-4.63 6.929v47.232c-4.07.951-8.188 1.725-12.335 2.339v-22.479c0-4.143-3.357-7.5-7.5-7.5s-7.5 3.357-7.5 7.5v23.961c-5.043.255-10.1.262-15.145.031v-28.559c0-4.143-3.357-7.5-7.5-7.5s-7.5 3.357-7.5 7.5v27.159c-4.391-.63-8.749-1.447-13.056-2.453v-11.904-17.417-25.17c0-4.143-3.357-7.5-7.5-7.5s-7.5 3.357-7.5 7.5v10.253c-3.851.018-7.623 1.523-10.468 4.367l-20.728 20.729c-3.514-2.185-6.934-4.522-10.262-6.986l16.731-16.731c2.929-2.93 2.929-7.678 0-10.607-2.93-2.928-7.678-2.928-10.607 0l-17.794 17.794c-3.75-3.382-7.332-6.95-10.738-10.678l21.052-21.052c2.929-2.93 2.929-7.678 0-10.607-2.93-2.928-7.678-2.928-10.607 0l-20.07 20.07c-2.687-3.582-5.219-7.278-7.581-11.077l33.393-33.392c2.146-2.146 2.787-5.371 1.626-8.174-1.16-2.803-3.896-4.63-6.929-4.63h-47.23c-1.107-4.737-1.976-9.536-2.63-14.371h21.937c4.143 0 7.5-3.357 7.5-7.5s-3.357-7.5-7.5-7.5h-23.233c-.074-1.964-.126-3.929-.126-5.896 0-3.087.096-6.171.279-9.248h27.646c4.143 0 7.5-3.357 7.5-7.5s-3.357-7.5-7.5-7.5h-26.009c.584-3.701 1.286-7.38 2.137-11.02h12.798 16.522 27.854c4.143 0 7.5-3.357 7.5-7.5s-3.357-7.5-7.5-7.5h-12.937c-.017-3.852-1.523-7.623-4.367-10.468l-20.729-20.728c2.21-3.555 4.576-7.015 7.071-10.38l15.813 15.813c1.465 1.464 3.385 2.196 5.304 2.196s3.839-.732 5.304-2.196c2.929-2.93 2.929-7.678 0-10.607l-16.864-16.863c3.386-3.747 6.955-7.327 10.687-10.729l20.115 20.114c1.464 1.464 3.384 2.196 5.303 2.196s3.839-.732 5.304-2.197c2.929-2.929 2.929-7.678-.001-10.606l-19.121-19.12c3.546-2.655 7.204-5.157 10.963-7.494l20.726 20.726c2.844 2.844 6.617 4.35 10.468 4.367v4.128c0 4.143 3.357 7.5 7.5 7.5s7.5-3.357 7.5-7.5v-19.043-10.05-19.271c4.464-1.043 8.985-1.878 13.538-2.517v21.787c0 4.143 3.357 7.5 7.5 7.5s7.5-3.357 7.5-7.5v-23.144c5.045-.216 10.102-.198 15.145.072v27.639c0 4.143 3.357 7.5 7.5 7.5s7.5-3.357 7.5-7.5v-26.1c3.983.603 7.94 1.349 11.853 2.263v26.587 20.645 15.186c0 4.143 3.357 7.5 7.5 7.5s7.5-3.357 7.5-7.5v-12.08l31.195-31.196c3.986 2.478 7.854 5.149 11.599 7.984l-15.865 15.865c-2.929 2.93-2.929 7.678 0 10.607 1.465 1.464 3.385 2.196 5.304 2.196s3.839-.732 5.304-2.196l16.808-16.808c3.714 3.422 7.272 7.014 10.639 10.778l-19.967 19.968c-2.929 2.929-2.929 7.678.001 10.606 1.464 1.464 3.384 2.196 5.303 2.196s3.839-.732 5.304-2.197l18.851-18.851c2.319 3.161 4.528 6.401 6.597 9.728l-20.728 20.728c-4.282 4.281-5.552 10.662-3.235 16.257 2.317 5.596 7.729 9.211 13.784 9.211h29.32c.964 4.126 1.751 8.299 2.373 12.502h-23.476c-4.143 0-7.5 3.357-7.5 7.5s3.357 7.5 7.5 7.5h24.95c.129 2.585.206 5.174.206 7.766 0 2.462-.073 4.922-.189 7.379h-29.532c-4.143 0-7.5 3.357-7.5 7.5s3.357 7.5 7.5 7.5h28.103c-.633 4.333-1.443 8.635-2.436 12.887z"/><path d="m328.34 162.271h-7.469c-1.387-12.582-6.347-24.101-13.84-33.522l5.81-5.81c2.93-2.929 2.93-7.678.001-10.606-2.929-2.93-7.678-2.929-10.606-.001l-5.813 5.812c-9.353-7.435-20.779-12.376-33.252-13.803v-7.155c0-4.143-3.357-7.5-7.5-7.5s-7.5 3.357-7.5 7.5v7.155c-12.381 1.416-23.727 6.292-33.041 13.635l-5.291-5.292c-2.93-2.928-7.678-2.928-10.607 0-2.929 2.93-2.929 7.678 0 10.607l5.248 5.247c-7.404 9.231-12.367 20.498-13.901 32.816h-7.492c-4.143 0-7.5 3.357-7.5 7.5s3.357 7.5 7.5 7.5h7.342c1.291 12.411 6.057 23.802 13.306 33.185l-5.149 5.148c-2.929 2.93-2.929 7.678 0 10.607 2.93 2.928 7.678 2.928 10.607 0l4.999-5c9.261 7.577 20.622 12.678 33.064 14.278v7.867c0 4.143 3.357 7.5 7.5 7.5s7.5-3.357 7.5-7.5v-7.658c12.61-1.262 24.177-6.109 33.667-13.506l5.665 5.666c2.93 2.928 7.678 2.928 10.607 0 2.929-2.93 2.929-7.678 0-10.607l-5.563-5.562c7.61-9.383 12.689-20.902 14.181-33.502h7.527c4.143 0 7.5-3.357 7.5-7.5s-3.357-7.499-7.5-7.499zm-72.669 57.838c-27.899 0-50.598-22.698-50.598-50.598s22.698-50.598 50.598-50.598 50.598 22.698 50.598 50.598-22.698 50.598-50.598 50.598z"/><path d="m211.999 394.557c-4.043-.932-8.063 1.585-8.995 5.62-1.625 7.037-2.826 14.19-3.615 21.402-5.704-6.421-12.641-11.544-20.538-15.042l-24.636-10.913c-10.099-4.474-21.398-6.043-32.673-4.531l-14.743 1.974c-3.402.455-6.32 2.729-7.806 6.083-1.484 3.354-1.207 7.042.741 9.864l8.444 12.245c6.458 9.364 15.21 16.679 25.31 21.153l24.636 10.913c7.699 3.411 15.927 5.114 24.293 5.114 5.264 0 10.583-.681 15.857-2.031v47.435c0 4.143 3.357 7.5 7.5 7.5s7.5-3.357 7.5-7.5v-62.004c0-12.921 1.462-25.803 4.344-38.287.932-4.036-1.584-8.064-5.619-8.995zm-47.798 45.052-24.636-10.913c-7.568-3.353-14.151-8.869-19.038-15.954l-4.028-5.842 7.034-.941c8.533-1.143 17.041.026 24.606 3.379l24.637 10.913c9.582 4.244 17.331 11.74 22.35 21.479-10.589 2.828-21.345 2.124-30.925-2.121z"/></g></g></svg>