<svg id="Capa_1" enable-background="new 0 0 511.379 511.379" height="512" viewBox="0 0 511.379 511.379" width="512" xmlns="http://www.w3.org/2000/svg"><g><path d="m478.027 288.919 9.848 7.656c9.261 7.2 13.7 18.985 11.491 30.506-2.739 14.28-14.979 24.775-29.51 25.301-40.233 1.457-79.873-10.024-113.098-32.758l-11.989-8.203-6.737-40.87 82.35-27.79z" fill="#f47c7c"/><g fill="#80d261"><path d="m274.173 399.874c-6.692 7.254-3.105 16.7 6.715 17.683 8.351.836 18.738.562 28.77-3.247 10.032-3.81 17.982-10.5 23.673-16.669 6.692-7.254 3.105-16.7-6.715-17.683-8.351-.836-18.738-.562-28.77 3.247s-17.983 10.501-23.673 16.669z"/><path d="m266.482 436.363c8.228 8.919 3.817 20.533-8.257 21.742-10.267 1.028-23.039.691-35.374-3.993s-22.11-12.911-29.107-20.495c-8.228-8.919-3.817-20.533 8.257-21.742 10.267-1.028 23.039-.691 35.374 3.993s22.11 12.91 29.107 20.495z"/><path d="m265.81 329.317c7.209 5.693 5.289 14.898-3.595 17.233-7.554 1.986-17.142 3.249-26.919 1.209s-18.06-7.031-24.19-11.871c-7.209-5.693-5.289-14.898 3.595-17.233 7.554-1.986 17.142-3.249 26.919-1.209 9.776 2.039 18.06 7.03 24.19 11.871z"/></g><path d="m228.478 205.028 11.044-14.922c30.539-41.334 47.02-91.371 47.023-142.763.001-18.561-12.821-34.662-30.911-38.816-14.594-3.351-29.834 1.766-39.447 13.247l-10.223 12.209-47.787 60.493 60.858 119.677z" fill="#f47c7c"/><path d="m209.026 221.45-17.003 7.402c-47.121 20.513-99.577 25.376-149.666 13.876-18.09-4.153-30.913-20.253-30.913-38.815 0-14.974 8.399-28.682 21.74-35.482l14.187-7.231 67.785-36.317 86.171 46.007 17.708 43.26z" fill="#f47c7c"/><path d="m208.321 206.647c-47.121 20.513-99.577 25.376-149.666 13.876-18.09-4.154-30.913-20.253-30.913-38.815 0-3.769.535-7.457 1.544-10.976-11.05 7.318-17.842 19.73-17.842 33.181 0 18.561 12.822 34.661 30.913 38.814 50.089 11.5 102.545 6.637 149.666-13.876l17.002-7.402 10.009-7.299-4.228-10.329z" fill="#ee6161"/><g id="XMLID_252_"><g><path d="m230.081 53.122c16.9 37.56 19.83 79.93 8.27 119.46l-8.2 28.02c-3.75 12.85-15.44 21.75-28.82 21.96l-29.19.46c-41.19.65-81.26-13.43-112.99-39.69-7.85-6.5-11.96-15.92-11.96-25.44 0-6.78 2.09-13.62 6.39-19.48l13.26-18.09c5.73-7.82 8.82-17.25 8.82-26.95v-30.56c0-17.76 16.93-30.62 34.04-25.86l29.22 8.13c9.37 2.61 19.34 2.15 28.44-1.31l20.89-7.95c16.32-6.22 34.66 1.37 41.83 17.29z" fill="#ee6161"/></g></g><g><path d="m97.871 183.332c-7.85-6.5-11.96-15.92-11.96-25.44 0-6.78 2.09-13.62 6.39-19.48l13.26-18.09c5.73-7.82 8.82-17.25 8.82-26.95v-30.56c0-8.986 4.338-16.713 10.837-21.543l-15.517-4.317c-17.11-4.76-34.04 8.1-34.04 25.86v30.56c0 9.7-3.09 19.13-8.82 26.95l-13.26 18.09c-4.3 5.86-6.39 12.7-6.39 19.48 0 9.52 4.11 18.94 11.96 25.44 31.73 26.26 71.8 40.34 112.99 39.69l24.288-.383c-36.04-2.444-70.549-16.126-98.558-39.307z" fill="#e94444"/></g><path d="m374.784 167.643-6.064-10.901c-5.702-10.251-16.672-16.437-28.394-16.012-14.531.527-26.771 11.022-29.508 25.303-7.581 39.539-2.283 80.467 15.113 116.773l6.291 13.101 30.886 1.726 35.19-70.14z" fill="#f47c7c"/><path d="m344.008 288.169c-17.397-36.306-22.694-77.234-15.114-116.773 2.738-14.28 14.978-24.776 29.509-25.302.185-.007.385 0 .569-.003-5.388-3.651-11.898-5.605-18.646-5.36-14.531.527-26.771 11.022-29.509 25.303-7.581 39.539-2.283 80.467 15.113 116.773l6.291 13.101 15.929.89z" fill="#ee6161"/><path d="m408.557 184.278-20.417-12.61c-11.642-7.19-26.87-4.06-34.733 7.138-18.543 26.409-27.049 58.57-23.988 90.694l2.169 22.766c.995 10.439 8.672 19.012 18.938 21.149l22.389 4.66c31.592 6.575 64.493 1.657 92.782-13.869 11.995-6.583 16.78-21.375 10.914-33.737l-10.298-21.702c-1.458-3.072-1.898-6.528-1.258-9.867l5.725-29.852c2.62-13.66-8.509-26.054-22.371-24.915l-30.141 2.477c-3.403.279-6.806-.538-9.711-2.332z" fill="#ee6161"/><g><path d="m353.407 201.803c7.863-11.198 23.091-14.328 34.733-7.138l20.417 12.61c2.905 1.794 6.308 2.611 9.712 2.332l30.141-2.477c9.001-.74 16.845 4.229 20.525 11.543l1.846-9.625c2.62-13.66-8.509-26.054-22.371-24.915l-30.141 2.477c-3.403.28-6.807-.538-9.712-2.332l-20.417-12.61c-11.642-7.19-26.87-4.06-34.733 7.138-18.277 26.03-26.794 57.649-24.104 89.311 2.025-23.703 10.269-46.609 24.104-66.314z" fill="#e94444"/></g><g><path d="m492.479 290.654-6.163-4.792c.812-6.164-.083-12.613-2.929-18.61l-10.298-21.701c-.779-1.642-1.01-3.453-.667-5.239l5.725-29.852c1.693-8.833-.781-17.737-6.79-24.43s-14.599-10.116-23.562-9.373l-30.142 2.477c-1.817.153-3.601-.278-5.155-1.237l-20.418-12.61c-3.955-2.443-8.236-3.951-12.581-4.596l-3.907-7.024c-6.674-11.999-19.07-19.822-32.352-20.418-19.088-.872-36.194 12.631-39.788 31.371-1.422 7.413-2.424 15.015-2.974 22.548-.18 2.268.653 4.476 2.287 6.059 1.411 1.367 3.354 2.14 5.313 2.14.271 0 .543-.015.813-.045 4.091-.454 7.045-4.118 6.635-8.203.525-6.605 1.419-13.218 2.657-19.673 2.236-11.666 12.493-19.728 24.385-19.212 8.12.364 15.751 5.24 19.914 12.725l.752 1.352c-6.251 2.251-11.884 6.375-15.965 12.188-15.586 22.198-24.452 48.3-25.777 75.134-2.631-9.527-4.487-19.281-5.537-29.217.025-.418.016-.843-.031-1.272-.449-4.118-4.149-7.103-8.27-6.643-1.961.214-3.825 1.229-5.07 2.759-1.25 1.536-1.863 3.576-1.667 5.547 2.256 22.728 8.396 44.678 18.25 65.241l6.04 12.608c.464 1.636 1.055 3.216 1.764 4.731-19.612 16.077-36.128 35.515-48.798 57.317v-11.61c0-3.814-.165-7.624-.457-11.422.015-1.073-.075-2.139-.272-3.189-1.925-19.561-7.677-38.707-16.937-56.077l-32.064-60.143c2.576-2.719 4.76-5.84 6.462-9.286l10.649-14.414c31.267-42.318 48.487-94.603 48.49-147.22.001-22.191-15.104-41.159-36.732-46.126-17.432-4.002-35.393 2.028-46.876 15.742l-7.778 9.29c-5.652-.38-11.463.423-17.075 2.56l-20.895 7.955c-7.655 2.914-15.871 3.294-23.762 1.098l-29.22-8.133c-10.434-2.904-21.359-.812-29.981 5.738-8.621 6.551-13.566 16.517-13.566 27.345v30.564c0 8.153-2.548 15.938-7.367 22.514l-13.259 18.088c-5.012 6.838-7.558 14.766-7.793 22.696l-9.961 5.077c-15.936 8.121-25.835 24.277-25.835 42.164 0 22.191 15.105 41.158 36.734 46.124 18.089 4.153 36.615 6.209 55.139 6.209 33.992 0 67.973-6.924 99.2-20.518l16.423-7.15c1.584-.454 3.129-1.005 4.624-1.653l31.207 58.535c5.14 9.642 9.078 19.893 11.752 30.463-5.188-2.748-10.495-4.698-15.873-5.82-9.406-1.963-19.619-1.524-30.356 1.298-6.982 1.835-11.942 6.725-13.268 13.079s1.266 12.819 6.931 17.293c8.715 6.882 17.902 11.366 27.307 13.327 3.852.804 7.839 1.205 11.941 1.205 5.621 0 11.463-.763 17.469-2.268v68.752c-7.262-6.173-15.008-10.847-23.137-13.935-11.516-4.372-24.562-5.865-38.783-4.443-8.561.856-15.292 5.634-18.006 12.778-2.714 7.146-.852 15.187 4.983 21.512 4.603 4.988 9.556 9.39 14.723 13.082 3.369 2.408 8.055 1.63 10.463-1.742 2.408-3.37 1.628-8.055-1.742-10.463-4.333-3.096-8.512-6.813-12.419-11.048-1.894-2.054-2.636-4.302-1.985-6.015.65-1.712 2.698-2.9 5.478-3.179 11.887-1.19 22.642 0 31.964 3.541 9.323 3.54 18.157 9.788 26.257 18.57 1.383 1.499 2.144 3.1 2.205 4.522v.279c-.01.424-.075.833-.219 1.212-.65 1.713-2.698 2.901-5.478 3.18-6.805.681-13.346.57-19.442-.331-4.097-.61-7.909 2.225-8.516 6.322s2.225 7.91 6.322 8.516c4.201.621 8.556.933 13.021.933 3.313 0 6.688-.171 10.108-.514 1.459-.146 2.86-.415 4.202-.781v39.092c0 4.143 3.357 7.5 7.5 7.5s7.5-3.357 7.5-7.5v-56.944c.022-.52.021-1.04 0-1.561v-20.648c.644.122 1.296.226 1.967.293 2.873.287 5.688.431 8.442.431 8.545 0 16.501-1.381 23.738-4.129 9.566-3.634 18.49-9.89 26.521-18.595 5.112-5.542 6.732-12.623 4.334-18.941-2.399-6.318-8.312-10.538-15.814-11.29-11.786-1.178-22.611.064-32.179 3.698-3.864 1.468-7.621 3.37-11.258 5.681 12.388-25.79 30.3-48.633 52.487-66.836 1.412 1.067 2.918 2.017 4.511 2.839l11.598 7.936c32.396 22.167 71.451 34.188 110.683 34.188 2.307 0 4.616-.041 6.923-.125 18.135-.657 33.187-13.563 36.604-31.383 2.756-14.363-2.704-28.862-14.251-37.839zm-432.848-147.809 13.259-18.088c6.719-9.165 10.27-20.017 10.27-31.381v-30.565c0-6.098 2.785-11.711 7.641-15.4s11.008-4.869 16.886-3.231l29.22 8.133c10.996 3.061 22.449 2.531 33.12-1.53l20.896-7.956c12.592-4.793 26.79 1.076 32.319 13.37 1.258 2.793 2.493 5.776 3.671 8.865 1.478 3.871 5.814 5.809 9.681 4.335 3.87-1.477 5.811-5.811 4.335-9.681-1.282-3.362-2.631-6.618-4.008-9.675-3.896-8.664-10.506-15.313-18.399-19.372l3.417-4.08c7.844-9.367 20.111-13.488 32.019-10.753 14.773 3.393 25.091 16.349 25.09 31.507-.002 40.099-10.65 79.991-30.35 114.847 4.95-22.983 5.411-46.968 1.249-70.096-.734-4.077-4.641-6.782-8.71-6.054-4.077.734-6.787 4.634-6.054 8.71 4.516 25.085 3.122 51.272-4.03 75.731l-2.488 8.51-25.689-55.059c-1.752-3.753-6.214-5.376-9.968-3.626-3.754 1.752-5.377 6.214-3.626 9.968l32.829 70.361c-2.705 6.756-8.353 11.731-15.227 13.608-.097.028-.195.052-.291.084-.812.21-1.646.362-2.488.484l-54.053-54.53c-2.915-2.941-7.664-2.963-10.606-.046-2.941 2.916-2.962 7.664-.046 10.606l44.113 44.503-11.588.183c-.867.014-1.728.021-2.595.021-38.455 0-75.827-13.44-105.49-37.993-10.385-8.594-12.276-23.84-4.309-34.71zm-15.596 92.574c-14.772-3.392-25.091-16.347-25.091-31.505 0-12.217 6.762-23.252 17.646-28.8l5.724-2.917c2.403 6.4 6.448 12.268 12.058 16.911 31.503 26.077 70.972 40.653 111.749 41.402-39.327 12.331-81.859 14.142-122.086 4.909zm216.273 103.878c-8.47 2.227-16.369 2.603-23.48 1.12-7.109-1.483-14.2-4.987-21.074-10.415-1.219-.963-1.653-1.929-1.543-2.458s.895-1.24 2.397-1.636c5.091-1.338 9.974-2.009 14.604-2.009 3.074 0 6.038.296 8.875.888 7.109 1.483 14.2 4.987 21.075 10.416.821.648 1.279 1.294 1.461 1.812.022.239.035.479.056.719-.162.52-.935 1.185-2.371 1.563zm40.201 50.92c5.523-2.099 11.694-3.152 18.416-3.152 2.253 0 4.57.119 6.943.356 1.695.17 2.954.817 3.285 1.689.331.873-.181 2.192-1.336 3.444-6.441 6.982-13.446 11.942-20.821 14.743-7.378 2.801-15.908 3.741-25.361 2.796-1.694-.17-2.954-.817-3.285-1.689-.331-.873.181-2.192 1.336-3.444 6.441-6.983 13.447-11.943 20.823-14.743zm59.036-207.101c3.554-5.061 9.243-7.799 15.039-7.799 3.295 0 6.624.885 9.614 2.731l20.417 12.61c.001 0 .001 0 .001.001 4.3 2.655 9.232 3.847 14.267 3.424l30.141-2.477c4.247-.351 8.322 1.271 11.172 4.444s4.022 7.396 3.219 11.584l-5.724 29.852c-.948 4.939-.31 9.952 1.848 14.496l10.298 21.7c4.157 8.763.754 19.281-7.747 23.947-26.701 14.653-57.827 19.307-87.646 13.101l-5.154-1.073 37.358-25.576c3.417-2.34 4.291-7.008 1.951-10.426-2.339-3.416-7.004-4.291-10.426-1.951l-48.939 33.505c-.296-.119-.591-.242-.878-.377-.058-.032-.119-.056-.178-.087-2.1-1.021-3.926-2.471-5.391-4.229-.027-.036-.05-.073-.077-.109-.068-.086-.144-.163-.215-.245-1.226-1.557-2.165-3.343-2.764-5.285-.042-.393-.114-.78-.216-1.158l35.139-48.598c2.427-3.356 1.673-8.045-1.684-10.473-3.356-2.424-8.044-1.674-10.473 1.684l-25.362 35.077-.25-2.623c-2.889-30.318 5.159-60.744 22.66-85.67zm132.454 142.553c-2.093 10.913-11.31 18.815-22.415 19.218-28.779 1.037-57.681-4.991-83.701-17.223 4.863.5 9.737.748 14.605.748 23.901-.002 47.612-5.993 68.817-17.632 4.694-2.576 8.527-6.138 11.385-10.29l2.58 2.006c7.073 5.497 10.417 14.376 8.729 23.173z"/></g></g></svg>