<?xml version="1.0" encoding="utf-8"?>
<!-- Generator: Adobe Illustrator 16.0.0, SVG Export Plug-In . SVG Version: 6.00 Build 0)  -->
<!DOCTYPE svg PUBLIC "-//W3C//DTD SVG 1.1//EN" "http://www.w3.org/Graphics/SVG/1.1/DTD/svg11.dtd">
<svg version="1.1" id="Layer_1" xmlns="http://www.w3.org/2000/svg" xmlns:xlink="http://www.w3.org/1999/xlink" x="0px" y="0px"
	 width="352px" height="342.102px" viewBox="221.732 58.79 352 342.102" enable-background="new 221.732 58.79 352 342.102"
	 xml:space="preserve">
<g>
	<defs>
		<circle id="SVGID_1_" cx="397.732" cy="229.841" r="139"/>
	</defs>
	<clipPath id="SVGID_2_">
		<use xlink:href="#SVGID_1_"  overflow="visible"/>
	</clipPath>
	<g clip-path="url(#SVGID_2_)">
		<circle fill="#F487AE" cx="397.732" cy="229.841" r="139"/>
		
			<ellipse fill="#FEDABD" stroke="#000000" stroke-width="3" stroke-miterlimit="10" cx="398.423" cy="169.019" rx="49.56" ry="30.95"/>
		
			<ellipse fill="#F8A594" stroke="#000000" stroke-width="2" stroke-miterlimit="10" cx="397.851" cy="177.034" rx="52.425" ry="26.081"/>
		
			<ellipse fill="#FEDABD" stroke="#000000" stroke-width="3" stroke-miterlimit="10" cx="398.423" cy="207.391" rx="90.525" ry="46.123"/>
		<path fill="#C69461" stroke="#000000" stroke-width="3" stroke-miterlimit="10" d="M458.854,351.283
			c0,28.48-24.39,51.566-54.476,51.566h-8.475c-30.084,0-54.475-23.086-54.475-51.566V233.255c0-28.479,24.391-55.004,54.475-55.004
			h8.475c30.086,0,54.476,23.469,54.476,55.004V351.283z"/>
		<path fill="#FFF6CE" stroke="#000000" stroke-width="2" stroke-miterlimit="10" d="M424.189,319.984
			c-0.204,8.46-11.978,15.038-26.29,14.689c-14.314-0.35-25.751-7.489-25.546-15.953c0.207-8.461,11.922-12.75,26.235-12.399
			C412.903,306.671,424.396,311.521,424.189,319.984z"/>
		<g>
			<path fill="#FCF38F" stroke="#000000" stroke-width="3" stroke-miterlimit="10" d="M338.656,320.12
				c0.578-6.911,7.235-11.997,14.867-11.36c7.636,0.638,13.354,6.76,12.776,13.67l-4.979,59.63l-27.644-2.308L338.656,320.12z"/>
			<path fill="#FCF38F" stroke="#000000" stroke-width="3" stroke-miterlimit="10" d="M346.071,397.986"/>
			
				<line fill="none" stroke="#000000" stroke-width="3" stroke-miterlimit="10" x1="333.677" y1="379.751" x2="361.32" y2="382.059"/>
		</g>
		<g>
			<path fill="#FCF38F" stroke="#000000" stroke-width="3" stroke-miterlimit="10" d="M425.07,322.533
				c-0.541-6.914,5.213-13.004,12.848-13.603c7.639-0.598,14.268,4.525,14.808,11.438l4.667,59.656l-27.654,2.164L425.07,322.533z"
				/>
			<path fill="#FCF38F" stroke="#000000" stroke-width="3" stroke-miterlimit="10" d="M444.9,398.195"/>
			
				<line fill="none" stroke="#000000" stroke-width="3" stroke-miterlimit="10" x1="429.736" y1="382.191" x2="457.392" y2="380.025"/>
		</g>
		
			<rect x="385.757" y="287.123" fill="#FFFCF1" stroke="#000000" stroke-width="3" stroke-miterlimit="10" width="20.894" height="39.534"/>
		<path fill="#FFFCF1" stroke="#000000" stroke-width="3" stroke-miterlimit="10" d="M452.671,236.931
			c-4.016,0-7.271,5.221-7.271,11.66c0,0.441,0.021,0.875,0.049,1.305c-11.67-5.207-22.28-15.301-32.271-23.905
			c-9.027-7.767-19.41-8.53-22.09-18.625c-1.68,3.002-1.351,2.481-3.609,5.259c-8.884,10.896-38.08,19.353-42.164,20.699
			c-0.088,1.932,4.172,4.2,4.172,25.398c0,33.08,18.883,42.709,49.621,42.709c24.369,0,44.364-16.432,51.775-41.551
			c0.574,0.231,1.171,0.369,1.789,0.369c4.014,0,7.268-5.219,7.268-11.656C459.939,242.152,456.686,236.931,452.671,236.931z"/>
		<path stroke="#000000" stroke-miterlimit="10" d="M406.202,248.445c0-2.021,1.104-3.661,2.463-3.661
			c0.781,0,1.471,0.552,1.922,1.394c0.055-0.45,0.084-0.916,0.084-1.394c0-4.042-2-7.323-4.469-7.323s-4.47,3.281-4.47,7.323
			s2.001,7.321,4.47,7.321c0.488,0,0.959-0.133,1.399-0.371C406.775,251.145,406.202,249.898,406.202,248.445z"/>
		<path stroke="#000000" stroke-miterlimit="10" d="M385.977,248.445c0-2.021,1.104-3.661,2.464-3.661
			c0.781,0,1.473,0.552,1.922,1.394c0.055-0.45,0.083-0.916,0.083-1.394c0-4.042-2-7.323-4.469-7.323
			c-2.468,0-4.468,3.281-4.468,7.323s2,7.321,4.468,7.321c0.489,0,0.96-0.133,1.401-0.371
			C386.55,251.145,385.977,249.898,385.977,248.445z"/>
		<g>
			<path d="M407.296,268.233c0,0,0.011,0.136,0.028,0.392c0.015,0.256,0.074,0.623,0.011,1.115
				c-0.021,0.497-0.129,1.086-0.334,1.746c-0.213,0.654-0.517,1.393-1.002,2.104c-0.449,0.74-1.084,1.435-1.812,2.11
				c-0.761,0.625-1.597,1.282-2.579,1.736c-0.965,0.485-2.014,0.901-3.124,1.136c-1.121,0.277-2.217,0.361-3.446,0.405
				c-0.555-0.04-1.045-0.022-1.649-0.114c-0.595-0.064-1.168-0.156-1.716-0.291c-1.11-0.23-2.159-0.65-3.123-1.135
				c-0.983-0.455-1.821-1.107-2.58-1.736c-0.727-0.677-1.364-1.369-1.813-2.111c-0.484-0.711-0.789-1.449-1.003-2.104
				c-0.204-0.66-0.313-1.251-0.332-1.741c-0.063-0.482-0.004-0.867,0.011-1.123c0.021-0.255,0.029-0.391,0.029-0.391
				s0.027,0.134,0.079,0.385c0.05,0.25,0.115,0.613,0.271,1.055c0.123,0.445,0.359,0.959,0.647,1.518
				c0.312,0.55,0.699,1.143,1.216,1.709c0.487,0.587,1.143,1.105,1.824,1.636c0.73,0.476,1.514,0.953,2.395,1.308
				c0.424,0.207,0.897,0.326,1.353,0.494c0.478,0.104,0.942,0.271,1.437,0.348c0.49,0.111,0.977,0.176,1.457,0.219
				c0.461,0.072,1.058,0.046,1.58,0.077c0.928-0.024,2.004-0.068,2.957-0.294c0.492-0.078,0.957-0.239,1.437-0.346
				c0.452-0.168,0.928-0.287,1.352-0.496c0.882-0.354,1.664-0.832,2.396-1.308c0.682-0.53,1.338-1.049,1.826-1.637
				c0.515-0.567,0.903-1.16,1.215-1.71c0.287-0.559,0.525-1.074,0.645-1.512c0.156-0.434,0.223-0.813,0.271-1.062
				C407.269,268.367,407.296,268.233,407.296,268.233z"/>
		</g>
		
			<ellipse fill="#FFFFFF" stroke="#000000" stroke-width="2" stroke-miterlimit="10" cx="452.845" cy="247.299" rx="1.425" ry="3.661"/>
		<ellipse fill="#F5BCD6" cx="367.102" cy="262.23" rx="11.554" ry="10.876"/>
		<path fill="#F5BCD6" d="M435.376,262.23c0,6.005-5.17,10.876-11.555,10.876c-6.381,0-11.553-4.871-11.553-10.876
			c0-6.006,5.172-10.874,11.553-10.874C430.206,251.356,435.376,256.224,435.376,262.23z"/>
		<g>
			
				<line fill="none" stroke="#000000" stroke-width="2" stroke-miterlimit="10" x1="394.087" y1="250.367" x2="394.087" y2="258.429"/>
			<path fill="none" stroke="#000000" stroke-width="2" stroke-miterlimit="10" d="M395.081,263.392c-2.254,0-4.08-1.359-4.08-3.034
				c0-1.677,1.826-3.038,4.08-3.038"/>
		</g>
		<path fill="#FCF38F" stroke="#000000" stroke-width="3" stroke-miterlimit="10" d="M414.394,308.882
			c0,7.879-7.832,14.266-17.495,14.266c-9.664,0-17.496-6.385-17.496-14.266h-27.196v117.916h88V308.882H414.394z"/>
		<g>
			
				<ellipse fill="#EF456A" stroke="#000000" stroke-width="2" stroke-miterlimit="10" cx="439.214" cy="239.112" rx="7.346" ry="6.472"/>
			
				<ellipse fill="#EF456A" stroke="#000000" stroke-width="2" stroke-miterlimit="10" cx="439.214" cy="246.758" rx="7.346" ry="6.47"/>
			
				<ellipse fill="#EF456A" stroke="#000000" stroke-width="2" stroke-miterlimit="10" cx="446.559" cy="249.964" rx="7.345" ry="6.471"/>
			
				<ellipse transform="matrix(0.1207 -0.9927 0.9927 0.1207 153.6631 661.0292)" fill="#EF456A" stroke="#000000" stroke-width="2" stroke-miterlimit="10" cx="449.957" cy="243.778" rx="6.47" ry="7.344"/>
			
				<ellipse fill="#EF456A" stroke="#000000" stroke-width="2" stroke-miterlimit="10" cx="447.865" cy="237.312" rx="7.345" ry="6.471"/>
			
				<ellipse fill="#FFF6E5" stroke="#000000" stroke-width="2" stroke-miterlimit="10" cx="443.194" cy="243.782" rx="4.691" ry="4.462"/>
		</g>
	</g>
</g>
</svg>
