<svg id="icons" enable-background="new 0 0 64 64" height="512" viewBox="0 0 64 64" width="512" xmlns="http://www.w3.org/2000/svg"><g><g><path d="m30.5 47.98v9.01l-15-26.99 15 13.98z" fill="#a0d468"/></g><g><path d="m48.5 23-18 39v-5.01-9.01z" fill="#a0d468"/></g><g><path d="m30.5 1c1.67 0 3.26.98 4.68 2.53-1.51.42-3.12 1.18-4.699 2.15-1.57-.96-3.16-1.71-4.671-2.13v-.01c1.42-1.55 3.01-2.54 4.69-2.54z" fill="#c6589e"/></g><g><path d="m25.81 3.55c1.511.42 3.101 1.17 4.671 2.13-4.141 2.53-8.11 6.47-9.78 9.37-1.771 3.07-1.94 6.63-.771 9.7-2.649-6.18-4.09-18.08.83-20.93 1.39-.8 3.15-.81 5.05-.27z" fill="#d770ad"/></g><g><path d="m30.5 32c-1.93.01-3.88-.48-5.67-1.51-2.33-1.35-4-3.4-4.9-5.74-1.17-3.07-1-6.63.771-9.7 1.67-2.9 5.64-6.84 9.78-9.37 1.579-.97 3.189-1.73 4.699-2.15 1.91-.54 3.67-.53 5.06.27 5.399 3.12 3.14 17.15.02 22.55-2.08 3.61-5.86 5.64-9.76 5.65z" fill="#ec87c0"/></g></g><g><g><path d="m25.809 4.542c-.241 0-.482-.086-.675-.262-.407-.373-.436-1.005-.063-1.413 3.476-3.803 7.369-3.806 10.845-.016.373.407.346 1.04-.062 1.413-.405.373-1.039.347-1.413-.061-2.687-2.928-5.209-2.925-7.894.013-.197.217-.468.326-.738.326z"/></g><g><g><path d="m30.467 33.001c-2.146 0-4.269-.57-6.137-1.648-2.844-1.642-4.879-4.294-5.729-7.467-.851-3.173-.414-6.487 1.228-9.331 2.882-4.992 11.628-12.396 17.805-12.396 1.168 0 2.212.261 3.104.776 2.739 1.582 4.056 5.611 3.705 11.346-.278 4.568-1.611 9.621-3.315 12.571-2.19 3.793-6.275 6.149-10.661 6.149zm7.167-28.842c-5.24 0-13.475 6.896-16.072 11.396-1.375 2.381-1.74 5.156-1.028 7.813s2.415 4.877 4.797 6.252c1.564.904 3.341 1.381 5.137 1.381 3.674 0 7.095-1.973 8.929-5.15 1.539-2.665 2.794-7.473 3.052-11.692.297-4.867-.69-8.326-2.709-9.492-.586-.337-1.294-.508-2.106-.508z"/></g><g><path d="m20.735 27.367c-.346 0-.682-.179-.867-.5-3.421-5.926-5.654-20.425.392-23.916 3.259-1.882 7.644-.02 10.749 1.872.472.288.621.903.333 1.375-.286.472-.901.621-1.374.333-3.736-2.276-6.83-2.932-8.708-1.847-4.698 2.712-2.629 16.04.341 21.184.276.479.112 1.09-.366 1.366-.158.09-.33.133-.5.133z"/></g></g><g><path d="m30.498 64c-.553 0-1-.447-1-1v-31.008c0-.552.447-1 1-1s1 .448 1 1v31.008c0 .553-.447 1-1 1z"/></g><g><path d="m30.497 62.999c-.14 0-.282-.029-.418-.092-.502-.231-.721-.826-.489-1.327l18-38.999c.231-.5.825-.721 1.327-.489s.721.826.489 1.327l-18 38.999c-.169.366-.531.581-.909.581z"/></g><g><path d="m30.497 48.984c-.202 0-.406-.062-.584-.188-.447-.323-.549-.948-.227-1.396l18-24.984c.322-.448.944-.551 1.396-.227.447.323.549.948.227 1.396l-18 24.985c-.195.27-.501.414-.812.414z"/></g><g><path d="m30.499 57.994c-.352 0-.692-.186-.875-.515l-14.996-26.989c-.269-.483-.095-1.092.389-1.36.482-.269 1.092-.094 1.359.388l14.996 26.991c.269.482.095 1.091-.389 1.359-.153.086-.32.126-.484.126z"/></g><g><path d="m30.498 44.98c-.244 0-.489-.089-.682-.269l-14.996-13.976c-.404-.376-.427-1.009-.05-1.413s1.011-.426 1.413-.05l14.997 13.977c.404.376.427 1.009.05 1.413-.198.212-.464.318-.732.318z"/></g></g></svg>