<?xml version="1.0" encoding="iso-8859-1"?>
<!-- Generator: Adobe Illustrator 19.0.0, SVG Export Plug-In . SVG Version: 6.00 Build 0)  -->
<svg version="1.1" id="Capa_1" xmlns="http://www.w3.org/2000/svg" xmlns:xlink="http://www.w3.org/1999/xlink" x="0px" y="0px"
	 viewBox="0 0 401.887 401.887" style="enable-background:new 0 0 401.887 401.887;" xml:space="preserve">
<path style="fill:#F7B76C;" d="M128.74,393.806l-13.76-152.88H286.9l-13.68,152.88H128.74z"/>
<path style="fill:#C1D963;" d="M197.62,40.766c-10.24-22-43.76-33.12-99.6-33.12c-5.813,0-11.893,0-18.24,0l-8.64,1.12l1.04,8
	c2.16,18.32,15.2,109.68,62.4,109.68c15.308-1.302,29.721-7.761,40.88-18.32l6.08-4.96l-4.56-5.92l-4.4-5.44l2.56,3.12l6.96,8.64
	l6-9.36C195.38,82.446,206.66,59.806,197.62,40.766L197.62,40.766z"/>
<path style="fill:#F7B76C;" d="M98.58,195.886h204.8v45.04H98.58L98.58,195.886z"/>
<path style="fill:#A1CD4B;" d="M267.38,126.686c-12.48,0-26.56-6.4-41.84-19.12l-5.12-4.24l3.2-5.76l2.16-3.84l-6,9.84l-6.88-11.2
	c-8.48-13.92-16.88-34.16-8.64-51.68c10.24-21.92,43.76-32.96,99.6-32.96c5.813,0,11.893,0,18.24,0h8.64l-0.96,9.04
	C327.7,35.246,314.66,126.686,267.38,126.686L267.38,126.686z"/>
<g>
	<path style="fill:#ECA44D;" d="M275.3,394.446l14-154h-88.32v154H275.3z"/>
	<path style="fill:#ECA44D;" d="M200.98,200.766v35.2h86.56h16.8v-35.2H200.98z"/>
</g>
<path style="fill:#4C160F;" d="M267.38,134.686c60.8,0,70.8-120.48,71.2-125.6c0.182-4.36-3.164-8.062-7.52-8.32
	c-69.6-3.76-113.12,6.4-130.08,30.32c-16.96-24-60.48-34.08-130.08-30.32c-4.261,0.213-7.605,3.733-7.6,8
	c0.4,5.12,10.4,125.6,71.2,125.6c17.145-1.277,33.342-8.36,45.92-20.08c9.157,13.961,13.717,30.437,13.04,47.12
	c-0.732,8.807-0.893,17.652-0.48,26.48h-88c-7.909,0-14.32,6.411-14.32,14.32v32.48c0.131,7.815,6.504,14.081,14.32,14.08h2.88
	l12.32,138.8c0,7.909,6.411,14.32,14.32,14.32h0h132.96c7.654,0.091,13.98-5.949,14.24-13.6l12.48-139.52h2.8
	c7.909,0,14.32-6.411,14.32-14.32l0,0v-32.32c-0.044-7.877-6.442-14.24-14.32-14.24h-88c-1.438-24.794,3.376-49.552,14-72
	C235.279,126.913,250.902,133.528,267.38,134.686L267.38,134.686z M126.34,46.686c-4.242-1.236-8.683,1.201-9.919,5.443
	c-1.235,4.24,1.199,8.679,5.439,9.917c19.76,5.76,40,29.12,48.56,40c-9.769,9.344-22.387,15.147-35.84,16.48
	c-35.2,0-50.4-67.84-54.48-102.64c62.56-2.4,100.64,7.36,110.32,28c7.28,15.52-2.4,34.96-9.28,45.84
	c-10.56-12.96-32-36.4-54.72-43.04L126.34,46.686z M265.86,385.886H136.02l-12.24-137.12h154.4L265.86,385.886z M295.38,203.886
	v28.88h-188.8v-28.88H295.38z M202.42,121.806c-2.634-6.807-6.245-13.194-10.72-18.96c3.513-5.079,6.616-10.429,9.28-16
	c2.805,5.84,6.097,11.433,9.84,16.72C207.46,109.372,204.647,115.478,202.42,121.806z M211.54,44.046c9.68-20.64,48-30.48,110.32-28
	c-4.08,34.8-19.2,102.64-54.48,102.64c-10.64,0-22.96-5.84-36.8-17.28c5.84-10.72,20.72-34.32,40-39.28
	c4.286-1.105,6.865-5.474,5.76-9.76c-1.105-4.286-5.474-6.865-9.76-5.76c-22.08,5.68-38.4,27.68-46.88,41.6
	C212.98,77.086,204.66,58.766,211.54,44.046L211.54,44.046z"/>
<g>
</g>
<g>
</g>
<g>
</g>
<g>
</g>
<g>
</g>
<g>
</g>
<g>
</g>
<g>
</g>
<g>
</g>
<g>
</g>
<g>
</g>
<g>
</g>
<g>
</g>
<g>
</g>
<g>
</g>
</svg>
