<svg id="icons" enable-background="new 0 0 64 64" height="512" viewBox="0 0 64 64" width="512" xmlns="http://www.w3.org/2000/svg"><g><g><path d="m18.911 45.15c1.17 1.17 1.17 3.07 0 4.24s-3.07 1.17-4.24 0c-1.18-1.17-6.32-8.16-5.15-9.33 1.17-1.169 8.22 3.911 9.39 5.09z" fill="#a0d468"/></g><g><path d="m24.561 55.051c.54.54.881 1.29.881 2.12 0 1.649-1.341 3-3 3-1.65 0-5.99-1.351-5.99-3 0-1.66 4.34-3 5.99-3 .829 0 1.579.33 2.119.88z" fill="#a0d468"/></g><g><path d="m36.531 5.001c1.109 0 2 .9 2 2 0 1.11-.891 2-2 2h-10v4c-2.21 0-4-1.79-4-4s1.79-4 4-4z" fill="#da4453"/></g><g><path d="m26.531 13.001v-4h10c1.109 0 2-.89 2-2 0-1.1-.891-2-2-2h-10c-2.21 0-4 1.79-4 4s1.79 4 4 4zm16-6v13h-.011c0 6.62-5.38 11.99-12 11.99 3.33 0 6.011-2.69 6.011-6.01v-8.98h-10c-4.42 0-8-3.58-8-8 0-4.41 3.58-7.99 8-7.99h10v-.01c3.31 0 6 2.69 6 6z" fill="#da4453"/></g><g><path d="m36.531 17.001v8.98c0 3.32-2.681 6.01-6.011 6.01-6.619 0-11.989-5.37-11.989-11.99v-11c0 4.42 3.58 8 8 8z" fill="#ed5565"/></g><g><path d="m54.521 25.001c1.181 1.17-5.97 10.149-7.14 11.319-1.18 1.171-3.08 1.171-4.25 0-1.17-1.17-1.17-3.069 0-4.239s10.22-8.26 11.39-7.08z" fill="#a0d468"/></g><g><path d="m39.601 41.102c1.65 0 6 1.34 6 3 0 1.659-4.35 3-6 3-1.659 0-3-1.341-3-3 0-.83.341-1.58.881-2.121.539-.54 1.289-.879 2.119-.879z" fill="#a0d468"/></g></g><g><g><path d="m36.534 10.003c-.553 0-1-.448-1-1s.447-1 1-1c.552 0 1-.449 1-1s-.448-1-1-1c-.553 0-1-.448-1-1s.447-1 1-1c1.654 0 3 1.346 3 3s-1.346 3-3 3z"/></g><g><path d="m36.53 14.001c-.553 0-1-.448-1-1s.447-1 1-1c2.757 0 5-2.243 5-5s-2.243-5-5-5c-.553 0-1-.448-1-1s.447-1 1-1c3.859 0 7 3.14 7 7s-3.14 7-7 7z"/></g><g><path d="m26.531 14.004c-2.757 0-5-2.243-5-5s2.243-5 5-5c.553 0 1 .448 1 1s-.447 1-1 1c-1.654 0-3 1.346-3 3s1.346 3 3 3c.553 0 1 .448 1 1s-.447 1-1 1z"/></g><g><path d="m26.53 18.004c-4.962 0-8.999-4.037-8.999-8.999s4.037-8.999 8.999-8.999c.553 0 1 .448 1 1s-.447 1-1 1c-3.859 0-6.999 3.14-6.999 6.999s3.14 6.999 6.999 6.999c.553 0 1 .448 1 1s-.447 1-1 1z"/></g><g><path d="m36.534 6.003h-10.002c-.553 0-1-.448-1-1s.447-1 1-1h10.002c.553 0 1 .448 1 1s-.447 1-1 1z"/></g><g><path d="m36.534 10.003h-10.006c-.553 0-1-.448-1-1s.447-1 1-1h10.006c.553 0 1 .448 1 1s-.447 1-1 1z"/></g><g><path d="m36.534 14.004h-10.003c-.553 0-1-.448-1-1s.447-1 1-1h10.003c.553 0 1 .448 1 1s-.447 1-1 1z"/></g><g><path d="m26.528 14.001c-.553 0-1-.448-1-1v-3.998c0-.552.447-1 1-1s1 .448 1 1v3.998c0 .552-.447 1-1 1z"/></g><g><path d="m36.53 2.006h-10c-.553 0-1-.448-1-1s.447-1 1-1h10c.553 0 1 .448 1 1s-.447 1-1 1z"/></g><g><path d="m36.527 18.004h-9.997c-.553 0-1-.448-1-1s.447-1 1-1h9.997c.553 0 1 .448 1 1s-.447 1-1 1z"/></g><g><path d="m36.53 26.982c-.553 0-1-.448-1-1v-8.979c0-.552.447-1 1-1s1 .448 1 1v8.979c0 .553-.447 1-1 1z"/></g><g><path d="m30.524 32.99c-7.166 0-12.995-5.828-12.995-12.992 0-.552.447-1 1-1s1 .448 1 1c0 6.061 4.933 10.992 10.995 10.992 6.063 0 10.996-4.931 10.996-10.992 0-.552.447-1 1-1s1 .448 1 1c.001 7.164-5.83 12.992-12.996 12.992z"/></g><g><path d="m18.531 20.998c-.553 0-1-.448-1-1v-10.993c0-.552.447-1 1-1s1 .448 1 1v10.993c0 .552-.447 1-1 1z"/></g><g><path d="m42.53 20.998c-.553 0-1-.448-1-1v-12.997c0-.552.447-1 1-1s1 .448 1 1v12.997c0 .552-.447 1-1 1z"/></g><g><path d="m30.524 32.99c-.553 0-1-.448-1-1s.447-1 1-1c2.763 0 5.01-2.247 5.01-5.008 0-.552.447-1 1-1s1 .448 1 1c0 3.865-3.144 7.008-7.01 7.008z"/></g><g><path d="m30.524 63.999c-.553 0-1-.447-1-1v-31.009c0-.552.447-1 1-1s1 .448 1 1v31.009c0 .553-.447 1-1 1z"/></g><g><g><path d="m45.255 38.201c-1.069 0-2.073-.416-2.829-1.172-1.559-1.56-1.559-4.097 0-5.655.712-.712 9.002-7.509 11.701-7.509.563 0 .91.23 1.104.423.835.835.694 2.288-2.584 6.946-1.787 2.539-3.896 5.128-4.563 5.795-.757.756-1.761 1.172-2.829 1.172zm8.233-12.172c-2.339.931-8.435 5.545-9.648 6.759-.779.779-.779 2.048 0 2.827.755.756 2.072.757 2.829 0 1.263-1.262 5.888-7.276 6.819-9.586z"/></g><g><path d="m39.598 48.101c-2.206 0-4-1.794-4-4 0-2.205 1.794-3.999 4-3.999 1.436 0 6.999 1.24 6.999 3.999s-5.564 4-6.999 4zm0-5.999c-1.103 0-2 .896-2 1.999s.897 2 2 2c1.786 0 4.893-1.35 4.999-2.005-.107-.646-3.213-1.994-4.999-1.994z"/></g><g><path d="m30.521 49.936c-.256 0-.512-.098-.707-.293-.391-.391-.391-1.023 0-1.414l12.612-12.613c.391-.391 1.023-.391 1.414 0s.391 1.023 0 1.414l-12.612 12.613c-.196.195-.452.293-.707.293z"/></g></g><g><g><path d="m16.788 51.267c-1.069 0-2.073-.416-2.829-1.172-.079-.079-7.382-8.505-5.146-10.741.213-.213.601-.467 1.237-.467 2.567 0 8.694 4.681 9.565 5.552 1.559 1.56 1.559 4.097 0 5.656-.755.756-1.759 1.172-2.827 1.172zm-6.398-10.334c.42 1.677 3.698 6.462 4.983 7.748.755.756 2.072.756 2.829 0 .779-.779.779-2.049 0-2.828-1.131-1.131-5.969-4.49-7.812-4.92z"/></g><g><path d="m22.444 61.166c-1.436 0-6.999-1.24-6.999-4 0-2.759 5.563-3.999 6.999-3.999 2.206 0 4 1.794 4 3.999 0 2.206-1.794 4-4 4zm0-5.999c-1.786 0-4.893 1.349-4.999 2.004.106.646 3.213 1.995 4.999 1.995 1.103 0 2-.897 2-2s-.897-1.999-2-1.999z"/></g><g><path d="m30.521 62c-.256 0-.512-.098-.707-.293l-11.612-11.612c-.391-.391-.391-1.023 0-1.414s1.023-.391 1.414 0l11.611 11.612c.391.391.391 1.023 0 1.414-.195.195-.451.293-.706.293z"/></g></g><g><path d="m31.521 37h-.996c-.553 0-1-.447-1-1s.447-1 1-1h.996c.553 0 1 .447 1 1s-.448 1-1 1z"/></g><g><path d="m31.521 45h-.996c-.553 0-1-.447-1-1s.447-1 1-1h.996c.553 0 1 .447 1 1s-.448 1-1 1z"/></g><g><path d="m31.521 53h-.996c-.553 0-1-.447-1-1s.447-1 1-1h.996c.553 0 1 .447 1 1s-.448 1-1 1z"/></g><g><path d="m31.521 61h-.996c-.553 0-1-.447-1-1s.447-1 1-1h.996c.553 0 1 .447 1 1s-.448 1-1 1z"/></g><g><path d="m30.524 57h-1.004c-.553 0-1-.447-1-1s.447-1 1-1h1.004c.553 0 1 .447 1 1s-.447 1-1 1z"/></g><g><path d="m30.524 49h-1.004c-.553 0-1-.447-1-1s.447-1 1-1h1.004c.553 0 1 .447 1 1s-.447 1-1 1z"/></g><g><path d="m30.524 41h-1.004c-.553 0-1-.447-1-1s.447-1 1-1h1.004c.553 0 1 .447 1 1s-.447 1-1 1z"/></g></g></svg>