<svg id="Capa_1" enable-background="new 0 0 512 512" height="512" viewBox="0 0 512 512" width="512" xmlns="http://www.w3.org/2000/svg"><g><g><path d="m283.987 40.491c0 15.457-12.53 27.987-27.987 27.987s-27.987-12.53-27.987-27.987 12.531-32.991 27.988-32.991 27.986 17.534 27.986 32.991z" fill="#fbe29f"/><path d="m215.068 32.18c-6.495 0-12.851.592-19.018 1.723-8.759 1.607-15.207 9.001-15.638 17.896-.082 1.703-.124 3.418-.124 5.142 0 19.807 5.496 38.33 15.042 54.132l60.671-70.601c-12.577-5.338-26.41-8.292-40.933-8.292z" fill="#ff8997"/><path d="m331.589 51.799c-.431-8.895-6.879-16.288-15.638-17.896-6.167-1.132-12.522-1.723-19.018-1.723-34.577 0-65.241 16.74-84.338 42.555v40.997h97.787l20.33-44.307c.654-4.735 1-9.568 1-14.483.001-1.725-.04-3.44-.123-5.143z" fill="#fc5c70"/><path d="m376.094 229.037c-1.382-8.719-8.194-15.531-16.913-16.913-24.515-3.887-52.204 4.921-73.008 25.726-24.704 24.704-32.492 59.116-22.197 86.393 27.277 10.295 61.689 2.507 86.393-22.197 20.804-20.805 29.611-48.494 25.725-73.009z" fill="#00d6bc"/><path d="m137.599 229.037c1.382-8.719 8.194-15.531 16.913-16.913 24.515-3.887 52.204 4.921 73.008 25.726 24.704 24.704 32.492 59.116 22.197 86.393-27.277 10.295-61.689 2.507-86.393-22.197-20.804-20.805-29.612-48.494-25.725-73.009z" fill="#00d6bc"/><path d="m256 354.531-139.832 20.347 15.076 79.365c5.539 29.157 31.025 50.258 60.703 50.258h128.105c29.678 0 55.165-21.101 60.703-50.258l15.076-79.365z" fill="#ff8997"/><path d="m230.887 165.074h50.225v155.613h-50.225z" fill="#50e1cd"/><path d="m148.494 370.175-32.326 4.704 15.076 79.364c5.539 29.157 31.025 50.257 60.703 50.257h40.43c-47.41-28.125-80.018-77.415-83.883-134.325z" fill="#ff6f7f"/><path d="m395.832 290.675h-279.664c-18.113 0-32.796 14.683-32.796 32.796v18.612c0 18.113 14.683 32.796 32.796 32.796h279.664c18.113 0 32.796-14.683 32.796-32.796v-18.612c0-18.113-14.684-32.796-32.796-32.796z" fill="#fbe29f"/><path d="m185.94 71.316c-6.495 0-12.851.592-19.018 1.723-8.759 1.607-15.207 9.001-15.638 17.896-.082 1.703-.124 3.418-.124 5.142 0 46.38 30.116 85.724 71.872 99.536l32.968-97.444c-18.565-16.705-43.127-26.853-70.06-26.853z" fill="#ff6f7f"/><path d="m360.746 91.576c-.013-.305-.027-.61-.043-.915-.448-8.792-6.968-16.034-15.626-17.622-6.166-1.131-12.521-1.723-19.016-1.723-57.9 0-104.84 46.93-104.84 104.83 0 6.656.621 13.161 1.812 19.467 10.622 3.527 21.991 5.395 33.814 5.301 58.943-.466 106.391-50.445 103.899-109.338z" fill="#ff8997"/><path d="m148.095 358.789c0-24.216 5.21-47.248 14.583-68.114h-46.51c-18.113 0-32.796 14.683-32.796 32.796v18.611c0 18.113 14.683 32.796 32.796 32.796h32.71c-.51-5.297-.783-10.662-.783-16.089z" fill="#fccb88"/></g><g><path d="m177.12 343.344c4.142 0 7.5-3.358 7.5-7.5v-15.157c0-4.142-3.358-7.5-7.5-7.5s-7.5 3.358-7.5 7.5v15.157c0 4.142 3.358 7.5 7.5 7.5z"/><path d="m334.88 343.344c4.142 0 7.5-3.358 7.5-7.5v-15.157c0-4.142-3.358-7.5-7.5-7.5s-7.5 3.358-7.5 7.5v15.157c0 4.142 3.358 7.5 7.5 7.5z"/><path d="m256 352.367c10.138 0 19.778-4.391 26.451-12.046 2.721-3.123 2.396-7.86-.727-10.582s-7.86-2.396-10.582.727c-3.822 4.386-9.341 6.901-15.142 6.901s-11.319-2.515-15.142-6.901c-2.721-3.123-7.459-3.448-10.582-.727s-3.448 7.459-.727 10.582c6.672 7.655 16.313 12.046 26.451 12.046z"/><path d="m109.865 381.881 14.012 73.761c6.202 32.656 34.831 56.358 68.071 56.358h128.105c33.24 0 61.868-23.702 68.071-56.358l14.012-73.761c19.235-3.035 33.992-19.724 33.992-39.799v-18.611c0-22.219-18.077-40.296-40.296-40.296h-22.26c9.234-17.454 12.832-37.003 9.929-55.313-1.895-11.95-11.196-21.251-23.146-23.146-24.749-3.924-50.901 3.813-71.743 20.837v-21.973c46.219-14.092 81.891-58.802 79.626-112.328l-.045-.973c-.625-12.257-9.575-22.38-21.763-24.617-2.472-.454-4.968-.823-7.478-1.11.289-4.259.349-8.562.128-13.115-.601-12.424-9.555-22.667-21.775-24.91-9.446-1.733-19.152-2.265-28.975-1.5-5.333-13.039-17.267-25.027-32.329-25.027-15.054 0-26.983 11.974-32.32 25.004-10.028-.757-19.797-.163-28.985 1.522-12.22 2.243-21.174 12.486-21.775 24.91-.216 4.481-.164 8.797.126 13.116-2.51.287-5.006.657-7.478 1.11-12.219 2.242-21.174 12.485-21.775 24.91-2.447 50.648 28.962 96.303 76.872 112.157.001 0 .01.004.012.004h.003c.898.298 1.804.564 2.708.839v20.628c-20.555-16.079-45.968-23.303-70.05-19.484-11.95 1.895-21.251 11.196-23.146 23.146-2.902 18.31.696 37.859 9.929 55.313h-23.952c-22.219 0-40.296 18.077-40.296 40.296v18.611c-.002 20.075 14.755 36.764 33.991 39.799zm248.142-162.349c5.514.875 9.806 5.166 10.68 10.68 2.788 17.583-1.769 36.687-12.531 52.964h-40.506l26.921-26.921c2.929-2.929 2.929-7.678 0-10.606-2.929-2.929-7.678-2.929-10.606 0l-37.527 37.527h-5.824v-37.011c17.864-19.696 44.076-30.647 69.393-26.633zm-43.41-178.252c5.331.978 9.238 5.453 9.5 10.881.19 3.924.146 7.786-.129 11.674-24.725.421-48.637 8.922-68.027 24.46-9.06-7.288-19.804-13.318-30.491-17.326 21.88-23.683 55.39-35.885 89.147-29.689zm-58.596-26.28c5.749 0 12.712 4.464 16.924 12.263-5.764 1.257-11.418 2.967-16.91 5.116-5.135-2.029-11.052-3.842-16.934-5.124 4.213-7.794 11.173-12.255 16.92-12.255zm-68.098 37.161c.263-5.428 4.169-9.903 9.5-10.881 12.57-2.307 25.91-2.227 39.396.846-10.414 6.609-19.82 15.117-27.176 24.201-7.009-1.513-14.668-2.369-21.593-2.492-.276-3.928-.313-7.837-.127-11.674zm-29.127 39.137c.263-5.429 4.169-9.903 9.5-10.881 25.694-4.718 53.667.877 76.472 18.182-5.518 5.814-10.447 12.3-14.399 18.718-2.172 3.527-1.075 8.147 2.452 10.319 3.537 2.177 8.154 1.07 10.323-2.451 4.91-7.97 10.928-15.183 17.889-21.44 23.316-20.959 54.173-28.564 82.711-23.329 5.318.976 9.22 5.346 9.489 10.618l.04.859c2.758 65.173-59.498 115.926-123.577 97.914-.556-4.944-.956-8.534-.956-13.661 0-8.614 1.133-17.175 3.367-25.446 1.089-4.033-1.328-8.126-5.285-9.196-3.999-1.082-8.116 1.286-9.197 5.284-3.23 11.954-4.473 24.404-3.618 37.125-34.712-16.549-57.157-52.557-55.211-92.615zm114.837 115.741v76.137h-35.225v-76.14c11.317 1.799 23.478 1.859 35.225.003zm-128.606 23.172c.874-5.514 5.166-9.805 10.68-10.68 25.014-3.965 50.408 6.729 67.701 24.82v38.823h-4.131l-37.527-37.527c-2.929-2.929-7.678-2.929-10.606 0-2.929 2.929-2.929 7.678 0 10.606l26.921 26.921h-40.505c-10.764-16.276-15.321-35.38-12.533-52.963zm-54.135 93.26c0-13.948 11.348-25.296 25.296-25.296h279.664c13.948 0 25.296 11.348 25.296 25.296v18.611c0 13.948-11.348 25.295-25.296 25.295h-57.525c-4.142 0-7.5 3.358-7.5 7.5 0 4.13 3.346 7.5 7.5 7.5h48.466l-13.386 70.465c-4.86 25.587-27.291 44.158-53.335 44.158h-128.104c-26.044 0-48.475-18.571-53.335-44.157l-13.386-70.465h183.08c4.135 0 7.5-3.351 7.5-7.5 0-4.142-3.358-7.5-7.5-7.5h-192.139c-13.948 0-25.296-11.348-25.296-25.295z"/></g></g></svg>