<svg id="Capa_1" enable-background="new 0 0 512 512" height="512" viewBox="0 0 512 512" width="512" xmlns="http://www.w3.org/2000/svg"><g><g><g clip-rule="evenodd" fill-rule="evenodd"><path d="m120.363 390.725c-67.952 5.892-112.863 16.083-112.863 27.668 0 18.233 111.257 33.014 248.5 33.014s248.5-14.781 248.5-33.014c0-11.585-44.911-21.776-112.863-27.668-22.33 12.887-49.557 21.053-81.784 21.053h-107.706c-32.226.001-59.454-8.165-81.784-21.053z" fill="#00cdab"/><g fill="#f96491"><path d="m43.978 253.609c0 49.301 19.112 86.902 45.001 113.168 9.097 8.966 19.553 17.12 31.384 23.948 22.33 12.887 49.557 21.053 81.784 21.053h53.853v-53.852c0-49.301-19.111-86.902-45.001-113.168-11.549-11.383-25.289-21.456-41.252-29.169-20.341-9.832-44.292-15.832-71.916-15.832l-53.853-.001z"/><path d="m217.921 101.779c-30.158 30.158-49.015 70.741-48.173 113.809 55.247 26.7 86.252 81.137 86.252 142.338 0-61.198 31.004-115.642 86.252-142.337.841-43.07-18.015-83.652-48.174-113.81l-38.078-38.08z"/><path d="m301.001 244.758c-25.889 26.266-45.001 63.867-45.001 113.168v53.853h53.852c32.227 0 59.454-8.166 81.784-21.053 11.831-6.828 22.287-14.981 31.384-23.948 25.89-26.266 45.001-63.867 45.001-113.169v-53.853l-53.852.001c-27.625 0-51.576 6-71.917 15.831-15.962 7.714-29.702 17.787-41.251 29.17z"/><path d="m106.077 103.871-13.938 52.018c-4.103 15.312-5.981 29.965-6.039 43.869h11.731c27.624 0 51.575 6 71.917 15.831-.588-30.076 8.431-58.941 24.197-83.889-10.737-5.619-22.715-10.37-35.85-13.889z"/><path d="m355.139 117.809c-13.512 3.62-25.802 8.538-36.779 14.373 15.577 24.837 24.476 53.523 23.893 83.407 20.341-9.832 44.292-15.832 71.917-15.832h12.965c-.059-13.903-1.937-28.557-6.04-43.868l-13.938-52.018z"/></g><path d="m43.978 253.609c0 91.597 68.085 158.17 158.169 158.169h22.5c-90.084.001-158.169-66.572-158.169-158.169v-53.853h-22.5z" fill="#f93a79"/><path d="m256 357.926v53.853h22.5l-.001-53.853c.001-91.716 68.187-158.17 158.17-158.169h-22.5c-89.983-.001-158.168 66.453-158.169 158.169z" fill="#f93a79"/><path d="m217.921 101.779c-30.158 30.158-49.015 70.741-48.173 113.809 7.086 3.424 13.77 7.308 20.044 11.601.472-50.633 21.74-96.521 50.629-125.41l26.829-26.83-11.25-11.25z" fill="#f93a79"/><path d="m106.077 103.871-13.938 52.018c-4.103 15.312-5.981 29.965-6.039 43.869h11.731c3.611 0 7.159.104 10.645.304 1.422-32.357 10.312-59.653 18.594-90.565z" fill="#f93a79"/><path d="m336.612 123.848c-6.434 2.492-12.522 5.288-18.252 8.334 15.577 24.837 24.476 53.523 23.893 83.407 7.027-3.397 14.486-6.336 22.377-8.728-1.246-26.787-10.446-57.179-28.018-83.013z" fill="#f93a79"/><path d="m120.363 390.725c-8.284.718-16.226 1.5-23.785 2.341 30.919 22.839 67.156 33.712 105.569 33.712h107.705c38.413 0 74.651-10.872 105.569-33.712-7.559-.841-15.501-1.623-23.785-2.341-22.33 12.887-49.557 21.053-81.784 21.053-35.902 0-71.804 0-107.705 0-32.226.001-59.454-8.165-81.784-21.053z" fill="#00aa7c"/></g><g><path d="m407.111 350.868-10.606-10.606c15.33-15.33 25.627-34.061 30.607-55.672l14.617 3.368c-5.622 24.395-17.269 45.561-34.618 62.91zm37.319-78.486-14.896-1.768c.608-5.127.939-10.433.983-15.77l14.999.123c-.048 5.885-.413 11.744-1.086 17.415z" fill="#fff"/></g><g><path d="m233.5 357.927h-15c0-23.421-5.313-44.574-15.792-62.871l13.017-7.454c11.794 20.595 17.775 44.256 17.775 70.325zm-38.53-74.599c-2.951-3.915-6.206-7.694-9.674-11.232l10.711-10.501c3.92 4 7.602 8.274 10.941 12.705z" fill="#fff"/></g><g><path d="m279.231 141.566c-3.078-3.993-6.422-7.866-9.94-11.511l10.793-10.417c3.902 4.043 7.613 8.34 11.028 12.772z"/></g></g><g><path d="m36.479 229.756h15v-22.5h46.353c39.151 0 74.424 12.91 102.006 37.333l9.944-11.229c-30.367-26.891-69.079-41.104-111.95-41.104h-3.99c.608-11.34 2.451-22.885 5.543-34.428l11.997-44.773 44.773 11.998c9.482 2.54 18.6 5.838 27.217 9.813-9.694 17.131-16.304 35.574-19.278 54.309l14.814 2.352c4.884-30.762 20.623-60.752 44.317-84.446l32.775-32.776 32.776 32.776c23.748 23.748 39.498 53.809 44.348 84.645l14.817-2.33c-2.933-18.648-9.466-37.007-19.058-54.076 8.895-4.175 18.341-7.627 28.197-10.267l44.773-11.997 11.997 44.773c3.092 11.542 4.935 23.086 5.543 34.427h-5.224c-.003 0 .002 0-.002 0-41.026 0-72.115 12.688-94.552 27.699l.141-4.806c.466-23.836-6.339-47.95-19.679-69.733l-12.792 7.833c11.841 19.337 17.884 40.641 17.476 61.535l-.492 16.801c-3.08 2.635-5.928 5.263-8.533 7.831l-.077.077c-14.329 14.538-30.481 36.379-39.678 66.575-6.974-22.915-18.722-43.735-34.945-61.608l-11.106 10.082c25.232 27.797 38.569 63.546 38.569 103.383h.001v46.352h-46.353c-53.222 0-88.029-23.268-107.865-42.804-19.537-19.836-42.805-54.643-42.804-107.865v-8.853h-15v8.853c0 58.341 25.646 96.605 47.16 118.433l.077.077c21.827 21.514 60.092 47.16 118.433 47.16h46.352 7.5 37.499v-15h-29.999v-46.352c0-53.222 23.268-88.029 42.804-107.865 19.836-19.537 54.644-42.804 107.865-42.804h46.352v22.787h15v-37.787h-41.108c-.618-12.64-2.641-25.49-6.075-38.309l-15.878-59.263-59.262 15.879c-11.291 3.025-22.107 7.038-32.262 11.928-6.282-9.227-13.497-17.961-21.554-26.018l-43.382-43.381-43.382 43.383c-7.928 7.927-15.038 16.513-21.25 25.578-9.895-4.695-20.398-8.559-31.332-11.488l-59.262-15.88-15.879 59.262c-3.435 12.82-5.458 25.671-6.076 38.309h-42.342z"/><path d="m460.522 253.609c0 53.223-23.268 88.029-42.805 107.865-19.836 19.536-54.643 42.804-107.865 42.804h-1.352v15h1.353c58.34 0 96.605-25.646 118.433-47.16l.077-.077c21.514-21.827 47.16-60.092 47.16-118.433v-8.565h-15v8.566z"/><path d="m430.127 387.276-1.92 14.876c49.65 6.41 63.887 13.462 67.738 16.242-3.975 2.871-19.003 10.293-72.573 16.847-45.684 5.589-105.125 8.667-167.373 8.667-43.932 0-87.082-1.55-124.785-4.483l-1.163 14.955c38.083 2.962 81.634 4.528 125.948 4.528 66.697 0 129.451-3.458 176.704-9.735 69.876-9.284 79.297-20.769 79.297-30.78 0-10.161-9.728-21.804-81.873-31.117z"/><path d="m16.064 418.387c3.803-2.736 17.65-9.591 65.27-15.913l-1.974-14.869c-69.931 9.283-79.36 20.773-79.36 30.788 0 9.966 10.558 16.82 35.302 22.919 19.111 4.711 46.672 8.791 79.705 11.798l1.36-14.938c-29.383-2.675-54.461-6.224-72.522-10.262-18.298-4.09-25.255-7.717-27.781-9.523z"/></g></g></svg>