<svg id="icons" enable-background="new 0 0 64 64" height="512" viewBox="0 0 64 64" width="512" xmlns="http://www.w3.org/2000/svg"><g><g><path d="m47.59 10c1.66 2.88 1.54 6.31-.01 9 1.55 2.69 1.67 6.12.01 9-1.67 2.89-4.689 4.49-7.8 4.49-1.56 2.69-4.46 4.51-7.79 4.51s-6.23-1.82-7.79-4.51c-3.11 0-6.13-1.61-7.8-4.49-1.66-2.89-1.54-6.31.01-9-1.55-2.69-1.67-6.12-.01-9 1.67-2.88 4.689-4.49 7.8-4.49 1.56-2.7 4.46-4.51 7.79-4.51s6.23 1.81 7.79 4.51c3.11 0 6.13 1.61 7.8 4.49zm-6.95 9c.86-1.5.95-3.4.021-5-.93-1.61-2.61-2.48-4.34-2.48-.861-1.5-2.471-2.52-4.321-2.52s-3.46 1.02-4.32 2.52c-1.729 0-3.41.87-4.34 2.48-.93 1.6-.84 3.5.021 5-.86 1.5-.95 3.39-.021 5 .93 1.6 2.61 2.48 4.34 2.48.86 1.5 2.46 2.52 4.32 2.52 1.85 0 3.46-1.02 4.32-2.52 1.729 0 3.41-.88 4.34-2.48.93-1.61.84-3.5-.02-5z" fill="#ed5565"/></g><g><path d="m40.66 14c.93 1.6.84 3.5-.021 5 .86 1.5.95 3.39.021 5-.93 1.6-2.61 2.48-4.34 2.48-.86 1.5-2.47 2.52-4.32 2.52-1.86 0-3.46-1.02-4.32-2.52-1.729 0-3.41-.88-4.34-2.48-.93-1.61-.84-3.5.021-5-.86-1.5-.95-3.4-.021-5 .93-1.61 2.61-2.48 4.34-2.48.86-1.5 2.47-2.52 4.32-2.52s3.46 1.02 4.32 2.52c1.73 0 3.41.87 4.34 2.48zm-5.66 5c0-1.66-1.34-3-3-3s-3 1.34-3 3 1.34 3 3 3 3-1.34 3-3z" fill="#da4453"/></g><g><path d="m32 16c1.66 0 3 1.34 3 3s-1.34 3-3 3-3-1.34-3-3 1.34-3 3-3z" fill="#ffce54"/></g><g><path d="m46.61 37.38c1.56 1.56-6.221 11.88-7.78 13.439-1.57 1.561-4.1 1.561-5.66 0-.78-.779-1.17-1.799-1.17-2.829 0-1.021.39-2.051 1.17-2.83 1.56-1.56 11.88-9.341 13.44-7.78z" fill="#a0d468"/></g><g><path d="m32 55.859v.561c-.06.64-.34 1.26-.83 1.75-1.12 1.12-2.939 1.12-4.06 0-1.13-1.12-6.08-7.9-4.96-9.021 1.119-1.12 7.899 3.83 9.02 4.95.49.491.77 1.121.83 1.76z" fill="#a0d468"/></g></g><g><g><path d="m31.999 38c-3.362 0-6.516-1.72-8.359-4.523-3.349-.193-6.412-2.064-8.094-4.978-1.683-2.913-1.77-6.502-.262-9.499-1.508-2.998-1.421-6.587.262-9.5 1.683-2.914 4.747-4.784 8.094-4.977 1.843-2.804 4.996-4.523 8.359-4.523s6.516 1.719 8.359 4.522c3.349.192 6.413 2.063 8.096 4.978 1.684 2.914 1.771 6.503.261 9.5 1.508 2.998 1.421 6.587-.262 9.5-1.682 2.914-4.747 4.785-8.095 4.977-1.845 2.804-4.998 4.523-8.359 4.523zm0-36c-2.841 0-5.495 1.536-6.927 4.007-.179.309-.508.499-.864.499-2.854.002-5.509 1.532-6.93 3.994-1.422 2.46-1.419 5.526.008 8 .179.309.179.69 0 .999-1.426 2.474-1.43 5.539-.008 8 1.42 2.461 4.075 3.991 6.93 3.994.356 0 .686.19.864.499 1.433 2.472 4.087 4.008 6.927 4.008 2.839 0 5.493-1.535 6.927-4.007.179-.309.508-.499.864-.499 2.854-.002 5.511-1.532 6.931-3.994 1.422-2.46 1.419-5.526-.008-8-.179-.309-.179-.69 0-1 1.428-2.474 1.431-5.539.009-8-1.421-2.462-4.077-3.993-6.932-3.995-.356 0-.686-.19-.864-.499-1.432-2.47-4.086-4.006-6.927-4.006z"/></g><g><path d="m32 29.998c-1.938 0-3.762-.963-4.882-2.548-1.933-.18-3.676-1.276-4.645-2.952-.97-1.678-1.047-3.739-.234-5.5-.812-1.763-.734-3.823.234-5.5.97-1.678 2.716-2.775 4.646-2.953 1.12-1.583 2.942-2.547 4.881-2.547s3.762.963 4.882 2.548c1.935.18 3.677 1.276 4.645 2.952.969 1.678 1.047 3.738.235 5.5.812 1.761.734 3.821-.235 5.5-.97 1.678-2.715 2.775-4.646 2.953-1.12 1.584-2.943 2.547-4.881 2.547zm-4.32-17.478c-1.462 0-2.758.74-3.474 1.979-.717 1.24-.708 2.735.023 3.999.18.31.18.692 0 1.002-.731 1.263-.74 2.758-.023 3.998.716 1.239 2.013 1.979 3.47 1.979.357 0 .694.191.873.501.728 1.265 2.018 2.021 3.451 2.021s2.724-.755 3.451-2.021c.179-.31.51-.501.867-.501h.002c1.462 0 2.759-.74 3.474-1.979.717-1.242.709-2.736-.022-3.999-.18-.31-.18-.692 0-1.002.73-1.263.739-2.758.022-3.999-.715-1.239-2.012-1.979-3.467-1.979-.357 0-.697-.191-.876-.501-.727-1.265-2.017-2.02-3.451-2.02s-2.724.755-3.451 2.021c-.179.31-.51.501-.867.501-.001 0-.001 0-.002 0z"/></g><g><path d="m32 23c-2.206 0-4-1.794-4-4s1.794-4 4-4 4 1.794 4 4-1.794 4-4 4zm0-6c-1.103 0-2 .897-2 2s.897 2 2 2 2-.897 2-2-.897-2-2-2z"/></g><g><path d="m31.999 64c-.553 0-1-.447-1-1v-26c0-.553.447-1 1-1s1 .447 1 1v26c0 .553-.447 1-1 1z"/></g><g><path d="m35.999 52.993c-1.336 0-2.592-.521-3.536-1.465-1.949-1.949-1.949-5.121 0-7.071 1.253-1.252 10.242-8.284 13.525-8.284.688 0 1.104.271 1.332.499.827.826 1.085 2.365-2.592 7.977-1.988 3.033-4.365 6.052-5.194 6.88-.944.944-2.2 1.464-3.535 1.464zm9.824-14.799c-2.517.354-10.369 6.101-11.946 7.677-1.169 1.17-1.169 3.073 0 4.243 1.134 1.133 3.107 1.133 4.243 0 1.824-1.823 7.502-9.821 7.703-11.92z"/></g><g><path d="m29.139 60.012c-1.035 0-2.008-.403-2.74-1.136-.077-.077-7.145-8.244-4.954-10.435.208-.209.587-.457 1.206-.457 2.44 0 8.379 4.563 9.228 5.411 1.511 1.511 1.511 3.97 0 5.48-.733.733-1.705 1.137-2.74 1.137zm-6.096-9.964c.466 1.678 3.557 6.201 4.77 7.414.709.709 1.942.709 2.651 0 .731-.731.731-1.921 0-2.652-1.084-1.083-5.623-4.273-7.421-4.762z"/></g></g></svg>