<?xml version="1.0" encoding="utf-8"?>
<!-- Generator: Adobe Illustrator 16.0.0, SVG Export Plug-In . SVG Version: 6.00 Build 0)  -->
<!DOCTYPE svg PUBLIC "-//W3C//DTD SVG 1.1//EN" "http://www.w3.org/Graphics/SVG/1.1/DTD/svg11.dtd">
<svg version="1.1" id="Layer_1" xmlns="http://www.w3.org/2000/svg" xmlns:xlink="http://www.w3.org/1999/xlink" x="0px" y="0px"
	 width="226.465px" height="220.784px" viewBox="0 0 226.465 220.784" enable-background="new 0 0 226.465 220.784"
	 xml:space="preserve">
<rect x="-207.471" y="-466.564" fill="#F17099" width="517" height="357.66"/>
<rect x="-903.535" y="183.484" fill="#FCF38F" width="517" height="339.473"/>
<ellipse fill="#FFFFFF" stroke="#000000" stroke-miterlimit="10" cx="-1118.921" cy="-61.352" rx="43.25" ry="27.009"/>
<ellipse fill="#FFFFFF" stroke="#000000" stroke-miterlimit="10" cx="-1119.421" cy="-57.102" rx="45.75" ry="22.759"/>
<ellipse fill="#FFFFFF" stroke="#000000" stroke-miterlimit="10" cx="-1118.921" cy="-31.611" rx="79" ry="40.25"/>
<path fill="#FFFFFF" stroke="#000000" stroke-miterlimit="10" d="M-1068.185,98.58c0,24.854-21.284,45-47.539,45h-7.396
	c-26.254,0-47.538-20.146-47.538-45v-103c0-24.853,21.284-48,47.538-48h7.396c26.255,0,47.539,20.479,47.539,48V98.58z"/>
<path fill="#FFFFFF" stroke="#000000" stroke-miterlimit="10" d="M-1096.451,71.712c0,7.387-10.129,13.375-22.625,13.375
	s-22.625-5.988-22.625-13.375s10.129-11.375,22.625-11.375S-1096.451,64.326-1096.451,71.712z"/>
<g>
	<g>
		<path fill="#FFFFFF" stroke="#000000" stroke-miterlimit="10" d="M-1075.351,78.489c-3.623-4.849-10.901-5.536-16.256-1.535
			c-5.354,4.001-6.758,11.175-3.135,16.024l31.256,41.832l19.392-14.49L-1075.351,78.489z"/>
		<path fill="#FFFFFF" stroke="#000000" stroke-miterlimit="10" d="M-1044.836,139.546"/>
		<line fill="#FFFFFF" stroke="#000000" stroke-miterlimit="10" x1="-1044.094" y1="120.32" x2="-1063.486" y2="134.81"/>
	</g>
	<g>
		<path fill="#FFFFFF" stroke="#000000" stroke-miterlimit="10" d="M-1030.097,83.787c1.964-6.645,0.277-13.358-3.767-16.629
			l3.799-9.051c0.255-0.577-0.195-1.442-1.006-1.931c-0.811-0.489-1.675-0.418-1.931,0.16l-3.865,9.199
			c-0.434-0.136-0.872-0.23-1.312-0.297l1.707-8.525c0.125-0.625-0.517-1.259-1.433-1.413c-0.917-0.155-1.762,0.227-1.887,0.853
			l-1.85,9.24c-4.425,1.046-8.521,5.213-10.253,11.078"/>
		<path fill="#FFFFFF" stroke="#000000" stroke-miterlimit="10" d="M-1030.227,71.908c0.346,0.986,0.162,2.109-0.411,2.51
			l-4.544,3.183c-0.573,0.401-1.317-0.072-1.664-1.058l0,0c-0.347-0.986-0.163-2.109,0.411-2.511l4.543-3.183
			C-1031.317,70.448-1030.573,70.922-1030.227,71.908L-1030.227,71.908z"/>
		<path fill="#FFFFFF" stroke="#000000" stroke-miterlimit="10" d="M-1031.112,68.645c0.346,0.985,0.037,2.197-0.691,2.707
			l-5.773,4.043c-0.728,0.51-1.598,0.124-1.944-0.862l0,0c-0.346-0.985-0.036-2.197,0.69-2.707l5.773-4.043
			C-1032.328,67.273-1031.458,67.659-1031.112,68.645L-1031.112,68.645z"/>
		<path fill="#FFFFFF" stroke="#000000" stroke-miterlimit="10" d="M-1040.854,74.867c-0.71,0.801-1.672,0.867-2.149,0.147
			l-3.786-5.712c-0.477-0.72-0.289-1.954,0.422-2.754l0,0c0.71-0.801,1.672-0.867,2.149-0.146l3.787,5.712
			C-1039.956,72.833-1040.145,74.065-1040.854,74.867L-1040.854,74.867z"/>
	</g>
	<g>
		<path fill="#FFFFFF" stroke="#000000" stroke-miterlimit="10" d="M-1068.884,121.958c-1.957,5.618,1.575,11.955,7.887,14.153
			c6.313,2.199,13.016-0.574,14.973-6.192l16.882-48.472l-22.86-7.961L-1068.884,121.958z"/>
	</g>
</g>
<g>
	<g>
		<path fill="#FFFFFF" stroke="#000000" stroke-miterlimit="10" d="M-1162.168,74.84c4.134-4.421,11.443-4.304,16.326,0.261
			s5.489,11.85,1.355,16.271l-35.664,38.144l-17.683-16.533L-1162.168,74.84z"/>
		<path fill="#FFFFFF" stroke="#000000" stroke-miterlimit="10" d="M-1199.208,132.175"/>
		<line fill="#FFFFFF" stroke="#000000" stroke-miterlimit="10" x1="-1197.833" y1="112.983" x2="-1180.151" y2="129.517"/>
	</g>
	<g>
		<path fill="#FFFFFF" stroke="#000000" stroke-miterlimit="10" d="M-1207.73,75.133c-1.222-6.82,1.192-13.307,5.572-16.115
			l-2.782-9.414c-0.19-0.602,0.353-1.412,1.212-1.809c0.86-0.397,1.711-0.232,1.901,0.371l2.831,9.568
			c0.446-0.088,0.892-0.133,1.336-0.151l-0.759-8.661c-0.055-0.636,0.652-1.194,1.58-1.247c0.928-0.053,1.726,0.419,1.782,1.055
			l0.823,9.388c4.284,1.526,7.896,6.118,8.974,12.137"/>
		<path fill="#FFFFFF" stroke="#000000" stroke-miterlimit="10" d="M-1206.296,63.34c-0.453,0.942-0.393,2.079,0.132,2.54
			l4.167,3.663c0.525,0.462,1.317,0.073,1.77-0.868l0,0c0.453-0.942,0.394-2.079-0.132-2.541l-4.166-3.663
			C-1205.052,62.009-1205.844,62.399-1206.296,63.34L-1206.296,63.34z"/>
		<path fill="#FFFFFF" stroke="#000000" stroke-miterlimit="10" d="M-1205.057,60.194c-0.452,0.941-0.278,2.18,0.389,2.767
			l5.294,4.653c0.667,0.587,1.574,0.299,2.027-0.643l0,0c0.452-0.941,0.277-2.18-0.389-2.766l-5.293-4.653
			C-1203.698,58.965-1204.604,59.253-1205.057,60.194L-1205.057,60.194z"/>
		<path fill="#FFFFFF" stroke="#000000" stroke-miterlimit="10" d="M-1196.058,67.449c0.618,0.874,1.567,1.045,2.12,0.382
			l4.391-5.261c0.553-0.663,0.501-1.91-0.117-2.784l0,0c-0.618-0.875-1.567-1.045-2.12-0.382l-4.392,5.261
			C-1196.727,65.329-1196.675,66.575-1196.058,67.449L-1196.058,67.449z"/>
	</g>
	<g>
		<path fill="#FFFFFF" stroke="#000000" stroke-miterlimit="10" d="M-1173.373,117.336c1.328,5.799-2.879,11.71-9.395,13.201
			c-6.516,1.492-12.875-2.001-14.202-7.8l-11.453-50.034l23.597-5.401L-1173.373,117.336z"/>
	</g>
</g>
<rect x="-1129.973" y="44.587" fill="#FFFFFF" stroke="#000000" stroke-miterlimit="10" width="18.233" height="34.5"/>
<path fill="#FFFFFF" stroke="#000000" stroke-miterlimit="10" d="M-1071.58-1.213c-3.504,0-6.345,4.555-6.345,10.174
	c0,0.386,0.017,0.765,0.042,1.14c-10.183-4.544-19.444-13.354-28.163-20.861c-7.876-6.778-16.938-7.446-19.277-16.255
	c-1.464,2.619-1.176,2.166-3.149,4.588c-7.753,9.51-33.231,16.89-36.795,18.063c-0.077,1.686,3.641,3.668,3.641,22.165
	c0,28.869,16.479,37.272,43.303,37.272c21.266,0,38.716-14.34,45.184-36.261c0.5,0.203,1.021,0.322,1.56,0.322
	c3.503,0,6.344-4.555,6.344-10.174S-1068.077-1.213-1071.58-1.213z"/>
<path d="M-1114.177,10.834c0-1.765,0.963-3.196,2.15-3.196c0.683,0,1.284,0.482,1.678,1.218c0.047-0.394,0.072-0.8,0.072-1.218
	c0-3.528-1.746-6.39-3.9-6.39c-2.153,0-3.899,2.862-3.899,6.39c0,3.528,1.746,6.391,3.899,6.391c0.428,0,0.837-0.116,1.222-0.324
	C-1113.676,13.19-1114.177,12.103-1114.177,10.834z"/>
<path d="M-1127.737,10.834c0-1.765,0.963-3.196,2.15-3.196c0.683,0,1.284,0.482,1.678,1.218c0.047-0.394,0.072-0.8,0.072-1.218
	c0-3.528-1.746-6.39-3.9-6.39c-2.153,0-3.899,2.862-3.899,6.39c0,3.528,1.746,6.391,3.899,6.391c0.428,0,0.837-0.116,1.222-0.324
	C-1127.236,13.19-1127.737,12.103-1127.737,10.834z"/>
<g>
	<path d="M-1111.177,28.103c0,0,0.011,0.119,0.032,0.342c0.017,0.225,0.077,0.544,0.028,0.977c-0.013,0.438-0.099,0.956-0.272,1.539
		c-0.181,0.578-0.44,1.231-0.862,1.86c-0.389,0.657-0.942,1.273-1.579,1.873c-0.666,0.556-1.398,1.14-2.263,1.542
		c-0.848,0.43-1.77,0.803-2.748,1.01c-0.971,0.246-1.986,0.32-2.998,0.362c-0.567-0.037-0.931-0.021-1.486-0.102
		c-0.524-0.058-1.032-0.14-1.512-0.259c-0.979-0.204-1.9-0.58-2.748-1.009c-0.865-0.403-1.599-0.985-2.263-1.542
		c-0.637-0.6-1.192-1.215-1.58-1.873c-0.422-0.629-0.682-1.283-0.862-1.861c-0.172-0.583-0.259-1.104-0.27-1.533
		c-0.048-0.425,0.011-0.761,0.028-0.984c0.021-0.223,0.033-0.341,0.033-0.341s0.026,0.117,0.076,0.336
		c0.048,0.217,0.112,0.533,0.255,0.915c0.113,0.387,0.328,0.83,0.584,1.311c0.277,0.474,0.623,0.981,1.074,1.467
		c0.43,0.503,1.002,0.944,1.594,1.398c0.636,0.405,1.314,0.811,2.077,1.113c0.367,0.179,0.777,0.278,1.17,0.421
		c0.414,0.087,0.815,0.229,1.241,0.295c0.425,0.095,0.843,0.149,1.255,0.186c0.375,0.061,0.96,0.039,1.334,0.063
		c0.872-0.019,1.751-0.055,2.589-0.249c0.426-0.067,0.828-0.205,1.242-0.294c0.393-0.143,0.803-0.243,1.17-0.421
		c0.763-0.303,1.442-0.707,2.078-1.113c0.592-0.454,1.166-0.895,1.595-1.398c0.451-0.486,0.797-0.994,1.074-1.468
		c0.256-0.481,0.471-0.926,0.583-1.305c0.142-0.374,0.208-0.706,0.255-0.922C-1111.203,28.22-1111.177,28.103-1111.177,28.103z"/>
</g>
<ellipse fill="#FFFFFF" stroke="#000000" stroke-miterlimit="10" cx="-1071.428" cy="9.834" rx="1.243" ry="3.195"/>
<ellipse fill="#FAD4E5" cx="-1146.254" cy="22.864" rx="10.083" ry="9.491"/>
<ellipse fill="#FAD4E5" cx="-1096.754" cy="22.864" rx="10.083" ry="9.491"/>
<g>
	<line fill="none" stroke="#000000" stroke-miterlimit="10" x1="-1120.856" y1="9.834" x2="-1120.856" y2="16.871"/>
	<path fill="none" stroke="#000000" stroke-miterlimit="10" d="M-1120.566,21.661c-1.966,0-3.561-1.186-3.561-2.649
		c0-1.463,1.595-2.65,3.561-2.65"/>
</g>
<g>
	<rect x="-1113.754" y="160.149" fill="#FFFFFF" stroke="#000000" stroke-miterlimit="10" width="19.334" height="138.115"/>
	<g>
		<rect x="-1113.571" y="244.568" fill="#FFFFFF" stroke="#000000" stroke-miterlimit="10" width="18.97" height="48.5"/>
		<path fill="#FFFFFF" stroke="#000000" stroke-miterlimit="10" d="M-1091.459,274.257h-10.588c-8.49,0-15.373,11.112-15.373,24.818
			h41.332C-1076.088,285.369-1082.971,274.257-1091.459,274.257z"/>
		<line fill="#FFFFFF" stroke="#000000" stroke-miterlimit="10" x1="-1076.088" y1="299.075" x2="-1117.42" y2="299.075"/>
	</g>
</g>
<g>
	<rect x="-1146.347" y="160.149" fill="#FFFFFF" stroke="#000000" stroke-miterlimit="10" width="19.334" height="138.115"/>
	<g>
		<rect x="-1146.166" y="244.568" fill="#FFFFFF" stroke="#000000" stroke-miterlimit="10" width="18.97" height="48.5"/>
		<path fill="#FFFFFF" stroke="#000000" stroke-miterlimit="10" d="M-1149.308,274.257h10.588c8.49,0,15.373,11.112,15.373,24.818
			h-41.332C-1164.679,285.369-1157.796,274.257-1149.308,274.257z"/>
		<line fill="#FFFFFF" stroke="#000000" stroke-miterlimit="10" x1="-1164.679" y1="299.075" x2="-1123.347" y2="299.075"/>
	</g>
</g>
<path fill="#FFFFFF" stroke="#000000" stroke-miterlimit="10" d="M-1101.921,63.337v8.332h-35v-8.332
	c-11.526,1.219-25.5,5.87-25.5,17.459l-17.583,127.772c0,12.416,31.673,12.917,44.375,12.917h42.958c12.702,0,34,1.452,34-10.963
	l-17.75-129.727C-1076.421,69.207-1090.396,64.556-1101.921,63.337z"/>
<path fill="none" stroke="#000000" stroke-miterlimit="10" d="M-1121.347,125.567c12.518,0,22.667-10.148,22.667-22.667h-45.333
	C-1144.013,115.419-1133.865,125.567-1121.347,125.567z"/>
<ellipse fill="#FEDABD" stroke="#000000" stroke-width="3" stroke-miterlimit="10" cx="114.775" cy="50.388" rx="49.56" ry="30.95"/>
<ellipse fill="#F8A594" stroke="#000000" stroke-width="2" stroke-miterlimit="10" cx="114.203" cy="58.403" rx="52.425" ry="26.081"/>
<ellipse fill="#FEDABD" stroke="#000000" stroke-width="3" stroke-miterlimit="10" cx="114.775" cy="88.76" rx="90.526" ry="46.123"/>
<path fill="#C69461" stroke="#000000" stroke-width="3" stroke-miterlimit="10" d="M175.206,232.652
	c0,28.481-24.389,51.567-54.475,51.567h-8.475c-30.084,0-54.475-23.086-54.475-51.567V114.625c0-28.479,24.391-55.004,54.475-55.004
	h8.475c30.086,0,54.475,23.469,54.475,55.004V232.652z"/>
<path fill="#FFF6CE" stroke="#000000" stroke-width="2" stroke-miterlimit="10" d="M140.542,201.353
	c-0.204,8.46-11.977,15.038-26.29,14.69c-14.315-0.35-25.751-7.49-25.546-15.953c0.207-8.462,11.922-12.75,26.236-12.4
	S140.749,192.89,140.542,201.353z"/>
<g>
	<path fill="#FCF38F" stroke="#000000" stroke-width="3" stroke-miterlimit="10" d="M-22.133,507.806
		c-3.012-6.25-11.047-8.619-17.947-5.29c-6.901,3.325-10.052,11.085-7.041,17.333l25.982,53.902l24.986-12.043L-22.133,507.806z"/>
	<path fill="#FCF38F" stroke="#000000" stroke-width="3" stroke-miterlimit="10" d="M7.563,577.849"/>
</g>
<g>
	<path fill="#FFFCF1" stroke="#000000" stroke-width="2" stroke-miterlimit="10" d="M-473.669,206.502
		c2.25-7.614,0.317-15.306-4.316-19.058l4.354-10.371c0.293-0.661-0.225-1.654-1.152-2.212c-0.93-0.561-1.92-0.48-2.213,0.183
		l-4.43,10.54c-0.496-0.155-0.998-0.263-1.502-0.341l1.955-9.769c0.143-0.716-0.592-1.441-1.641-1.617
		c-1.052-0.179-2.02,0.261-2.164,0.977l-2.119,10.588c-5.071,1.199-9.764,5.974-11.75,12.693"/>
	<path fill="#FFFCF1" stroke="#000000" stroke-width="2" stroke-miterlimit="10" d="M-473.818,192.887
		c0.397,1.133,0.187,2.418-0.47,2.878l-5.207,3.646c-0.656,0.46-1.51-0.082-1.906-1.212l0,0c-0.396-1.13-0.187-2.418,0.471-2.878
		l5.207-3.645C-475.067,191.217-474.216,191.759-473.818,192.887L-473.818,192.887z"/>
	<path fill="#FFFCF1" stroke="#000000" stroke-width="2" stroke-miterlimit="10" d="M-474.833,189.149
		c0.396,1.13,0.043,2.519-0.791,3.103l-6.615,4.633c-0.834,0.586-1.83,0.142-2.228-0.988l0,0c-0.397-1.128-0.041-2.517,0.792-3.1
		l6.613-4.633C-476.226,187.578-475.229,188.019-474.833,189.149L-474.833,189.149z"/>
	<path fill="#FFFCF1" stroke="#000000" stroke-width="2" stroke-miterlimit="10" d="M-485.996,196.28
		c-0.813,0.915-1.916,0.993-2.463,0.167l-4.339-6.543c-0.547-0.826-0.33-2.24,0.484-3.157l0,0c0.814-0.917,1.916-0.996,2.461-0.169
		l4.34,6.548C-484.967,193.951-485.183,195.361-485.996,196.28L-485.996,196.28z"/>
</g>
<g>
	<path fill="#FCF38F" stroke="#000000" stroke-width="3" stroke-miterlimit="10" d="M-518.247,252.176
		c-2.24,6.438,1.806,13.7,9.039,16.221c7.233,2.519,14.915-0.659,17.158-7.097l19.345-55.546l-26.196-9.122L-518.247,252.176z"/>
</g>
<g>
	<path fill="#FCF38F" stroke="#000000" stroke-width="3" stroke-miterlimit="10" d="M55.009,201.489
		c0.578-6.911,7.235-11.997,14.867-11.36c7.635,0.637,13.354,6.759,12.776,13.669l-4.979,59.63l-27.644-2.307L55.009,201.489z"/>
	<path fill="#FCF38F" stroke="#000000" stroke-width="3" stroke-miterlimit="10" d="M62.424,279.355"/>
	
		<line fill="#FCF38F" stroke="#000000" stroke-width="3" stroke-miterlimit="10" x1="50.029" y1="261.121" x2="77.673" y2="263.428"/>
</g>
<g>
	<path fill="#FCF38F" stroke="#000000" stroke-width="3" stroke-miterlimit="10" d="M141.097,204.589
		c-0.54-6.914,5.214-13.003,12.849-13.602c7.638-0.598,14.267,4.525,14.807,11.438l4.667,59.656l-27.655,2.165L141.097,204.589z"/>
	<path fill="#FCF38F" stroke="#000000" stroke-width="3" stroke-miterlimit="10" d="M160.928,280.252"/>
	
		<line fill="#FCF38F" stroke="#000000" stroke-width="3" stroke-miterlimit="10" x1="145.764" y1="264.247" x2="173.419" y2="262.082"/>
</g>
<g>
	<path fill="#FFFCF1" stroke="#000000" stroke-width="2" stroke-miterlimit="10" d="M-568.12,82.938
		c-1.4-7.815,1.366-15.249,6.386-18.465l-3.188-10.787c-0.218-0.691,0.403-1.617,1.389-2.075c0.985-0.453,1.96-0.263,2.179,0.426
		l3.244,10.966c0.511-0.101,1.021-0.153,1.531-0.174l-0.871-9.924c-0.063-0.728,0.747-1.368,1.811-1.428
		c1.064-0.062,1.979,0.478,2.043,1.208l0.941,10.757c4.909,1.748,9.049,7.01,10.284,13.91"/>
	<path fill="#FFFCF1" stroke="#000000" stroke-width="2" stroke-miterlimit="10" d="M-566.477,69.423
		c-0.518,1.08-0.449,2.381,0.152,2.912l4.773,4.196c0.604,0.529,1.51,0.085,2.029-0.995l0,0c0.518-1.078,0.451-2.381-0.153-2.912
		l-4.773-4.196C-565.05,67.899-565.957,68.346-566.477,69.423L-566.477,69.423z"/>
	<path fill="#FFFCF1" stroke="#000000" stroke-width="2" stroke-miterlimit="10" d="M-565.057,65.82
		c-0.519,1.08-0.319,2.496,0.445,3.168l6.066,5.331c0.765,0.675,1.805,0.346,2.324-0.734l0,0c0.518-1.08,0.317-2.5-0.447-3.171
		l-6.065-5.333C-563.499,64.411-564.537,64.74-565.057,65.82L-565.057,65.82z"/>
	<path fill="#FFFCF1" stroke="#000000" stroke-width="2" stroke-miterlimit="10" d="M-554.744,74.131
		c0.709,1.004,1.796,1.199,2.43,0.439l5.031-6.028c0.635-0.76,0.574-2.189-0.133-3.189l0,0c-0.709-1.004-1.797-1.199-2.43-0.439
		l-5.033,6.028C-555.511,71.704-555.451,73.132-554.744,74.131L-554.744,74.131z"/>
</g>
<g>
	<path fill="#FCF38F" stroke="#000000" stroke-width="3" stroke-miterlimit="10" d="M-528.75,131.297
		c1.521,6.646-3.299,13.418-10.766,15.127s-14.752-2.29-16.274-8.938l-13.123-57.333l27.04-6.188L-528.75,131.297z"/>
</g>
<rect x="102.11" y="168.492" fill="#FFFCF1" stroke="#000000" stroke-width="3" stroke-miterlimit="10" width="20.893" height="39.534"/>
<path fill="#FFFCF1" stroke="#000000" stroke-width="3" stroke-miterlimit="10" d="M169.024,118.3
	c-4.016,0-7.271,5.221-7.271,11.661c0,0.441,0.02,0.874,0.049,1.304c-11.67-5.207-22.281-15.301-32.271-23.905
	c-9.027-7.767-19.41-8.531-22.09-18.625c-1.679,3.002-1.35,2.482-3.609,5.258c-8.884,10.897-38.08,19.353-42.164,20.7
	c-0.088,1.931,4.172,4.2,4.172,25.399c0,33.08,18.883,42.709,49.621,42.709c24.369,0,44.364-16.433,51.775-41.551
	c0.574,0.231,1.171,0.368,1.789,0.368c4.014,0,7.268-5.218,7.268-11.656C176.292,123.521,173.038,118.3,169.024,118.3z"/>
<path stroke="#000000" stroke-miterlimit="10" d="M122.554,129.814c0-2.022,1.104-3.661,2.464-3.661c0.781,0,1.47,0.551,1.922,1.394
	c0.054-0.451,0.083-0.917,0.083-1.394c0-4.042-2-7.323-4.469-7.323c-2.468,0-4.469,3.281-4.469,7.323s2.001,7.321,4.469,7.321
	c0.489,0,0.959-0.133,1.4-0.371C123.128,132.514,122.554,131.267,122.554,129.814z"/>
<path stroke="#000000" stroke-miterlimit="10" d="M102.329,129.814c0-2.022,1.104-3.661,2.464-3.661
	c0.781,0,1.472,0.551,1.922,1.394c0.055-0.451,0.083-0.917,0.083-1.394c0-4.042-2-7.323-4.469-7.323
	c-2.467,0-4.467,3.281-4.467,7.323s2,7.321,4.467,7.321c0.49,0,0.96-0.133,1.401-0.371
	C102.903,132.514,102.329,131.267,102.329,129.814z"/>
<g>
	<path d="M123.648,149.602c0,0,0.011,0.136,0.029,0.391c0.015,0.257,0.074,0.624,0.011,1.116c-0.021,0.497-0.129,1.086-0.334,1.746
		c-0.214,0.654-0.517,1.393-1.003,2.103c-0.448,0.741-1.084,1.435-1.811,2.111c-0.761,0.625-1.596,1.282-2.579,1.736
		c-0.965,0.485-2.014,0.901-3.124,1.136c-1.121,0.278-2.217,0.361-3.446,0.405c-0.555-0.04-1.046-0.022-1.65-0.114
		c-0.594-0.064-1.168-0.157-1.715-0.291c-1.111-0.231-2.16-0.65-3.124-1.135c-0.983-0.455-1.821-1.108-2.58-1.736
		c-0.727-0.677-1.364-1.37-1.812-2.112c-0.485-0.71-0.789-1.449-1.003-2.104c-0.204-0.66-0.313-1.251-0.332-1.741
		c-0.063-0.483-0.004-0.867,0.011-1.123c0.02-0.255,0.029-0.391,0.029-0.391s0.027,0.134,0.079,0.385
		c0.05,0.25,0.115,0.613,0.271,1.054c0.122,0.446,0.359,0.959,0.647,1.518c0.311,0.55,0.699,1.143,1.215,1.709
		c0.488,0.587,1.144,1.106,1.825,1.636c0.731,0.475,1.513,0.953,2.394,1.307c0.424,0.208,0.898,0.327,1.353,0.495
		c0.478,0.104,0.942,0.27,1.436,0.348c0.491,0.11,0.977,0.175,1.457,0.218c0.461,0.072,1.058,0.046,1.58,0.077
		c0.929-0.024,2.005-0.068,2.957-0.294c0.493-0.078,0.958-0.239,1.437-0.346c0.453-0.168,0.928-0.287,1.352-0.496
		c0.882-0.354,1.664-0.831,2.395-1.307c0.682-0.531,1.338-1.049,1.826-1.637c0.515-0.567,0.904-1.16,1.215-1.71
		c0.287-0.559,0.525-1.074,0.645-1.512c0.156-0.433,0.223-0.813,0.271-1.061C123.621,149.736,123.648,149.602,123.648,149.602z"/>
</g>
<ellipse fill="#FFFFFF" stroke="#000000" stroke-width="2" stroke-miterlimit="10" cx="169.197" cy="128.668" rx="1.425" ry="3.661"/>
<ellipse fill="#F5BCD6" cx="83.454" cy="143.599" rx="11.554" ry="10.876"/>
<path fill="#F5BCD6" d="M151.729,143.599c0,6.005-5.171,10.876-11.555,10.876c-6.381,0-11.553-4.871-11.553-10.876
	c0-6.006,5.172-10.874,11.553-10.874C146.559,132.725,151.729,137.593,151.729,143.599z"/>
<g>
	
		<line fill="none" stroke="#000000" stroke-width="2" stroke-miterlimit="10" x1="110.439" y1="131.736" x2="110.439" y2="139.798"/>
	<path fill="none" stroke="#000000" stroke-width="2" stroke-miterlimit="10" d="M111.433,144.761c-2.254,0-4.08-1.359-4.08-3.034
		c0-1.677,1.826-3.038,4.08-3.038"/>
</g>
<g>
	
		<rect x="-644.002" y="203.187" fill="#FFFCF1" stroke="#000000" stroke-width="3" stroke-miterlimit="10" width="22.154" height="175.574"/>
</g>
<rect x="-643.99" y="325.646" fill="#FFFFFF" stroke="#000000" stroke-width="3" stroke-miterlimit="10" width="22.469" height="61.654"/>
<path fill="#C5A3CD" stroke="#000000" stroke-width="3" stroke-miterlimit="10" d="M-627.577,363.388h12.541
	c10.056,0,18.208,14.123,18.208,31.547h-48.957C-645.785,377.511-637.632,363.388-627.577,363.388z"/>
<g>
	
		<rect x="-676.988" y="204.034" fill="#FFFCF1" stroke="#000000" stroke-width="3" stroke-miterlimit="10" width="22.154" height="175.572"/>
</g>
<rect x="-677.315" y="326.491" fill="#FFFFFF" stroke="#000000" stroke-width="3" stroke-miterlimit="10" width="22.47" height="61.652"/>
<path fill="#C5A3CD" stroke="#000000" stroke-width="3" stroke-miterlimit="10" d="M-671.259,364.233H-683.8
	c-10.056,0-18.209,14.127-18.209,31.549h48.958C-653.052,378.36-661.205,364.233-671.259,364.233z"/>
<ellipse fill="#FFF8D4" stroke="#000000" stroke-miterlimit="10" cx="-1348.681" cy="-71.44" rx="43.25" ry="27.009"/>
<ellipse fill="#FDE0DA" stroke="#000000" stroke-miterlimit="10" cx="-1349.181" cy="-66.19" rx="45.75" ry="22.759"/>
<ellipse fill="#FFF8D4" stroke="#000000" stroke-miterlimit="10" cx="-1348.681" cy="-39.699" rx="79" ry="40.25"/>
<path fill="#C49A6C" stroke="#000000" stroke-miterlimit="10" d="M-1295.944,88.491c0,24.854-21.284,45-47.539,45h-7.396
	c-26.254,0-47.538-20.146-47.538-45v-103c0-24.853,21.284-48,47.538-48h7.396c26.255,0,47.539,20.479,47.539,48V88.491z"/>
<path fill="#FBE8F1" stroke="#000000" stroke-miterlimit="10" d="M-1326.194,61.175c-0.18,7.385-10.452,13.125-22.944,12.82
	c-12.492-0.304-22.473-6.537-22.292-13.922c0.18-7.384,10.403-11.125,22.895-10.82
	C-1336.043,49.557-1326.014,53.791-1326.194,61.175z"/>
<g>
	<g>
		<path fill="#FBD7E6" stroke="#000000" stroke-miterlimit="10" d="M-1305.111,66.4c-3.623-4.849-10.901-5.536-16.256-1.535
			c-5.354,4.001-6.758,11.175-3.135,16.024l31.256,41.832l19.392-14.49L-1305.111,66.4z"/>
		<path fill="#FBD7E6" stroke="#000000" stroke-miterlimit="10" d="M-1274.597,127.458"/>
		<line fill="#FBD7E6" stroke="#000000" stroke-miterlimit="10" x1="-1273.854" y1="108.232" x2="-1293.246" y2="122.722"/>
	</g>
	<g>
		<path fill="#FFFFFF" stroke="#000000" stroke-miterlimit="10" d="M-1259.857,71.699c1.964-6.645,0.277-13.358-3.767-16.629
			l3.799-9.051c0.255-0.577-0.195-1.442-1.006-1.931c-0.811-0.489-1.675-0.418-1.931,0.16l-3.865,9.199
			c-0.434-0.136-0.872-0.23-1.312-0.297l1.707-8.525c0.125-0.625-0.517-1.259-1.433-1.413c-0.917-0.155-1.762,0.227-1.887,0.853
			l-1.85,9.24c-4.425,1.046-8.521,5.213-10.253,11.078"/>
		<path fill="#FFFFFF" stroke="#000000" stroke-miterlimit="10" d="M-1259.987,59.819c0.346,0.986,0.162,2.109-0.411,2.51
			l-4.544,3.183c-0.573,0.401-1.317-0.072-1.664-1.058l0,0c-0.347-0.986-0.163-2.109,0.411-2.511l4.543-3.183
			C-1261.077,58.36-1260.333,58.834-1259.987,59.819L-1259.987,59.819z"/>
		<path fill="#FFFFFF" stroke="#000000" stroke-miterlimit="10" d="M-1260.873,56.556c0.346,0.985,0.037,2.197-0.691,2.707
			l-5.773,4.043c-0.728,0.51-1.598,0.124-1.944-0.862l0,0c-0.346-0.985-0.036-2.197,0.69-2.707l5.773-4.043
			C-1262.088,55.185-1261.219,55.571-1260.873,56.556L-1260.873,56.556z"/>
		<path fill="#FFFFFF" stroke="#000000" stroke-miterlimit="10" d="M-1270.615,62.778c-0.71,0.801-1.672,0.867-2.149,0.147
			l-3.786-5.712c-0.477-0.72-0.289-1.954,0.422-2.754l0,0c0.71-0.801,1.672-0.867,2.149-0.146l3.787,5.712
			C-1269.716,60.745-1269.905,61.977-1270.615,62.778L-1270.615,62.778z"/>
	</g>
	<g>
		<path fill="#FBD7E6" stroke="#000000" stroke-miterlimit="10" d="M-1298.645,109.87c-1.957,5.618,1.575,11.955,7.887,14.153
			c6.313,2.199,13.016-0.574,14.973-6.192l16.882-48.472l-22.86-7.961L-1298.645,109.87z"/>
	</g>
</g>
<g>
	<g>
		<path fill="#FBD7E6" stroke="#000000" stroke-miterlimit="10" d="M-1391.929,62.752c4.134-4.421,11.443-4.304,16.326,0.261
			s5.489,11.85,1.355,16.271l-35.664,38.144l-17.683-16.533L-1391.929,62.752z"/>
		<path fill="#FBD7E6" stroke="#000000" stroke-miterlimit="10" d="M-1428.968,120.086"/>
		<line fill="#FBD7E6" stroke="#000000" stroke-miterlimit="10" x1="-1427.594" y1="100.895" x2="-1409.911" y2="117.428"/>
	</g>
	<g>
		<path fill="#FFFFFF" stroke="#000000" stroke-miterlimit="10" d="M-1437.491,63.045c-1.222-6.82,1.192-13.307,5.572-16.115
			l-2.782-9.414c-0.19-0.602,0.353-1.412,1.212-1.809c0.86-0.397,1.711-0.232,1.901,0.371l2.831,9.568
			c0.446-0.088,0.892-0.133,1.336-0.151l-0.759-8.661c-0.055-0.636,0.652-1.194,1.58-1.247c0.928-0.053,1.726,0.419,1.782,1.055
			l0.823,9.388c4.284,1.526,7.896,6.118,8.974,12.137"/>
		<path fill="#FFFFFF" stroke="#000000" stroke-miterlimit="10" d="M-1436.056,51.252c-0.453,0.942-0.393,2.079,0.132,2.54
			l4.167,3.663c0.525,0.462,1.317,0.073,1.77-0.868l0,0c0.453-0.942,0.394-2.079-0.132-2.541l-4.166-3.663
			C-1434.812,49.921-1435.604,50.311-1436.056,51.252L-1436.056,51.252z"/>
		<path fill="#FFFFFF" stroke="#000000" stroke-miterlimit="10" d="M-1434.817,48.106c-0.452,0.941-0.278,2.18,0.389,2.767
			l5.294,4.653c0.667,0.587,1.574,0.299,2.027-0.643l0,0c0.452-0.941,0.277-2.18-0.389-2.766l-5.293-4.653
			C-1433.458,46.876-1434.365,47.165-1434.817,48.106L-1434.817,48.106z"/>
		<path fill="#FFFFFF" stroke="#000000" stroke-miterlimit="10" d="M-1425.818,55.361c0.618,0.874,1.567,1.045,2.12,0.382
			l4.391-5.261c0.553-0.663,0.501-1.91-0.117-2.784l0,0c-0.618-0.875-1.567-1.045-2.12-0.382l-4.392,5.261
			C-1426.487,53.241-1426.436,54.486-1425.818,55.361L-1425.818,55.361z"/>
	</g>
	<g>
		<path fill="#FBD7E6" stroke="#000000" stroke-miterlimit="10" d="M-1403.133,105.248c1.328,5.799-2.879,11.71-9.395,13.201
			c-6.516,1.492-12.875-2.001-14.202-7.8l-11.453-50.034l23.597-5.401L-1403.133,105.248z"/>
	</g>
</g>
<rect x="-1359.733" y="32.499" fill="#FFF8EF" stroke="#000000" stroke-miterlimit="10" width="18.233" height="34.5"/>
<path fill="#FFFFFF" stroke="#000000" stroke-miterlimit="10" d="M-1301.34-11.302c-3.504,0-6.345,4.555-6.345,10.174
	c0,0.386,0.017,0.765,0.042,1.14c-10.183-4.544-19.444-13.354-28.163-20.861c-7.876-6.778-16.938-7.446-19.277-16.255
	c-1.464,2.619-1.176,2.166-3.149,4.588c-7.753,9.51-33.231,16.89-36.795,18.063c-0.077,1.686,3.641,3.668,3.641,22.165
	c0,28.869,16.479,37.272,43.303,37.272c21.266,0,38.716-14.34,45.184-36.261c0.5,0.203,1.021,0.322,1.56,0.322
	c3.503,0,6.344-4.555,6.344-10.174S-1297.837-11.302-1301.34-11.302z"/>
<path d="M-1343.938-1.254c0-1.765,0.963-3.196,2.15-3.196c0.683,0,1.284,0.482,1.678,1.218c0.047-0.394,0.072-0.8,0.072-1.218
	c0-3.528-1.746-6.39-3.9-6.39c-2.153,0-3.899,2.862-3.899,6.39c0,3.528,1.746,6.391,3.899,6.391c0.428,0,0.837-0.116,1.222-0.324
	C-1343.436,1.102-1343.938,0.014-1343.938-1.254z"/>
<path d="M-1357.498-1.254c0-1.765,0.963-3.196,2.15-3.196c0.683,0,1.284,0.482,1.678,1.218c0.047-0.394,0.072-0.8,0.072-1.218
	c0-3.528-1.746-6.39-3.9-6.39c-2.153,0-3.899,2.862-3.899,6.39c0,3.528,1.746,6.391,3.899,6.391c0.428,0,0.837-0.116,1.222-0.324
	C-1356.996,1.102-1357.498,0.014-1357.498-1.254z"/>
<g>
	<path d="M-1340.937,16.015c0,0,0.011,0.119,0.032,0.342c0.017,0.225,0.077,0.544,0.028,0.977c-0.013,0.438-0.099,0.956-0.272,1.539
		c-0.181,0.578-0.44,1.231-0.862,1.86c-0.389,0.657-0.942,1.273-1.579,1.873c-0.666,0.556-1.398,1.14-2.263,1.542
		c-0.848,0.43-1.77,0.803-2.748,1.01c-0.971,0.246-1.986,0.32-2.998,0.362c-0.567-0.037-0.931-0.021-1.486-0.102
		c-0.524-0.058-1.032-0.14-1.512-0.259c-0.979-0.204-1.9-0.58-2.748-1.009c-0.865-0.403-1.599-0.985-2.263-1.542
		c-0.637-0.6-1.192-1.215-1.58-1.873c-0.422-0.629-0.682-1.283-0.862-1.861c-0.172-0.583-0.259-1.104-0.27-1.533
		c-0.048-0.425,0.011-0.761,0.028-0.984c0.021-0.223,0.033-0.341,0.033-0.341s0.026,0.117,0.076,0.336
		c0.048,0.217,0.112,0.533,0.255,0.915c0.113,0.387,0.328,0.83,0.584,1.311c0.277,0.474,0.623,0.981,1.074,1.467
		c0.43,0.503,1.002,0.944,1.594,1.398c0.636,0.405,1.314,0.811,2.077,1.113c0.367,0.179,0.777,0.278,1.17,0.421
		c0.414,0.087,0.815,0.229,1.241,0.295c0.425,0.095,0.843,0.149,1.255,0.186c0.375,0.061,0.96,0.039,1.334,0.063
		c0.872-0.019,1.751-0.055,2.589-0.249c0.426-0.067,0.828-0.205,1.242-0.294c0.393-0.143,0.803-0.243,1.17-0.421
		c0.763-0.303,1.442-0.707,2.078-1.113c0.592-0.454,1.166-0.895,1.595-1.398c0.451-0.486,0.797-0.994,1.074-1.468
		c0.256-0.481,0.471-0.926,0.583-1.305c0.142-0.374,0.208-0.706,0.255-0.922C-1340.963,16.131-1340.937,16.015-1340.937,16.015z"/>
</g>
<ellipse fill="#FFFFFF" stroke="#000000" stroke-miterlimit="10" cx="-1301.188" cy="-2.254" rx="1.243" ry="3.195"/>
<ellipse fill="#FAD4E5" cx="-1376.014" cy="10.775" rx="10.083" ry="9.491"/>
<ellipse fill="#FAD4E5" cx="-1326.514" cy="10.775" rx="10.083" ry="9.491"/>
<g>
	<line fill="none" stroke="#000000" stroke-miterlimit="10" x1="-1350.616" y1="-2.254" x2="-1350.616" y2="4.783"/>
	<path fill="none" stroke="#000000" stroke-miterlimit="10" d="M-1350.327,9.572c-1.966,0-3.561-1.186-3.561-2.649
		c0-1.463,1.595-2.65,3.561-2.65"/>
</g>
<g>
	<rect x="-1343.514" y="148.061" fill="#FFFFFF" stroke="#000000" stroke-miterlimit="10" width="19.334" height="138.115"/>
</g>
<g>
	<g>
		<rect x="-1343.504" y="244.393" fill="#FFEBC9" stroke="#000000" stroke-miterlimit="10" width="19.609" height="48.5"/>
		<path fill="#B9DDB0" stroke="#000000" stroke-miterlimit="10" d="M-1329.181,274.081h10.945c8.776,0,15.891,11.112,15.891,24.818
			h-42.724C-1345.069,285.193-1337.955,274.081-1329.181,274.081z"/>
	</g>
</g>
<g>
	<rect x="-1372.3" y="148.726" fill="#FFFFFF" stroke="#000000" stroke-miterlimit="10" width="19.334" height="138.115"/>
</g>
<g>
	<g>
		<rect x="-1372.585" y="245.058" fill="#FFEBC9" stroke="#000000" stroke-miterlimit="10" width="19.609" height="48.5"/>
		<path fill="#B9DDB0" stroke="#000000" stroke-miterlimit="10" d="M-1367.3,274.747h-10.945c-8.776,0-15.891,11.112-15.891,24.818
			h42.724C-1351.411,285.858-1358.526,274.747-1367.3,274.747z"/>
	</g>
</g>
<path fill="#F9C3D4" stroke="#000000" stroke-miterlimit="10" d="M-1290.692,210.093c-0.109-0.639-0.244-1.253-0.402-1.842
	l-18.828-107.177c-2.012-14.283-11.646-19.751-22.855-21.234v7.77h-34.039v-7.77c-11.209,1.482-20.49,7.277-22.855,21.234
	l-17.414,106.654c-0.236,0.76-0.426,1.556-0.572,2.366c-0.816,4.553,2.875,8.343,6.418,8.343c3.547,0,6.418-3.735,6.418-8.343
	c0-0.576-0.043-1.139-0.129-1.682h0.621c-0.148,0.549-0.273,1.112-0.375,1.682c-0.818,4.553,2.871,8.343,6.416,8.343
	c3.547,0,6.418-3.735,6.418-8.343c0-0.576-0.043-1.139-0.129-1.682h0.621c-0.148,0.549-0.275,1.112-0.375,1.682
	c-0.818,4.553,2.871,8.343,6.416,8.343c3.547,0,6.418-3.735,6.418-8.343c0-0.576-0.045-1.139-0.129-1.682h0.621
	c-0.148,0.549-0.275,1.112-0.377,1.682c-0.816,4.553,2.873,8.343,6.418,8.343s6.418-3.735,6.418-8.343
	c0-0.576-0.045-1.139-0.131-1.682h0.623c-0.148,0.549-0.273,1.112-0.377,1.682c-0.816,4.553,2.873,8.343,6.418,8.343
	s6.418-3.735,6.418-8.343c0-0.576-0.045-1.139-0.131-1.682h0.623c-0.148,0.549-0.273,1.112-0.377,1.682
	c-0.816,4.553,2.873,8.343,6.418,8.343s6.418-3.735,6.418-8.343c0-0.576-0.045-1.139-0.131-1.682h0.623
	c-0.148,0.549-0.273,1.112-0.377,1.682c-0.816,4.553,2.873,8.343,6.418,8.343s6.418-3.735,6.418-8.343
	c0-0.576-0.045-1.139-0.131-1.682h0.623c-0.148,0.549-0.273,1.112-0.377,1.682c-0.816,4.553,2.873,8.343,6.418,8.343
	s6.418-3.735,6.418-8.343c0-0.576-0.045-1.139-0.131-1.682h0.643c-0.152,0.549-0.283,1.112-0.391,1.682
	c-0.852,4.553,2.986,8.343,6.674,8.343C-1293.68,218.436-1289.911,214.654-1290.692,210.093z"/>
<path fill="#F9D8E7" stroke="#000000" stroke-miterlimit="10" d="M-1290.348,189.043c-0.109-0.639-0.244-1.253-0.402-1.842
	l-18.828-107.177c-2.012-14.283-11.646-19.751-22.855-21.234v7.77h-34.039v-7.77c-11.209,1.482-20.49,7.277-22.855,21.234
	l-17.414,106.654c-0.236,0.76-0.426,1.556-0.572,2.366c-0.816,4.553,2.875,8.343,6.418,8.343c3.547,0,6.418-3.735,6.418-8.343
	c0-0.576-0.043-1.139-0.129-1.682h0.621c-0.148,0.549-0.273,1.112-0.375,1.682c-0.818,4.553,2.871,8.343,6.416,8.343
	c3.547,0,6.418-3.735,6.418-8.343c0-0.576-0.043-1.139-0.129-1.682h0.621c-0.148,0.549-0.275,1.112-0.375,1.682
	c-0.818,4.553,2.871,8.343,6.416,8.343c3.547,0,6.418-3.735,6.418-8.343c0-0.576-0.045-1.139-0.129-1.682h0.621
	c-0.148,0.549-0.275,1.112-0.377,1.682c-0.816,4.553,2.873,8.343,6.418,8.343s6.418-3.735,6.418-8.343
	c0-0.576-0.045-1.139-0.131-1.682h0.623c-0.148,0.549-0.273,1.112-0.377,1.682c-0.816,4.553,2.873,8.343,6.418,8.343
	s6.418-3.735,6.418-8.343c0-0.576-0.045-1.139-0.131-1.682h0.623c-0.148,0.549-0.273,1.112-0.377,1.682
	c-0.816,4.553,2.873,8.343,6.418,8.343s6.418-3.735,6.418-8.343c0-0.576-0.045-1.139-0.131-1.682h0.623
	c-0.148,0.549-0.273,1.112-0.377,1.682c-0.816,4.553,2.873,8.343,6.418,8.343s6.418-3.735,6.418-8.343
	c0-0.576-0.045-1.139-0.131-1.682h0.623c-0.148,0.549-0.273,1.112-0.377,1.682c-0.816,4.553,2.873,8.343,6.418,8.343
	s6.418-3.735,6.418-8.343c0-0.576-0.045-1.139-0.131-1.682h0.643c-0.152,0.549-0.283,1.112-0.391,1.682
	c-0.852,4.553,2.986,8.343,6.674,8.343C-1293.336,197.386-1289.566,193.604-1290.348,189.043z"/>
<path fill="#F27BA5" stroke="#000000" stroke-miterlimit="10" d="M-1290.691,168.559c-0.109-0.579-0.244-1.136-0.402-1.67
	l-18.828-97.147c-2.012-12.946-11.646-17.903-22.855-19.247v9.762h-34.039v-9.762c-11.209,1.344-20.49,6.596-22.855,19.247
	l-17.414,96.672c-0.236,0.689-0.426,1.411-0.572,2.145c-0.816,4.126,2.875,7.562,6.418,7.562c3.547,0,6.418-3.385,6.418-7.562
	c0-0.522-0.043-1.033-0.129-1.525h0.621c-0.148,0.498-0.273,1.008-0.375,1.525c-0.818,4.126,2.871,7.562,6.416,7.562
	c3.547,0,6.418-3.385,6.418-7.562c0-0.522-0.043-1.033-0.129-1.525h0.621c-0.148,0.498-0.275,1.008-0.375,1.525
	c-0.818,4.126,2.871,7.562,6.416,7.562c3.547,0,6.418-3.385,6.418-7.562c0-0.522-0.045-1.033-0.129-1.525h0.621
	c-0.148,0.498-0.275,1.008-0.377,1.525c-0.816,4.126,2.873,7.562,6.418,7.562s6.418-3.385,6.418-7.562
	c0-0.522-0.045-1.033-0.131-1.525h0.623c-0.148,0.498-0.273,1.008-0.377,1.525c-0.816,4.126,2.873,7.562,6.418,7.562
	s6.418-3.385,6.418-7.562c0-0.522-0.045-1.033-0.131-1.525h0.623c-0.148,0.498-0.273,1.008-0.377,1.525
	c-0.816,4.126,2.873,7.562,6.418,7.562s6.418-3.385,6.418-7.562c0-0.522-0.045-1.033-0.131-1.525h0.623
	c-0.148,0.498-0.273,1.008-0.377,1.525c-0.816,4.126,2.873,7.562,6.418,7.562s6.418-3.385,6.418-7.562
	c0-0.522-0.045-1.033-0.131-1.525h0.623c-0.148,0.498-0.273,1.008-0.377,1.525c-0.816,4.126,2.873,7.562,6.418,7.562
	s6.418-3.385,6.418-7.562c0-0.522-0.045-1.033-0.131-1.525h0.643c-0.152,0.498-0.283,1.008-0.391,1.525
	c-0.852,4.126,2.986,7.562,6.674,7.562C-1293.68,176.121-1289.91,172.693-1290.691,168.559z"/>
<path fill="#FEEEEB" stroke="#000000" stroke-miterlimit="10" d="M-1333.376,100.576c6.729,0,12.184-8.955,12.184-20h-24.366
	C-1345.559,91.622-1340.104,100.576-1333.376,100.576z"/>
<path fill="#FCF38F" stroke="#000000" stroke-width="3" stroke-miterlimit="10" d="M130.746,190.252
	c0,7.879-7.832,14.265-17.495,14.265c-9.664,0-17.496-6.385-17.496-14.265H68.559v117.915h87.999V190.252H130.746z"/>
<g>
	
		<ellipse fill="#EF456A" stroke="#000000" stroke-width="2" stroke-miterlimit="10" cx="155.566" cy="120.481" rx="7.346" ry="6.471"/>
	
		<ellipse fill="#EF456A" stroke="#000000" stroke-width="2" stroke-miterlimit="10" cx="155.566" cy="128.127" rx="7.346" ry="6.47"/>
	
		<ellipse fill="#EF456A" stroke="#000000" stroke-width="2" stroke-miterlimit="10" cx="162.911" cy="131.333" rx="7.345" ry="6.471"/>
	
		<ellipse transform="matrix(0.9927 0.1207 -0.1207 0.9927 16.3269 -19.1632)" fill="#EF456A" stroke="#000000" stroke-width="2" stroke-miterlimit="10" cx="166.302" cy="125.151" rx="7.344" ry="6.47"/>
	
		<ellipse fill="#EF456A" stroke="#000000" stroke-width="2" stroke-miterlimit="10" cx="164.218" cy="118.681" rx="7.344" ry="6.471"/>
	
		<ellipse fill="#FFF6E5" stroke="#000000" stroke-width="2" stroke-miterlimit="10" cx="159.547" cy="125.151" rx="4.691" ry="4.462"/>
</g>
<g>
	<polygon fill="#F17099" stroke="#000000" stroke-width="3" stroke-miterlimit="10" points="-696.702,209.758 -694.119,198.762 
		-719.935,291.043 -708.166,291.043 -687.667,209.758 	"/>
	<polygon fill="#F17099" stroke="#000000" stroke-width="3" stroke-miterlimit="10" points="-687.667,209.758 -708.166,291.043 
		-695.582,291.043 -676.052,209.758 	"/>
	<polygon fill="#F17099" stroke="#000000" stroke-width="3" stroke-miterlimit="10" points="-624.743,209.758 -603.363,291.043 
		-589.292,291.043 -612.733,209.758 	"/>
	<polygon fill="#F17099" stroke="#000000" stroke-width="3" stroke-miterlimit="10" points="-589.292,291.043 -580.537,291.043 
		-603.275,209.758 -612.733,209.758 	"/>
	<polygon fill="#F17099" stroke="#000000" stroke-width="3" stroke-miterlimit="10" points="-624.743,209.758 -634.102,209.758 
		-617.46,291.043 -603.363,291.043 	"/>
	<polygon fill="#F17099" stroke="#000000" stroke-width="3" stroke-miterlimit="10" points="-666.399,209.758 -675.715,291.043 
		-657.996,291.043 -654.18,210.078 -657.996,291.043 -635.599,291.043 -644.428,209.831 -635.599,291.043 -617.46,291.043 
		-634.102,209.758 	"/>
	<polygon fill="#F17099" stroke="#000000" stroke-width="3" stroke-miterlimit="10" points="-676.052,209.758 -695.582,291.043 
		-675.715,291.043 -666.399,209.758 	"/>
	<polygon fill="#F17099" stroke="#000000" stroke-width="3" stroke-miterlimit="10" points="-603.124,209.758 -605.705,198.762 
		-606.353,198.762 -603.275,209.758 	"/>
	<polygon fill="#F17099" stroke="#000000" stroke-width="3" stroke-miterlimit="10" points="-687.667,209.758 -676.052,209.758 
		-666.399,209.758 -666.37,209.509 -666.399,209.758 -634.102,209.758 -624.743,209.758 -612.733,209.758 -612.805,209.509 
		-612.733,209.758 -603.275,209.758 -606.353,198.762 -694.119,198.762 -696.702,209.758 	"/>
</g>
<ellipse fill="#FFF8D4" stroke="#000000" stroke-miterlimit="10" cx="-1118.961" cy="363.321" rx="21.155" ry="13.211"/>
<ellipse fill="#FDE0DA" stroke="#000000" stroke-miterlimit="10" cx="-1119.205" cy="365.889" rx="22.378" ry="11.133"/>
<ellipse fill="#FFF8D4" stroke="#000000" stroke-miterlimit="10" cx="-1118.961" cy="378.847" rx="38.641" ry="19.688"/>
<path fill="#C49A6C" stroke="#000000" stroke-miterlimit="10" d="M-1093.166,441.548c0,12.157-10.411,22.012-23.253,22.012h-3.617
	c-12.842,0-23.252-9.854-23.252-22.012v-50.38c0-12.156,10.411-23.479,23.252-23.479h3.617c12.842,0,23.253,10.018,23.253,23.479
	V441.548z"/>
<path fill="#FBE8F1" stroke="#000000" stroke-miterlimit="10" d="M-1107.962,428.188c-0.087,3.611-5.112,6.419-11.222,6.271
	c-6.11-0.149-10.992-3.197-10.904-6.81c0.088-3.612,5.089-5.442,11.199-5.293C-1112.779,422.505-1107.874,424.575-1107.962,428.188z
	"/>
<g>
	<path fill="#F9D8E7" stroke="#000000" stroke-miterlimit="10" d="M-1095.4,426.71c-1.285-2.668-4.715-3.679-7.661-2.258
		c-2.946,1.42-4.291,4.732-3.005,7.398l11.091,23.008l10.666-5.141L-1095.4,426.71z"/>
	<path fill="#F9D8E7" stroke="#000000" stroke-miterlimit="10" d="M-1082.724,456.608"/>
</g>
<g>
	<path fill="#FFFCF1" stroke="#000000" stroke-miterlimit="10" d="M-1076.514,431.263c0.96-3.25,0.135-6.533-1.843-8.135
		l1.858-4.426c0.125-0.283-0.096-0.707-0.492-0.945s-0.819-0.205-0.944,0.078l-1.891,4.5c-0.212-0.066-0.426-0.113-0.641-0.146
		l0.834-4.17c0.061-0.305-0.253-0.615-0.701-0.689c-0.449-0.076-0.862,0.111-0.923,0.416l-0.905,4.52
		c-2.165,0.512-4.167,2.551-5.015,5.418"/>
	<path fill="#FFFCF1" stroke="#000000" stroke-miterlimit="10" d="M-1076.578,425.452c0.169,0.482,0.08,1.031-0.201,1.229
		l-2.223,1.557c-0.28,0.195-0.644-0.035-0.813-0.518l0,0c-0.169-0.482-0.08-1.033,0.201-1.229l2.223-1.557
		C-1077.111,424.739-1076.748,424.97-1076.578,425.452L-1076.578,425.452z"/>
	<path fill="#FFFCF1" stroke="#000000" stroke-miterlimit="10" d="M-1077.011,423.856c0.169,0.482,0.018,1.074-0.338,1.324
		l-2.824,1.977c-0.356,0.25-0.781,0.061-0.951-0.422l0,0c-0.169-0.48-0.018-1.074,0.338-1.322l2.823-1.979
		C-1077.606,423.185-1077.18,423.374-1077.011,423.856L-1077.011,423.856z"/>
	<path fill="#FFFCF1" stroke="#000000" stroke-miterlimit="10" d="M-1081.776,426.899c-0.347,0.391-0.818,0.424-1.051,0.072
		l-1.852-2.793c-0.233-0.354-0.141-0.957,0.207-1.348l0,0c0.348-0.393,0.818-0.426,1.051-0.072l1.853,2.795
		C-1081.337,425.905-1081.429,426.507-1081.776,426.899L-1081.776,426.899z"/>
</g>
<g>
	<path fill="#F9D8E7" stroke="#000000" stroke-miterlimit="10" d="M-1095.542,450.759c-0.957,2.748,0.771,5.848,3.858,6.924
		c3.088,1.076,6.367-0.281,7.324-3.029l8.257-23.709l-11.182-3.895L-1095.542,450.759z"/>
</g>
<g>
	<path fill="#FBD7E6" stroke="#000000" stroke-miterlimit="10" d="M-1140.115,424.958c2.022-2.162,5.598-2.104,7.986,0.128
		c2.389,2.233,2.685,5.797,0.663,7.959l-17.444,18.657l-8.649-8.087L-1140.115,424.958z"/>
	<path fill="#FBD7E6" stroke="#000000" stroke-miterlimit="10" d="M-1158.232,453.003"/>
	<line fill="#FBD7E6" stroke="#000000" stroke-miterlimit="10" x1="-1157.56" y1="443.615" x2="-1148.91" y2="451.702"/>
</g>
<g>
	<path fill="#FFFCF1" stroke="#000000" stroke-miterlimit="10" d="M-1162.4,425.102c-0.598-3.336,0.583-6.509,2.726-7.882
		l-1.361-4.604c-0.093-0.295,0.172-0.69,0.593-0.886c0.42-0.193,0.837-0.112,0.93,0.182l1.385,4.681
		c0.218-0.043,0.436-0.065,0.653-0.074l-0.372-4.236c-0.027-0.311,0.319-0.584,0.773-0.609c0.454-0.026,0.844,0.204,0.872,0.516
		l0.402,4.592c2.095,0.746,3.862,2.992,4.39,5.938"/>
	<path fill="#FFFCF1" stroke="#000000" stroke-miterlimit="10" d="M-1161.699,419.333c-0.221,0.461-0.192,1.017,0.065,1.243
		l2.038,1.791c0.257,0.226,0.645,0.036,0.866-0.425l0,0c0.221-0.46,0.192-1.017-0.065-1.243l-2.038-1.791
		C-1161.09,418.683-1161.477,418.873-1161.699,419.333L-1161.699,419.333z"/>
	<path fill="#FFFCF1" stroke="#000000" stroke-miterlimit="10" d="M-1161.093,417.795c-0.221,0.461-0.136,1.065,0.19,1.353
		l2.589,2.275c0.326,0.288,0.77,0.147,0.992-0.313l0,0c0.221-0.461,0.136-1.067-0.191-1.354l-2.589-2.276
		C-1160.428,417.193-1160.871,417.334-1161.093,417.795L-1161.093,417.795z"/>
	<path fill="#FFFCF1" stroke="#000000" stroke-miterlimit="10" d="M-1156.691,421.343c0.303,0.429,0.767,0.512,1.037,0.188
		l2.148-2.573c0.271-0.324,0.245-0.935-0.057-1.361l0,0c-0.302-0.429-0.767-0.512-1.037-0.188l-2.148,2.573
		C-1157.018,420.307-1156.993,420.916-1156.691,421.343L-1156.691,421.343z"/>
</g>
<g>
	<path fill="#FBD7E6" stroke="#000000" stroke-miterlimit="10" d="M-1145.595,445.744c0.649,2.837-1.408,5.728-4.595,6.457
		s-6.297-0.978-6.947-3.815l-5.602-24.473l11.542-2.642L-1145.595,445.744z"/>
</g>
<rect x="-1124.367" y="414.161" fill="#FFFCF1" stroke="#000000" stroke-miterlimit="10" width="8.918" height="16.875"/>
<path fill="#FFFCF1" stroke="#000000" stroke-miterlimit="10" d="M-1095.805,392.736c-1.714,0-3.104,2.229-3.104,4.978
	c0,0.188,0.008,0.373,0.021,0.557c-4.981-2.223-9.511-6.531-13.775-10.204c-3.853-3.315-8.285-3.642-9.429-7.95
	c-0.716,1.281-0.576,1.06-1.541,2.244c-3.792,4.651-16.254,8.261-17.998,8.836c-0.038,0.824,1.781,1.793,1.781,10.842
	c0,14.12,8.06,18.23,21.181,18.23c10.402,0,18.937-7.015,22.101-17.736c0.245,0.099,0.5,0.157,0.763,0.157
	c1.713,0,3.103-2.228,3.103-4.976C-1092.702,394.965-1094.091,392.736-1095.805,392.736z"/>
<path stroke="#000000" stroke-miterlimit="10" d="M-1115.641,397.651c0-0.863,0.471-1.563,1.052-1.563
	c0.333,0,0.627,0.235,0.82,0.595c0.023-0.192,0.036-0.392,0.036-0.595c0-1.726-0.854-3.126-1.908-3.126
	c-1.053,0-1.907,1.4-1.907,3.126s0.854,3.125,1.907,3.125c0.209,0,0.41-0.057,0.598-0.158
	C-1115.396,398.804-1115.641,398.271-1115.641,397.651z"/>
<path stroke="#000000" stroke-miterlimit="10" d="M-1124.273,397.651c0-0.863,0.471-1.563,1.052-1.563
	c0.333,0,0.628,0.235,0.82,0.595c0.023-0.192,0.036-0.392,0.036-0.595c0-1.726-0.854-3.126-1.908-3.126
	c-1.053,0-1.907,1.4-1.907,3.126s0.854,3.125,1.907,3.125c0.209,0,0.41-0.057,0.598-0.158
	C-1124.028,398.804-1124.273,398.271-1124.273,397.651z"/>
<g>
	<path d="M-1115.173,406.098c0,0,0.054,0.239,0.117,0.653c0.054,0.201,0.006,0.469-0.052,0.796
		c-0.037,0.351-0.188,0.668-0.367,1.027c-0.158,0.38-0.465,0.679-0.755,1.05c-0.353,0.271-0.703,0.652-1.159,0.852
		c-0.22,0.118-0.449,0.234-0.684,0.343c-0.243,0.079-0.492,0.155-0.746,0.225c-0.252,0.082-0.51,0.132-0.775,0.145l-0.396,0.036
		l-0.198,0.018l-0.1,0.008l-0.049,0.005l-0.025,0.002l-0.013,0.001h-0.006l-0.087-0.003l-0.688-0.063l-0.342-0.035l-0.406-0.102
		c-0.272-0.069-0.54-0.148-0.797-0.232c-0.237-0.11-0.465-0.225-0.685-0.344c-0.456-0.199-0.807-0.58-1.16-0.852
		c-0.29-0.371-0.598-0.669-0.755-1.05c-0.18-0.36-0.332-0.682-0.36-1.011c-0.054-0.314-0.106-0.573-0.056-0.802
		c0.059-0.444,0.116-0.666,0.116-0.666s0.115,0.235,0.275,0.592c0.051,0.185,0.233,0.368,0.371,0.58
		c0.123,0.221,0.365,0.404,0.573,0.617c0.194,0.222,0.53,0.355,0.777,0.563c0.331,0.122,0.603,0.341,0.973,0.422
		c0.172,0.058,0.347,0.116,0.524,0.176c0.174,0.022,0.343,0.052,0.512,0.091c0.087,0.018,0.164,0.042,0.258,0.057l0.343,0.02
		l0.689,0.048c-0.16-0.007-0.042-0.002-0.076-0.004h0.004l0.009-0.001l0.018-0.002l0.037-0.002l0.073-0.006l0.146-0.011l0.292-0.02
		c0.196-0.005,0.39-0.014,0.574-0.067c0.187-0.04,0.375-0.071,0.564-0.1c0.177-0.06,0.353-0.118,0.525-0.176
		c0.371-0.082,0.643-0.3,0.974-0.422c0.247-0.208,0.583-0.341,0.777-0.564c0.208-0.213,0.45-0.4,0.565-0.601
		c0.134-0.199,0.32-0.373,0.375-0.585C-1115.285,406.315-1115.173,406.098-1115.173,406.098z"/>
</g>
<ellipse fill="#FFFFFF" stroke="#000000" stroke-miterlimit="10" cx="-1095.731" cy="397.162" rx="0.608" ry="1.563"/>
<ellipse fill="#FAD4E5" cx="-1132.33" cy="403.535" rx="4.932" ry="4.643"/>
<ellipse fill="#FAD4E5" cx="-1108.118" cy="403.535" rx="4.932" ry="4.643"/>
<g>
	<line fill="none" stroke="#000000" stroke-miterlimit="10" x1="-1120.812" y1="398.472" x2="-1120.812" y2="401.913"/>
	<path fill="none" stroke="#000000" stroke-miterlimit="10" d="M-1120.388,404.031c-0.962,0-1.742-0.58-1.742-1.295
		c0-0.716,0.78-1.297,1.742-1.297"/>
</g>
<g>
	<rect x="-1116.434" y="470.686" fill="#FFFCF1" stroke="#000000" stroke-miterlimit="10" width="9.457" height="74.944"/>
</g>
<rect x="-1116.428" y="522.957" fill="#FFEBC9" stroke="#000000" stroke-miterlimit="10" width="9.591" height="26.317"/>
<path fill="#85C6ED" stroke="#000000" stroke-miterlimit="10" d="M-1109.422,539.067h5.353c4.292,0,7.772,6.029,7.772,13.467
	h-20.897C-1117.194,545.097-1113.714,539.067-1109.422,539.067z"/>
<g>
	<rect x="-1130.514" y="471.048" fill="#FFFCF1" stroke="#000000" stroke-miterlimit="10" width="9.457" height="74.942"/>
</g>
<rect x="-1130.653" y="523.318" fill="#FFEBC9" stroke="#000000" stroke-miterlimit="10" width="9.591" height="26.316"/>
<path fill="#85C6ED" stroke="#000000" stroke-miterlimit="10" d="M-1128.068,539.429h-5.354c-4.292,0-7.772,6.029-7.772,13.467
	h20.897C-1120.296,545.458-1123.776,539.429-1128.068,539.429z"/>
<path fill="#F9D8E7" stroke="#000000" stroke-miterlimit="10" d="M-1112.144,423.449c0,3.363-3.343,6.089-7.468,6.089
	c-4.125,0-7.468-2.726-7.468-6.089h-11.609v50.332h37.563v-50.332H-1112.144z"/>
<g>
	<ellipse fill="#EF456A" stroke="#000000" stroke-miterlimit="10" cx="-1113.503" cy="435.958" rx="2.562" ry="2.258"/>
	<ellipse fill="#EF456A" stroke="#000000" stroke-miterlimit="10" cx="-1113.503" cy="438.626" rx="2.562" ry="2.256"/>
	<ellipse fill="#EF456A" stroke="#000000" stroke-miterlimit="10" cx="-1110.941" cy="439.744" rx="2.562" ry="2.257"/>
	
		<ellipse transform="matrix(0.9927 0.1208 -0.1208 0.9927 44.7434 137.3008)" fill="#EF456A" stroke="#000000" stroke-miterlimit="10" cx="-1109.759" cy="437.588" rx="2.562" ry="2.257"/>
	<ellipse fill="#EF456A" stroke="#000000" stroke-miterlimit="10" cx="-1110.485" cy="435.331" rx="2.562" ry="2.257"/>
	<ellipse fill="#FFF6E5" stroke="#000000" stroke-miterlimit="10" cx="-1112.115" cy="437.587" rx="1.636" ry="1.557"/>
</g>
<g>
	<polygon fill="#F27BA5" stroke="#000000" stroke-miterlimit="10" points="-1139.782,467.515 -1138.68,462.821 -1149.699,502.212 
		-1144.675,502.212 -1135.926,467.515 	"/>
	<polygon fill="#F27BA5" stroke="#000000" stroke-miterlimit="10" points="-1135.926,467.515 -1144.675,502.212 -1139.304,502.212 
		-1130.968,467.515 	"/>
	<polygon fill="#F27BA5" stroke="#000000" stroke-miterlimit="10" points="-1109.066,467.515 -1099.94,502.212 -1093.934,502.212 
		-1103.94,467.515 	"/>
	<polygon fill="#F27BA5" stroke="#000000" stroke-miterlimit="10" points="-1093.934,502.212 -1090.197,502.212 -1099.903,467.515 
		-1103.94,467.515 	"/>
	<polygon fill="#F27BA5" stroke="#000000" stroke-miterlimit="10" points="-1109.066,467.515 -1113.061,467.515 -1105.958,502.212 
		-1099.94,502.212 	"/>
	<polygon fill="#F27BA5" stroke="#000000" stroke-miterlimit="10" points="-1126.847,467.515 -1130.824,502.212 -1123.26,502.212 
		-1121.631,467.651 -1123.26,502.212 -1113.7,502.212 -1117.469,467.546 -1113.7,502.212 -1105.958,502.212 -1113.061,467.515 	"/>
	<polygon fill="#F27BA5" stroke="#000000" stroke-miterlimit="10" points="-1130.968,467.515 -1139.304,502.212 -1130.824,502.212 
		-1126.847,467.515 	"/>
	<polygon fill="none" stroke="#000000" stroke-miterlimit="10" points="-1099.838,467.515 -1100.94,462.821 -1101.216,462.821 
		-1099.903,467.515 	"/>
	<polygon fill="#F27BA5" stroke="#000000" stroke-miterlimit="10" points="-1135.926,467.515 -1130.968,467.515 -1126.847,467.515 
		-1126.835,467.408 -1126.847,467.515 -1113.061,467.515 -1109.066,467.515 -1103.94,467.515 -1103.971,467.408 -1103.94,467.515 
		-1099.903,467.515 -1101.216,462.821 -1138.68,462.821 -1139.782,467.515 	"/>
</g>
<path fill="#FFFFFF" stroke="#000000" stroke-width="3" stroke-miterlimit="10" d="M-632.925,325.646v9.327V325.646h-5.969v9.327
	v-9.327h-5.095v10.2h22.142v-10.2H-632.925z M-627.395,335.409v-9.327V335.409z"/>
<path fill="#FFFFFF" stroke="#000000" stroke-width="3" stroke-miterlimit="10" d="M-666.087,326.491v9.327V326.491h-5.969v9.327
	v-9.327h-5.095v10.2h22.142v-10.2H-666.087z M-660.556,336.255v-9.327V336.255z"/>
</svg>
