<svg id="_x33_0" enable-background="new 0 0 64 64" height="512" viewBox="0 0 64 64" width="512" xmlns="http://www.w3.org/2000/svg"><g><g><g><path d="m22.99 54h18.02c-.56 1.67-1.69 3.16-3.14 4.13-.27-.08-.57-.13-.87-.13h-10c-.3 0-.6.05-.87.13-1.45-.97-2.58-2.46-3.14-4.13z" fill="#cf9e76"/></g><g><path d="m38.3 49c.93 0 1.84-.43 2.43-1.24.24-.32.41-.68.51-1.06h.01c.1.38.27.74.51 1.06.02.03.04.06.06.08l-.46 4.57c-.06.54-.18 1.07-.35 1.59h-18.02c-.17-.52-.29-1.05-.35-1.59l-.44-4.41-.2-2h.39c1.01 0 1.94-.5 2.5-1.34l.11-.16v.8c0 1.06.55 2.03 1.46 2.57l3.54 2.13v-4.39c0-1.01-.5-1.94-1.34-2.5l-.16-.11h.8c1.06 0 2.03-.55 2.57-1.46l1.63-2.71.33.2c-.08.14-.14.29-.19.45-.1.31-.15.63-.15.94 0 1.26.81 2.43 2.07 2.84.38.13.78.18 1.17.16l.01.01c-.68.57-.77.69-.86.81-.39.53-.58 1.15-.58 1.76 0 .93.43 1.84 1.24 2.43.53.38 1.15.57 1.76.57z" fill="#cf9e76"/></g><g><path d="m37.87 58.13c1.24.37 2.13 1.51 2.13 2.87 0 .55-.45 1-1 1h-14c-.55 0-1-.45-1-1 0-.83.34-1.58.88-2.12.34-.34.77-.6 1.25-.75.27-.08.57-.13.87-.13h10c.3 0 .6.05.87.13z" fill="#b27946"/></g><g><path d="m14 11h-2c-4 0-6-3-6-6 8 0 8 6 8 6z" fill="#a0d468"/></g><g><path d="m38 2c0 3-2 6-6 6h-2s0-6 8-6z" fill="#a0d468"/></g><g><path d="m26 25-1.5 1.88c-.13.16-.25.32-.35.48l-.01-.01c-.05-.07-.09-.14-.14-.21v-1.14c0-1.42.25-2.81.74-4.12.39-1.1.95-2.13 1.66-3.08l.6-.8.6.8c1.34 1.78 2.15 3.89 2.35 6.1-.24.65-.41 1.33-.51 2.02l-.32 2.21c-.22-.43-.49-.85-.8-1.23z" fill="#a0d468"/></g><g><path d="m24 26v1.14c-.32-.43-.49-.63-.69-.83-.85-.85-1.95-1.42-3.14-1.61l-.11-.02.94-4.68 3.12 1.56.61.31.01.01c-.49 1.31-.74 2.7-.74 4.12z" fill="#a0d468"/></g><g><path d="m22 34v.02c-.8-.69-1.78-1.15-2.83-1.32l-4.17-.7.7 4.17.2.83c-.25.01-.92.05-1.9.23-1.3-1.96-2-4.48-2-6.84v-3.39l.64.18c1.68.48 3.2 1.32 4.49 2.42.29.64.69 1.22 1.18 1.71 1 1 2.33 1.59 3.73 1.68-.03.33-.04.67-.04 1.01z" fill="#a0d468"/></g><g><path d="m22.7 41c-1.06 0-2.03.55-2.57 1.46l-.93 1.54h-1.49c-1.19 0-2.32-.35-3.27-.98-.89-.56-1.61-1.36-2.1-2.34l-1.34-2.68c1.17-.4 2.19-.63 3-.77.98-.18 1.65-.22 1.9-.23.28.87.76 1.66 1.41 2.31 1.08 1.08 2.55 1.69 4.08 1.69z" fill="#a0d468"/></g><g><path d="m28.72 36.93c.83-1.26 1.28-2.74 1.28-4.25 0-.21-.01-.43-.03-.64v-.01l3.03-4.03 2 4 .01.03.01.01c-.18.14-.35.29-.52.46-.98.98-1.68 2.21-2.01 3.56l-.49 1.94h-2.39c-1.01 0-1.94.5-2.5 1.34l-.11.16v-.5z" fill="#a0d468"/></g><g><path d="m40 30-1.94.49c-.89.22-1.74.6-3.04 1.55l-.01-.01-.01-.03.3-.46c1.09-1.63 1.68-3.52 1.7-5.54l.32-.42c1.62-2.17 3.69-3.95 6.06-5.25.2-.12.41-.22.62-.33l.27 1.09c.49 1.93.73 3.92.73 5.91l-.13.4c-.43.25-.83.56-1.18.91-1.08 1.08-1.69 2.55-1.69 4.08v1.66c-.24-.07-.5-.1-.76-.1-.15 0-.3.01-.44.04z" fill="#a0d468"/></g><g><path d="m46.69 32.31c-1.08 1.08-1.69 2.55-1.69 4.08v1.19c-.35.12-.68.31-.97.54h-.01c.21-.87.22-1.02.22-1.17 0-.83-.34-1.57-.88-2.12-.02-.03-.05-.05-1.36-.78v-1.66c0-1.53.61-3 1.69-4.08.35-.35.75-.66 1.18-.91.6-.35 1.27-.59 1.96-.7l4.17-.7-.7 4.17c-.02.16-.05.31-.09.46v.01l-.38.06c-1.19.19-2.29.76-3.14 1.61z" fill="#a0d468"/></g><g><path d="m48.6 38.91c1.16-.2 2.25-.76 3.09-1.6.65-.65 1.13-1.44 1.41-2.31.45.02 2.3.13 4.9 1l-1.34 2.68c-.49.98-1.21 1.78-2.1 2.34-.95.63-2.08.98-3.27.98h-2.75c.29-.47.46-1.02.46-1.59 0-.31-.05-.62-.15-.93-.06-.2-.15-.39-.26-.56z" fill="#a0d468"/></g><g><path d="m22.85 8.38c.1.41.15.83.15 1.25 0 2.52-1.82 4.67-4.31 5.09l-1.69.3v-3.62c0-2.11 1.11-4.06 2.91-5.15l2.09-1.25z" fill="#b4dd7f"/></g><g><path d="m16.66 16.11 1.03.68c.05.1.09.2.12.31l-2.51 1.25c-.86.43-1.8.65-2.75.65-1.63 0-3.2-.65-4.35-1.8l-.2-.2 1.34-.89c1.08-.72 2.36-1.11 3.66-1.11s2.58.39 3.66 1.11z" fill="#b4dd7f"/></g><g><path d="m27.34 13.11c1.08-.72 2.36-1.11 3.66-1.11s2.58.39 3.66 1.11l1.34.89-.2.2c-1.15 1.15-2.72 1.8-4.35 1.8-.95 0-1.89-.22-2.75-.65l-2.51-1.25c.03-.11.07-.21.12-.31z" fill="#b4dd7f"/></g><g><path d="m18 46h4l.2 2-2.4.73c-.53.18-1.09.27-1.64.27-2.58 0-4.97-1.35-6.3-3.56l-.86-1.44s1.64-.82 3.43-.97l.01-.01c.95.63 2.08.98 3.27.98h1.49z" fill="#b4dd7f"/></g><g><path d="m45.9 43.42c.35 0 .7-.05 1.03-.16.69-.23 1.25-.68 1.61-1.26h2.75c1.19 0 2.32-.35 3.27-.98l.01.01c1.79.15 3.43.97 3.43.97l-.86 1.44c-1.33 2.21-3.72 3.56-6.3 3.56-.55 0-1.11-.09-1.64-.27l-2.02-.67c0-.02 0-.04 0-.06 0-.61-.18-1.23-.57-1.76-.23-.33-.52-.6-.85-.82v-.01c.05.01.09.01.14.01z" fill="#b4dd7f"/></g><g><path d="m46.01 37.41c-.31 0-.63.05-.94.15-.02.01-.05.02-.07.02v-1.19c0-1.53.61-3 1.69-4.08.85-.85 1.95-1.42 3.14-1.61l.38-.06 3.79-.64-.7 4.17c-.05.28-.11.56-.2.83-.28.87-.76 1.66-1.41 2.31-.84.84-1.93 1.4-3.09 1.6l-.01.01c-.52-.94-1.52-1.51-2.58-1.51z" fill="#b4dd7f"/></g><g><path d="m38.24 36.95c0 .4.08.8.21 1.17-.31-.25-.65-.44-1.03-.56-.31-.1-.63-.15-.94-.15-.9 0-1.77.42-2.65 1.62l-.33-.2.5-.83h-2l.49-1.94c.33-1.35 1.03-2.58 2.01-3.56.17-.17.34-.32.52-.46 1.3-.95 2.15-1.33 3.04-1.55l1.94-.49.8 3.99c-.65.09-1.24.4-1.68.84-.54.55-.88 1.29-.88 2.12z" fill="#b4dd7f"/></g><g><path d="m33 28-3.03 4.03c-.08-1.01-.37-2-.85-2.9l.32-2.21c.1-.69.27-1.37.51-2.02.62-1.7 1.71-3.22 3.14-4.37l1.91-1.53 1.28 3.2c.47 1.19.72 2.46.72 3.74v.06c-.02 2.02-.61 3.91-1.7 5.54l-.3.46z" fill="#b4dd7f"/></g><g><path d="m24 27.14c.05.07.09.14.14.21l.01.01c-1.21 1.66-1.93 3.6-2.11 5.63-1.4-.09-2.73-.68-3.73-1.68-.49-.49-.89-1.07-1.18-1.71-.2-.45-.35-.93-.43-1.43l-.7-4.17 3.9.65.16.03.11.02c1.19.19 2.29.76 3.14 1.61.2.2.37.4.69.83z" fill="#b4dd7f"/></g><g><path d="m23.34 40.89.16.11h-.8-1.31c-1.53 0-3-.61-4.08-1.69-.65-.65-1.13-1.44-1.41-2.31l-.2-.83-.7-4.17 4.17.7c1.05.17 2.03.63 2.83 1.32v3.98.39c0 1.01.5 1.94 1.34 2.5z" fill="#b4dd7f"/></g><g><path d="m28.72 36.93-1.72 2.07v-.3c0-1.06-.55-2.03-1.46-2.57l-3.54-2.13c0-.34.01-.68.04-1.01.18-2.03.9-3.97 2.11-5.63.1-.16.22-.32.35-.48l1.5-1.88 2.32 2.9c.31.38.58.8.8 1.23.48.9.77 1.89.85 2.9v.01c.02.21.03.43.03.64 0 1.51-.45 2.99-1.28 4.25z" fill="#b4dd7f"/></g><g><path d="m32 38h-2.39c-1.01 0-1.94.5-2.5 1.34l-.11.16v-.5-.3c0-1.06-.55-2.03-1.46-2.57l-3.54-2.13v.02 3.98.39c0 1.01.5 1.94 1.34 2.5l.16.11h-.8c-1.06 0-2.03.55-2.57 1.46l-.93 1.54-1.2 2h4 .39c1.01 0 1.94-.5 2.5-1.34l.11-.16v.8c0 1.06.55 2.03 1.46 2.57l3.54 2.13v-4.39c0-1.01-.5-1.94-1.34-2.5l-.16-.11h.8c1.06 0 2.03-.55 2.57-1.46l1.63-2.71.5-.83z" fill="#fcd770"/></g><g><path d="m28 42c0 .21-.03.41-.09.6-.26.81-1.02 1.4-1.91 1.4-.21 0-.41-.03-.6-.09-.81-.26-1.4-1.02-1.4-1.91 0-.21.03-.41.09-.6.26-.81 1.02-1.4 1.91-1.4.21 0 .41.03.6.09.81.26 1.4 1.02 1.4 1.91z" fill="#ffeaa7"/></g><g><path d="m48.85 39.48c-.06-.2-.15-.39-.26-.56-.52-.94-1.52-1.51-2.58-1.51-.31 0-.63.05-.94.15-.02.01-.05.02-.07.02-.35.12-.68.31-.97.54h-.01c.21-.87.22-1.02.22-1.17 0-.83-.34-1.57-.88-2.12-.02-.03-.05-.05-1.36-.78-.24-.07-.5-.1-.76-.1-.15 0-.3.01-.44.04-.65.09-1.24.4-1.68.84-.54.55-.88 1.29-.88 2.12 0 .4.08.8.21 1.17-.31-.25-.65-.44-1.03-.56-.31-.1-.63-.15-.94-.15-.9 0-1.77.42-2.65 1.62-.08.14-.14.29-.19.45-.1.31-.15.63-.15.94 0 1.26.81 2.43 2.07 2.84.38.13.78.18 1.17.16l.01.01c-.68.57-.77.69-.86.81-.39.53-.58 1.15-.58 1.76 0 .93.43 1.84 1.24 2.43.53.38 1.15.57 1.76.57.93 0 1.84-.43 2.43-1.24.24-.32.41-.68.51-1.06h.01c.1.38.27.74.51 1.06.02.03.04.06.06.08.59.76 1.47 1.16 2.37 1.16.61 0 1.23-.19 1.76-.57.79-.58 1.21-1.46 1.23-2.37 0-.02 0-.04 0-.06 0-.61-.18-1.23-.57-1.76-.23-.33-.52-.6-.85-.82v-.01c.05.01.09.01.14.01.35 0 .7-.05 1.03-.16.69-.23 1.25-.68 1.61-1.26.29-.47.46-1.02.46-1.59 0-.31-.05-.62-.15-.93z" fill="#ff826e"/></g><g><path d="m43.24 41.95c0 .28-.06.55-.17.8-.3.71-1.01 1.2-1.83 1.2-.07 0-.13 0-.19-.01-.87-.08-1.58-.72-1.76-1.56-.03-.14-.05-.28-.05-.43 0-.73.4-1.38.99-1.72.3-.18.64-.28 1.01-.28.52 0 .98.19 1.33.51.41.36.67.9.67 1.49z" fill="#fc6e51"/></g></g><path d="m56 14h1v-2h-1c-1.654 0-3 1.346-3 3s1.346 3 3 3c2.757 0 5-2.243 5-5s-2.243-5-5-5c-3.422 0-6.447 2.181-7.529 5.427l-2.93 8.79c-.088-.459-.185-.917-.298-1.37l-.396-1.587.389-1.037c.506-1.356.764-2.777.764-4.223 0-2.757-2.243-5-5-5-1.654 0-3 1.346-3 3s1.346 3 3 3h1v-2h-1c-.552 0-1-.449-1-1s.448-1 1-1c1.654 0 3 1.346 3 3 0 1.206-.215 2.391-.639 3.521l-.792 2.112c-1.805 1.034-3.443 2.358-4.845 3.896-.129-.579-.295-1.15-.517-1.706l-1.779-4.447-2.96 2.368c-.814.651-1.52 1.404-2.11 2.236-.44-1.353-1.096-2.632-1.959-3.781l-1.399-1.866-.657.876.461-1.689 1.45.725c.988.494 2.094.755 3.198.755 1.883 0 3.727-.764 5.057-2.095l1.061-1.061-2.351-1.567c-1.953-1.301-4.456-1.575-6.654-.85.537-.869 1.162-1.683 1.868-2.428h1.567c4.596 0 7-3.521 7-7v-.999h-1c-7.607 0-8.782 5.054-8.963 6.567-1.951 2.039-3.374 4.539-4.118 7.263l-1.443 5.29-3.2-1.6-.426 2.131-.769-2.821c-.19-.696-.425-1.378-.701-2.041l.477-.085c2.98-.496 5.143-3.049 5.143-6.07 0-.503-.063-1.005-.185-1.492l-1.173-4.694-3.244 1.946c-2.095 1.258-3.398 3.558-3.398 6.003v.357c-.326-.411-.673-.807-1.037-1.187-.182-1.514-1.356-6.567-8.963-6.567h-1v1c0 3.479 2.404 7 7 7h1.567c.706.745 1.331 1.559 1.868 2.427-2.198-.725-4.701-.451-6.654.85l-2.351 1.567 1.061 1.061c1.33 1.331 3.174 2.095 5.057 2.095 1.104 0 2.21-.261 3.198-.755l1.45-.725 1.333 4.888-3.746-.624.752 4.51c-.827-.45-1.702-.81-2.621-1.073l-1.914-.547v4.721c0 2.129.526 4.295 1.457 6.142-.545.135-1.136.302-1.773.514l-1.094.365 1.857 3.714c.238.475.535.904.861 1.303-1.003.3-1.709.649-1.756.672l-.966.483 1.418 2.362c1.499 2.498 4.239 4.05 7.151 4.05.668 0 1.328-.107 1.938-.311l1.234-.377.32 3.2c.204 2.037 1.226 4.025 2.745 5.481-.846.733-1.392 1.802-1.392 3.007 0 1.103.897 2 2 2h14c1.103 0 2-.897 2-2 0-1.204-.546-2.273-1.391-3.007 1.519-1.457 2.541-3.445 2.745-5.481l.284-2.835c.293.123.597.223.92.274.211.033.422.049.633.049.838 0 1.651-.263 2.343-.765.669-.487 1.143-1.143 1.406-1.868l.942.314c.635.212 1.295.319 1.963.319 2.912 0 5.652-1.552 7.15-4.049l1.418-2.363-.966-.483c-.046-.023-.753-.372-1.756-.672.326-.399.623-.827.861-1.303l1.857-3.714-1.094-.365c-1.673-.557-3.051-.818-3.987-.941l.888-5.326-3.771.628.771-4.628-5.556.926c-.066.011-.128.035-.193.048l3.899-11.697c.811-2.43 3.074-4.061 5.634-4.061 1.654 0 3 1.346 3 3s-1.346 3-3 3c-.552 0-1-.449-1-1s.448-1 1-1zm-38-2.603c0-1.746.931-3.389 2.428-4.288l.93-.558.519 2.076c.081.33.123.668.123 1.007 0 2.039-1.46 3.762-3.481 4.099l-.519.092zm20.116 14.781c1.411-1.881 3.202-3.482 5.227-4.681.42 1.731.635 3.509.651 5.29-.357.241-.699.505-1.009.815-.903.903-1.513 2.019-1.798 3.233l-.412-2.059-2.96.739c-.158.04-.308.102-.463.15.378-1.06.592-2.174.633-3.312zm6.405 13.163c.12-.181.225-.369.316-.563.169-.111.348-.206.544-.27.507-.165 1.05-.122 1.525.12.477.243.829.656.994 1.164s.122 1.05-.12 1.526c-.243.476-.656.829-1.165.994-.435.142-.895.15-1.333.027l-1.048-.294c.001-.03.009-.059.009-.089 0-.565-.166-1.088-.439-1.54zm-19.241-11.84.72-.9 1.543 1.928c.939 1.174 1.457 2.65 1.457 4.155 0 1.3-.377 2.561-1.09 3.647l-.394.476c-.143-.265-.317-.512-.516-.74v-4.067h-2v2.633l-1.976-1.186c.116-2.159.901-4.253 2.256-5.946zm14.849 18.495c.009.217.034.431.075.642-.072.19-.16.373-.28.538-.649.893-1.903 1.09-2.794.442-.433-.314-.717-.777-.8-1.305-.084-.527.043-1.056.357-1.489.268-.369.635-.647 1.063-.806l1.016-.376c.323.473.777.85 1.311 1.076zm-14.129-2.996c-.552 0-1-.449-1-1s.448-1 1-1 1 .449 1 1-.448 1-1 1zm-.971-6.017c.599.36.971 1.017.971 1.716v.301c-.873 0-1.653.381-2.202.979-.497-.377-.798-.956-.798-1.584v-2.628zm.971 8.017c.873 0 1.653-.381 2.202-.979.497.377.798.956.798 1.584v2.628l-2.029-1.217c-.599-.359-.971-1.016-.971-1.715zm3.302-3h-.302c0-.873-.381-1.653-.979-2.202.378-.497.956-.798 1.584-.798h2.628l-1.217 2.029c-.359.599-1.016.971-1.714.971zm5.285-2.208c.165-.508.518-.921.994-1.164.476-.242 1.018-.285 1.526-.12.433.14.812.404 1.094.762l.679.859c-.342.441-.558.977-.609 1.564l-1.215.449c-.204.076-.4.166-.587.27-.201-.01-.404-.037-.598-.101-.508-.165-.921-.518-1.164-.994-.243-.475-.286-1.017-.12-1.525zm2.702-3.282c-.885-.183-1.799-.08-2.616.336-.086.044-.159.105-.242.154h-1.151l.175-.699c.293-1.171.899-2.241 1.752-3.094.854-.853 1.923-1.459 3.093-1.751l.926-.231.414 2.072c-1.277.561-2.189 1.773-2.351 3.213zm-5.773-.695-.296 1.185h-1.4c.759-1.314 1.18-2.789 1.18-4.316 0-.111-.01-.221-.014-.331l1.843-2.458.954 1.909c-1.103 1.107-1.888 2.494-2.267 4.011zm-12.505-2.133c.722.121 1.398.413 1.989.836v1.613l-1.445-.964-1.109 1.664 2.564 1.709c.019.509.133 1 .331 1.454-1.256-.013-2.435-.504-3.325-1.394-.708-.707-1.169-1.603-1.334-2.591l-.465-2.794zm1.972 9.289c.36-.599 1.017-.971 1.715-.971h.302c0 .873.381 1.653.979 2.202-.378.497-.956.798-1.584.798h-2.628zm2.654 9.342-.539-5.382c.391-.07.767-.193 1.116-.372.299.894.902 1.676 1.728 2.173l5.058 3.034v-6.161c0-.644-.157-1.264-.441-1.819.895-.299 1.677-.902 2.172-1.728l.077-.128c.041.098.067.2.116.295.417.818 1.095 1.437 1.919 1.809-.447.786-.631 1.685-.488 2.591.167 1.056.735 1.982 1.6 2.61.708.515 1.53.763 2.346.763.848 0 1.678-.288 2.375-.803l-.312 3.117c-.023.23-.062.459-.111.687h-16.505c-.05-.227-.088-.456-.111-.686zm17.607-9.358c-.552 0-1-.449-1-1s.448-1 1-1 1 .449 1 1-.448 1-1 1zm1.613-4.723-.606.909c-.316-.114-.652-.186-1.007-.186-.233 0-.458.033-.676.084l-.797-1.008c-.134-.17-.281-.328-.437-.474-.053-.196-.089-.396-.089-.601 0-1.103.897-2 2-2s2 .897 2 2c-.001.454-.135.896-.388 1.276zm-9.139-16.925.854-.684.777 1.943c.432 1.079.65 2.215.65 3.377 0 1.389-.321 2.74-.923 3.975l-1.906-3.813-2.704 3.606c-.092-.25-.196-.495-.31-.736l.273-1.913c.326-2.276 1.494-4.32 3.289-5.755zm-4.795 3.492c-.189.557-.326 1.134-.425 1.723l-2.498-3.123-.892 1.115c.239-1.733.885-3.404 1.892-4.838 1.067 1.517 1.721 3.279 1.923 5.123zm5.186-10.858.243.163c-1.504 1.02-3.567 1.17-5.204.352l-1.158-.579c1.837-1.17 4.306-1.145 6.119.064zm2.792-10.898c-.39 2.058-1.961 3.957-4.901 3.957h-.846c.367-1.35 1.6-3.616 5.747-3.957zm-13.372 19.34c-.231.796-.393 1.611-.469 2.437-.561-.387-1.173-.687-1.826-.889l.49-2.45zm-11.529-12.383c-2.941 0-4.511-1.899-4.902-3.957 4.158.337 5.387 2.589 5.751 3.957zm2.852 7.456c-1.637.818-3.701.668-5.204-.352l.243-.163c1.814-1.209 4.282-1.234 6.119-.064zm5.159 8.226c.986.165 1.883.625 2.591 1.334.117.117.205.261.309.39-.85 1.355-1.438 2.863-1.717 4.436-.818-.213-1.572-.635-2.178-1.241-.708-.707-1.169-1.603-1.334-2.591l-.465-2.793zm-7.011 4.713v-2.048c1.218.429 2.333 1.07 3.333 1.9.188.378.415.736.673 1.074l-3.223-.537.888 5.326c-.051.007-.112.017-.165.024-.959-1.665-1.506-3.719-1.506-5.739zm2.253 7.66c.332.721.776 1.388 1.349 1.961.802.802 1.77 1.378 2.826 1.696-.054.076-.111.149-.159.23l-.635 1.058h-.926c-1.905 0-3.619-1.059-4.472-2.764l-.813-1.625c1.234-.339 2.211-.489 2.83-.556zm4.231 9.729c-.429.143-.877.216-1.329.216-2.214 0-4.297-1.179-5.436-3.078l-.262-.436c.487-.168 1.108-.338 1.758-.425.967.557 2.068.878 3.229.921l-1.211 2.018h4.862l.028.283zm5.516 13.216c0-1.103.897-2 2-2h10c1.103 0 2 .897 2.001 2zm12-4h-10c-.214 0-.421.031-.626.063-.74-.559-1.368-1.266-1.835-2.063h14.923c-.467.797-1.094 1.505-1.834 2.063-.207-.032-.413-.063-.628-.063zm8.358-9.382c-.432.313-.961.443-1.488.357-.528-.083-.991-.368-1.306-.8-.268-.368-.419-.804-.438-1.26l-.044-1.094c.557-.164 1.043-.479 1.414-.906l1.245.35c.208.058.419.098.631.124.16.128.308.27.429.436.648.891.45 2.144-.443 2.793zm10.922-4.696c-1.138 1.899-3.221 3.078-5.435 3.078-.452 0-.899-.073-1.329-.216l-1.408-.469c-.076-.443-.232-.873-.464-1.28.538-.243 1.01-.59 1.389-1.035h2.258c1.259 0 2.452-.34 3.492-.939.65.087 1.271.257 1.758.425zm-.516-4.686c-.853 1.705-2.567 2.764-4.472 2.764h-1.352c.07-.466.055-.938-.043-1.406.935-.335 1.788-.865 2.502-1.578.573-.573 1.017-1.24 1.349-1.961.618.067 1.595.217 2.829.556zm-3.446-4.226c-.165.988-.626 1.884-1.334 2.591-.556.556-1.231.952-1.972 1.18-.332-.38-.734-.699-1.197-.935-.572-.291-1.192-.42-1.815-.419v-.034c0-1.275.497-2.475 1.398-3.376.708-.708 1.604-1.169 2.591-1.334l2.794-.466zm-5.329-6.328 2.794-.466-.427 2.568c-1.278.274-2.442.887-3.372 1.817-.795.795-1.367 1.753-1.688 2.799-.357-.425-.794-.775-1.297-1.022v-.986c0-1.275.497-2.475 1.398-3.376.709-.708 1.606-1.169 2.592-1.334z"/></g></svg>